M48
; DRILL file {KiCad 5.1.4-e60b266~84~ubuntu18.04.1} date 23.05.2025 (пт)  9:23:02 EEST
; FORMAT={-:-/ absolute / metric / decimal}
; #@! TF.CreationDate,2025-05-23T09:23:02+03:00
; #@! TF.GenerationSoftware,Kicad,Pcbnew,5.1.4-e60b266~84~ubuntu18.04.1
; #@! TF.FileFunction,Plated,1,6,PTH
FMAT,2
METRIC
T1C0.200
T2C0.254
T3C0.300
T4C0.400
T5C0.500
T6C0.600
T7C0.800
T8C0.900
T9C1.000
T10C1.100
T11C1.200
T12C1.500
T13C3.300
%
G90
G05
T1
X11.379Y28.118
X14.744Y27.8
X15.316Y18.339
X15.697Y18.72
X16.459Y17.323
X16.713Y17.767
X17.475Y20.752
X17.475Y20.244
X18.063Y1.956
X19.253Y2.337
X19.253Y1.765
X19.825Y2.337
X19.888Y36.5
X20.396Y2.337
X21.706Y5.118
X22.374Y5.131
X23.047Y3.861
X23.317Y7.083
X23.38Y3.416
X23.825Y7.083
X23.941Y5.31
X23.952Y3.416
X24.45Y5.034
X24.587Y40.818
X24.587Y4.496
X24.587Y2.972
X25.031Y3.226
X25.41Y4.639
X25.857Y34.214
X25.934Y4.639
X25.943Y5.178
X26.301Y3.48
X26.642Y4.672
X26.666Y5.182
X27.063Y3.75
X29.032Y3.924
X29.032Y4.496
X29.413Y46.343
X29.54Y57.709
X29.587Y4.496
X29.604Y3.924
X29.667Y49.835
X29.667Y49.327
X29.667Y47.358
X29.794Y46.724
X30.02Y7.337
X30.048Y47.697
X30.175Y48.819
X30.175Y48.311
X30.81Y47.93
X30.81Y47.422
X31.508Y3.48
X33.731Y37.262
X34.239Y37.262
X34.7Y51.35
X34.747Y37.262
X34.747Y36.754
X35.182Y4.432
X35.242Y5.002
X35.765Y4.815
X36.017Y37.643
X36.072Y4.17
X36.081Y5.258
X36.429Y4.773
X36.525Y37.643
X36.843Y4.425
X36.997Y3.758
X37.16Y4.941
X37.287Y37.262
X37.287Y36.754
X37.287Y36.246
X37.475Y26.875
X37.475Y25.575
X37.475Y24.925
X37.475Y22.325
X37.475Y20.375
X37.664Y3.525
X37.699Y4.969
X38.125Y35.325
X38.125Y34.675
X38.125Y30.125
X38.125Y28.175
X38.125Y26.875
X38.125Y26.225
X38.125Y25.575
X38.125Y24.925
X38.125Y24.275
X38.125Y23.625
X38.125Y22.975
X38.125Y22.325
X38.128Y32.728
X38.43Y4.385
X38.476Y3.542
X38.732Y48.342
X38.747Y49.136
X38.747Y47.803
X38.747Y46.66
X38.75Y47.25
X38.775Y34.675
X38.775Y34.025
X38.775Y33.375
X38.775Y32.725
X38.775Y32.075
X38.775Y31.425
X38.775Y30.125
X38.775Y28.825
X38.775Y28.175
X38.775Y26.875
X38.775Y26.225
X38.775Y24.925
X38.775Y23.625
X38.775Y22.975
X38.775Y22.325
X38.775Y21.675
X38.938Y3.797
X39.425Y34.025
X39.425Y33.375
X39.425Y32.725
X39.425Y31.425
X39.425Y30.775
X39.425Y26.875
X39.425Y26.225
X39.425Y25.575
X39.425Y24.925
X39.425Y24.275
X39.425Y21.675
X39.51Y3.797
X39.642Y43.784
X40.075Y34.025
X40.075Y33.375
X40.075Y32.075
X40.075Y31.425
X40.075Y30.775
X40.075Y28.825
X40.075Y28.175
X40.075Y26.875
X40.075Y26.225
X40.075Y25.575
X40.075Y24.925
X40.075Y24.275
X40.075Y23.625
X40.075Y22.975
X40.075Y22.325
X40.081Y3.875
X40.208Y44.188
X40.25Y45.5
X40.716Y49.327
X40.725Y34.025
X40.725Y33.375
X40.725Y32.725
X40.725Y32.075
X40.725Y30.775
X40.748Y44.188
X40.75Y48.75
X40.75Y48.184
X41.097Y45.39
X41.375Y30.775
X41.375Y30.125
X41.375Y29.475
X41.375Y27.525
X41.375Y25.575
X41.375Y24.275
X41.375Y23.625
X41.375Y22.975
X41.375Y22.325
X41.375Y21.675
X41.375Y21.025
X41.375Y20.375
X41.377Y43.041
X41.526Y6.159
X41.669Y47.75
X41.684Y48.752
X41.732Y51.2
X42.025Y34.025
X42.025Y33.375
X42.025Y32.725
X42.025Y32.075
X42.025Y30.125
X42.025Y29.475
X42.025Y28.825
X42.025Y28.175
X42.025Y26.225
X42.025Y25.575
X42.025Y24.275
X42.025Y23.625
X42.025Y22.975
X42.025Y22.325
X42.025Y21.675
X42.025Y21.025
X42.025Y20.375
X42.053Y42.338
X42.083Y6.115
X42.24Y51.2
X42.24Y47.75
X42.25Y49.962
X42.25Y48.75
X42.675Y34.025
X42.675Y33.375
X42.675Y32.725
X42.675Y30.775
X42.675Y28.825
X42.675Y28.175
X42.675Y27.525
X42.675Y24.925
X42.748Y53.518
X42.748Y50.343
X42.748Y47.75
X42.75Y51.2
X42.75Y49.75
X43.25Y48.75
X43.325Y33.375
X43.325Y32.725
X43.325Y30.775
X43.325Y29.475
X43.325Y28.825
X43.325Y28.175
X43.325Y27.525
X43.325Y25.575
X43.325Y24.925
X43.325Y22.975
X43.325Y22.325
X43.325Y21.675
X43.325Y21.025
X43.325Y20.375
X43.383Y19.228
X43.445Y42.785
X43.586Y51.232
X43.748Y47.75
X43.973Y35.325
X43.973Y34.675
X43.973Y34.025
X43.975Y33.375
X43.975Y32.725
X43.975Y28.825
X43.975Y28.175
X43.975Y25.575
X43.975Y24.925
X43.975Y24.275
X43.975Y23.625
X43.975Y22.975
X43.975Y22.325
X43.975Y21.675
X43.975Y21.025
X43.975Y20.375
X43.984Y32.055
X44.196Y51.232
X44.247Y49.708
X44.25Y48.768
X44.25Y48.25
X44.415Y47.614
X44.625Y30.775
X44.625Y30.125
X44.625Y29.475
X44.625Y28.825
X44.625Y28.175
X44.625Y22.975
X44.625Y22.325
X45.27Y34.676
X45.273Y33.357
X45.275Y34.029
X45.275Y32.71
X45.275Y32.063
X45.275Y30.775
X45.275Y30.125
X45.275Y29.475
X45.275Y28.825
X45.275Y28.175
X45.275Y25.575
X45.275Y24.925
X45.275Y24.275
X45.275Y23.625
X45.275Y22.975
X45.275Y22.325
X45.542Y12.005
X45.906Y12.465
X45.917Y35.325
X45.917Y34.675
X45.925Y34.025
X45.925Y33.375
X45.925Y32.725
X45.925Y30.775
X45.925Y30.125
X45.925Y29.475
X45.925Y28.825
X45.925Y28.175
X45.925Y25.575
X45.925Y23.625
X45.925Y22.975
X45.928Y36.323
X46.113Y11.989
X46.35Y48.25
X46.503Y10.322
X46.575Y34.675
X46.575Y34.025
X46.575Y33.375
X46.575Y32.725
X46.575Y30.775
X46.575Y30.125
X46.575Y29.475
X46.575Y28.825
X46.575Y28.175
X46.575Y22.975
X46.575Y21.675
X46.621Y12.497
X46.8Y47.25
X47.2Y46.75
X47.225Y35.325
X47.225Y34.675
X47.225Y34.025
X47.225Y33.375
X47.225Y32.725
X47.225Y31.425
X47.225Y30.775
X47.225Y30.125
X47.225Y29.475
X47.225Y28.825
X47.225Y28.175
X47.225Y24.275
X47.225Y23.625
X47.225Y22.975
X47.225Y22.325
X47.629Y53.471
X47.875Y30.125
X47.875Y29.475
X47.875Y28.175
X47.875Y24.275
X47.875Y22.975
X47.875Y21.675
X47.891Y11.671
X47.9Y48.75
X47.9Y47.75
X48.525Y33.375
X48.525Y32.725
X48.525Y30.125
X48.525Y27.525
X48.525Y26.875
X48.525Y26.225
X48.525Y25.575
X48.525Y24.925
X48.525Y24.275
X48.525Y22.975
X49.175Y32.725
X49.175Y32.075
X49.175Y28.825
X49.175Y26.875
X49.175Y26.225
X49.175Y25.575
X49.175Y23.625
X49.175Y22.975
X49.175Y22.325
X49.175Y21.675
X49.175Y21.025
X49.178Y34.025
X49.825Y34.025
X49.825Y33.375
X49.825Y32.725
X49.825Y32.075
X49.825Y31.425
X49.825Y30.775
X49.825Y28.825
X49.825Y26.875
X49.825Y26.225
X49.825Y24.925
X49.825Y24.275
X49.825Y22.975
X49.825Y22.325
X49.825Y21.675
X49.86Y15.291
X50.304Y51.867
X50.475Y34.025
X50.475Y33.375
X50.475Y32.725
X50.475Y31.425
X50.475Y30.775
X50.475Y29.475
X50.475Y28.825
X50.475Y26.875
X50.475Y26.225
X50.475Y25.575
X50.475Y24.275
X50.475Y23.625
X50.475Y22.325
X50.475Y21.675
X50.475Y21.025
X50.558Y51.041
X51.125Y34.675
X51.125Y34.025
X51.125Y33.375
X51.125Y32.725
X51.125Y32.075
X51.125Y31.425
X51.125Y30.775
X51.125Y29.475
X51.125Y28.825
X51.125Y26.875
X51.125Y25.575
X51.125Y24.925
X51.125Y23.625
X51.125Y22.975
X51.125Y21.675
X51.125Y21.025
X51.761Y26.232
X51.775Y35.325
X51.775Y34.675
X51.775Y34.025
X51.775Y33.375
X51.775Y23.625
X51.775Y22.975
X51.775Y21.675
X51.775Y21.025
X51.892Y36.5
X52.019Y8.941
X52.146Y54.978
X52.146Y48.184
X52.146Y8.433
X52.354Y24.187
X52.4Y3.353
X52.421Y25.955
X52.425Y34.675
X52.425Y34.025
X52.425Y33.375
X52.425Y23.54
X52.427Y22.893
X53.67Y31.928
X54.153Y27.701
X54.241Y31.928
X54.432Y25.387
X54.552Y24.301
X54.686Y14.529
X54.813Y49.581
X54.95Y25.578
X55.067Y55.677
X55.072Y5.274
X55.187Y28.252
X55.492Y26.547
X55.575Y55.677
X55.702Y24.435
X55.829Y30.848
X55.829Y49.581
X55.829Y49.073
X55.829Y48.565
X55.829Y36.055
X55.829Y35.484
X55.829Y34.913
X55.829Y34.341
X55.829Y33.79
X55.934Y25.929
X56.083Y55.677
X56.083Y54.153
X56.193Y30.382
X56.211Y24.432
X56.337Y38.786
X56.337Y38.278
X56.517Y31.019
X56.718Y52.248
X56.718Y51.74
X56.718Y51.232
X56.743Y24.38
X56.845Y38.786
X57.099Y49.454
X57.34Y30.466
X57.353Y38.786
X57.861Y38.786
X58.04Y31.062
X58.932Y32.293
X59.105Y31.327
X59.511Y15.164
X59.512Y15.672
X59.512Y13.751
X59.71Y33.142
X59.764Y32.475
X59.795Y31.072
X60.02Y59.106
X60.147Y53.391
X60.655Y53.391
X61.163Y53.391
X61.607Y27.279
X61.847Y32.944
X61.909Y32.245
X61.925Y31.737
X61.936Y31.173
X61.988Y30.658
X62.687Y27.293
X62.864Y56.489
X63.082Y28.005
X63.386Y56.439
X63.576Y28.118
X63.576Y27.61
X63.83Y56.693
X63.83Y56.058
X64.052Y28.375
X64.592Y56.693
X64.719Y55.931
X64.719Y20.816
X65.481Y57.201
X65.728Y52.899
X65.862Y52.121
X66.116Y52.566
X66.37Y50.851
X66.37Y48.565
X66.497Y57.201
X66.878Y48.946
X67.005Y56.82
X67.005Y48.311
X67.005Y10.592
X67.132Y56.312
X67.513Y10.592
X67.513Y3.734
X67.608Y49.105
X67.64Y49.835
X67.894Y27.356
X67.894Y10.227
X69.037Y37.262
X69.545Y48.311
X69.672Y51.359
X69.672Y10.973
X69.799Y50.089
X69.799Y44.628
X70.18Y49.708
X70.18Y48.819
X70.18Y48.311
X70.307Y46.787
X70.567Y45.003
X70.688Y11.354
X70.688Y10.846
X70.942Y48.311
X70.948Y45.384
X71.069Y15.799
X71.196Y49.708
X71.323Y45.755
X71.577Y49.073
X71.577Y15.545
X72.085Y15.418
X72.593Y16.561
X72.847Y49.835
X72.974Y46.533
X73.431Y41.021
X73.482Y52.375
X73.99Y52.375
X77.038Y51.359
X77.038Y50.851
X82.88Y38.151
T2
X42.675Y26.875
X42.675Y26.225
X43.325Y26.875
X43.325Y26.225
X43.975Y27.525
X43.975Y26.875
X43.975Y26.225
X44.625Y27.525
X44.625Y26.875
X44.625Y26.225
X45.275Y27.525
X45.275Y26.875
X45.275Y26.225
X45.925Y27.525
X45.925Y26.875
X45.925Y26.225
X46.575Y27.525
X46.575Y26.875
X46.575Y26.225
X46.575Y25.575
X46.575Y24.925
X47.225Y27.525
X47.225Y26.875
X47.225Y26.225
X47.225Y25.575
X47.225Y24.925
X47.875Y27.525
X47.875Y26.875
X47.875Y26.225
X47.875Y25.575
X47.875Y24.925
T3
X0.838Y16.815
X7.188Y56.693
X7.188Y56.058
X7.188Y53.772
X7.188Y50.724
X7.569Y49.2
X9.982Y29.769
X10.49Y24.435
X11.252Y25.451
X11.379Y26.086
X11.506Y54.026
X11.506Y51.105
X11.506Y48.184
X11.569Y53.073
X11.893Y11.282
X12.0Y6.288
X13.03Y26.594
X13.03Y24.689
X13.03Y16.053
X13.03Y15.418
X13.03Y14.402
X13.03Y13.767
X13.03Y16.878
X13.157Y12.878
X13.792Y54.026
X13.792Y52.883
X13.792Y51.105
X13.792Y48.184
X14.046Y55.296
X14.046Y54.661
X15.189Y53.518
X15.443Y25.578
X16.078Y25.578
X16.459Y23.038
X16.459Y22.403
X16.967Y35.484
X18.357Y15.792
X18.364Y16.434
X18.364Y15.164
X18.561Y9.9
X19.126Y10.846
X19.2Y19.8
X19.2Y17.6
X19.2Y16.9
X19.38Y25.578
X19.497Y9.713
X19.9Y15.3
X20.142Y9.703
X20.6Y29.0
X20.6Y28.2
X20.6Y25.0
X20.6Y24.2
X20.6Y23.4
X20.6Y20.4
X21.1Y32.5
X21.4Y30.6
X21.4Y29.8
X21.4Y29.0
X21.4Y25.8
X21.4Y25.0
X21.4Y24.2
X21.4Y23.4
X21.885Y32.563
X22.2Y30.6
X22.2Y28.2
X22.2Y26.2
X22.2Y25.0
X22.2Y24.2
X22.2Y23.4
X22.428Y21.387
X22.5Y22.1
X22.6Y15.8
X22.6Y14.2
X22.6Y11.0
X22.6Y9.4
X22.809Y51.486
X23.0Y30.6
X23.0Y29.8
X23.0Y29.0
X23.0Y28.2
X23.4Y19.7
X23.4Y16.6
X23.4Y15.8
X23.4Y14.2
X23.4Y11.8
X23.4Y11.0
X23.4Y9.4
X23.444Y32.563
X23.8Y30.6
X23.8Y29.0
X23.8Y25.0
X23.8Y24.2
X23.8Y23.4
X23.825Y51.486
X24.2Y19.4
X24.2Y16.6
X24.2Y15.8
X24.2Y15.0
X24.2Y14.2
X24.2Y11.8
X24.2Y11.0
X24.2Y9.4
X24.6Y30.6
X24.6Y29.8
X24.6Y29.0
X24.714Y50.597
X24.968Y41.39
X25.0Y16.6
X25.0Y15.0
X25.0Y11.0
X25.222Y34.341
X25.222Y21.387
X25.286Y9.322
X25.349Y32.563
X25.4Y30.6
X25.4Y29.8
X25.4Y29.0
X25.8Y16.6
X25.8Y15.8
X25.8Y15.0
X25.8Y14.2
X25.8Y11.0
X25.8Y10.2
X25.857Y9.068
X26.2Y30.6
X26.2Y29.8
X26.2Y29.0
X26.2Y25.0
X26.2Y24.2
X26.365Y48.946
X26.6Y15.0
X26.6Y14.2
X26.6Y11.0
X26.6Y10.2
X26.69Y9.368
X27.0Y30.6
X27.0Y29.8
X27.0Y29.0
X27.254Y32.563
X27.3Y26.8
X27.4Y31.1
X27.4Y23.2
X27.4Y16.6
X27.4Y15.8
X27.4Y15.0
X27.4Y14.2
X27.4Y11.0
X27.889Y26.975
X28.2Y30.8
X28.2Y23.2
X28.2Y16.6
X28.2Y15.8
X28.2Y15.0
X28.2Y11.0
X28.2Y10.2
X28.524Y9.195
X28.6Y25.8
X28.6Y25.0
X28.651Y13.157
X29.0Y30.8
X29.0Y23.2
X29.0Y11.0
X29.0Y10.2
X29.286Y13.157
X29.4Y29.8
X29.54Y9.322
X29.8Y30.8
X29.8Y15.0
X29.8Y14.2
X29.8Y11.0
X30.175Y9.322
X30.2Y25.8
X30.2Y25.0
X30.2Y24.2
X30.302Y50.851
X30.556Y13.195
X30.6Y15.8
X30.6Y15.0
X30.6Y11.8
X30.6Y11.0
X30.6Y10.2
X31.0Y30.6
X31.0Y29.8
X31.0Y28.2
X31.0Y25.0
X31.0Y24.2
X31.0Y23.4
X31.0Y9.322
X31.052Y13.573
X31.4Y15.8
X31.4Y15.0
X31.4Y11.8
X31.4Y11.0
X31.4Y10.2
X31.699Y9.322
X31.8Y30.6
X31.8Y29.8
X31.8Y29.0
X31.8Y28.2
X31.8Y25.8
X31.8Y25.0
X31.8Y24.2
X31.8Y23.4
X32.08Y35.738
X32.2Y15.8
X32.2Y15.0
X32.2Y14.2
X32.2Y10.2
X32.334Y9.322
X32.588Y35.103
X32.588Y34.468
X32.6Y30.6
X32.6Y29.8
X32.6Y29.0
X32.6Y28.2
X32.6Y25.8
X32.6Y25.0
X32.6Y24.2
X32.6Y23.4
X33.0Y15.8
X33.0Y15.0
X33.0Y10.2
X33.0Y9.4
X33.4Y29.8
X33.4Y24.2
X33.8Y15.8
X33.8Y9.4
X34.49Y9.51
X34.6Y15.8
X34.6Y15.0
X34.6Y14.2
X34.62Y26.975
X35.355Y15.851
X35.636Y34.595
X35.841Y9.4
X35.9Y10.5
X36.511Y9.4
X42.938Y6.083
X43.002Y2.083
X43.002Y0.686
X43.383Y6.528
X43.637Y2.464
X43.637Y0.686
X43.828Y6.972
X44.083Y8.117
X44.221Y7.48
X44.272Y0.686
X44.843Y7.544
X45.161Y8.128
X45.923Y42.088
X46.113Y44.564
X47.574Y55.486
X48.209Y55.486
X48.336Y42.469
X48.336Y41.834
X49.86Y50.216
X49.869Y49.55
X50.114Y41.834
X50.114Y41.199
X51.892Y35.928
X53.568Y49.81
X54.813Y51.105
X56.337Y8.941
X57.353Y1.956
X57.48Y0.94
X59.385Y1.321
X59.385Y0.686
X59.639Y13.132
X59.703Y18.72
X60.02Y14.91
X60.02Y14.275
X60.274Y13.132
X60.274Y12.37
X60.274Y11.735
X60.528Y18.72
X60.655Y14.91
X60.655Y14.275
X60.782Y19.355
X61.163Y37.453
X61.163Y10.973
X61.226Y38.087
X61.29Y3.886
X61.29Y3.277
X61.544Y10.465
X61.671Y36.5
X61.671Y11.481
X61.988Y20.244
X61.988Y10.909
X62.052Y19.609
X62.052Y18.986
X62.312Y29.268
X62.623Y20.244
X62.941Y21.412
X62.941Y20.777
X63.196Y29.275
X63.576Y21.514
X63.576Y20.879
X63.703Y37.135
X63.929Y32.436
X63.957Y30.404
X64.084Y34.468
X64.211Y43.104
X64.211Y21.197
X64.338Y37.135
X64.408Y29.896
X64.719Y20.244
X64.768Y21.578
X64.846Y43.104
X65.354Y37.389
X65.354Y10.338
X66.624Y28.118
X66.878Y39.358
X67.259Y35.484
X67.386Y21.006
X67.513Y51.486
X67.513Y50.851
X67.646Y21.586
X67.767Y41.834
X67.767Y28.245
X68.402Y29.896
X68.402Y10.465
X68.465Y9.766
X68.91Y21.641
X68.91Y21.006
X69.037Y28.245
X69.037Y10.465
X69.545Y21.641
X69.545Y21.006
X70.053Y19.609
X70.053Y18.974
X70.18Y21.641
X70.18Y21.006
X70.307Y20.244
X70.688Y19.609
X70.688Y18.974
X71.45Y33.833
X71.45Y31.42
X71.45Y29.896
X71.831Y27.229
X71.831Y26.467
X71.958Y25.197
X71.958Y16.561
X72.085Y33.833
X73.99Y56.566
X74.117Y45.136
X74.117Y44.501
X74.625Y56.566
X74.752Y50.343
X74.752Y46.279
X74.752Y45.581
X74.752Y44.882
X75.197Y10.719
X75.387Y56.566
X75.387Y50.343
X75.387Y11.417
X76.022Y56.566
X76.022Y46.279
X76.022Y45.517
X78.689Y43.866
X78.689Y43.231
X79.07Y46.469
X79.07Y45.771
X79.43Y54.454
X79.451Y9.322
X79.641Y11.1
X79.705Y41.961
X79.705Y41.326
X79.832Y42.596
X79.959Y54.026
X80.34Y11.1
X80.594Y54.026
X80.721Y54.915
X80.975Y6.02
X82.626Y44.374
X82.753Y56.566
X82.753Y54.026
X83.007Y42.977
X83.007Y42.342
X83.515Y54.407
X84.023Y53.645
X84.404Y56.566
X84.912Y37.516
X85.039Y56.185
X85.039Y54.407
X85.674Y56.566
X85.674Y55.55
X85.801Y48.946
X85.928Y52.375
X86.182Y56.185
X86.309Y44.12
X86.436Y54.407
X86.436Y36.881
X86.69Y56.566
X86.69Y55.55
X87.198Y56.185
X87.706Y56.566
X87.706Y55.55
X88.087Y51.232
X88.189Y56.185
X88.214Y50.089
X88.595Y55.55
X88.658Y56.566
X89.23Y17.323
X89.357Y56.566
X89.357Y55.931
X89.357Y55.296
X89.357Y54.661
X63.662Y16.154
X63.662Y14.554
X64.362Y16.154
X64.362Y14.554
X65.062Y17.555
X65.062Y16.854
X65.062Y16.154
X65.062Y14.554
X65.062Y13.854
X65.062Y13.154
X66.662Y17.555
X66.662Y16.854
X66.662Y16.154
X66.662Y14.554
X66.662Y13.854
X66.662Y13.154
X67.362Y16.154
X67.362Y14.554
X68.062Y16.154
X68.062Y14.554
T4
X10.109Y26.467
X11.125Y29.896
X12.268Y29.896
X12.649Y28.245
X47.9Y51.359
X69.672Y7.838
X69.672Y7.099
X70.434Y7.838
T5
X12.903Y18.212
X12.915Y12.128
X14.3Y30.023
X42.859Y41.313
X46.558Y41.707
X59.766Y16.307
X60.655Y16.307
X70.815Y14.529
X70.815Y13.64
X71.069Y12.751
X71.704Y14.529
X71.704Y13.64
X71.958Y12.751
X72.593Y52.375
X75.387Y52.121
T6
X0.838Y18.974
X1.092Y58.979
X1.092Y57.328
X1.092Y55.677
X1.092Y53.899
X1.092Y51.994
X1.092Y50.216
X1.092Y48.438
X1.092Y23.673
X1.092Y5.639
X1.092Y3.226
X1.092Y0.94
X2.108Y23.673
X2.235Y2.083
X2.362Y5.639
X2.362Y4.496
X2.489Y48.692
X4.14Y53.391
X5.156Y53.391
X6.045Y57.582
X6.172Y55.486
X6.172Y54.407
X6.172Y53.391
X6.807Y49.962
X6.807Y48.057
X7.188Y10.338
X7.188Y8.814
X7.569Y19.99
X7.569Y18.847
X10.744Y5.512
X13.538Y44.12
X14.681Y44.12
X18.364Y51.74
X19.888Y11.227
X20.142Y51.74
X21.793Y51.74
X21.912Y43.731
X22.555Y41.072
X23.571Y41.072
X26.746Y34.595
X27.572Y41.072
X27.572Y40.056
X27.889Y34.595
X27.952Y53.137
X28.524Y40.056
X28.905Y53.137
X29.794Y32.817
X29.857Y55.423
X29.857Y53.137
X30.8Y19.8
X30.81Y55.423
X37.922Y8.992
X39.336Y9.102
X47.447Y41.707
X48.971Y16.18
X48.971Y15.164
X49.733Y19.736
X49.733Y18.72
X49.86Y54.667
X50.495Y46.66
X50.749Y19.73
X50.749Y18.72
X51.003Y44.12
X51.759Y39.358
X52.4Y7.29
X53.162Y6.528
X53.797Y43.993
X55.829Y15.291
X55.829Y13.259
X55.956Y20.816
X56.004Y25.121
X56.21Y10.592
X56.839Y20.434
X56.916Y25.128
X57.226Y10.592
X57.607Y56.566
X60.084Y55.042
X61.163Y55.048
X61.29Y23.165
X62.306Y53.258
X63.322Y53.258
X63.576Y40.402
X63.703Y41.58
X63.703Y9.83
X64.465Y10.338
X66.751Y25.324
X66.796Y26.34
X67.132Y45.263
X68.783Y56.058
X69.672Y55.423
X70.059Y37.643
X70.942Y18.085
X71.831Y11.735
X71.958Y18.085
X72.085Y24.181
X72.212Y55.423
X72.72Y35.738
X74.503Y39.416
X75.768Y13.894
X76.784Y13.894
X76.784Y7.798
X76.911Y36.5
X77.927Y36.5
X78.689Y51.105
X81.61Y45.009
X81.737Y50.343
X82.753Y50.343
X83.007Y52.629
X83.261Y40.691
X83.642Y44.882
X84.277Y40.691
X84.658Y44.882
X87.071Y16.561
X87.071Y15.545
X87.325Y53.899
X87.325Y32.69
X87.325Y30.15
X87.325Y28.245
X87.325Y25.705
X87.325Y23.165
X87.452Y18.974
X87.452Y17.831
X88.595Y31.42
X88.595Y28.88
X88.595Y26.975
X88.595Y24.435
X89.103Y53.899
T8
X87.98Y14.262
X87.983Y12.251
T9
X57.988Y34.976
X60.528Y34.976
X62.56Y1.321
X65.1Y1.321
X67.64Y1.321
X8.712Y34.468
X10.712Y34.468
X12.712Y34.468
X14.712Y34.468
X18.11Y61.011
X18.11Y58.471
X20.65Y61.011
X20.65Y58.471
X23.19Y61.011
X23.19Y58.471
X25.73Y61.011
X25.73Y58.471
X28.27Y61.011
X28.27Y58.471
X30.81Y61.011
X30.81Y58.471
X33.35Y61.011
X33.35Y58.471
X35.89Y61.011
X35.89Y58.471
X38.43Y61.011
X38.43Y58.471
X40.97Y61.011
X40.97Y58.471
X43.51Y61.011
X43.51Y58.471
X46.05Y61.011
X46.05Y58.471
X48.59Y61.011
X48.59Y58.471
X51.13Y61.011
X51.13Y58.471
X53.67Y61.011
X53.67Y58.471
X56.21Y61.011
X56.21Y58.471
X58.75Y61.011
X58.75Y58.471
X61.29Y61.011
X61.29Y58.471
X63.83Y61.011
X63.83Y58.471
X66.37Y61.011
X66.37Y58.471
X18.793Y54.28
X20.793Y54.28
X22.793Y54.28
X24.793Y54.28
X46.05Y3.861
X46.05Y1.321
X48.59Y3.861
X48.59Y1.321
X51.13Y3.861
X51.13Y1.321
X53.67Y3.861
X53.67Y1.321
X56.21Y3.861
X56.21Y1.321
T10
X75.133Y32.309
X75.133Y29.769
X75.133Y27.229
X75.133Y24.689
X75.133Y22.149
X77.673Y33.579
X77.673Y31.039
X77.673Y28.499
X77.673Y25.959
X77.673Y23.419
X86.563Y34.595
X86.563Y21.133
X88.595Y34.595
X88.595Y21.133
T11
X66.624Y32.69
X65.862Y15.354
T12
X8.212Y37.318
X8.212Y31.618
X15.212Y37.318
X15.212Y31.618
T13
X13.0Y59.1
X14.5Y3.4
X72.8Y3.4
T6
G00X82.441Y3.626
M15
G01X82.441Y6.026
M16
G05
G00X86.795Y9.276
M15
G01X84.595Y9.276
M16
G05
G00X88.441Y3.626
M15
G01X88.441Y5.726
M16
G05
G00X84.072Y46.45
M15
G01X84.672Y46.45
M16
G05
G00X84.072Y39.25
M15
G01X84.672Y39.25
M16
G05
G00X87.542Y46.45
M15
G01X88.142Y46.45
M16
G05
G00X87.542Y39.25
M15
G01X88.142Y39.25
M16
G05
T7
G00X1.555Y60.818
M15
G01X2.555Y60.818
M16
G05
G00X1.555Y46.218
M15
G01X2.555Y46.218
M16
G05
G00X7.405Y60.818
M15
G01X8.805Y60.818
M16
G05
G00X7.405Y46.218
M15
G01X8.805Y46.218
M16
G05
T9
G00X81.223Y35.764
M15
G01X80.423Y35.764
M16
G05
G00X81.223Y19.964
M15
G01X80.423Y19.964
M16
G05
T0
M30
