%TF.GenerationSoftware,KiCad,Pcbnew,5.1.4-e60b266~84~ubuntu18.04.1*%
%TF.CreationDate,2025-05-23T09:22:49+03:00*%
%TF.ProjectId,A64-OlinuXino_Rev_H,4136342d-4f6c-4696-9e75-58696e6f5f52,H*%
%TF.SameCoordinates,PX5f5e100PY5f5e100*%
%TF.FileFunction,Soldermask,Bot*%
%TF.FilePolarity,Negative*%
%FSLAX46Y46*%
G04 Gerber Fmt 4.6, Leading zero omitted, Abs format (unit mm)*
G04 Created by KiCad (PCBNEW 5.1.4-e60b266~84~ubuntu18.04.1) date 2025-05-23 09:22:49*
%MOMM*%
%LPD*%
G04 APERTURE LIST*
%ADD10C,0.100000*%
%ADD11R,1.301600X0.651600*%
%ADD12R,1.501600X1.101600*%
%ADD13O,1.901600X1.301600*%
%ADD14C,0.701600*%
%ADD15R,0.863600X0.609600*%
%ADD16R,0.651600X0.601600*%
%ADD17R,1.501600X1.301600*%
%ADD18O,2.401600X1.401600*%
%ADD19O,2.801600X1.401600*%
%ADD20C,3.000000*%
%ADD21C,3.401600*%
%ADD22O,2.901600X2.101600*%
%ADD23C,1.751600*%
%ADD24R,1.901600X1.101600*%
%ADD25C,0.801600*%
%ADD26R,0.601600X0.651600*%
%ADD27R,2.301600X0.701600*%
%ADD28C,1.879600*%
%ADD29R,1.879600X1.879600*%
%ADD30C,1.801600*%
%ADD31C,5.601600*%
%ADD32R,0.701600X0.451600*%
%ADD33R,0.901600X1.051600*%
%ADD34R,1.001600X0.451600*%
%ADD35C,1.601600*%
%ADD36C,2.301600*%
%ADD37R,1.601600X1.601600*%
%ADD38R,0.726600X0.426600*%
%ADD39R,0.726600X0.351600*%
%ADD40R,1.117600X1.117600*%
%ADD41R,1.100000X0.700000*%
%ADD42R,1.600000X1.400000*%
%ADD43R,1.600000X1.800000*%
%ADD44R,2.400000X1.400000*%
%ADD45C,1.101600*%
%ADD46R,0.351600X1.401600*%
%ADD47R,2.501600X2.701600*%
%ADD48R,1.001600X0.351600*%
%ADD49R,0.351600X1.001600*%
%ADD50R,4.101600X4.101600*%
%ADD51R,1.524000X1.524000*%
%ADD52R,0.609600X1.117600*%
%ADD53R,0.863600X1.117600*%
%ADD54R,1.625600X1.371600*%
%ADD55R,1.101600X1.501600*%
%ADD56R,2.801600X1.901600*%
%ADD57R,1.371600X1.625600*%
%ADD58R,1.270000X1.701800*%
%ADD59R,1.625600X1.879600*%
%ADD60R,1.117600X0.863600*%
%ADD61R,1.117600X1.879600*%
%ADD62R,1.501600X1.501600*%
%ADD63C,1.501600*%
%ADD64C,1.901600*%
%ADD65R,1.901600X1.901600*%
%ADD66O,3.801600X1.601600*%
%ADD67O,1.601600X3.701600*%
%ADD68O,1.601600X4.001600*%
%ADD69R,2.387600X1.879600*%
%ADD70R,1.701800X1.270000*%
G04 APERTURE END LIST*
D10*
G36*
X18750000Y500000D02*
G01*
X16749999Y500000D01*
X16749999Y1500000D01*
X18750000Y1500000D01*
X18750000Y500000D01*
G37*
X18750000Y500000D02*
X16749999Y500000D01*
X16749999Y1500000D01*
X18750000Y1500000D01*
X18750000Y500000D01*
G36*
X71450000Y55250000D02*
G01*
X69599999Y55250000D01*
X69599999Y56250000D01*
X71450000Y56250000D01*
X71450000Y55250000D01*
G37*
X71450000Y55250000D02*
X69599999Y55250000D01*
X69599999Y56250000D01*
X71450000Y56250000D01*
X71450000Y55250000D01*
G36*
X1500000Y54749999D02*
G01*
X500000Y54749999D01*
X500000Y56750000D01*
X1500000Y56750000D01*
X1500000Y54749999D01*
G37*
X1500000Y54749999D02*
X500000Y54749999D01*
X500000Y56750000D01*
X1500000Y56750000D01*
X1500000Y54749999D01*
G36*
X77000000Y54750000D02*
G01*
X76000000Y54750000D01*
X76000000Y56750001D01*
X77000000Y56750001D01*
X77000000Y54750000D01*
G37*
X77000000Y54750000D02*
X76000000Y54750000D01*
X76000000Y56750001D01*
X77000000Y56750001D01*
X77000000Y54750000D01*
G36*
X61750000Y42749999D02*
G01*
X60750000Y42749999D01*
X60750000Y44750000D01*
X61750000Y44750000D01*
X61750000Y42749999D01*
G37*
X61750000Y42749999D02*
X60750000Y42749999D01*
X60750000Y44750000D01*
X61750000Y44750000D01*
X61750000Y42749999D01*
G36*
X61750000Y24749999D02*
G01*
X60750000Y24749999D01*
X60750000Y26750000D01*
X61750000Y26750000D01*
X61750000Y24749999D01*
G37*
X61750000Y24749999D02*
X60750000Y24749999D01*
X60750000Y26750000D01*
X61750000Y26750000D01*
X61750000Y24749999D01*
G36*
X17000000Y22749999D02*
G01*
X16000000Y22749999D01*
X16000000Y24750000D01*
X17000000Y24750000D01*
X17000000Y22749999D01*
G37*
X17000000Y22749999D02*
X16000000Y22749999D01*
X16000000Y24750000D01*
X17000000Y24750000D01*
X17000000Y22749999D01*
G36*
X17000000Y42749999D02*
G01*
X16000000Y42749999D01*
X16000000Y44750000D01*
X17000000Y44750000D01*
X17000000Y42749999D01*
G37*
X17000000Y42749999D02*
X16000000Y42749999D01*
X16000000Y44750000D01*
X17000000Y44750000D01*
X17000000Y42749999D01*
G36*
X17000000Y54750000D02*
G01*
X16000000Y54750000D01*
X16000000Y56750001D01*
X17000000Y56750001D01*
X17000000Y54750000D01*
G37*
X17000000Y54750000D02*
X16000000Y54750000D01*
X16000000Y56750001D01*
X17000000Y56750001D01*
X17000000Y54750000D01*
G36*
X17000000Y60250000D02*
G01*
X16000000Y60250000D01*
X16000000Y62250001D01*
X17000000Y62250001D01*
X17000000Y60250000D01*
G37*
X17000000Y60250000D02*
X16000000Y60250000D01*
X16000000Y62250001D01*
X17000000Y62250001D01*
X17000000Y60250000D01*
G36*
X17000000Y55750000D02*
G01*
X14999999Y55750000D01*
X14999999Y56750000D01*
X17000000Y56750000D01*
X17000000Y55750000D01*
G37*
X17000000Y55750000D02*
X14999999Y55750000D01*
X14999999Y56750000D01*
X17000000Y56750000D01*
X17000000Y55750000D01*
G36*
X77000001Y55750000D02*
G01*
X75000000Y55750000D01*
X75000000Y56750000D01*
X77000001Y56750000D01*
X77000001Y55750000D01*
G37*
X77000001Y55750000D02*
X75000000Y55750000D01*
X75000000Y56750000D01*
X77000001Y56750000D01*
X77000001Y55750000D01*
G36*
X89500001Y55750000D02*
G01*
X87500000Y55750000D01*
X87500000Y56750000D01*
X89500001Y56750000D01*
X89500001Y55750000D01*
G37*
X89500001Y55750000D02*
X87500000Y55750000D01*
X87500000Y56750000D01*
X89500001Y56750000D01*
X89500001Y55750000D01*
G36*
X89500000Y54750000D02*
G01*
X88500000Y54750000D01*
X88500000Y56750001D01*
X89500000Y56750001D01*
X89500000Y54750000D01*
G37*
X89500000Y54750000D02*
X88500000Y54750000D01*
X88500000Y56750001D01*
X89500000Y56750001D01*
X89500000Y54750000D01*
G36*
X89500000Y42749999D02*
G01*
X88500000Y42749999D01*
X88500000Y44750000D01*
X89500000Y44750000D01*
X89500000Y42749999D01*
G37*
X89500000Y42749999D02*
X88500000Y42749999D01*
X88500000Y44750000D01*
X89500000Y44750000D01*
X89500000Y42749999D01*
G36*
X89500000Y35999999D02*
G01*
X88500000Y35999999D01*
X88500000Y38000000D01*
X89500000Y38000000D01*
X89500000Y35999999D01*
G37*
X89500000Y35999999D02*
X88500000Y35999999D01*
X88500000Y38000000D01*
X89500000Y38000000D01*
X89500000Y35999999D01*
G36*
X89500000Y8249999D02*
G01*
X88500000Y8249999D01*
X88500000Y10250000D01*
X89500000Y10250000D01*
X89500000Y8249999D01*
G37*
X89500000Y8249999D02*
X88500000Y8249999D01*
X88500000Y10250000D01*
X89500000Y10250000D01*
X89500000Y8249999D01*
G36*
X77000000Y499999D02*
G01*
X76000000Y499999D01*
X76000000Y2500000D01*
X77000000Y2500000D01*
X77000000Y499999D01*
G37*
X77000000Y499999D02*
X76000000Y499999D01*
X76000000Y2500000D01*
X77000000Y2500000D01*
X77000000Y499999D01*
G36*
X77000000Y500000D02*
G01*
X74999999Y500000D01*
X74999999Y1500000D01*
X77000000Y1500000D01*
X77000000Y500000D01*
G37*
X77000000Y500000D02*
X74999999Y500000D01*
X74999999Y1500000D01*
X77000000Y1500000D01*
X77000000Y500000D01*
G36*
X70750000Y500000D02*
G01*
X68749999Y500000D01*
X68749999Y1500000D01*
X70750000Y1500000D01*
X70750000Y500000D01*
G37*
X70750000Y500000D02*
X68749999Y500000D01*
X68749999Y1500000D01*
X70750000Y1500000D01*
X70750000Y500000D01*
G36*
X44500000Y500000D02*
G01*
X42499999Y500000D01*
X42499999Y1500000D01*
X44500000Y1500000D01*
X44500000Y500000D01*
G37*
X44500000Y500000D02*
X42499999Y500000D01*
X42499999Y1500000D01*
X44500000Y1500000D01*
X44500000Y500000D01*
G36*
X12000000Y500000D02*
G01*
X9999999Y500000D01*
X9999999Y1500000D01*
X12000000Y1500000D01*
X12000000Y500000D01*
G37*
X12000000Y500000D02*
X9999999Y500000D01*
X9999999Y1500000D01*
X12000000Y1500000D01*
X12000000Y500000D01*
G36*
X2500001Y500000D02*
G01*
X500000Y500000D01*
X500000Y1500000D01*
X2500001Y1500000D01*
X2500001Y500000D01*
G37*
X2500001Y500000D02*
X500000Y500000D01*
X500000Y1500000D01*
X2500001Y1500000D01*
X2500001Y500000D01*
G36*
X1500000Y499999D02*
G01*
X500000Y500000D01*
X500000Y2500000D01*
X1500000Y2500000D01*
X1500000Y499999D01*
G37*
X1500000Y499999D02*
X500000Y500000D01*
X500000Y2500000D01*
X1500000Y2500000D01*
X1500000Y499999D01*
G36*
X1500000Y25000000D02*
G01*
X500000Y24999999D01*
X500000Y27000000D01*
X1500000Y27000000D01*
X1500000Y25000000D01*
G37*
X1500000Y25000000D02*
X500000Y24999999D01*
X500000Y27000000D01*
X1500000Y27000000D01*
X1500000Y25000000D01*
G36*
X1500000Y44500000D02*
G01*
X1500000Y42500000D01*
X500000Y42500000D01*
X500000Y44500001D01*
X1500000Y44500000D01*
G37*
X1500000Y44500000D02*
X1500000Y42500000D01*
X500000Y42500000D01*
X500000Y44500001D01*
X1500000Y44500000D01*
G36*
X2500000Y61250000D02*
G01*
X500000Y61250000D01*
X500000Y62250000D01*
X2500000Y62250000D01*
X2500000Y61250000D01*
G37*
X2500000Y61250000D02*
X500000Y61250000D01*
X500000Y62250000D01*
X2500000Y62250000D01*
X2500000Y61250000D01*
G36*
X11000000Y61250000D02*
G01*
X9000000Y61250000D01*
X9000000Y62250000D01*
X11000000Y62250000D01*
X11000000Y61250000D01*
G37*
X11000000Y61250000D02*
X9000000Y61250000D01*
X9000000Y62250000D01*
X11000000Y62250000D01*
X11000000Y61250000D01*
G36*
X17000000Y61250000D02*
G01*
X15000000Y61250000D01*
X15000000Y62250000D01*
X17000000Y62250000D01*
X17000000Y61250000D01*
G37*
X17000000Y61250000D02*
X15000000Y61250000D01*
X15000000Y62250000D01*
X17000000Y62250000D01*
X17000000Y61250000D01*
D11*
%TO.C,TVS2*%
X83545000Y26655000D03*
X83545000Y25705000D03*
X83545000Y24755000D03*
X80945000Y26655000D03*
X80945000Y24755000D03*
%TD*%
%TO.C,TVS1*%
X83545000Y30465000D03*
X83545000Y29515000D03*
X83545000Y28565000D03*
X80945000Y30465000D03*
X80945000Y28565000D03*
%TD*%
D12*
%TO.C,D3*%
X4521000Y54158000D03*
X4521000Y57958000D03*
%TD*%
D13*
%TO.C,USB-OTG1*%
X87842000Y46450000D03*
X84372000Y46450000D03*
X84372000Y39250000D03*
X87842000Y39250000D03*
D14*
X85692000Y44850000D03*
X85692000Y40850000D03*
%TD*%
D15*
%TO.C,5V_E1*%
X54940000Y6909000D03*
X54940000Y6147000D03*
%TD*%
D12*
%TO.C,U16*%
X60190000Y3165000D03*
X60190000Y5065000D03*
X62390000Y4115000D03*
%TD*%
D16*
%TO.C,R24*%
X60147000Y8052000D03*
X60147000Y9068000D03*
%TD*%
%TO.C,R22*%
X60147000Y6147000D03*
X60147000Y7163000D03*
%TD*%
%TO.C,R20*%
X58623000Y4242000D03*
X58623000Y3226000D03*
%TD*%
D12*
%TO.C,FET4*%
X56377640Y6530540D03*
X58587440Y5575500D03*
X58587440Y7477960D03*
%TD*%
%TO.C,FET3*%
X66405560Y6213040D03*
X66405560Y8115500D03*
X68615360Y7160460D03*
%TD*%
D17*
%TO.C,Q4*%
X68867000Y42126000D03*
X66667000Y40526000D03*
X66667000Y42126000D03*
X68867000Y40526000D03*
%TD*%
D18*
%TO.C,HDMI1*%
X2055000Y60818000D03*
X2055000Y46218000D03*
D19*
X8105000Y46218000D03*
X8105000Y60818000D03*
%TD*%
D20*
%TO.C,FID4*%
X5029000Y60884000D03*
%TD*%
%TO.C,FID6*%
X87706000Y1448000D03*
%TD*%
%TO.C,FID5*%
X4394000Y1448000D03*
%TD*%
D21*
%TO.C,LAN1*%
X84023000Y22149000D03*
X84023000Y33579000D03*
D22*
X80823000Y19964000D03*
X80823000Y35764000D03*
D23*
X88595000Y21133000D03*
X86563000Y21133000D03*
X88595000Y34595000D03*
X86563000Y34595000D03*
X75133000Y22149000D03*
X77673000Y23419000D03*
X75133000Y24689000D03*
X77673000Y25959000D03*
X75133000Y27229000D03*
X77673000Y28499000D03*
X75133000Y29769000D03*
X77673000Y31039000D03*
X75133000Y32309000D03*
X77673000Y33579000D03*
%TD*%
D24*
%TO.C,Q2*%
X31953000Y37790000D03*
X31953000Y40290000D03*
%TD*%
D25*
%TO.C,UBOOT1*%
X23063000Y36257000D03*
X23063000Y34457000D03*
%TD*%
%TO.C,RESET1*%
X86182000Y53275000D03*
X86182000Y51475000D03*
%TD*%
%TO.C,PWRON1*%
X86182000Y49846000D03*
X86182000Y48046000D03*
%TD*%
D26*
%TO.C,R15*%
X44399000Y49327000D03*
X43383000Y49327000D03*
%TD*%
D27*
%TO.C,U4*%
X53649501Y8432999D03*
X53649501Y9702999D03*
X53649501Y10972999D03*
X53649501Y12242999D03*
X48649501Y12242999D03*
X48649501Y10972999D03*
X48649501Y9702999D03*
X48649501Y8432999D03*
%TD*%
D16*
%TO.C,C39*%
X55448000Y9576000D03*
X55448000Y8560000D03*
%TD*%
D26*
%TO.C,R66*%
X45161000Y49327000D03*
X46177000Y49327000D03*
%TD*%
D16*
%TO.C,C94*%
X42811500Y43040500D03*
X42811500Y44056500D03*
%TD*%
D28*
%TO.C,UEXT1*%
X48590000Y3861000D03*
X48590000Y1321000D03*
X46050000Y3861000D03*
D29*
X46050000Y1321000D03*
D28*
X51130000Y1321000D03*
X51130000Y3861000D03*
X53670000Y3861000D03*
X53670000Y1321000D03*
X56210000Y1321000D03*
X56210000Y3861000D03*
%TD*%
D30*
%TO.C,HEADPHONES/LINEOUT1*%
X1981000Y21768000D03*
X7981000Y21768000D03*
%TD*%
D31*
%TO.C,Mounting_hole2*%
X14500000Y3400000D03*
%TD*%
%TO.C,Mounting_hole3*%
X13000000Y59100000D03*
%TD*%
%TO.C,Mounting_hole1*%
X72800000Y3400000D03*
%TD*%
D26*
%TO.C,R131*%
X36017000Y6972500D03*
X37033000Y6972500D03*
%TD*%
%TO.C,R132*%
X32334000Y7036000D03*
X33350000Y7036000D03*
%TD*%
%TO.C,R127*%
X35191500Y6972500D03*
X34175500Y6972500D03*
%TD*%
%TO.C,R128*%
X33350000Y7925000D03*
X32334000Y7925000D03*
%TD*%
%TO.C,R129*%
X37033000Y6083500D03*
X36017000Y6083500D03*
%TD*%
%TO.C,R130*%
X33350000Y6083500D03*
X32334000Y6083500D03*
%TD*%
%TO.C,R126*%
X30556000Y7925000D03*
X31572000Y7925000D03*
%TD*%
%TO.C,R125*%
X35191500Y6083500D03*
X34175500Y6083500D03*
%TD*%
%TO.C,R121*%
X46177000Y50216000D03*
X45161000Y50216000D03*
%TD*%
D32*
%TO.C,T1*%
X74752000Y17211000D03*
D33*
X74752000Y16211000D03*
D34*
X75852000Y15911000D03*
X75852000Y16561000D03*
X75852000Y17211000D03*
X73652000Y17211000D03*
X73652000Y16561000D03*
X73652000Y15911000D03*
%TD*%
D35*
%TO.C,USB1*%
X14712000Y34468000D03*
X12712000Y34468000D03*
X10712000Y34468000D03*
X8712000Y34468000D03*
D36*
X8212000Y31618000D03*
X8212000Y37318000D03*
X15212000Y31618000D03*
X15212000Y37318000D03*
%TD*%
D35*
%TO.C,HSIC1*%
X24793000Y54280000D03*
X22793000Y54280000D03*
X20793000Y54280000D03*
D37*
X18793000Y54280000D03*
%TD*%
D38*
%TO.C,RM15*%
X60396500Y30630000D03*
X61421500Y30630000D03*
D39*
X60396500Y31170000D03*
X61421500Y31170000D03*
X60396500Y31670000D03*
X61421500Y31670000D03*
D38*
X60396500Y32210000D03*
X61421500Y32210000D03*
%TD*%
D26*
%TO.C,R62*%
X43383000Y50216000D03*
X44399000Y50216000D03*
%TD*%
D40*
%TO.C,C162*%
X61290000Y20498000D03*
X61290000Y22276000D03*
%TD*%
D27*
%TO.C,U12*%
X51832000Y54407000D03*
X51832000Y53137000D03*
X51832000Y51867000D03*
X51832000Y50597000D03*
X58302000Y50597000D03*
X58302000Y51867000D03*
X58302000Y53137000D03*
X58302000Y54407000D03*
%TD*%
D41*
%TO.C,MICRO_SD1*%
X14565000Y8868000D03*
X14565000Y9968000D03*
X14565000Y11068000D03*
X14565000Y12168000D03*
X14565000Y13268000D03*
X14565000Y14368000D03*
X14565000Y15468000D03*
X14565000Y16568000D03*
X14565000Y17668000D03*
D42*
X13685000Y7668000D03*
D43*
X13685000Y22268000D03*
D44*
X4085000Y7668000D03*
X4085000Y23168000D03*
D45*
X3682800Y18466000D03*
X3682800Y10465000D03*
%TD*%
D30*
%TO.C,MIC/LINEIN1*%
X1981000Y7290000D03*
X7981000Y7290000D03*
%TD*%
D46*
%TO.C,MIPI-DSI1*%
X21361000Y6230000D03*
X21861000Y6230000D03*
X22361000Y6230000D03*
X22861000Y6230000D03*
X23361000Y6230000D03*
X23861000Y6230000D03*
X24361000Y6230000D03*
X24861000Y6230000D03*
X25361000Y6230000D03*
X25861000Y6230000D03*
X26361000Y6230000D03*
X26861000Y6230000D03*
X27361000Y6230000D03*
X27861000Y6230000D03*
X28361000Y6230000D03*
X28861000Y6230000D03*
X29361000Y6230000D03*
X29861000Y6230000D03*
X30361000Y6230000D03*
X30861000Y6230000D03*
D47*
X19211000Y4130000D03*
X33011000Y4130000D03*
%TD*%
D48*
%TO.C,U15*%
X70224000Y35440000D03*
X70224000Y34940000D03*
X70224000Y34440000D03*
X70224000Y33940000D03*
X70224000Y33440000D03*
X70224000Y32940000D03*
X70224000Y32440000D03*
X70224000Y31940000D03*
X70224000Y31440000D03*
X70224000Y30940000D03*
X70224000Y30440000D03*
X70224000Y29940000D03*
D49*
X69374000Y29090000D03*
X68874000Y29090000D03*
X68374000Y29090000D03*
X67874000Y29090000D03*
X67374000Y29090000D03*
X66874000Y29090000D03*
X66374000Y29090000D03*
X65874000Y29090000D03*
X65374000Y29090000D03*
X64874000Y29090000D03*
X64374000Y29090000D03*
X63874000Y29090000D03*
D48*
X63024000Y29940000D03*
X63024000Y30440000D03*
X63024000Y30940000D03*
X63024000Y31440000D03*
X63024000Y31940000D03*
X63024000Y32440000D03*
X63024000Y32940000D03*
X63024000Y33440000D03*
X63024000Y33940000D03*
X63024000Y34440000D03*
X63024000Y34940000D03*
X63024000Y35440000D03*
D49*
X63874000Y36290000D03*
X64374000Y36290000D03*
X64874000Y36290000D03*
X65374000Y36290000D03*
X65874000Y36290000D03*
X66374000Y36290000D03*
X66874000Y36290000D03*
X67374000Y36290000D03*
X67874000Y36290000D03*
X68374000Y36290000D03*
X68874000Y36290000D03*
X69374000Y36290000D03*
D50*
X66624000Y32690000D03*
D51*
X66624000Y32690000D03*
%TD*%
%TO.C,U14*%
X65862000Y15354500D03*
%TD*%
D52*
%TO.C,RM9*%
X77673000Y47422000D03*
X78435000Y47422000D03*
X77673000Y48946000D03*
X78435000Y48946000D03*
D53*
X76784000Y47422000D03*
X76784000Y48946000D03*
X79324000Y47422000D03*
X79324000Y48946000D03*
%TD*%
D16*
%TO.C,R93*%
X33604000Y38532000D03*
X33604000Y39548000D03*
%TD*%
%TO.C,R46*%
X11252000Y54788000D03*
X11252000Y55804000D03*
%TD*%
%TO.C,C1*%
X35400000Y14092000D03*
X35400000Y15108000D03*
%TD*%
D26*
%TO.C,C2*%
X34366000Y16434000D03*
X35382000Y16434000D03*
%TD*%
%TO.C,C3*%
X32461000Y16434000D03*
X33477000Y16434000D03*
%TD*%
%TO.C,C4*%
X30556000Y16434000D03*
X31572000Y16434000D03*
%TD*%
D40*
%TO.C,C5*%
X36144000Y8623500D03*
X34366000Y8623500D03*
%TD*%
D16*
%TO.C,C6*%
X29159000Y8306000D03*
X29159000Y9322000D03*
%TD*%
%TO.C,C7*%
X24841000Y8306000D03*
X24841000Y9322000D03*
%TD*%
%TO.C,C8*%
X25200000Y18808000D03*
X25200000Y17792000D03*
%TD*%
%TO.C,C9*%
X29413000Y25324000D03*
X29413000Y24308000D03*
%TD*%
D40*
%TO.C,C10*%
X25489000Y31500000D03*
X23711000Y31500000D03*
%TD*%
D16*
%TO.C,C11*%
X19100000Y19208000D03*
X19100000Y18192000D03*
%TD*%
D26*
%TO.C,C12*%
X34008000Y14300000D03*
X32992000Y14300000D03*
%TD*%
%TO.C,C13*%
X32334000Y8814000D03*
X33350000Y8814000D03*
%TD*%
%TO.C,C14*%
X30556000Y8814000D03*
X31572000Y8814000D03*
%TD*%
D16*
%TO.C,C15*%
X33400000Y28192000D03*
X33400000Y29208000D03*
%TD*%
D40*
%TO.C,C16*%
X21911000Y8500000D03*
X23689000Y8500000D03*
%TD*%
D26*
%TO.C,C17*%
X44608000Y24900000D03*
X43592000Y24900000D03*
%TD*%
%TO.C,C18*%
X46708000Y24300000D03*
X45692000Y24300000D03*
%TD*%
%TO.C,C19*%
X29540000Y23419000D03*
X30556000Y23419000D03*
%TD*%
%TO.C,C20*%
X28708000Y29800000D03*
X27692000Y29800000D03*
%TD*%
D40*
%TO.C,C21*%
X31445000Y31801000D03*
X33223000Y31801000D03*
%TD*%
D26*
%TO.C,C22*%
X40892000Y25000000D03*
X41908000Y25000000D03*
%TD*%
%TO.C,C23*%
X18092000Y21500000D03*
X19108000Y21500000D03*
%TD*%
D16*
%TO.C,C24*%
X27200000Y9292000D03*
X27200000Y10308000D03*
%TD*%
D26*
%TO.C,C25*%
X28408000Y31700000D03*
X27392000Y31700000D03*
%TD*%
D40*
%TO.C,C26*%
X20611000Y31500000D03*
X22389000Y31500000D03*
%TD*%
%TO.C,C27*%
X36652000Y16561000D03*
X36652000Y14783000D03*
%TD*%
D16*
%TO.C,C28*%
X27900000Y24692000D03*
X27900000Y25708000D03*
%TD*%
D26*
%TO.C,C29*%
X42692000Y24000000D03*
X43708000Y24000000D03*
%TD*%
%TO.C,C30*%
X34308000Y24900000D03*
X33292000Y24900000D03*
%TD*%
D16*
%TO.C,C31*%
X26900000Y24908000D03*
X26900000Y23892000D03*
%TD*%
D26*
%TO.C,C34*%
X47592000Y30800000D03*
X48608000Y30800000D03*
%TD*%
%TO.C,C35*%
X46892000Y48250000D03*
X47908000Y48250000D03*
%TD*%
D40*
%TO.C,C36*%
X46113500Y47041000D03*
X47891500Y47041000D03*
%TD*%
D26*
%TO.C,C37*%
X40242000Y47500000D03*
X41258000Y47500000D03*
%TD*%
D40*
%TO.C,C38*%
X39861000Y46250000D03*
X41639000Y46250000D03*
%TD*%
%TO.C,C42*%
X42111000Y53500000D03*
X43889000Y53500000D03*
%TD*%
%TO.C,C43*%
X42111000Y51950000D03*
X43889000Y51950000D03*
%TD*%
D26*
%TO.C,C44*%
X42508000Y48350000D03*
X41492000Y48350000D03*
%TD*%
%TO.C,C46*%
X39892000Y29500000D03*
X40908000Y29500000D03*
%TD*%
D16*
%TO.C,C50*%
X39425000Y27667000D03*
X39425000Y28683000D03*
%TD*%
D26*
%TO.C,C51*%
X37092000Y27500000D03*
X38108000Y27500000D03*
%TD*%
D40*
%TO.C,C53*%
X34620000Y30023000D03*
X36398000Y30023000D03*
%TD*%
%TO.C,C54*%
X36398000Y34214000D03*
X34620000Y34214000D03*
%TD*%
%TO.C,C55*%
X34620000Y31420000D03*
X36398000Y31420000D03*
%TD*%
%TO.C,C56*%
X36398000Y32817000D03*
X34620000Y32817000D03*
%TD*%
%TO.C,C59*%
X36398000Y28626000D03*
X34620000Y28626000D03*
%TD*%
%TO.C,C61*%
X41050000Y26636000D03*
X41050000Y28414000D03*
%TD*%
D54*
%TO.C,C64*%
X16840000Y11989000D03*
X16840000Y14021000D03*
%TD*%
D16*
%TO.C,C72*%
X79959000Y39929000D03*
X79959000Y38913000D03*
%TD*%
%TO.C,C73*%
X44625000Y32542000D03*
X44625000Y33558000D03*
%TD*%
D26*
%TO.C,C79*%
X44808000Y31500000D03*
X43792000Y31500000D03*
%TD*%
D16*
%TO.C,C80*%
X47900000Y28792000D03*
X47900000Y29808000D03*
%TD*%
%TO.C,C109*%
X42700000Y32108000D03*
X42700000Y31092000D03*
%TD*%
D26*
%TO.C,C110*%
X47592000Y31700000D03*
X48608000Y31700000D03*
%TD*%
D16*
%TO.C,C115*%
X48800000Y29808000D03*
X48800000Y28792000D03*
%TD*%
D40*
%TO.C,C116*%
X43764000Y40691000D03*
X45542000Y40691000D03*
%TD*%
D16*
%TO.C,C117*%
X42600000Y30208000D03*
X42600000Y29192000D03*
%TD*%
D54*
%TO.C,C118*%
X80467000Y7925000D03*
X80467000Y9957000D03*
%TD*%
%TO.C,C119*%
X78435000Y7925000D03*
X78435000Y9957000D03*
%TD*%
D40*
%TO.C,C120*%
X45542000Y44120000D03*
X47320000Y44120000D03*
%TD*%
%TO.C,C121*%
X68021000Y15291000D03*
X69799000Y15291000D03*
%TD*%
D26*
%TO.C,C123*%
X49508000Y22600000D03*
X48492000Y22600000D03*
%TD*%
D40*
%TO.C,C125*%
X60020000Y19736000D03*
X58242000Y19736000D03*
%TD*%
%TO.C,C126*%
X61798000Y17069000D03*
X63576000Y17069000D03*
%TD*%
D26*
%TO.C,C127*%
X52273000Y20244000D03*
X53289000Y20244000D03*
%TD*%
D40*
%TO.C,C128*%
X68021000Y13640000D03*
X69799000Y13640000D03*
%TD*%
D26*
%TO.C,C130*%
X52273000Y21133000D03*
X53289000Y21133000D03*
%TD*%
D16*
%TO.C,C132*%
X49200000Y24292000D03*
X49200000Y25308000D03*
%TD*%
D40*
%TO.C,C133*%
X65862000Y11481000D03*
X65862000Y13259000D03*
%TD*%
D26*
%TO.C,C134*%
X49508000Y21300000D03*
X48492000Y21300000D03*
%TD*%
D40*
%TO.C,C135*%
X79451000Y15037000D03*
X77673000Y15037000D03*
%TD*%
%TO.C,C137*%
X51765000Y18974000D03*
X51765000Y17196000D03*
%TD*%
%TO.C,C142*%
X48717000Y19101000D03*
X46939000Y19101000D03*
%TD*%
%TO.C,C145*%
X64211000Y11481000D03*
X64211000Y13259000D03*
%TD*%
%TO.C,C147*%
X72466000Y21006000D03*
X72466000Y19228000D03*
%TD*%
%TO.C,C148*%
X50114000Y17577000D03*
X48336000Y17577000D03*
%TD*%
%TO.C,C149*%
X62687000Y13259000D03*
X62687000Y11481000D03*
%TD*%
%TO.C,C151*%
X58496000Y10592000D03*
X60274000Y10592000D03*
%TD*%
%TO.C,C152*%
X69164000Y9423600D03*
X67386000Y9423600D03*
%TD*%
%TO.C,C153*%
X66624000Y22276000D03*
X66624000Y24054000D03*
%TD*%
D16*
%TO.C,C155*%
X42200000Y27608000D03*
X42200000Y26592000D03*
%TD*%
D26*
%TO.C,C156*%
X85293000Y52375000D03*
X84277000Y52375000D03*
%TD*%
D40*
%TO.C,C157*%
X65862000Y19101000D03*
X65862000Y17323000D03*
%TD*%
D16*
%TO.C,C158*%
X44900000Y29108000D03*
X44900000Y28092000D03*
%TD*%
D40*
%TO.C,C159*%
X60020000Y17831000D03*
X58242000Y17831000D03*
%TD*%
%TO.C,C160*%
X58115000Y23673000D03*
X58115000Y21895000D03*
%TD*%
%TO.C,C161*%
X62814000Y19355000D03*
X64592000Y19355000D03*
%TD*%
%TO.C,C164*%
X63576000Y22276000D03*
X63576000Y24054000D03*
%TD*%
%TO.C,C165*%
X65100000Y22276000D03*
X65100000Y24054000D03*
%TD*%
%TO.C,C167*%
X68148000Y20752000D03*
X66370000Y20752000D03*
%TD*%
%TO.C,C168*%
X59639000Y23673000D03*
X59639000Y21895000D03*
%TD*%
%TO.C,C170*%
X69164000Y19228000D03*
X67386000Y19228000D03*
%TD*%
%TO.C,C171*%
X63576000Y15291000D03*
X61798000Y15291000D03*
%TD*%
%TO.C,C173*%
X56845000Y14402000D03*
X58623000Y14402000D03*
%TD*%
%TO.C,C174*%
X71196000Y21387000D03*
X71196000Y23165000D03*
%TD*%
%TO.C,C176*%
X69672000Y17704000D03*
X67894000Y17704000D03*
%TD*%
D26*
%TO.C,C177*%
X85166000Y48946000D03*
X84150000Y48946000D03*
%TD*%
D40*
%TO.C,C178*%
X69672000Y22657000D03*
X69672000Y24435000D03*
%TD*%
%TO.C,C179*%
X68148000Y22657000D03*
X68148000Y24435000D03*
%TD*%
D54*
%TO.C,C180*%
X85801000Y12116000D03*
X85801000Y14148000D03*
%TD*%
D40*
%TO.C,C181*%
X69672000Y12116000D03*
X67894000Y12116000D03*
%TD*%
D26*
%TO.C,C183*%
X31318000Y41453000D03*
X32334000Y41453000D03*
%TD*%
%TO.C,C184*%
X31318000Y36627000D03*
X32334000Y36627000D03*
%TD*%
D40*
%TO.C,C188*%
X45542000Y42723000D03*
X47320000Y42723000D03*
%TD*%
D26*
%TO.C,C189*%
X41708000Y31500000D03*
X40692000Y31500000D03*
%TD*%
D40*
%TO.C,C190*%
X17856000Y35357000D03*
X19634000Y35357000D03*
%TD*%
D16*
%TO.C,C191*%
X46000000Y31166000D03*
X46000000Y32182000D03*
%TD*%
D40*
%TO.C,C192*%
X36398000Y35865000D03*
X34620000Y35865000D03*
%TD*%
%TO.C,C194*%
X50876000Y37389000D03*
X52654000Y37389000D03*
%TD*%
D55*
%TO.C,D4*%
X68524000Y3480000D03*
X64724000Y3480000D03*
%TD*%
D12*
%TO.C,FET1*%
X9819440Y56118960D03*
X9819440Y54216500D03*
X7609640Y55171540D03*
%TD*%
%TO.C,FET2*%
X62087560Y6340040D03*
X62087560Y8242500D03*
X64297360Y7287460D03*
%TD*%
D56*
%TO.C,FUSE2*%
X78943000Y1407000D03*
X78943000Y5807000D03*
%TD*%
D54*
%TO.C,L1*%
X48082000Y54407000D03*
X46050000Y54407000D03*
%TD*%
D57*
%TO.C,L2*%
X18745000Y11989000D03*
X18745000Y14021000D03*
%TD*%
D26*
%TO.C,R2*%
X28108000Y27500000D03*
X27092000Y27500000D03*
%TD*%
D16*
%TO.C,R3*%
X40843000Y17958000D03*
X40843000Y16942000D03*
%TD*%
%TO.C,R4*%
X39954000Y17958000D03*
X39954000Y16942000D03*
%TD*%
D26*
%TO.C,R54*%
X68021000Y48565000D03*
X69037000Y48565000D03*
%TD*%
D16*
%TO.C,R60*%
X69799000Y46152000D03*
X69799000Y45136000D03*
%TD*%
D26*
%TO.C,R96*%
X37922000Y35865000D03*
X38938000Y35865000D03*
%TD*%
D16*
%TO.C,R97*%
X51765000Y27864000D03*
X51765000Y26848000D03*
%TD*%
D26*
%TO.C,R98*%
X53416000Y27229000D03*
X54432000Y27229000D03*
%TD*%
D52*
%TO.C,RM7*%
X18364000Y7163000D03*
X19126000Y7163000D03*
X18364000Y8687000D03*
X19126000Y8687000D03*
D53*
X17475000Y7163000D03*
X17475000Y8687000D03*
X20015000Y7163000D03*
X20015000Y8687000D03*
%TD*%
D52*
%TO.C,RM12*%
X73355000Y47422000D03*
X74117000Y47422000D03*
X73355000Y48946000D03*
X74117000Y48946000D03*
D53*
X72466000Y47422000D03*
X72466000Y48946000D03*
X75006000Y47422000D03*
X75006000Y48946000D03*
%TD*%
D26*
%TO.C,R37*%
X85039000Y43739000D03*
X84023000Y43739000D03*
%TD*%
D16*
%TO.C,R38*%
X81864000Y38913000D03*
X81864000Y39929000D03*
%TD*%
D26*
%TO.C,R41*%
X73482000Y40437000D03*
X74498000Y40437000D03*
%TD*%
D16*
%TO.C,R42*%
X80975000Y39929000D03*
X80975000Y38913000D03*
%TD*%
D26*
%TO.C,R61*%
X70815000Y47422000D03*
X69799000Y47422000D03*
%TD*%
D58*
%TO.C,HSIC_E1*%
X26873000Y55931000D03*
X28397000Y55931000D03*
X28397000Y55931000D03*
%TD*%
D16*
%TO.C,C197*%
X43700000Y29392000D03*
X43700000Y30408000D03*
%TD*%
%TO.C,R85*%
X70434000Y9322000D03*
X70434000Y10338000D03*
%TD*%
%TO.C,R84*%
X71196000Y16180000D03*
X71196000Y17196000D03*
%TD*%
D59*
%TO.C,R78*%
X80975000Y13132000D03*
X78181000Y13132000D03*
%TD*%
D26*
%TO.C,R92*%
X69037000Y16434000D03*
X70053000Y16434000D03*
%TD*%
D16*
%TO.C,R90*%
X57099000Y13132000D03*
X57099000Y12116000D03*
%TD*%
%TO.C,R88*%
X57988000Y13132000D03*
X57988000Y12116000D03*
%TD*%
D26*
%TO.C,R89*%
X87071000Y52375000D03*
X88087000Y52375000D03*
%TD*%
D16*
%TO.C,R83*%
X58877000Y12116000D03*
X58877000Y13132000D03*
%TD*%
D26*
%TO.C,R91*%
X87198000Y48946000D03*
X88214000Y48946000D03*
%TD*%
D16*
%TO.C,R95*%
X57988000Y940000D03*
X57988000Y1956000D03*
%TD*%
D26*
%TO.C,R30*%
X16967000Y16434000D03*
X15951000Y16434000D03*
%TD*%
%TO.C,R31*%
X16967000Y15545000D03*
X15951000Y15545000D03*
%TD*%
%TO.C,R21*%
X45796000Y48247500D03*
X44780000Y48247500D03*
%TD*%
%TO.C,R23*%
X44780000Y47050000D03*
X43764000Y47050000D03*
%TD*%
%TO.C,R27*%
X36271000Y27483000D03*
X35255000Y27483000D03*
%TD*%
D16*
%TO.C,R1*%
X20000000Y30008000D03*
X20000000Y28992000D03*
%TD*%
%TO.C,R5*%
X18200000Y18192000D03*
X18200000Y19208000D03*
%TD*%
D26*
%TO.C,R8*%
X19108000Y20600000D03*
X18092000Y20600000D03*
%TD*%
D16*
%TO.C,R9*%
X28079500Y8306000D03*
X28079500Y9322000D03*
%TD*%
D26*
%TO.C,R13*%
X26908000Y8400000D03*
X25892000Y8400000D03*
%TD*%
D60*
%TO.C,3.3V/VCC-PE:2.8V1*%
X51892000Y43485000D03*
X51892000Y42342000D03*
X51892000Y41199000D03*
%TD*%
D26*
%TO.C,R86*%
X82372000Y43231000D03*
X81356000Y43231000D03*
%TD*%
%TO.C,R87*%
X82372000Y42342000D03*
X81356000Y42342000D03*
%TD*%
D40*
%TO.C,R36*%
X33223000Y33452000D03*
X31445000Y33452000D03*
%TD*%
D61*
%TO.C,C196*%
X82880000Y18847000D03*
X86436000Y18847000D03*
%TD*%
D57*
%TO.C,C201*%
X73990000Y37135000D03*
X71958000Y37135000D03*
%TD*%
D40*
%TO.C,C211*%
X62179000Y39802000D03*
X62179000Y41580000D03*
%TD*%
D26*
%TO.C,R105*%
X61417000Y32944000D03*
X60401000Y32944000D03*
%TD*%
%TO.C,R109*%
X63957000Y38595500D03*
X62941000Y38595500D03*
%TD*%
%TO.C,R110*%
X65735000Y38278000D03*
X64719000Y38278000D03*
%TD*%
D16*
%TO.C,R111*%
X88976000Y18085000D03*
X88976000Y19101000D03*
%TD*%
D40*
%TO.C,R115*%
X73482000Y38913000D03*
X71704000Y38913000D03*
%TD*%
D26*
%TO.C,C210*%
X62941000Y37643000D03*
X61925000Y37643000D03*
%TD*%
D16*
%TO.C,C216*%
X71450000Y29261000D03*
X71450000Y28245000D03*
%TD*%
%TO.C,C81*%
X48590000Y53200500D03*
X48590000Y52184500D03*
%TD*%
D26*
%TO.C,R53*%
X61290000Y54026000D03*
X60274000Y54026000D03*
%TD*%
%TO.C,R55*%
X61290000Y51740000D03*
X60274000Y51740000D03*
%TD*%
%TO.C,R56*%
X61290000Y52629000D03*
X60274000Y52629000D03*
%TD*%
D16*
%TO.C,R57*%
X49479000Y53200500D03*
X49479000Y52184500D03*
%TD*%
D45*
%TO.C,+1.8V1*%
X10744000Y29007000D03*
%TD*%
%TO.C,+3.0VA1*%
X10109000Y25451000D03*
%TD*%
%TO.C,+3.3VD1*%
X12649000Y55042000D03*
%TD*%
%TO.C,1.1V_CPUS1*%
X78054000Y46025000D03*
%TD*%
%TO.C,1.1V_SYS1*%
X56972000Y23546000D03*
%TD*%
%TO.C,3.0V_RTC1*%
X17221000Y34087000D03*
%TD*%
%TO.C,IPS1*%
X82118000Y15037000D03*
%TD*%
%TO.C,VCC-PC1*%
X68529000Y50978000D03*
%TD*%
%TO.C,VCC-PL1*%
X58623000Y15799000D03*
%TD*%
D28*
%TO.C,GPIO1*%
X40970000Y61011000D03*
X40970000Y58471000D03*
X38430000Y61011000D03*
X38430000Y58471000D03*
X35890000Y61011000D03*
X35890000Y58471000D03*
X33350000Y61011000D03*
X33350000Y58471000D03*
X30810000Y61011000D03*
X30810000Y58471000D03*
X20650000Y61011000D03*
X20650000Y58471000D03*
X18110000Y61011000D03*
D29*
X18110000Y58471000D03*
D28*
X23190000Y58471000D03*
X23190000Y61011000D03*
X25730000Y61011000D03*
X25730000Y58471000D03*
X28270000Y58471000D03*
X28270000Y61011000D03*
X53670000Y61011000D03*
X53670000Y58471000D03*
X51130000Y58471000D03*
X51130000Y61011000D03*
X48590000Y61011000D03*
X48590000Y58471000D03*
X43510000Y58471000D03*
X43510000Y61011000D03*
X46050000Y58471000D03*
X46050000Y61011000D03*
X56210000Y58471000D03*
X56210000Y61011000D03*
X58750000Y58471000D03*
X58750000Y61011000D03*
X61290000Y58471000D03*
X61290000Y61011000D03*
X63830000Y58471000D03*
X63830000Y61011000D03*
X66370000Y58471000D03*
X66370000Y61011000D03*
%TD*%
%TO.C,DBG_UART1*%
X67640000Y1321000D03*
X65100000Y1321000D03*
D29*
X62560000Y1321000D03*
%TD*%
D62*
%TO.C,LIPO_BAT1*%
X87982860Y12250620D03*
D63*
X87980320Y14262300D03*
%TD*%
D64*
%TO.C,PHYRST1*%
X60528000Y34976000D03*
D65*
X57988000Y34976000D03*
%TD*%
D26*
%TO.C,C86*%
X13030000Y26086000D03*
X12014000Y26086000D03*
%TD*%
%TO.C,C87*%
X13030000Y25197000D03*
X12014000Y25197000D03*
%TD*%
D66*
%TO.C,PWR1*%
X85695000Y9276000D03*
D67*
X88441000Y4676000D03*
D68*
X82441000Y4826000D03*
%TD*%
D21*
%TO.C,Mounting_hole4*%
X71300000Y59100000D03*
%TD*%
D16*
%TO.C,R28*%
X66370000Y55423000D03*
X66370000Y56439000D03*
%TD*%
%TO.C,R65*%
X65481000Y55423000D03*
X65481000Y56439000D03*
%TD*%
D53*
%TO.C,PWR_PC1*%
X69418000Y52375000D03*
X68275000Y52375000D03*
X67132000Y52375000D03*
%TD*%
D26*
%TO.C,C212*%
X69608500Y43485000D03*
X68592500Y43485000D03*
%TD*%
%TO.C,C213*%
X65989000Y43485000D03*
X67005000Y43485000D03*
%TD*%
D69*
%TO.C,D1*%
X85039000Y7181000D03*
X85039000Y2827000D03*
%TD*%
D16*
%TO.C,R67*%
X39350000Y48508000D03*
X39350000Y47492000D03*
%TD*%
D70*
%TO.C,WP_Enable1*%
X58115000Y48438000D03*
X58115000Y46914000D03*
X58115000Y46914000D03*
%TD*%
D16*
%TO.C,R68*%
X41922500Y43040500D03*
X41922500Y44056500D03*
%TD*%
D26*
%TO.C,C88*%
X54432000Y28245000D03*
X53416000Y28245000D03*
%TD*%
%TO.C,C93*%
X62179000Y38595500D03*
X61163000Y38595500D03*
%TD*%
M02*
