G04 #@! TF.FileFunction,Copper,L2,Bot,Signal*
%FSLAX46Y46*%
G04 Gerber Fmt 4.6, Leading zero omitted, Abs format (unit mm)*
G04 Created by KiCad (PCBNEW 4.1.0-alpha+201608211231+7083~46~ubuntu16.04.1-product) date Thu Aug 25 09:44:43 2016*
%MOMM*%
%LPD*%
G01*
G04 APERTURE LIST*
%ADD10C,0.600000*%
%ADD11C,0.900000*%
%ADD12C,0.600000*%
%ADD13C,1.000000*%
%ADD14C,0.762000*%
%ADD15C,0.254000*%
%ADD16C,0.508000*%
G04 APERTURE END LIST*
D10*
D11*
X121250000Y-78500000D03*
X120000000Y-78500000D03*
X88750000Y-78500000D03*
X87250000Y-78500000D03*
X91500000Y-64750000D03*
X91500000Y-63750000D03*
X134680000Y-70052000D03*
X133537000Y-70052000D03*
X132394000Y-70052000D03*
X94750000Y-59750000D03*
X98500000Y-66000000D03*
X101750000Y-65750000D03*
X144250000Y-54250000D03*
X143002000Y-53750000D03*
X141500000Y-54250000D03*
D12*
X115250000Y-75500000D03*
X146500000Y-62250000D03*
X66500000Y-56447641D03*
X65250000Y-53966229D03*
X72500000Y-76500000D03*
X88250000Y-72250000D03*
X65500000Y-44750000D03*
X145750000Y-44250000D03*
X73750000Y-77750000D03*
X66500000Y-44750000D03*
X149000000Y-57000000D03*
X141500000Y-47250000D03*
X113750000Y-72250000D03*
X148906108Y-61569086D03*
X142670473Y-61955496D03*
X128250000Y-64750000D03*
X108000000Y-57444593D03*
X83378000Y-69250000D03*
X87500000Y-65500000D03*
X104941098Y-58016434D03*
X89025139Y-58111573D03*
X106343550Y-58125616D03*
X89090127Y-61454606D03*
X106986526Y-57527650D03*
X82750000Y-70500000D03*
X87695599Y-61002385D03*
X88009985Y-71292376D03*
X147500000Y-66500000D03*
X98928960Y-62821040D03*
X86250000Y-65000000D03*
X107301431Y-52078474D03*
X82327000Y-52180777D03*
X106924940Y-52784359D03*
X81569966Y-52784362D03*
X109750000Y-52113614D03*
X80627314Y-53000000D03*
X77772631Y-55227369D03*
X116205000Y-53500000D03*
X76790467Y-55127789D03*
X117500000Y-53500000D03*
X76562312Y-55894577D03*
X118750000Y-53750000D03*
X120116471Y-51774183D03*
X75630892Y-56011678D03*
X78607247Y-55217304D03*
X114906754Y-53502766D03*
X78922207Y-54335437D03*
X113665000Y-53651573D03*
X79448947Y-52338542D03*
X111125000Y-53692381D03*
X78906484Y-53187616D03*
X112430392Y-53831236D03*
X70628120Y-47104430D03*
X133000000Y-47500000D03*
X133014238Y-46546149D03*
X69713533Y-46928108D03*
X68499486Y-45922739D03*
X135500000Y-45501030D03*
X135246704Y-46259874D03*
X69533402Y-45955040D03*
X137750000Y-45250000D03*
X68343358Y-45047020D03*
X140250000Y-44750000D03*
X67500000Y-45000000D03*
X71328049Y-47491881D03*
X131445000Y-47510005D03*
X71974849Y-47962697D03*
X131500000Y-48500000D03*
X72752663Y-48149842D03*
X129432489Y-48143105D03*
X128500000Y-48506070D03*
X73517167Y-48506070D03*
X127750000Y-49219268D03*
X74276224Y-48960080D03*
X126615000Y-53750000D03*
X75060479Y-49473438D03*
X73650446Y-57767211D03*
X125000000Y-49877000D03*
X74555992Y-57964608D03*
X123825000Y-53750000D03*
X74485534Y-56789018D03*
X122500000Y-50831010D03*
X75398361Y-56992287D03*
X121285000Y-53500000D03*
X93750000Y-75000000D03*
X108750000Y-77750000D03*
D13*
X149250000Y-64500000D02*
X149250000Y-77500000D01*
X147299999Y-62549999D02*
X149250000Y-64500000D01*
X124161714Y-79000000D02*
X120661714Y-75500000D01*
X146500000Y-62250000D02*
X146799999Y-62549999D01*
X146799999Y-62549999D02*
X147299999Y-62549999D01*
X149250000Y-77500000D02*
X147750000Y-79000000D01*
X147750000Y-79000000D02*
X124161714Y-79000000D01*
X120661714Y-75500000D02*
X115250000Y-75500000D01*
D14*
X65500000Y-44750000D02*
X65200001Y-45049999D01*
X65200001Y-45049999D02*
X63950001Y-45049999D01*
X63950001Y-45049999D02*
X61250000Y-47750000D01*
X81317695Y-79182305D02*
X88250000Y-72250000D01*
X61250000Y-47750000D02*
X61250000Y-72263130D01*
X61250000Y-72263130D02*
X68169175Y-79182305D01*
X68169175Y-79182305D02*
X81317695Y-79182305D01*
X65500000Y-44325736D02*
X65500000Y-44750000D01*
X67308443Y-42517293D02*
X65500000Y-44325736D01*
X144017293Y-42517293D02*
X67308443Y-42517293D01*
X145750000Y-44250000D02*
X144017293Y-42517293D01*
X62500000Y-71250000D02*
X69000000Y-77750000D01*
X69000000Y-77750000D02*
X73750000Y-77750000D01*
X62500000Y-48250000D02*
X62500000Y-71250000D01*
X64250000Y-46500000D02*
X62500000Y-48250000D01*
X65174264Y-46500000D02*
X64250000Y-46500000D01*
X66500000Y-44750000D02*
X66500000Y-45174264D01*
X66500000Y-45174264D02*
X65174264Y-46500000D01*
X142750000Y-46000000D02*
X142750000Y-44250000D01*
X66799999Y-44450001D02*
X66500000Y-44750000D01*
X67770697Y-43479303D02*
X66799999Y-44450001D01*
X142212010Y-43712010D02*
X132207762Y-43712008D01*
X132207762Y-43712008D02*
X131975057Y-43479303D01*
X142750000Y-44250000D02*
X142212010Y-43712010D01*
X131975057Y-43479303D02*
X67770697Y-43479303D01*
D13*
X149000000Y-47000000D02*
X149000000Y-57000000D01*
X148000000Y-46000000D02*
X149000000Y-47000000D01*
X142750000Y-46000000D02*
X148000000Y-46000000D01*
X141500000Y-47250000D02*
X142750000Y-46000000D01*
D15*
X145980913Y-61269087D02*
X148606109Y-61269087D01*
X124616741Y-77545990D02*
X147311944Y-77545990D01*
X113750000Y-72250000D02*
X113750000Y-72674264D01*
X113750000Y-72674264D02*
X115294715Y-74218979D01*
X115294715Y-74218979D02*
X120826350Y-74218979D01*
X147311944Y-77545990D02*
X147795990Y-77061944D01*
X120826350Y-74218979D02*
X120827776Y-74217553D01*
X120827776Y-74217553D02*
X121288305Y-74217553D01*
X121288305Y-74217553D02*
X121554258Y-74483507D01*
X146500000Y-66500000D02*
X146500000Y-64000000D01*
X121554258Y-74483507D02*
X124616741Y-77545990D01*
X147795990Y-67795990D02*
X146500000Y-66500000D01*
X147795990Y-77061944D02*
X147795990Y-67795990D01*
X146500000Y-64000000D02*
X145672991Y-63172991D01*
X145672991Y-61577009D02*
X145980913Y-61269087D01*
X148606109Y-61269087D02*
X148906108Y-61569086D01*
X145672991Y-63172991D02*
X145672991Y-61577009D01*
X142370474Y-62255495D02*
X142670473Y-61955496D01*
X128250000Y-64750000D02*
X139875969Y-64750000D01*
X139875969Y-64750000D02*
X142370474Y-62255495D01*
X97700529Y-62479336D02*
X99348194Y-64127001D01*
X99348194Y-64127001D02*
X101317592Y-64127001D01*
X87500000Y-65500000D02*
X87799999Y-65200001D01*
X87799999Y-65200001D02*
X87799999Y-64592067D01*
X87799999Y-64592067D02*
X89912730Y-62479336D01*
X89912730Y-62479336D02*
X97700529Y-62479336D01*
X101317592Y-64127001D02*
X108000000Y-57444593D01*
X87500000Y-65500000D02*
X83750000Y-69250000D01*
X83750000Y-69250000D02*
X83378000Y-69250000D01*
X89025139Y-58111573D02*
X104845959Y-58111573D01*
X104845959Y-58111573D02*
X104941098Y-58016434D01*
X89090127Y-61454606D02*
X103014560Y-61454606D01*
X106043551Y-58425615D02*
X106343550Y-58125616D01*
X103014560Y-61454606D02*
X106043551Y-58425615D01*
X88871144Y-57227651D02*
X106686527Y-57227651D01*
X87695599Y-58403196D02*
X88871144Y-57227651D01*
X87695599Y-61002385D02*
X87695599Y-58403196D01*
X106686527Y-57227651D02*
X106986526Y-57527650D01*
X87695599Y-61002385D02*
X87271335Y-61002385D01*
X87271335Y-61002385D02*
X82122999Y-66150721D01*
X82122999Y-66150721D02*
X82122999Y-69872999D01*
X82122999Y-69872999D02*
X82750000Y-70500000D01*
X88009985Y-71292376D02*
X92042376Y-71292376D01*
X148250000Y-66973543D02*
X147966409Y-66689952D01*
X92042376Y-71292376D02*
X96109544Y-75359544D01*
X109577011Y-74672989D02*
X121014407Y-74672989D01*
X121014407Y-74672989D02*
X121015833Y-74671563D01*
X96109544Y-75359544D02*
X108890456Y-75359544D01*
X108890456Y-75359544D02*
X109577011Y-74672989D01*
X121015833Y-74671563D02*
X121100248Y-74671563D01*
X121100248Y-74671563D02*
X124428685Y-78000000D01*
X124428685Y-78000000D02*
X147500000Y-78000000D01*
X147500000Y-78000000D02*
X148250000Y-77250000D01*
X147966409Y-66689952D02*
X147689952Y-66689952D01*
X148250000Y-77250000D02*
X148250000Y-66973543D01*
X147689952Y-66689952D02*
X147500000Y-66500000D01*
X86250000Y-65000000D02*
X86674264Y-65000000D01*
X98068919Y-61960999D02*
X98628961Y-62521041D01*
X86674264Y-65000000D02*
X89713265Y-61960999D01*
X98628961Y-62521041D02*
X98928960Y-62821040D01*
X89713265Y-61960999D02*
X98068919Y-61960999D01*
X82751264Y-52180777D02*
X82853567Y-52078474D01*
X82327000Y-52180777D02*
X82751264Y-52180777D01*
X82853567Y-52078474D02*
X107301431Y-52078474D01*
X106430433Y-52854602D02*
X106500676Y-52784359D01*
X106500676Y-52784359D02*
X106924940Y-52784359D01*
X82064470Y-52854602D02*
X106430433Y-52854602D01*
X81994230Y-52784362D02*
X82064470Y-52854602D01*
X81569966Y-52784362D02*
X81994230Y-52784362D01*
X109450001Y-52413613D02*
X109750000Y-52113614D01*
X81038683Y-53411369D02*
X108452245Y-53411369D01*
X80627314Y-53000000D02*
X81038683Y-53411369D01*
X108452245Y-53411369D02*
X109450001Y-52413613D01*
X77772631Y-55651633D02*
X77772631Y-55227369D01*
X77772631Y-55696895D02*
X77772631Y-55651633D01*
X116205000Y-53500000D02*
X113850586Y-55854414D01*
X113850586Y-55854414D02*
X77930150Y-55854414D01*
X77930150Y-55854414D02*
X77772631Y-55696895D01*
X114691576Y-56308424D02*
X77742093Y-56308424D01*
X117500000Y-53500000D02*
X114691576Y-56308424D01*
X77184535Y-55750866D02*
X77184535Y-55521857D01*
X77742093Y-56308424D02*
X77184535Y-55750866D01*
X77090466Y-55427788D02*
X76790467Y-55127789D01*
X77184535Y-55521857D02*
X77090466Y-55427788D01*
X118750000Y-53750000D02*
X115737566Y-56762434D01*
X77430169Y-56762434D02*
X76862311Y-56194576D01*
X76862311Y-56194576D02*
X76562312Y-55894577D01*
X115737566Y-56762434D02*
X77430169Y-56762434D01*
X119816472Y-51474184D02*
X120116471Y-51774183D01*
X76864567Y-51451473D02*
X119793761Y-51451473D01*
X75630892Y-52685148D02*
X76864567Y-51451473D01*
X119793761Y-51451473D02*
X119816472Y-51474184D01*
X75630892Y-56011678D02*
X75630892Y-52685148D01*
X114906754Y-53502766D02*
X113182107Y-55227413D01*
X79031511Y-55217304D02*
X78607247Y-55217304D01*
X79041620Y-55227413D02*
X79031511Y-55217304D01*
X113182107Y-55227413D02*
X79041620Y-55227413D01*
X79222206Y-54635436D02*
X78922207Y-54335437D01*
X79360172Y-54773402D02*
X79222206Y-54635436D01*
X113665000Y-53651573D02*
X112543171Y-54773402D01*
X112543171Y-54773402D02*
X79360172Y-54773402D01*
X80551521Y-53865380D02*
X79448947Y-52762806D01*
X110527737Y-53865380D02*
X80551521Y-53865380D01*
X111125000Y-53692381D02*
X110700736Y-53692381D01*
X79448947Y-52762806D02*
X79448947Y-52338542D01*
X110700736Y-53692381D02*
X110527737Y-53865380D01*
X79206483Y-53487615D02*
X78906484Y-53187616D01*
X80038259Y-54319391D02*
X79206483Y-53487615D01*
X112430392Y-53831236D02*
X111942237Y-54319391D01*
X111942237Y-54319391D02*
X80038259Y-54319391D01*
X133000000Y-47500000D02*
X132711466Y-47500000D01*
X132711466Y-47500000D02*
X131907710Y-46696244D01*
X131907710Y-46696244D02*
X130980380Y-46696244D01*
X70928119Y-46804431D02*
X70628120Y-47104430D01*
X130980380Y-46696244D02*
X130741499Y-46457363D01*
X130741499Y-46457363D02*
X71275187Y-46457363D01*
X71275187Y-46457363D02*
X70928119Y-46804431D01*
X70638288Y-46003353D02*
X130929557Y-46003353D01*
X131164087Y-46237883D02*
X132705972Y-46237883D01*
X69713533Y-46928108D02*
X70638288Y-46003353D01*
X132714239Y-46246150D02*
X133014238Y-46546149D01*
X132705972Y-46237883D02*
X132714239Y-46246150D01*
X130929557Y-46003353D02*
X131164087Y-46237883D01*
X131305673Y-45095333D02*
X69326892Y-45095333D01*
X68799485Y-45622740D02*
X68499486Y-45922739D01*
X69326892Y-45095333D02*
X68799485Y-45622740D01*
X131538379Y-45328039D02*
X131305673Y-45095333D01*
X135500000Y-45501030D02*
X135327010Y-45328040D01*
X135327010Y-45328040D02*
X131538379Y-45328039D01*
X134768880Y-45782050D02*
X134946705Y-45959875D01*
X69533402Y-45955040D02*
X69939099Y-45549343D01*
X131117615Y-45549343D02*
X131350322Y-45782050D01*
X69939099Y-45549343D02*
X131117615Y-45549343D01*
X134946705Y-45959875D02*
X135246704Y-46259874D01*
X131350322Y-45782050D02*
X134768880Y-45782050D01*
X131493731Y-44641323D02*
X131726437Y-44874029D01*
X131726437Y-44874029D02*
X137374029Y-44874029D01*
X137374029Y-44874029D02*
X137450001Y-44950001D01*
X68749055Y-44641323D02*
X131493731Y-44641323D01*
X137450001Y-44950001D02*
X137750000Y-45250000D01*
X68343358Y-45047020D02*
X68749055Y-44641323D01*
X131914494Y-44420018D02*
X139920020Y-44420020D01*
X68312687Y-44187313D02*
X131681789Y-44187313D01*
X139920020Y-44420020D02*
X139950001Y-44450001D01*
X67500000Y-45000000D02*
X68312687Y-44187313D01*
X139950001Y-44450001D02*
X140250000Y-44750000D01*
X131681789Y-44187313D02*
X131914494Y-44420018D01*
X130852074Y-47210006D02*
X130553441Y-46911373D01*
X130553441Y-46911373D02*
X71908557Y-46911373D01*
X131145001Y-47210006D02*
X130852074Y-47210006D01*
X71628048Y-47191882D02*
X71328049Y-47491881D01*
X131445000Y-47510005D02*
X131145001Y-47210006D01*
X71908557Y-46911373D02*
X71628048Y-47191882D01*
X72572163Y-47365383D02*
X72274848Y-47662698D01*
X72274848Y-47662698D02*
X71974849Y-47962697D01*
X130365383Y-47365383D02*
X72572163Y-47365383D01*
X131500000Y-48500000D02*
X130365383Y-47365383D01*
X73083112Y-47819393D02*
X73052662Y-47849843D01*
X73052662Y-47849843D02*
X72752663Y-48149842D01*
X129108777Y-47819393D02*
X73083112Y-47819393D01*
X129432489Y-48143105D02*
X129108777Y-47819393D01*
X73517167Y-48506070D02*
X73749835Y-48273402D01*
X73749835Y-48273402D02*
X127843068Y-48273402D01*
X128075736Y-48506070D02*
X128500000Y-48506070D01*
X127843068Y-48273402D02*
X128075736Y-48506070D01*
X74276224Y-48960080D02*
X74700488Y-48960080D01*
X74700488Y-48960080D02*
X74933155Y-48727413D01*
X74933155Y-48727413D02*
X127258145Y-48727413D01*
X127450001Y-48919269D02*
X127750000Y-49219268D01*
X127258145Y-48727413D02*
X127450001Y-48919269D01*
X125931423Y-49181423D02*
X126615000Y-49865000D01*
X126615000Y-49865000D02*
X126615000Y-53325736D01*
X75776758Y-49181423D02*
X125931423Y-49181423D01*
X75484743Y-49473438D02*
X75776758Y-49181423D01*
X75060479Y-49473438D02*
X75484743Y-49473438D01*
X126615000Y-53325736D02*
X126615000Y-53750000D01*
X124334169Y-49635433D02*
X75972499Y-49635433D01*
X75972499Y-49635433D02*
X73350447Y-52257485D01*
X73350447Y-52257485D02*
X73350447Y-57467212D01*
X124575736Y-49877000D02*
X124334169Y-49635433D01*
X125000000Y-49877000D02*
X124575736Y-49877000D01*
X73350447Y-57467212D02*
X73650446Y-57767211D01*
X123825000Y-50825000D02*
X123089443Y-50089443D01*
X73858524Y-57088545D02*
X74555992Y-57786013D01*
X123089443Y-50089443D02*
X76160557Y-50089443D01*
X73858524Y-52391476D02*
X73858524Y-57088545D01*
X74555992Y-57786013D02*
X74555992Y-57964608D01*
X76160557Y-50089443D02*
X73858524Y-52391476D01*
X123825000Y-53750000D02*
X123825000Y-50825000D01*
X76348613Y-50543453D02*
X74464236Y-52427830D01*
X74464236Y-56767720D02*
X74485534Y-56789018D01*
X74464236Y-52427830D02*
X74464236Y-56767720D01*
X122075736Y-50831010D02*
X121788178Y-50543452D01*
X121788178Y-50543452D02*
X76348613Y-50543453D01*
X122500000Y-50831010D02*
X122075736Y-50831010D01*
X121285000Y-53500000D02*
X121285000Y-51785000D01*
X120497463Y-50997463D02*
X76536671Y-50997463D01*
X74918246Y-52615888D02*
X74918246Y-56304853D01*
X121285000Y-51785000D02*
X120497463Y-50997463D01*
X74918246Y-56304853D02*
X75398361Y-56784968D01*
X75398361Y-56784968D02*
X75398361Y-56992287D01*
X76536671Y-50997463D02*
X74918246Y-52615888D01*
D16*
X108750000Y-77750000D02*
X107001439Y-76001439D01*
X107001439Y-76001439D02*
X94751439Y-76001439D01*
X94751439Y-76001439D02*
X93750000Y-75000000D01*
D15*
G36*
X93737358Y-74064988D02*
X93564833Y-74064838D01*
X93221057Y-74206883D01*
X92957808Y-74469673D01*
X92815162Y-74813201D01*
X92814838Y-75185167D01*
X92956883Y-75528943D01*
X93219673Y-75792192D01*
X93331313Y-75838549D01*
X94122821Y-76630057D01*
X94411234Y-76822769D01*
X94751439Y-76890439D01*
X106633203Y-76890439D01*
X107911238Y-78168474D01*
X107956883Y-78278943D01*
X108219673Y-78542192D01*
X108563201Y-78684838D01*
X108935167Y-78685162D01*
X109278943Y-78543117D01*
X109542192Y-78280327D01*
X109684838Y-77936799D01*
X109685162Y-77564833D01*
X109543117Y-77221057D01*
X109280327Y-76957808D01*
X109168687Y-76911451D01*
X108378780Y-76121544D01*
X108890456Y-76121544D01*
X109182061Y-76063540D01*
X109429271Y-75898359D01*
X109892642Y-75434989D01*
X114127932Y-75434989D01*
X114115000Y-75500000D01*
X114201397Y-75934346D01*
X114447434Y-76302566D01*
X114815654Y-76548603D01*
X115250000Y-76635000D01*
X120191582Y-76635000D01*
X122794581Y-79238000D01*
X82698840Y-79238000D01*
X88968421Y-72968420D01*
X89188662Y-72638807D01*
X89265999Y-72250000D01*
X89227088Y-72054376D01*
X91726746Y-72054376D01*
X93737358Y-74064988D01*
X93737358Y-74064988D01*
G37*
X93737358Y-74064988D02*
X93564833Y-74064838D01*
X93221057Y-74206883D01*
X92957808Y-74469673D01*
X92815162Y-74813201D01*
X92814838Y-75185167D01*
X92956883Y-75528943D01*
X93219673Y-75792192D01*
X93331313Y-75838549D01*
X94122821Y-76630057D01*
X94411234Y-76822769D01*
X94751439Y-76890439D01*
X106633203Y-76890439D01*
X107911238Y-78168474D01*
X107956883Y-78278943D01*
X108219673Y-78542192D01*
X108563201Y-78684838D01*
X108935167Y-78685162D01*
X109278943Y-78543117D01*
X109542192Y-78280327D01*
X109684838Y-77936799D01*
X109685162Y-77564833D01*
X109543117Y-77221057D01*
X109280327Y-76957808D01*
X109168687Y-76911451D01*
X108378780Y-76121544D01*
X108890456Y-76121544D01*
X109182061Y-76063540D01*
X109429271Y-75898359D01*
X109892642Y-75434989D01*
X114127932Y-75434989D01*
X114115000Y-75500000D01*
X114201397Y-75934346D01*
X114447434Y-76302566D01*
X114815654Y-76548603D01*
X115250000Y-76635000D01*
X120191582Y-76635000D01*
X122794581Y-79238000D01*
X82698840Y-79238000D01*
X88968421Y-72968420D01*
X89188662Y-72638807D01*
X89265999Y-72250000D01*
X89227088Y-72054376D01*
X91726746Y-72054376D01*
X93737358Y-74064988D01*
G36*
X141734000Y-45410868D02*
X140697434Y-46447434D01*
X140451397Y-46815655D01*
X140365000Y-47250000D01*
X140451397Y-47684345D01*
X140697434Y-48052566D01*
X141065655Y-48298603D01*
X141500000Y-48385000D01*
X141934345Y-48298603D01*
X142302566Y-48052566D01*
X143220132Y-47135000D01*
X147529868Y-47135000D01*
X147865000Y-47470133D01*
X147865000Y-57000000D01*
X147951397Y-57434346D01*
X148197434Y-57802566D01*
X148565654Y-58048603D01*
X149000000Y-58135000D01*
X149238000Y-58087659D01*
X149238000Y-60694496D01*
X149092907Y-60634248D01*
X149001095Y-60634168D01*
X148897714Y-60565091D01*
X148606109Y-60507087D01*
X145980913Y-60507087D01*
X145689308Y-60565091D01*
X145442097Y-60730272D01*
X145134176Y-61038194D01*
X144968995Y-61285404D01*
X144910991Y-61577009D01*
X144910991Y-63172991D01*
X144968995Y-63464596D01*
X145058536Y-63598603D01*
X145134176Y-63711806D01*
X145738000Y-64315631D01*
X145738000Y-66500000D01*
X145796004Y-66791605D01*
X145957961Y-67033990D01*
X145961185Y-67038815D01*
X147033990Y-68111621D01*
X147033990Y-76746313D01*
X146996314Y-76783990D01*
X124932371Y-76783990D01*
X122093073Y-73944692D01*
X121827121Y-73678739D01*
X121827119Y-73678737D01*
X121745092Y-73623928D01*
X121579911Y-73513557D01*
X121521907Y-73502019D01*
X121288305Y-73455553D01*
X120827776Y-73455553D01*
X120820607Y-73456979D01*
X115610345Y-73456979D01*
X114657060Y-72503694D01*
X114684838Y-72436799D01*
X114685162Y-72064833D01*
X114543117Y-71721057D01*
X114280327Y-71457808D01*
X113936799Y-71315162D01*
X113564833Y-71314838D01*
X113221057Y-71456883D01*
X112957808Y-71719673D01*
X112815162Y-72063201D01*
X112814838Y-72435167D01*
X112956883Y-72778943D01*
X113021747Y-72843920D01*
X113046004Y-72965869D01*
X113047709Y-72968420D01*
X113211185Y-73213079D01*
X113909095Y-73910989D01*
X109577011Y-73910989D01*
X109292575Y-73967567D01*
X109285406Y-73968993D01*
X109038195Y-74134174D01*
X108574826Y-74597544D01*
X96425174Y-74597544D01*
X92581191Y-70753561D01*
X92478832Y-70685167D01*
X92333981Y-70588380D01*
X92042376Y-70530376D01*
X88570451Y-70530376D01*
X88540312Y-70500184D01*
X88196784Y-70357538D01*
X87824818Y-70357214D01*
X87481042Y-70499259D01*
X87217793Y-70762049D01*
X87075147Y-71105577D01*
X87074823Y-71477543D01*
X87216868Y-71821319D01*
X87229343Y-71833816D01*
X80896855Y-78166305D01*
X74670288Y-78166305D01*
X74688662Y-78138806D01*
X74766000Y-77750000D01*
X74688662Y-77361194D01*
X74468420Y-77031580D01*
X74138806Y-76811338D01*
X73750000Y-76734000D01*
X69420841Y-76734000D01*
X63516000Y-70829160D01*
X63516000Y-61977069D01*
X64449830Y-61977069D01*
X64599471Y-62339229D01*
X64876314Y-62616555D01*
X65238212Y-62766828D01*
X65630069Y-62767170D01*
X65992229Y-62617529D01*
X66269555Y-62340686D01*
X66419828Y-61978788D01*
X66420170Y-61586931D01*
X66270529Y-61224771D01*
X65993686Y-60947445D01*
X65631788Y-60797172D01*
X65239931Y-60796830D01*
X64877771Y-60946471D01*
X64600445Y-61223314D01*
X64450172Y-61585212D01*
X64449830Y-61977069D01*
X63516000Y-61977069D01*
X63516000Y-48670840D01*
X64670841Y-47516000D01*
X65174264Y-47516000D01*
X65505125Y-47450188D01*
X65563071Y-47438662D01*
X65892684Y-47218420D01*
X67216444Y-45894661D01*
X67313201Y-45934838D01*
X67564475Y-45935057D01*
X67564324Y-46107906D01*
X67706369Y-46451682D01*
X67969159Y-46714931D01*
X68312687Y-46857577D01*
X68684653Y-46857901D01*
X68778627Y-46819072D01*
X68778371Y-47113275D01*
X68920416Y-47457051D01*
X69183206Y-47720300D01*
X69526734Y-47862946D01*
X69898700Y-47863270D01*
X70016082Y-47814769D01*
X70097793Y-47896622D01*
X70441321Y-48039268D01*
X70553441Y-48039366D01*
X70797722Y-48284073D01*
X71141250Y-48426719D01*
X71154912Y-48426731D01*
X71181732Y-48491640D01*
X71444522Y-48754889D01*
X71788050Y-48897535D01*
X72160016Y-48897859D01*
X72172917Y-48892529D01*
X72222336Y-48942034D01*
X72565864Y-49084680D01*
X72773811Y-49084861D01*
X72986840Y-49298262D01*
X73330368Y-49440908D01*
X73463274Y-49441024D01*
X73483107Y-49489023D01*
X73745897Y-49752272D01*
X74089425Y-49894918D01*
X74223007Y-49895034D01*
X74267362Y-50002381D01*
X74397528Y-50132774D01*
X72811632Y-51718670D01*
X72646451Y-51965880D01*
X72588447Y-52257485D01*
X72588447Y-57467212D01*
X72646451Y-57758817D01*
X72715363Y-57861950D01*
X72715284Y-57952378D01*
X72857329Y-58296154D01*
X73120119Y-58559403D01*
X73463647Y-58702049D01*
X73835613Y-58702373D01*
X73931700Y-58662671D01*
X74025665Y-58756800D01*
X74369193Y-58899446D01*
X74741159Y-58899770D01*
X75084935Y-58757725D01*
X75348184Y-58494935D01*
X75490830Y-58151407D01*
X75491025Y-57927368D01*
X75583528Y-57927449D01*
X75927304Y-57785404D01*
X76190553Y-57522614D01*
X76333199Y-57179086D01*
X76333519Y-56811977D01*
X76375513Y-56829415D01*
X76419558Y-56829453D01*
X76891353Y-57301249D01*
X77071501Y-57421620D01*
X77138564Y-57466430D01*
X77430169Y-57524434D01*
X87496731Y-57524434D01*
X87156784Y-57864381D01*
X86991603Y-58111591D01*
X86933599Y-58403196D01*
X86933599Y-60329212D01*
X86732520Y-60463569D01*
X81584184Y-65611906D01*
X81419003Y-65859116D01*
X81360999Y-66150721D01*
X81360999Y-69872999D01*
X81419003Y-70164604D01*
X81465373Y-70234001D01*
X81584184Y-70411814D01*
X81814875Y-70642506D01*
X81814838Y-70685167D01*
X81956883Y-71028943D01*
X82219673Y-71292192D01*
X82563201Y-71434838D01*
X82935167Y-71435162D01*
X83278943Y-71293117D01*
X83542192Y-71030327D01*
X83684838Y-70686799D01*
X83685162Y-70314833D01*
X83621606Y-70161016D01*
X83906943Y-70043117D01*
X83984926Y-69965270D01*
X84041605Y-69953996D01*
X84288815Y-69788815D01*
X87642505Y-66435125D01*
X87685167Y-66435162D01*
X88028943Y-66293117D01*
X88292192Y-66030327D01*
X88434838Y-65686799D01*
X88434918Y-65594987D01*
X88455063Y-65564838D01*
X88503995Y-65491606D01*
X88561999Y-65200001D01*
X88561999Y-64935167D01*
X127314838Y-64935167D01*
X127456883Y-65278943D01*
X127719673Y-65542192D01*
X128063201Y-65684838D01*
X128435167Y-65685162D01*
X128778943Y-65543117D01*
X128810114Y-65512000D01*
X139875969Y-65512000D01*
X140167574Y-65453996D01*
X140414784Y-65288815D01*
X142812979Y-62890621D01*
X142855640Y-62890658D01*
X143199416Y-62748613D01*
X143462665Y-62485823D01*
X143605311Y-62142295D01*
X143605635Y-61770329D01*
X143463590Y-61426553D01*
X143200800Y-61163304D01*
X142857272Y-61020658D01*
X142485306Y-61020334D01*
X142141530Y-61162379D01*
X141878281Y-61425169D01*
X141735635Y-61768697D01*
X141735597Y-61812741D01*
X139560339Y-63988000D01*
X128810466Y-63988000D01*
X128780327Y-63957808D01*
X128436799Y-63815162D01*
X128064833Y-63814838D01*
X127721057Y-63956883D01*
X127457808Y-64219673D01*
X127315162Y-64563201D01*
X127314838Y-64935167D01*
X88561999Y-64935167D01*
X88561999Y-64907697D01*
X90228360Y-63241336D01*
X97384899Y-63241336D01*
X98809378Y-64665816D01*
X99004218Y-64796004D01*
X99056589Y-64830997D01*
X99348194Y-64889001D01*
X101317592Y-64889001D01*
X101609197Y-64830997D01*
X101856407Y-64665816D01*
X108142505Y-58379718D01*
X108185167Y-58379755D01*
X108528943Y-58237710D01*
X108792192Y-57974920D01*
X108934838Y-57631392D01*
X108934931Y-57524434D01*
X115737566Y-57524434D01*
X116029171Y-57466430D01*
X116276381Y-57301249D01*
X118892505Y-54685125D01*
X118935167Y-54685162D01*
X119278943Y-54543117D01*
X119542192Y-54280327D01*
X119684838Y-53936799D01*
X119685162Y-53564833D01*
X119543117Y-53221057D01*
X119280327Y-52957808D01*
X118936799Y-52815162D01*
X118564833Y-52814838D01*
X118262057Y-52939942D01*
X118030327Y-52707808D01*
X117686799Y-52565162D01*
X117314833Y-52564838D01*
X116971057Y-52706883D01*
X116852524Y-52825210D01*
X116735327Y-52707808D01*
X116391799Y-52565162D01*
X116019833Y-52564838D01*
X115676057Y-52706883D01*
X115554515Y-52828213D01*
X115437081Y-52710574D01*
X115093553Y-52567928D01*
X114721587Y-52567604D01*
X114377811Y-52709649D01*
X114211544Y-52875626D01*
X114195327Y-52859381D01*
X113851799Y-52716735D01*
X113479833Y-52716411D01*
X113136057Y-52858456D01*
X112956789Y-53037412D01*
X112617191Y-52896398D01*
X112245225Y-52896074D01*
X111901449Y-53038119D01*
X111847138Y-53092335D01*
X111655327Y-52900189D01*
X111311799Y-52757543D01*
X110939833Y-52757219D01*
X110596057Y-52899264D01*
X110531081Y-52964127D01*
X110409132Y-52988384D01*
X110237028Y-53103380D01*
X109837864Y-53103380D01*
X109892505Y-53048739D01*
X109935167Y-53048776D01*
X110278943Y-52906731D01*
X110542192Y-52643941D01*
X110684838Y-52300413D01*
X110684914Y-52213473D01*
X119286310Y-52213473D01*
X119323354Y-52303126D01*
X119586144Y-52566375D01*
X119929672Y-52709021D01*
X120301638Y-52709345D01*
X120523000Y-52617880D01*
X120523000Y-52939534D01*
X120492808Y-52969673D01*
X120350162Y-53313201D01*
X120349838Y-53685167D01*
X120491883Y-54028943D01*
X120754673Y-54292192D01*
X121098201Y-54434838D01*
X121470167Y-54435162D01*
X121813943Y-54293117D01*
X122077192Y-54030327D01*
X122219838Y-53686799D01*
X122220162Y-53314833D01*
X122078117Y-52971057D01*
X122047000Y-52939886D01*
X122047000Y-51785000D01*
X122043190Y-51765848D01*
X122018881Y-51643635D01*
X122313201Y-51765848D01*
X122685167Y-51766172D01*
X123028943Y-51624127D01*
X123063000Y-51590129D01*
X123063000Y-53189534D01*
X123032808Y-53219673D01*
X122890162Y-53563201D01*
X122889838Y-53935167D01*
X123031883Y-54278943D01*
X123294673Y-54542192D01*
X123638201Y-54684838D01*
X124010167Y-54685162D01*
X124353943Y-54543117D01*
X124617192Y-54280327D01*
X124759838Y-53936799D01*
X124760162Y-53564833D01*
X124618117Y-53221057D01*
X124587000Y-53189886D01*
X124587000Y-50825000D01*
X124563781Y-50708269D01*
X124813201Y-50811838D01*
X125185167Y-50812162D01*
X125528943Y-50670117D01*
X125792192Y-50407327D01*
X125853000Y-50260886D01*
X125853000Y-53189534D01*
X125822808Y-53219673D01*
X125680162Y-53563201D01*
X125679838Y-53935167D01*
X125821883Y-54278943D01*
X126084673Y-54542192D01*
X126428201Y-54684838D01*
X126800167Y-54685162D01*
X127143943Y-54543117D01*
X127407192Y-54280327D01*
X127549838Y-53936799D01*
X127550162Y-53564833D01*
X127408117Y-53221057D01*
X127377000Y-53189886D01*
X127377000Y-50076788D01*
X127563201Y-50154106D01*
X127935167Y-50154430D01*
X128278943Y-50012385D01*
X128542192Y-49749595D01*
X128670242Y-49441219D01*
X128685167Y-49441232D01*
X129028943Y-49299187D01*
X129250569Y-49077947D01*
X129617656Y-49078267D01*
X129961432Y-48936222D01*
X130224681Y-48673432D01*
X130333570Y-48411200D01*
X130564875Y-48642506D01*
X130564838Y-48685167D01*
X130706883Y-49028943D01*
X130969673Y-49292192D01*
X131313201Y-49434838D01*
X131685167Y-49435162D01*
X132028943Y-49293117D01*
X132292192Y-49030327D01*
X132434838Y-48686799D01*
X132435162Y-48314833D01*
X132394827Y-48217216D01*
X132469673Y-48292192D01*
X132813201Y-48434838D01*
X133185167Y-48435162D01*
X133528943Y-48293117D01*
X133792192Y-48030327D01*
X133934838Y-47686799D01*
X133935162Y-47314833D01*
X133821590Y-47039967D01*
X133949076Y-46732948D01*
X133949241Y-46544050D01*
X134352452Y-46544050D01*
X134453587Y-46788817D01*
X134716377Y-47052066D01*
X135059905Y-47194712D01*
X135431871Y-47195036D01*
X135775647Y-47052991D01*
X136038896Y-46790201D01*
X136181542Y-46446673D01*
X136181808Y-46141549D01*
X136292192Y-46031357D01*
X136434838Y-45687829D01*
X136434883Y-45636029D01*
X136897832Y-45636029D01*
X136956883Y-45778943D01*
X137219673Y-46042192D01*
X137563201Y-46184838D01*
X137935167Y-46185162D01*
X138278943Y-46043117D01*
X138542192Y-45780327D01*
X138684838Y-45436799D01*
X138685060Y-45182020D01*
X139416835Y-45182020D01*
X139456883Y-45278943D01*
X139719673Y-45542192D01*
X140063201Y-45684838D01*
X140435167Y-45685162D01*
X140778943Y-45543117D01*
X141042192Y-45280327D01*
X141184838Y-44936799D01*
X141185020Y-44728010D01*
X141734000Y-44728010D01*
X141734000Y-45410868D01*
X141734000Y-45410868D01*
G37*
X141734000Y-45410868D02*
X140697434Y-46447434D01*
X140451397Y-46815655D01*
X140365000Y-47250000D01*
X140451397Y-47684345D01*
X140697434Y-48052566D01*
X141065655Y-48298603D01*
X141500000Y-48385000D01*
X141934345Y-48298603D01*
X142302566Y-48052566D01*
X143220132Y-47135000D01*
X147529868Y-47135000D01*
X147865000Y-47470133D01*
X147865000Y-57000000D01*
X147951397Y-57434346D01*
X148197434Y-57802566D01*
X148565654Y-58048603D01*
X149000000Y-58135000D01*
X149238000Y-58087659D01*
X149238000Y-60694496D01*
X149092907Y-60634248D01*
X149001095Y-60634168D01*
X148897714Y-60565091D01*
X148606109Y-60507087D01*
X145980913Y-60507087D01*
X145689308Y-60565091D01*
X145442097Y-60730272D01*
X145134176Y-61038194D01*
X144968995Y-61285404D01*
X144910991Y-61577009D01*
X144910991Y-63172991D01*
X144968995Y-63464596D01*
X145058536Y-63598603D01*
X145134176Y-63711806D01*
X145738000Y-64315631D01*
X145738000Y-66500000D01*
X145796004Y-66791605D01*
X145957961Y-67033990D01*
X145961185Y-67038815D01*
X147033990Y-68111621D01*
X147033990Y-76746313D01*
X146996314Y-76783990D01*
X124932371Y-76783990D01*
X122093073Y-73944692D01*
X121827121Y-73678739D01*
X121827119Y-73678737D01*
X121745092Y-73623928D01*
X121579911Y-73513557D01*
X121521907Y-73502019D01*
X121288305Y-73455553D01*
X120827776Y-73455553D01*
X120820607Y-73456979D01*
X115610345Y-73456979D01*
X114657060Y-72503694D01*
X114684838Y-72436799D01*
X114685162Y-72064833D01*
X114543117Y-71721057D01*
X114280327Y-71457808D01*
X113936799Y-71315162D01*
X113564833Y-71314838D01*
X113221057Y-71456883D01*
X112957808Y-71719673D01*
X112815162Y-72063201D01*
X112814838Y-72435167D01*
X112956883Y-72778943D01*
X113021747Y-72843920D01*
X113046004Y-72965869D01*
X113047709Y-72968420D01*
X113211185Y-73213079D01*
X113909095Y-73910989D01*
X109577011Y-73910989D01*
X109292575Y-73967567D01*
X109285406Y-73968993D01*
X109038195Y-74134174D01*
X108574826Y-74597544D01*
X96425174Y-74597544D01*
X92581191Y-70753561D01*
X92478832Y-70685167D01*
X92333981Y-70588380D01*
X92042376Y-70530376D01*
X88570451Y-70530376D01*
X88540312Y-70500184D01*
X88196784Y-70357538D01*
X87824818Y-70357214D01*
X87481042Y-70499259D01*
X87217793Y-70762049D01*
X87075147Y-71105577D01*
X87074823Y-71477543D01*
X87216868Y-71821319D01*
X87229343Y-71833816D01*
X80896855Y-78166305D01*
X74670288Y-78166305D01*
X74688662Y-78138806D01*
X74766000Y-77750000D01*
X74688662Y-77361194D01*
X74468420Y-77031580D01*
X74138806Y-76811338D01*
X73750000Y-76734000D01*
X69420841Y-76734000D01*
X63516000Y-70829160D01*
X63516000Y-61977069D01*
X64449830Y-61977069D01*
X64599471Y-62339229D01*
X64876314Y-62616555D01*
X65238212Y-62766828D01*
X65630069Y-62767170D01*
X65992229Y-62617529D01*
X66269555Y-62340686D01*
X66419828Y-61978788D01*
X66420170Y-61586931D01*
X66270529Y-61224771D01*
X65993686Y-60947445D01*
X65631788Y-60797172D01*
X65239931Y-60796830D01*
X64877771Y-60946471D01*
X64600445Y-61223314D01*
X64450172Y-61585212D01*
X64449830Y-61977069D01*
X63516000Y-61977069D01*
X63516000Y-48670840D01*
X64670841Y-47516000D01*
X65174264Y-47516000D01*
X65505125Y-47450188D01*
X65563071Y-47438662D01*
X65892684Y-47218420D01*
X67216444Y-45894661D01*
X67313201Y-45934838D01*
X67564475Y-45935057D01*
X67564324Y-46107906D01*
X67706369Y-46451682D01*
X67969159Y-46714931D01*
X68312687Y-46857577D01*
X68684653Y-46857901D01*
X68778627Y-46819072D01*
X68778371Y-47113275D01*
X68920416Y-47457051D01*
X69183206Y-47720300D01*
X69526734Y-47862946D01*
X69898700Y-47863270D01*
X70016082Y-47814769D01*
X70097793Y-47896622D01*
X70441321Y-48039268D01*
X70553441Y-48039366D01*
X70797722Y-48284073D01*
X71141250Y-48426719D01*
X71154912Y-48426731D01*
X71181732Y-48491640D01*
X71444522Y-48754889D01*
X71788050Y-48897535D01*
X72160016Y-48897859D01*
X72172917Y-48892529D01*
X72222336Y-48942034D01*
X72565864Y-49084680D01*
X72773811Y-49084861D01*
X72986840Y-49298262D01*
X73330368Y-49440908D01*
X73463274Y-49441024D01*
X73483107Y-49489023D01*
X73745897Y-49752272D01*
X74089425Y-49894918D01*
X74223007Y-49895034D01*
X74267362Y-50002381D01*
X74397528Y-50132774D01*
X72811632Y-51718670D01*
X72646451Y-51965880D01*
X72588447Y-52257485D01*
X72588447Y-57467212D01*
X72646451Y-57758817D01*
X72715363Y-57861950D01*
X72715284Y-57952378D01*
X72857329Y-58296154D01*
X73120119Y-58559403D01*
X73463647Y-58702049D01*
X73835613Y-58702373D01*
X73931700Y-58662671D01*
X74025665Y-58756800D01*
X74369193Y-58899446D01*
X74741159Y-58899770D01*
X75084935Y-58757725D01*
X75348184Y-58494935D01*
X75490830Y-58151407D01*
X75491025Y-57927368D01*
X75583528Y-57927449D01*
X75927304Y-57785404D01*
X76190553Y-57522614D01*
X76333199Y-57179086D01*
X76333519Y-56811977D01*
X76375513Y-56829415D01*
X76419558Y-56829453D01*
X76891353Y-57301249D01*
X77071501Y-57421620D01*
X77138564Y-57466430D01*
X77430169Y-57524434D01*
X87496731Y-57524434D01*
X87156784Y-57864381D01*
X86991603Y-58111591D01*
X86933599Y-58403196D01*
X86933599Y-60329212D01*
X86732520Y-60463569D01*
X81584184Y-65611906D01*
X81419003Y-65859116D01*
X81360999Y-66150721D01*
X81360999Y-69872999D01*
X81419003Y-70164604D01*
X81465373Y-70234001D01*
X81584184Y-70411814D01*
X81814875Y-70642506D01*
X81814838Y-70685167D01*
X81956883Y-71028943D01*
X82219673Y-71292192D01*
X82563201Y-71434838D01*
X82935167Y-71435162D01*
X83278943Y-71293117D01*
X83542192Y-71030327D01*
X83684838Y-70686799D01*
X83685162Y-70314833D01*
X83621606Y-70161016D01*
X83906943Y-70043117D01*
X83984926Y-69965270D01*
X84041605Y-69953996D01*
X84288815Y-69788815D01*
X87642505Y-66435125D01*
X87685167Y-66435162D01*
X88028943Y-66293117D01*
X88292192Y-66030327D01*
X88434838Y-65686799D01*
X88434918Y-65594987D01*
X88455063Y-65564838D01*
X88503995Y-65491606D01*
X88561999Y-65200001D01*
X88561999Y-64935167D01*
X127314838Y-64935167D01*
X127456883Y-65278943D01*
X127719673Y-65542192D01*
X128063201Y-65684838D01*
X128435167Y-65685162D01*
X128778943Y-65543117D01*
X128810114Y-65512000D01*
X139875969Y-65512000D01*
X140167574Y-65453996D01*
X140414784Y-65288815D01*
X142812979Y-62890621D01*
X142855640Y-62890658D01*
X143199416Y-62748613D01*
X143462665Y-62485823D01*
X143605311Y-62142295D01*
X143605635Y-61770329D01*
X143463590Y-61426553D01*
X143200800Y-61163304D01*
X142857272Y-61020658D01*
X142485306Y-61020334D01*
X142141530Y-61162379D01*
X141878281Y-61425169D01*
X141735635Y-61768697D01*
X141735597Y-61812741D01*
X139560339Y-63988000D01*
X128810466Y-63988000D01*
X128780327Y-63957808D01*
X128436799Y-63815162D01*
X128064833Y-63814838D01*
X127721057Y-63956883D01*
X127457808Y-64219673D01*
X127315162Y-64563201D01*
X127314838Y-64935167D01*
X88561999Y-64935167D01*
X88561999Y-64907697D01*
X90228360Y-63241336D01*
X97384899Y-63241336D01*
X98809378Y-64665816D01*
X99004218Y-64796004D01*
X99056589Y-64830997D01*
X99348194Y-64889001D01*
X101317592Y-64889001D01*
X101609197Y-64830997D01*
X101856407Y-64665816D01*
X108142505Y-58379718D01*
X108185167Y-58379755D01*
X108528943Y-58237710D01*
X108792192Y-57974920D01*
X108934838Y-57631392D01*
X108934931Y-57524434D01*
X115737566Y-57524434D01*
X116029171Y-57466430D01*
X116276381Y-57301249D01*
X118892505Y-54685125D01*
X118935167Y-54685162D01*
X119278943Y-54543117D01*
X119542192Y-54280327D01*
X119684838Y-53936799D01*
X119685162Y-53564833D01*
X119543117Y-53221057D01*
X119280327Y-52957808D01*
X118936799Y-52815162D01*
X118564833Y-52814838D01*
X118262057Y-52939942D01*
X118030327Y-52707808D01*
X117686799Y-52565162D01*
X117314833Y-52564838D01*
X116971057Y-52706883D01*
X116852524Y-52825210D01*
X116735327Y-52707808D01*
X116391799Y-52565162D01*
X116019833Y-52564838D01*
X115676057Y-52706883D01*
X115554515Y-52828213D01*
X115437081Y-52710574D01*
X115093553Y-52567928D01*
X114721587Y-52567604D01*
X114377811Y-52709649D01*
X114211544Y-52875626D01*
X114195327Y-52859381D01*
X113851799Y-52716735D01*
X113479833Y-52716411D01*
X113136057Y-52858456D01*
X112956789Y-53037412D01*
X112617191Y-52896398D01*
X112245225Y-52896074D01*
X111901449Y-53038119D01*
X111847138Y-53092335D01*
X111655327Y-52900189D01*
X111311799Y-52757543D01*
X110939833Y-52757219D01*
X110596057Y-52899264D01*
X110531081Y-52964127D01*
X110409132Y-52988384D01*
X110237028Y-53103380D01*
X109837864Y-53103380D01*
X109892505Y-53048739D01*
X109935167Y-53048776D01*
X110278943Y-52906731D01*
X110542192Y-52643941D01*
X110684838Y-52300413D01*
X110684914Y-52213473D01*
X119286310Y-52213473D01*
X119323354Y-52303126D01*
X119586144Y-52566375D01*
X119929672Y-52709021D01*
X120301638Y-52709345D01*
X120523000Y-52617880D01*
X120523000Y-52939534D01*
X120492808Y-52969673D01*
X120350162Y-53313201D01*
X120349838Y-53685167D01*
X120491883Y-54028943D01*
X120754673Y-54292192D01*
X121098201Y-54434838D01*
X121470167Y-54435162D01*
X121813943Y-54293117D01*
X122077192Y-54030327D01*
X122219838Y-53686799D01*
X122220162Y-53314833D01*
X122078117Y-52971057D01*
X122047000Y-52939886D01*
X122047000Y-51785000D01*
X122043190Y-51765848D01*
X122018881Y-51643635D01*
X122313201Y-51765848D01*
X122685167Y-51766172D01*
X123028943Y-51624127D01*
X123063000Y-51590129D01*
X123063000Y-53189534D01*
X123032808Y-53219673D01*
X122890162Y-53563201D01*
X122889838Y-53935167D01*
X123031883Y-54278943D01*
X123294673Y-54542192D01*
X123638201Y-54684838D01*
X124010167Y-54685162D01*
X124353943Y-54543117D01*
X124617192Y-54280327D01*
X124759838Y-53936799D01*
X124760162Y-53564833D01*
X124618117Y-53221057D01*
X124587000Y-53189886D01*
X124587000Y-50825000D01*
X124563781Y-50708269D01*
X124813201Y-50811838D01*
X125185167Y-50812162D01*
X125528943Y-50670117D01*
X125792192Y-50407327D01*
X125853000Y-50260886D01*
X125853000Y-53189534D01*
X125822808Y-53219673D01*
X125680162Y-53563201D01*
X125679838Y-53935167D01*
X125821883Y-54278943D01*
X126084673Y-54542192D01*
X126428201Y-54684838D01*
X126800167Y-54685162D01*
X127143943Y-54543117D01*
X127407192Y-54280327D01*
X127549838Y-53936799D01*
X127550162Y-53564833D01*
X127408117Y-53221057D01*
X127377000Y-53189886D01*
X127377000Y-50076788D01*
X127563201Y-50154106D01*
X127935167Y-50154430D01*
X128278943Y-50012385D01*
X128542192Y-49749595D01*
X128670242Y-49441219D01*
X128685167Y-49441232D01*
X129028943Y-49299187D01*
X129250569Y-49077947D01*
X129617656Y-49078267D01*
X129961432Y-48936222D01*
X130224681Y-48673432D01*
X130333570Y-48411200D01*
X130564875Y-48642506D01*
X130564838Y-48685167D01*
X130706883Y-49028943D01*
X130969673Y-49292192D01*
X131313201Y-49434838D01*
X131685167Y-49435162D01*
X132028943Y-49293117D01*
X132292192Y-49030327D01*
X132434838Y-48686799D01*
X132435162Y-48314833D01*
X132394827Y-48217216D01*
X132469673Y-48292192D01*
X132813201Y-48434838D01*
X133185167Y-48435162D01*
X133528943Y-48293117D01*
X133792192Y-48030327D01*
X133934838Y-47686799D01*
X133935162Y-47314833D01*
X133821590Y-47039967D01*
X133949076Y-46732948D01*
X133949241Y-46544050D01*
X134352452Y-46544050D01*
X134453587Y-46788817D01*
X134716377Y-47052066D01*
X135059905Y-47194712D01*
X135431871Y-47195036D01*
X135775647Y-47052991D01*
X136038896Y-46790201D01*
X136181542Y-46446673D01*
X136181808Y-46141549D01*
X136292192Y-46031357D01*
X136434838Y-45687829D01*
X136434883Y-45636029D01*
X136897832Y-45636029D01*
X136956883Y-45778943D01*
X137219673Y-46042192D01*
X137563201Y-46184838D01*
X137935167Y-46185162D01*
X138278943Y-46043117D01*
X138542192Y-45780327D01*
X138684838Y-45436799D01*
X138685060Y-45182020D01*
X139416835Y-45182020D01*
X139456883Y-45278943D01*
X139719673Y-45542192D01*
X140063201Y-45684838D01*
X140435167Y-45685162D01*
X140778943Y-45543117D01*
X141042192Y-45280327D01*
X141184838Y-44936799D01*
X141185020Y-44728010D01*
X141734000Y-44728010D01*
X141734000Y-45410868D01*
G36*
X88494812Y-58903765D02*
X88838340Y-59046411D01*
X89210306Y-59046735D01*
X89554082Y-58904690D01*
X89585253Y-58873573D01*
X104517963Y-58873573D01*
X102698930Y-60692606D01*
X89650593Y-60692606D01*
X89620454Y-60662414D01*
X89276926Y-60519768D01*
X88904960Y-60519444D01*
X88565652Y-60659643D01*
X88488716Y-60473442D01*
X88457599Y-60442271D01*
X88457599Y-58866487D01*
X88494812Y-58903765D01*
X88494812Y-58903765D01*
G37*
X88494812Y-58903765D02*
X88838340Y-59046411D01*
X89210306Y-59046735D01*
X89554082Y-58904690D01*
X89585253Y-58873573D01*
X104517963Y-58873573D01*
X102698930Y-60692606D01*
X89650593Y-60692606D01*
X89620454Y-60662414D01*
X89276926Y-60519768D01*
X88904960Y-60519444D01*
X88565652Y-60659643D01*
X88488716Y-60473442D01*
X88457599Y-60442271D01*
X88457599Y-58866487D01*
X88494812Y-58903765D01*
M02*
