G04 #@! TF.FileFunction,Legend,Top*
%FSLAX46Y46*%
G04 Gerber Fmt 4.6, Leading zero omitted, Abs format (unit mm)*
G04 Created by KiCad (PCBNEW 4.1.0-alpha+201608211231+7083~46~ubuntu16.04.1-product) date Thu Aug 25 09:44:32 2016*
%MOMM*%
%LPD*%
G01*
G04 APERTURE LIST*
%ADD10C,0.600000*%
%ADD11C,0.250000*%
%ADD12C,0.300000*%
%ADD13C,0.175000*%
%ADD14C,0.225000*%
%ADD15C,0.254000*%
%ADD16C,0.100000*%
%ADD17C,0.127000*%
%ADD18C,0.700000*%
%ADD19C,0.400000*%
%ADD20C,0.500000*%
%ADD21C,0.150000*%
%ADD22C,0.200000*%
%ADD23C,0.508000*%
%ADD24C,1.000000*%
%ADD25C,0.370000*%
%ADD26C,0.380000*%
%ADD27C,0.420000*%
%ADD28C,0.203200*%
%ADD29C,0.350000*%
%ADD30C,0.180000*%
G04 APERTURE END LIST*
D10*
D11*
X69523809Y-43952380D02*
X69047619Y-43952380D01*
X69047619Y-42952380D01*
X70428571Y-43857142D02*
X70380952Y-43904761D01*
X70238095Y-43952380D01*
X70142857Y-43952380D01*
X70000000Y-43904761D01*
X69904761Y-43809523D01*
X69857142Y-43714285D01*
X69809523Y-43523809D01*
X69809523Y-43380952D01*
X69857142Y-43190476D01*
X69904761Y-43095238D01*
X70000000Y-43000000D01*
X70142857Y-42952380D01*
X70238095Y-42952380D01*
X70380952Y-43000000D01*
X70428571Y-43047619D01*
X70857142Y-43952380D02*
X70857142Y-42952380D01*
X71095238Y-42952380D01*
X71238095Y-43000000D01*
X71333333Y-43095238D01*
X71380952Y-43190476D01*
X71428571Y-43380952D01*
X71428571Y-43523809D01*
X71380952Y-43714285D01*
X71333333Y-43809523D01*
X71238095Y-43904761D01*
X71095238Y-43952380D01*
X70857142Y-43952380D01*
X73190476Y-43857142D02*
X73142857Y-43904761D01*
X73000000Y-43952380D01*
X72904761Y-43952380D01*
X72761904Y-43904761D01*
X72666666Y-43809523D01*
X72619047Y-43714285D01*
X72571428Y-43523809D01*
X72571428Y-43380952D01*
X72619047Y-43190476D01*
X72666666Y-43095238D01*
X72761904Y-43000000D01*
X72904761Y-42952380D01*
X73000000Y-42952380D01*
X73142857Y-43000000D01*
X73190476Y-43047619D01*
X73809523Y-42952380D02*
X74000000Y-42952380D01*
X74095238Y-43000000D01*
X74190476Y-43095238D01*
X74238095Y-43285714D01*
X74238095Y-43619047D01*
X74190476Y-43809523D01*
X74095238Y-43904761D01*
X74000000Y-43952380D01*
X73809523Y-43952380D01*
X73714285Y-43904761D01*
X73619047Y-43809523D01*
X73571428Y-43619047D01*
X73571428Y-43285714D01*
X73619047Y-43095238D01*
X73714285Y-43000000D01*
X73809523Y-42952380D01*
X74666666Y-43952380D02*
X74666666Y-42952380D01*
X75238095Y-43952380D01*
X75238095Y-42952380D01*
X75714285Y-43952380D02*
X75714285Y-42952380D01*
X76285714Y-43952380D01*
X76285714Y-42952380D01*
X76761904Y-43428571D02*
X77095238Y-43428571D01*
X77238095Y-43952380D02*
X76761904Y-43952380D01*
X76761904Y-42952380D01*
X77238095Y-42952380D01*
X78238095Y-43857142D02*
X78190476Y-43904761D01*
X78047619Y-43952380D01*
X77952380Y-43952380D01*
X77809523Y-43904761D01*
X77714285Y-43809523D01*
X77666666Y-43714285D01*
X77619047Y-43523809D01*
X77619047Y-43380952D01*
X77666666Y-43190476D01*
X77714285Y-43095238D01*
X77809523Y-43000000D01*
X77952380Y-42952380D01*
X78047619Y-42952380D01*
X78190476Y-43000000D01*
X78238095Y-43047619D01*
X78523809Y-42952380D02*
X79095238Y-42952380D01*
X78809523Y-43952380D02*
X78809523Y-42952380D01*
X79619047Y-42952380D02*
X79809523Y-42952380D01*
X79904761Y-43000000D01*
X80000000Y-43095238D01*
X80047619Y-43285714D01*
X80047619Y-43619047D01*
X80000000Y-43809523D01*
X79904761Y-43904761D01*
X79809523Y-43952380D01*
X79619047Y-43952380D01*
X79523809Y-43904761D01*
X79428571Y-43809523D01*
X79380952Y-43619047D01*
X79380952Y-43285714D01*
X79428571Y-43095238D01*
X79523809Y-43000000D01*
X79619047Y-42952380D01*
X81047619Y-43952380D02*
X80714285Y-43476190D01*
X80476190Y-43952380D02*
X80476190Y-42952380D01*
X80857142Y-42952380D01*
X80952380Y-43000000D01*
X81000000Y-43047619D01*
X81047619Y-43142857D01*
X81047619Y-43285714D01*
X81000000Y-43380952D01*
X80952380Y-43428571D01*
X80857142Y-43476190D01*
X80476190Y-43476190D01*
X81428571Y-43904761D02*
X81571428Y-43952380D01*
X81809523Y-43952380D01*
X81904761Y-43904761D01*
X81952380Y-43857142D01*
X82000000Y-43761904D01*
X82000000Y-43666666D01*
X81952380Y-43571428D01*
X81904761Y-43523809D01*
X81809523Y-43476190D01*
X81619047Y-43428571D01*
X81523809Y-43380952D01*
X81476190Y-43333333D01*
X81428571Y-43238095D01*
X81428571Y-43142857D01*
X81476190Y-43047619D01*
X81523809Y-43000000D01*
X81619047Y-42952380D01*
X81857142Y-42952380D01*
X82000000Y-43000000D01*
D12*
X127928571Y-75928571D02*
X127214285Y-75928571D01*
X127214285Y-74428571D01*
X129285714Y-75785714D02*
X129214285Y-75857142D01*
X129000000Y-75928571D01*
X128857142Y-75928571D01*
X128642857Y-75857142D01*
X128500000Y-75714285D01*
X128428571Y-75571428D01*
X128357142Y-75285714D01*
X128357142Y-75071428D01*
X128428571Y-74785714D01*
X128500000Y-74642857D01*
X128642857Y-74500000D01*
X128857142Y-74428571D01*
X129000000Y-74428571D01*
X129214285Y-74500000D01*
X129285714Y-74571428D01*
X129928571Y-75928571D02*
X129928571Y-74428571D01*
X130285714Y-74428571D01*
X130500000Y-74500000D01*
X130642857Y-74642857D01*
X130714285Y-74785714D01*
X130785714Y-75071428D01*
X130785714Y-75285714D01*
X130714285Y-75571428D01*
X130642857Y-75714285D01*
X130500000Y-75857142D01*
X130285714Y-75928571D01*
X129928571Y-75928571D01*
X132571428Y-75928571D02*
X132571428Y-74428571D01*
X133071428Y-75500000D01*
X133571428Y-74428571D01*
X133571428Y-75928571D01*
X134571428Y-74428571D02*
X134857142Y-74428571D01*
X135000000Y-74500000D01*
X135142857Y-74642857D01*
X135214285Y-74928571D01*
X135214285Y-75428571D01*
X135142857Y-75714285D01*
X135000000Y-75857142D01*
X134857142Y-75928571D01*
X134571428Y-75928571D01*
X134428571Y-75857142D01*
X134285714Y-75714285D01*
X134214285Y-75428571D01*
X134214285Y-74928571D01*
X134285714Y-74642857D01*
X134428571Y-74500000D01*
X134571428Y-74428571D01*
X135857142Y-75928571D02*
X135857142Y-74428571D01*
X136214285Y-74428571D01*
X136428571Y-74500000D01*
X136571428Y-74642857D01*
X136642857Y-74785714D01*
X136714285Y-75071428D01*
X136714285Y-75285714D01*
X136642857Y-75571428D01*
X136571428Y-75714285D01*
X136428571Y-75857142D01*
X136214285Y-75928571D01*
X135857142Y-75928571D01*
X137357142Y-74428571D02*
X137357142Y-75642857D01*
X137428571Y-75785714D01*
X137500000Y-75857142D01*
X137642857Y-75928571D01*
X137928571Y-75928571D01*
X138071428Y-75857142D01*
X138142857Y-75785714D01*
X138214285Y-75642857D01*
X138214285Y-74428571D01*
X139642857Y-75928571D02*
X138928571Y-75928571D01*
X138928571Y-74428571D01*
X140142857Y-75142857D02*
X140642857Y-75142857D01*
X140857142Y-75928571D02*
X140142857Y-75928571D01*
X140142857Y-74428571D01*
X140857142Y-74428571D01*
D11*
X77952380Y-70035714D02*
X78666666Y-70035714D01*
X78809523Y-70083333D01*
X78904761Y-70178571D01*
X78952380Y-70321428D01*
X78952380Y-70416666D01*
X78952380Y-69035714D02*
X78952380Y-69607142D01*
X78952380Y-69321428D02*
X77952380Y-69321428D01*
X78095238Y-69416666D01*
X78190476Y-69511904D01*
X78238095Y-69607142D01*
X78857142Y-68607142D02*
X78904761Y-68559523D01*
X78952380Y-68607142D01*
X78904761Y-68654761D01*
X78857142Y-68607142D01*
X78952380Y-68607142D01*
X78857142Y-68130952D02*
X78904761Y-68083333D01*
X78952380Y-68130952D01*
X78904761Y-68178571D01*
X78857142Y-68130952D01*
X78952380Y-68130952D01*
X78285714Y-67226190D02*
X78952380Y-67226190D01*
X77904761Y-67464285D02*
X78619047Y-67702380D01*
X78619047Y-67083333D01*
D12*
X94206142Y-57265000D02*
X94277571Y-57407857D01*
X94277571Y-57693571D01*
X94206142Y-57836428D01*
X94134714Y-57907857D01*
X93991857Y-57979285D01*
X93563285Y-57979285D01*
X93420428Y-57907857D01*
X93349000Y-57836428D01*
X93277571Y-57693571D01*
X93277571Y-57407857D01*
X93349000Y-57265000D01*
X93277571Y-56836428D02*
X93277571Y-56265000D01*
X92777571Y-56622142D02*
X94063285Y-56622142D01*
X94206142Y-56550714D01*
X94277571Y-56407857D01*
X94277571Y-56265000D01*
X93277571Y-55765000D02*
X94777571Y-55765000D01*
X93349000Y-55765000D02*
X93277571Y-55622142D01*
X93277571Y-55336428D01*
X93349000Y-55193571D01*
X93420428Y-55122142D01*
X93563285Y-55050714D01*
X93991857Y-55050714D01*
X94134714Y-55122142D01*
X94206142Y-55193571D01*
X94277571Y-55336428D01*
X94277571Y-55622142D01*
X94206142Y-55765000D01*
D11*
X96512142Y-59459476D02*
X96583571Y-59364238D01*
X96583571Y-59173761D01*
X96512142Y-59078523D01*
X96369285Y-59030904D01*
X96297857Y-59030904D01*
X96155000Y-59078523D01*
X96083571Y-59173761D01*
X96083571Y-59316619D01*
X96012142Y-59411857D01*
X95869285Y-59459476D01*
X95797857Y-59459476D01*
X95655000Y-59411857D01*
X95583571Y-59316619D01*
X95583571Y-59173761D01*
X95655000Y-59078523D01*
X96583571Y-58173761D02*
X95083571Y-58173761D01*
X96512142Y-58173761D02*
X96583571Y-58269000D01*
X96583571Y-58459476D01*
X96512142Y-58554714D01*
X96440714Y-58602333D01*
X96297857Y-58649952D01*
X95869285Y-58649952D01*
X95726428Y-58602333D01*
X95655000Y-58554714D01*
X95583571Y-58459476D01*
X95583571Y-58269000D01*
X95655000Y-58173761D01*
X96583571Y-57269000D02*
X95797857Y-57269000D01*
X95655000Y-57316619D01*
X95583571Y-57411857D01*
X95583571Y-57602333D01*
X95655000Y-57697571D01*
X96512142Y-57269000D02*
X96583571Y-57364238D01*
X96583571Y-57602333D01*
X96512142Y-57697571D01*
X96369285Y-57745190D01*
X96226428Y-57745190D01*
X96083571Y-57697571D01*
X96012142Y-57602333D01*
X96012142Y-57364238D01*
X95940714Y-57269000D01*
X97083571Y-56554714D02*
X94940714Y-56554714D01*
X96512142Y-55888047D02*
X96583571Y-55792809D01*
X96583571Y-55602333D01*
X96512142Y-55507095D01*
X96369285Y-55459476D01*
X96297857Y-55459476D01*
X96155000Y-55507095D01*
X96083571Y-55602333D01*
X96083571Y-55745190D01*
X96012142Y-55840428D01*
X95869285Y-55888047D01*
X95797857Y-55888047D01*
X95655000Y-55840428D01*
X95583571Y-55745190D01*
X95583571Y-55602333D01*
X95655000Y-55507095D01*
X96512142Y-54602333D02*
X96583571Y-54697571D01*
X96583571Y-54888047D01*
X96512142Y-54983285D01*
X96440714Y-55030904D01*
X96297857Y-55078523D01*
X95869285Y-55078523D01*
X95726428Y-55030904D01*
X95655000Y-54983285D01*
X95583571Y-54888047D01*
X95583571Y-54697571D01*
X95655000Y-54602333D01*
X96583571Y-54030904D02*
X96512142Y-54126142D01*
X96369285Y-54173761D01*
X95083571Y-54173761D01*
X99083571Y-59126142D02*
X98083571Y-59126142D01*
X98369285Y-59126142D02*
X98226428Y-59078523D01*
X98155000Y-59030904D01*
X98083571Y-58935666D01*
X98083571Y-58840428D01*
X99012142Y-58126142D02*
X99083571Y-58221380D01*
X99083571Y-58411857D01*
X99012142Y-58507095D01*
X98869285Y-58554714D01*
X98297857Y-58554714D01*
X98155000Y-58507095D01*
X98083571Y-58411857D01*
X98083571Y-58221380D01*
X98155000Y-58126142D01*
X98297857Y-58078523D01*
X98440714Y-58078523D01*
X98583571Y-58554714D01*
X99012142Y-57697571D02*
X99083571Y-57602333D01*
X99083571Y-57411857D01*
X99012142Y-57316619D01*
X98869285Y-57269000D01*
X98797857Y-57269000D01*
X98655000Y-57316619D01*
X98583571Y-57411857D01*
X98583571Y-57554714D01*
X98512142Y-57649952D01*
X98369285Y-57697571D01*
X98297857Y-57697571D01*
X98155000Y-57649952D01*
X98083571Y-57554714D01*
X98083571Y-57411857D01*
X98155000Y-57316619D01*
X99583571Y-56602333D02*
X97440714Y-56602333D01*
X99083571Y-55888047D02*
X98083571Y-55888047D01*
X97583571Y-55888047D02*
X97655000Y-55935666D01*
X97726428Y-55888047D01*
X97655000Y-55840428D01*
X97583571Y-55888047D01*
X97726428Y-55888047D01*
X98083571Y-55411857D02*
X99083571Y-55411857D01*
X98226428Y-55411857D02*
X98155000Y-55364238D01*
X98083571Y-55269000D01*
X98083571Y-55126142D01*
X98155000Y-55030904D01*
X98297857Y-54983285D01*
X99083571Y-54983285D01*
X98083571Y-54649952D02*
X98083571Y-54269000D01*
X97583571Y-54507095D02*
X98869285Y-54507095D01*
X99012142Y-54459476D01*
X99083571Y-54364238D01*
X99083571Y-54269000D01*
D13*
X70038309Y-70175333D02*
X70076404Y-70075333D01*
X70076404Y-69908666D01*
X70038309Y-69842000D01*
X70000214Y-69808666D01*
X69924023Y-69775333D01*
X69847833Y-69775333D01*
X69771642Y-69808666D01*
X69733547Y-69842000D01*
X69695452Y-69908666D01*
X69657357Y-70042000D01*
X69619261Y-70108666D01*
X69581166Y-70142000D01*
X69504976Y-70175333D01*
X69428785Y-70175333D01*
X69352595Y-70142000D01*
X69314500Y-70108666D01*
X69276404Y-70042000D01*
X69276404Y-69875333D01*
X69314500Y-69775333D01*
X70000214Y-69075333D02*
X70038309Y-69108666D01*
X70076404Y-69208666D01*
X70076404Y-69275333D01*
X70038309Y-69375333D01*
X69962119Y-69442000D01*
X69885928Y-69475333D01*
X69733547Y-69508666D01*
X69619261Y-69508666D01*
X69466880Y-69475333D01*
X69390690Y-69442000D01*
X69314500Y-69375333D01*
X69276404Y-69275333D01*
X69276404Y-69208666D01*
X69314500Y-69108666D01*
X69352595Y-69075333D01*
X70076404Y-68442000D02*
X70076404Y-68775333D01*
X69276404Y-68775333D01*
X71413309Y-70192000D02*
X71451404Y-70092000D01*
X71451404Y-69925333D01*
X71413309Y-69858666D01*
X71375214Y-69825333D01*
X71299023Y-69792000D01*
X71222833Y-69792000D01*
X71146642Y-69825333D01*
X71108547Y-69858666D01*
X71070452Y-69925333D01*
X71032357Y-70058666D01*
X70994261Y-70125333D01*
X70956166Y-70158666D01*
X70879976Y-70192000D01*
X70803785Y-70192000D01*
X70727595Y-70158666D01*
X70689500Y-70125333D01*
X70651404Y-70058666D01*
X70651404Y-69892000D01*
X70689500Y-69792000D01*
X71451404Y-69492000D02*
X70651404Y-69492000D01*
X70651404Y-69325333D01*
X70689500Y-69225333D01*
X70765690Y-69158666D01*
X70841880Y-69125333D01*
X70994261Y-69092000D01*
X71108547Y-69092000D01*
X71260928Y-69125333D01*
X71337119Y-69158666D01*
X71413309Y-69225333D01*
X71451404Y-69325333D01*
X71451404Y-69492000D01*
X71222833Y-68825333D02*
X71222833Y-68492000D01*
X71451404Y-68892000D02*
X70651404Y-68658666D01*
X71451404Y-68425333D01*
X72826404Y-69975333D02*
X72026404Y-69975333D01*
X72826404Y-69642000D02*
X72026404Y-69642000D01*
X72826404Y-69242000D01*
X72026404Y-69242000D01*
X72026404Y-69008666D02*
X72026404Y-68608666D01*
X72826404Y-68808666D02*
X72026404Y-68808666D01*
X73439500Y-69875333D02*
X73401404Y-69942000D01*
X73401404Y-70042000D01*
X73439500Y-70142000D01*
X73515690Y-70208666D01*
X73591880Y-70242000D01*
X73744261Y-70275333D01*
X73858547Y-70275333D01*
X74010928Y-70242000D01*
X74087119Y-70208666D01*
X74163309Y-70142000D01*
X74201404Y-70042000D01*
X74201404Y-69975333D01*
X74163309Y-69875333D01*
X74125214Y-69842000D01*
X73858547Y-69842000D01*
X73858547Y-69975333D01*
X74201404Y-69542000D02*
X73401404Y-69542000D01*
X74201404Y-69142000D01*
X73401404Y-69142000D01*
X74201404Y-68808666D02*
X73401404Y-68808666D01*
X73401404Y-68642000D01*
X73439500Y-68542000D01*
X73515690Y-68475333D01*
X73591880Y-68442000D01*
X73744261Y-68408666D01*
X73858547Y-68408666D01*
X74010928Y-68442000D01*
X74087119Y-68475333D01*
X74163309Y-68542000D01*
X74201404Y-68642000D01*
X74201404Y-68808666D01*
X74776404Y-70275333D02*
X75576404Y-70042000D01*
X74776404Y-69808666D01*
X75576404Y-69575333D02*
X74776404Y-69575333D01*
X74776404Y-69408666D01*
X74814500Y-69308666D01*
X74890690Y-69242000D01*
X74966880Y-69208666D01*
X75119261Y-69175333D01*
X75233547Y-69175333D01*
X75385928Y-69208666D01*
X75462119Y-69242000D01*
X75538309Y-69308666D01*
X75576404Y-69408666D01*
X75576404Y-69575333D01*
X75576404Y-68875333D02*
X74776404Y-68875333D01*
X74776404Y-68708666D01*
X74814500Y-68608666D01*
X74890690Y-68542000D01*
X74966880Y-68508666D01*
X75119261Y-68475333D01*
X75233547Y-68475333D01*
X75385928Y-68508666D01*
X75462119Y-68542000D01*
X75538309Y-68608666D01*
X75576404Y-68708666D01*
X75576404Y-68875333D01*
X76951404Y-69775333D02*
X76570452Y-70008666D01*
X76951404Y-70175333D02*
X76151404Y-70175333D01*
X76151404Y-69908666D01*
X76189500Y-69842000D01*
X76227595Y-69808666D01*
X76303785Y-69775333D01*
X76418071Y-69775333D01*
X76494261Y-69808666D01*
X76532357Y-69842000D01*
X76570452Y-69908666D01*
X76570452Y-70175333D01*
X76532357Y-69475333D02*
X76532357Y-69242000D01*
X76951404Y-69142000D02*
X76951404Y-69475333D01*
X76151404Y-69475333D01*
X76151404Y-69142000D01*
X76913309Y-68875333D02*
X76951404Y-68775333D01*
X76951404Y-68608666D01*
X76913309Y-68542000D01*
X76875214Y-68508666D01*
X76799023Y-68475333D01*
X76722833Y-68475333D01*
X76646642Y-68508666D01*
X76608547Y-68542000D01*
X76570452Y-68608666D01*
X76532357Y-68742000D01*
X76494261Y-68808666D01*
X76456166Y-68842000D01*
X76379976Y-68875333D01*
X76303785Y-68875333D01*
X76227595Y-68842000D01*
X76189500Y-68808666D01*
X76151404Y-68742000D01*
X76151404Y-68575333D01*
X76189500Y-68475333D01*
D12*
X68734714Y-72739142D02*
X68806142Y-72810571D01*
X68877571Y-73024857D01*
X68877571Y-73167714D01*
X68806142Y-73382000D01*
X68663285Y-73524857D01*
X68520428Y-73596285D01*
X68234714Y-73667714D01*
X68020428Y-73667714D01*
X67734714Y-73596285D01*
X67591857Y-73524857D01*
X67449000Y-73382000D01*
X67377571Y-73167714D01*
X67377571Y-73024857D01*
X67449000Y-72810571D01*
X67520428Y-72739142D01*
X67377571Y-72310571D02*
X67377571Y-71453428D01*
X68877571Y-71882000D02*
X67377571Y-71882000D01*
X68877571Y-70953428D02*
X67377571Y-70953428D01*
X67377571Y-70382000D01*
X67449000Y-70239142D01*
X67520428Y-70167714D01*
X67663285Y-70096285D01*
X67877571Y-70096285D01*
X68020428Y-70167714D01*
X68091857Y-70239142D01*
X68163285Y-70382000D01*
X68163285Y-70953428D01*
X62178571Y-44678571D02*
X61321428Y-44678571D01*
X61750000Y-44678571D02*
X61750000Y-43178571D01*
X61607142Y-43392857D01*
X61464285Y-43535714D01*
X61321428Y-43607142D01*
X62678571Y-56107142D02*
X61964285Y-56607142D01*
X62678571Y-56964285D02*
X61178571Y-56964285D01*
X61178571Y-56392857D01*
X61250000Y-56250000D01*
X61321428Y-56178571D01*
X61464285Y-56107142D01*
X61678571Y-56107142D01*
X61821428Y-56178571D01*
X61892857Y-56250000D01*
X61964285Y-56392857D01*
X61964285Y-56964285D01*
X62607142Y-54892857D02*
X62678571Y-55035714D01*
X62678571Y-55321428D01*
X62607142Y-55464285D01*
X62464285Y-55535714D01*
X61892857Y-55535714D01*
X61750000Y-55464285D01*
X61678571Y-55321428D01*
X61678571Y-55035714D01*
X61750000Y-54892857D01*
X61892857Y-54821428D01*
X62035714Y-54821428D01*
X62178571Y-55535714D01*
X61678571Y-54321428D02*
X62678571Y-53964285D01*
X61678571Y-53607142D01*
X62535714Y-53035714D02*
X62607142Y-52964285D01*
X62678571Y-53035714D01*
X62607142Y-53107142D01*
X62535714Y-53035714D01*
X62678571Y-53035714D01*
X61892857Y-51821428D02*
X61964285Y-51607142D01*
X62035714Y-51535714D01*
X62178571Y-51464285D01*
X62392857Y-51464285D01*
X62535714Y-51535714D01*
X62607142Y-51607142D01*
X62678571Y-51750000D01*
X62678571Y-52321428D01*
X61178571Y-52321428D01*
X61178571Y-51821428D01*
X61250000Y-51678571D01*
X61321428Y-51607142D01*
X61464285Y-51535714D01*
X61607142Y-51535714D01*
X61750000Y-51607142D01*
X61821428Y-51678571D01*
X61892857Y-51821428D01*
X61892857Y-52321428D01*
D14*
X119185714Y-56307142D02*
X118500000Y-56564285D01*
X119185714Y-56821428D01*
X120000000Y-56864285D02*
X119914285Y-56907142D01*
X119742857Y-56907142D01*
X119657142Y-56864285D01*
X119614285Y-56821428D01*
X119571428Y-56735714D01*
X119571428Y-56478571D01*
X119614285Y-56392857D01*
X119657142Y-56350000D01*
X119742857Y-56307142D01*
X119914285Y-56307142D01*
X120000000Y-56350000D01*
X120385714Y-56307142D02*
X121071428Y-56564285D01*
X120385714Y-56821428D01*
X121457142Y-56092857D02*
X121500000Y-56050000D01*
X121585714Y-56007142D01*
X121800000Y-56007142D01*
X121885714Y-56050000D01*
X121928571Y-56092857D01*
X121971428Y-56178571D01*
X121971428Y-56264285D01*
X121928571Y-56392857D01*
X121414285Y-56907142D01*
X121971428Y-56907142D01*
X122528571Y-56007142D02*
X122614285Y-56007142D01*
X122700000Y-56050000D01*
X122742857Y-56092857D01*
X122785714Y-56178571D01*
X122828571Y-56350000D01*
X122828571Y-56564285D01*
X122785714Y-56735714D01*
X122742857Y-56821428D01*
X122700000Y-56864285D01*
X122614285Y-56907142D01*
X122528571Y-56907142D01*
X122442857Y-56864285D01*
X122400000Y-56821428D01*
X122357142Y-56735714D01*
X122314285Y-56564285D01*
X122314285Y-56350000D01*
X122357142Y-56178571D01*
X122400000Y-56092857D01*
X122442857Y-56050000D01*
X122528571Y-56007142D01*
X123685714Y-56907142D02*
X123171428Y-56907142D01*
X123428571Y-56907142D02*
X123428571Y-56007142D01*
X123342857Y-56135714D01*
X123257142Y-56221428D01*
X123171428Y-56264285D01*
X124457142Y-56007142D02*
X124285714Y-56007142D01*
X124200000Y-56050000D01*
X124157142Y-56092857D01*
X124071428Y-56221428D01*
X124028571Y-56392857D01*
X124028571Y-56735714D01*
X124071428Y-56821428D01*
X124114285Y-56864285D01*
X124200000Y-56907142D01*
X124371428Y-56907142D01*
X124457142Y-56864285D01*
X124500000Y-56821428D01*
X124542857Y-56735714D01*
X124542857Y-56521428D01*
X124500000Y-56435714D01*
X124457142Y-56392857D01*
X124371428Y-56350000D01*
X124200000Y-56350000D01*
X124114285Y-56392857D01*
X124071428Y-56435714D01*
X124028571Y-56521428D01*
D11*
X102250000Y-59952380D02*
X102250000Y-58952380D01*
X102678571Y-59952380D02*
X102678571Y-59428571D01*
X102630952Y-59333333D01*
X102535714Y-59285714D01*
X102392857Y-59285714D01*
X102297619Y-59333333D01*
X102250000Y-59380952D01*
X103011904Y-59285714D02*
X103392857Y-59285714D01*
X103154761Y-58952380D02*
X103154761Y-59809523D01*
X103202380Y-59904761D01*
X103297619Y-59952380D01*
X103392857Y-59952380D01*
X103583333Y-59285714D02*
X103964285Y-59285714D01*
X103726190Y-58952380D02*
X103726190Y-59809523D01*
X103773809Y-59904761D01*
X103869047Y-59952380D01*
X103964285Y-59952380D01*
X104297619Y-59285714D02*
X104297619Y-60285714D01*
X104297619Y-59333333D02*
X104392857Y-59285714D01*
X104583333Y-59285714D01*
X104678571Y-59333333D01*
X104726190Y-59380952D01*
X104773809Y-59476190D01*
X104773809Y-59761904D01*
X104726190Y-59857142D01*
X104678571Y-59904761D01*
X104583333Y-59952380D01*
X104392857Y-59952380D01*
X104297619Y-59904761D01*
X105154761Y-59904761D02*
X105250000Y-59952380D01*
X105440476Y-59952380D01*
X105535714Y-59904761D01*
X105583333Y-59809523D01*
X105583333Y-59761904D01*
X105535714Y-59666666D01*
X105440476Y-59619047D01*
X105297619Y-59619047D01*
X105202380Y-59571428D01*
X105154761Y-59476190D01*
X105154761Y-59428571D01*
X105202380Y-59333333D01*
X105297619Y-59285714D01*
X105440476Y-59285714D01*
X105535714Y-59333333D01*
X106011904Y-59857142D02*
X106059523Y-59904761D01*
X106011904Y-59952380D01*
X105964285Y-59904761D01*
X106011904Y-59857142D01*
X106011904Y-59952380D01*
X106011904Y-59333333D02*
X106059523Y-59380952D01*
X106011904Y-59428571D01*
X105964285Y-59380952D01*
X106011904Y-59333333D01*
X106011904Y-59428571D01*
X107202380Y-58904761D02*
X106345238Y-60190476D01*
X108250000Y-58904761D02*
X107392857Y-60190476D01*
X108488095Y-59285714D02*
X108678571Y-59952380D01*
X108869047Y-59476190D01*
X109059523Y-59952380D01*
X109250000Y-59285714D01*
X109535714Y-59285714D02*
X109726190Y-59952380D01*
X109916666Y-59476190D01*
X110107142Y-59952380D01*
X110297619Y-59285714D01*
X110583333Y-59285714D02*
X110773809Y-59952380D01*
X110964285Y-59476190D01*
X111154761Y-59952380D01*
X111345238Y-59285714D01*
X111726190Y-59857142D02*
X111773809Y-59904761D01*
X111726190Y-59952380D01*
X111678571Y-59904761D01*
X111726190Y-59857142D01*
X111726190Y-59952380D01*
X112345238Y-59952380D02*
X112250000Y-59904761D01*
X112202380Y-59857142D01*
X112154761Y-59761904D01*
X112154761Y-59476190D01*
X112202380Y-59380952D01*
X112250000Y-59333333D01*
X112345238Y-59285714D01*
X112488095Y-59285714D01*
X112583333Y-59333333D01*
X112630952Y-59380952D01*
X112678571Y-59476190D01*
X112678571Y-59761904D01*
X112630952Y-59857142D01*
X112583333Y-59904761D01*
X112488095Y-59952380D01*
X112345238Y-59952380D01*
X113250000Y-59952380D02*
X113154761Y-59904761D01*
X113107142Y-59809523D01*
X113107142Y-58952380D01*
X113630952Y-59952380D02*
X113630952Y-59285714D01*
X113630952Y-58952380D02*
X113583333Y-59000000D01*
X113630952Y-59047619D01*
X113678571Y-59000000D01*
X113630952Y-58952380D01*
X113630952Y-59047619D01*
X114107142Y-59952380D02*
X114107142Y-59285714D01*
X114107142Y-59380952D02*
X114154761Y-59333333D01*
X114250000Y-59285714D01*
X114392857Y-59285714D01*
X114488095Y-59333333D01*
X114535714Y-59428571D01*
X114535714Y-59952380D01*
X114535714Y-59428571D02*
X114583333Y-59333333D01*
X114678571Y-59285714D01*
X114821428Y-59285714D01*
X114916666Y-59333333D01*
X114964285Y-59428571D01*
X114964285Y-59952380D01*
X115821428Y-59904761D02*
X115726190Y-59952380D01*
X115535714Y-59952380D01*
X115440476Y-59904761D01*
X115392857Y-59809523D01*
X115392857Y-59428571D01*
X115440476Y-59333333D01*
X115535714Y-59285714D01*
X115726190Y-59285714D01*
X115821428Y-59333333D01*
X115869047Y-59428571D01*
X115869047Y-59523809D01*
X115392857Y-59619047D01*
X116202380Y-59952380D02*
X116726190Y-59285714D01*
X116202380Y-59285714D02*
X116726190Y-59952380D01*
X117107142Y-59857142D02*
X117154761Y-59904761D01*
X117107142Y-59952380D01*
X117059523Y-59904761D01*
X117107142Y-59857142D01*
X117107142Y-59952380D01*
X118011904Y-59904761D02*
X117916666Y-59952380D01*
X117726190Y-59952380D01*
X117630952Y-59904761D01*
X117583333Y-59857142D01*
X117535714Y-59761904D01*
X117535714Y-59476190D01*
X117583333Y-59380952D01*
X117630952Y-59333333D01*
X117726190Y-59285714D01*
X117916666Y-59285714D01*
X118011904Y-59333333D01*
X118583333Y-59952380D02*
X118488095Y-59904761D01*
X118440476Y-59857142D01*
X118392857Y-59761904D01*
X118392857Y-59476190D01*
X118440476Y-59380952D01*
X118488095Y-59333333D01*
X118583333Y-59285714D01*
X118726190Y-59285714D01*
X118821428Y-59333333D01*
X118869047Y-59380952D01*
X118916666Y-59476190D01*
X118916666Y-59761904D01*
X118869047Y-59857142D01*
X118821428Y-59904761D01*
X118726190Y-59952380D01*
X118583333Y-59952380D01*
X119345238Y-59952380D02*
X119345238Y-59285714D01*
X119345238Y-59380952D02*
X119392857Y-59333333D01*
X119488095Y-59285714D01*
X119630952Y-59285714D01*
X119726190Y-59333333D01*
X119773809Y-59428571D01*
X119773809Y-59952380D01*
X119773809Y-59428571D02*
X119821428Y-59333333D01*
X119916666Y-59285714D01*
X120059523Y-59285714D01*
X120154761Y-59333333D01*
X120202380Y-59428571D01*
X120202380Y-59952380D01*
X121392857Y-58904761D02*
X120535714Y-60190476D01*
D12*
X64821428Y-54928571D02*
X64107142Y-54928571D01*
X64107142Y-53428571D01*
X66178571Y-54785714D02*
X66107142Y-54857142D01*
X65892857Y-54928571D01*
X65750000Y-54928571D01*
X65535714Y-54857142D01*
X65392857Y-54714285D01*
X65321428Y-54571428D01*
X65250000Y-54285714D01*
X65250000Y-54071428D01*
X65321428Y-53785714D01*
X65392857Y-53642857D01*
X65535714Y-53500000D01*
X65750000Y-53428571D01*
X65892857Y-53428571D01*
X66107142Y-53500000D01*
X66178571Y-53571428D01*
X66821428Y-54928571D02*
X66821428Y-53428571D01*
X67178571Y-53428571D01*
X67392857Y-53500000D01*
X67535714Y-53642857D01*
X67607142Y-53785714D01*
X67678571Y-54071428D01*
X67678571Y-54285714D01*
X67607142Y-54571428D01*
X67535714Y-54714285D01*
X67392857Y-54857142D01*
X67178571Y-54928571D01*
X66821428Y-54928571D01*
X68321428Y-54357142D02*
X69464285Y-54357142D01*
X70464285Y-53428571D02*
X70750000Y-53428571D01*
X70892857Y-53500000D01*
X71035714Y-53642857D01*
X71107142Y-53928571D01*
X71107142Y-54428571D01*
X71035714Y-54714285D01*
X70892857Y-54857142D01*
X70750000Y-54928571D01*
X70464285Y-54928571D01*
X70321428Y-54857142D01*
X70178571Y-54714285D01*
X70107142Y-54428571D01*
X70107142Y-53928571D01*
X70178571Y-53642857D01*
X70321428Y-53500000D01*
X70464285Y-53428571D01*
X72464285Y-54928571D02*
X71750000Y-54928571D01*
X71750000Y-53428571D01*
X72964285Y-54928571D02*
X72964285Y-53428571D01*
X73678571Y-54928571D02*
X73678571Y-53428571D01*
X74535714Y-54928571D01*
X74535714Y-53428571D01*
X75250000Y-53428571D02*
X75250000Y-54642857D01*
X75321428Y-54785714D01*
X75392857Y-54857142D01*
X75535714Y-54928571D01*
X75821428Y-54928571D01*
X75964285Y-54857142D01*
X76035714Y-54785714D01*
X76107142Y-54642857D01*
X76107142Y-53428571D01*
X76678571Y-53428571D02*
X77678571Y-54928571D01*
X77678571Y-53428571D02*
X76678571Y-54928571D01*
X78250000Y-54928571D02*
X78250000Y-53428571D01*
X78964285Y-54928571D02*
X78964285Y-53428571D01*
X79821428Y-54928571D01*
X79821428Y-53428571D01*
X80821428Y-53428571D02*
X81107142Y-53428571D01*
X81250000Y-53500000D01*
X81392857Y-53642857D01*
X81464285Y-53928571D01*
X81464285Y-54428571D01*
X81392857Y-54714285D01*
X81250000Y-54857142D01*
X81107142Y-54928571D01*
X80821428Y-54928571D01*
X80678571Y-54857142D01*
X80535714Y-54714285D01*
X80464285Y-54428571D01*
X80464285Y-53928571D01*
X80535714Y-53642857D01*
X80678571Y-53500000D01*
X80821428Y-53428571D01*
X82107142Y-54357142D02*
X83250000Y-54357142D01*
X84678571Y-53428571D02*
X83964285Y-53428571D01*
X83892857Y-54142857D01*
X83964285Y-54071428D01*
X84107142Y-54000000D01*
X84464285Y-54000000D01*
X84607142Y-54071428D01*
X84678571Y-54142857D01*
X84750000Y-54285714D01*
X84750000Y-54642857D01*
X84678571Y-54785714D01*
X84607142Y-54857142D01*
X84464285Y-54928571D01*
X84107142Y-54928571D01*
X83964285Y-54857142D01*
X83892857Y-54785714D01*
X85321428Y-53428571D02*
X85321428Y-53714285D01*
X85892857Y-53428571D02*
X85892857Y-53714285D01*
X87392857Y-54785714D02*
X87321428Y-54857142D01*
X87107142Y-54928571D01*
X86964285Y-54928571D01*
X86750000Y-54857142D01*
X86607142Y-54714285D01*
X86535714Y-54571428D01*
X86464285Y-54285714D01*
X86464285Y-54071428D01*
X86535714Y-53785714D01*
X86607142Y-53642857D01*
X86750000Y-53500000D01*
X86964285Y-53428571D01*
X87107142Y-53428571D01*
X87321428Y-53500000D01*
X87392857Y-53571428D01*
X87821428Y-53428571D02*
X88678571Y-53428571D01*
X88250000Y-54928571D02*
X88250000Y-53428571D01*
X89107142Y-54857142D02*
X89321428Y-54928571D01*
X89678571Y-54928571D01*
X89821428Y-54857142D01*
X89892857Y-54785714D01*
X89964285Y-54642857D01*
X89964285Y-54500000D01*
X89892857Y-54357142D01*
X89821428Y-54285714D01*
X89678571Y-54214285D01*
X89392857Y-54142857D01*
X89250000Y-54071428D01*
X89178571Y-54000000D01*
X89107142Y-53857142D01*
X89107142Y-53714285D01*
X89178571Y-53571428D01*
X89250000Y-53500000D01*
X89392857Y-53428571D01*
X89750000Y-53428571D01*
X89964285Y-53500000D01*
D11*
X74571428Y-57452380D02*
X74095238Y-57452380D01*
X74095238Y-56452380D01*
X74904761Y-57452380D02*
X74904761Y-56452380D01*
X75380952Y-57452380D02*
X75380952Y-56452380D01*
X75714285Y-57166666D01*
X76047619Y-56452380D01*
X76047619Y-57452380D01*
X76523809Y-56928571D02*
X76857142Y-56928571D01*
X77000000Y-57452380D02*
X76523809Y-57452380D01*
X76523809Y-56452380D01*
X77000000Y-56452380D01*
X77380952Y-56547619D02*
X77428571Y-56500000D01*
X77523809Y-56452380D01*
X77761904Y-56452380D01*
X77857142Y-56500000D01*
X77904761Y-56547619D01*
X77952380Y-56642857D01*
X77952380Y-56738095D01*
X77904761Y-56880952D01*
X77333333Y-57452380D01*
X77952380Y-57452380D01*
D15*
X60000000Y-42000000D02*
X60000000Y-80000000D01*
X150000000Y-42000000D02*
X60000000Y-42000000D01*
X150000000Y-80000000D02*
X150000000Y-42000000D01*
X60000000Y-80000000D02*
X150000000Y-80000000D01*
D16*
X117750000Y-74970000D02*
X117750000Y-75970000D01*
X115250000Y-74970000D02*
X115250000Y-75970000D01*
X113250000Y-62970000D02*
X113250000Y-74970000D01*
X119750000Y-62970000D02*
X113250000Y-62970000D01*
X119750000Y-74970000D02*
X119750000Y-62970000D01*
X113250000Y-74970000D02*
X119750000Y-74970000D01*
D17*
X108798000Y-67564000D02*
X107750000Y-67564000D01*
X102194000Y-67564000D02*
X102194000Y-74168000D01*
X102194000Y-74168000D02*
X102702000Y-74676000D01*
X107750000Y-74676000D02*
X109306000Y-74676000D01*
X109306000Y-74676000D02*
X109306000Y-68072000D01*
X109306000Y-68072000D02*
X108798000Y-67564000D01*
X102702000Y-74676000D02*
X103750000Y-74676000D01*
X103750000Y-67564000D02*
X102194000Y-67564000D01*
D15*
X96393000Y-65278000D02*
X95377000Y-65278000D01*
X96393000Y-66802000D02*
X95377000Y-66802000D01*
X89932000Y-70866000D02*
X90948000Y-70866000D01*
X89932000Y-68834000D02*
X90948000Y-68834000D01*
X110150000Y-71940000D02*
X112850000Y-71940000D01*
X110150000Y-68750000D02*
X110150000Y-73750000D01*
X110150000Y-72380000D02*
X112850000Y-72380000D01*
X112850000Y-73750000D02*
X112850000Y-68750000D01*
X107388660Y-64302640D02*
X108099860Y-64302640D01*
X108099860Y-63464440D02*
X108099860Y-64302640D01*
X105255060Y-63464440D02*
X105255060Y-64302640D01*
X105255060Y-64302640D02*
X105966260Y-64302640D01*
X91148660Y-76367640D02*
X91859860Y-76367640D01*
X91859860Y-75529440D02*
X91859860Y-76367640D01*
X89015060Y-75529440D02*
X89015060Y-76367640D01*
X89015060Y-76367640D02*
X89726260Y-76367640D01*
X143291560Y-60211200D02*
X143291560Y-60922400D01*
X144129760Y-60922400D02*
X143291560Y-60922400D01*
X144129760Y-58077600D02*
X143291560Y-58077600D01*
X143291560Y-58077600D02*
X143291560Y-58788800D01*
X87350000Y-50450000D02*
X85500000Y-50450000D01*
X65000000Y-50450000D02*
X63150000Y-50450000D01*
X63150000Y-50450000D02*
X63150000Y-50410000D01*
X63150000Y-47410000D02*
X63150000Y-44750000D01*
X63150000Y-44750000D02*
X87350000Y-44750000D01*
X87350000Y-44750000D02*
X87350000Y-47410000D01*
X87350000Y-50410000D02*
X87350000Y-50450000D01*
X121650000Y-66800000D02*
X123500000Y-66800000D01*
X144000000Y-66800000D02*
X145850000Y-66800000D01*
X145850000Y-66800000D02*
X145850000Y-66840000D01*
X145850000Y-69840000D02*
X145850000Y-72500000D01*
X145850000Y-72500000D02*
X121650000Y-72500000D01*
X121650000Y-72500000D02*
X121650000Y-69840000D01*
X121650000Y-66840000D02*
X121650000Y-66800000D01*
X147370800Y-63115000D02*
X146659600Y-63115000D01*
X146659600Y-63953200D02*
X146659600Y-63115000D01*
X149504400Y-63953200D02*
X149504400Y-63115000D01*
X149504400Y-63115000D02*
X148793200Y-63115000D01*
X143615000Y-63961200D02*
X143615000Y-64672400D01*
X144453200Y-64672400D02*
X143615000Y-64672400D01*
X144453200Y-61827600D02*
X143615000Y-61827600D01*
X143615000Y-61827600D02*
X143615000Y-62538800D01*
X99621340Y-62697360D02*
X98910140Y-62697360D01*
X98910140Y-63535560D02*
X98910140Y-62697360D01*
X101754940Y-63535560D02*
X101754940Y-62697360D01*
X101754940Y-62697360D02*
X101043740Y-62697360D01*
X111414000Y-76978000D02*
X110398000Y-76978000D01*
X111414000Y-78502000D02*
X110398000Y-78502000D01*
X95377000Y-77597000D02*
X96393000Y-77597000D01*
X95377000Y-76073000D02*
X96393000Y-76073000D01*
X98806000Y-77597000D02*
X99822000Y-77597000D01*
X98806000Y-76073000D02*
X99822000Y-76073000D01*
X94512000Y-73258000D02*
X94512000Y-72242000D01*
X92988000Y-73258000D02*
X92988000Y-72242000D01*
X89932000Y-73152000D02*
X90948000Y-73152000D01*
X89932000Y-71628000D02*
X90948000Y-71628000D01*
X146050000Y-58992000D02*
X146050000Y-60008000D01*
X147574000Y-58992000D02*
X147574000Y-60008000D01*
X147988000Y-67242000D02*
X147988000Y-68258000D01*
X149512000Y-67242000D02*
X149512000Y-68258000D01*
X104267000Y-64389000D02*
X104267000Y-63373000D01*
X102743000Y-64389000D02*
X102743000Y-63373000D01*
D17*
X100712986Y-69396300D02*
G75*
G03X100712986Y-69396300I-197566J0D01*
G01*
D15*
X95392240Y-72324920D02*
X95392240Y-69795080D01*
X95392240Y-69795080D02*
X99923600Y-69795080D01*
X99923600Y-69795080D02*
X100187760Y-70061780D01*
X100187760Y-70061780D02*
X100187760Y-72324920D01*
X100187760Y-72324920D02*
X95392240Y-72324920D01*
D17*
X99765566Y-70425000D02*
G75*
G03X99765566Y-70425000I-197566J0D01*
G01*
D15*
X92315000Y-44700000D02*
X91915000Y-44700000D01*
X148115000Y-44700000D02*
X147715000Y-44700000D01*
X148115000Y-51300000D02*
X147715000Y-51300000D01*
X92315000Y-51300000D02*
X91915000Y-51300000D01*
X147955000Y-51175000D02*
X145415000Y-51175000D01*
X94615000Y-51175000D02*
X92075000Y-51175000D01*
X92075000Y-44825000D02*
X92075000Y-51175000D01*
X147955000Y-51175000D02*
X147955000Y-44825000D01*
X149225000Y-52445000D02*
X147955000Y-52445000D01*
X90805000Y-43555000D02*
X94615000Y-43555000D01*
X90805000Y-43555000D02*
X90805000Y-52445000D01*
X149225000Y-52445000D02*
X149225000Y-43555000D01*
X92075000Y-52445000D02*
X92075000Y-52699000D01*
X92075000Y-52699000D02*
X93345000Y-52699000D01*
X93345000Y-52445000D02*
X93345000Y-52699000D01*
X92075000Y-52445000D02*
X90805000Y-52445000D01*
X94615000Y-52445000D02*
X93345000Y-52445000D01*
X146685000Y-52699000D02*
X147955000Y-52699000D01*
X147955000Y-52699000D02*
X147955000Y-52445000D01*
X146685000Y-52699000D02*
X146685000Y-52445000D01*
X146685000Y-52445000D02*
X145415000Y-52445000D01*
X92075000Y-44825000D02*
X94615000Y-44825000D01*
X94615000Y-44571000D02*
X91821000Y-44571000D01*
X91821000Y-44571000D02*
X91821000Y-51429000D01*
X91821000Y-51429000D02*
X94615000Y-51429000D01*
X145415000Y-51429000D02*
X148209000Y-51429000D01*
X148209000Y-51429000D02*
X148209000Y-44571000D01*
X148209000Y-44571000D02*
X145415000Y-44571000D01*
X149225000Y-43555000D02*
X145415000Y-43555000D01*
X145415000Y-44825000D02*
X147955000Y-44825000D01*
X147988000Y-58992000D02*
X147988000Y-60008000D01*
X149512000Y-58992000D02*
X149512000Y-60008000D01*
X143762000Y-56508000D02*
X143762000Y-55492000D01*
X142238000Y-56508000D02*
X142238000Y-55492000D01*
D16*
X114916300Y-54671200D02*
X116287900Y-54671200D01*
X116287900Y-54671200D02*
X116338700Y-54671200D01*
X116338700Y-54671200D02*
X117596000Y-55915800D01*
X113392300Y-54785500D02*
X113493900Y-54785500D01*
X113544700Y-54722000D02*
X113544700Y-54709300D01*
X113544700Y-54709300D02*
X112249300Y-54709300D01*
X112249300Y-54709300D02*
X112223900Y-54709300D01*
X112223900Y-54709300D02*
X111601600Y-55204600D01*
X113544700Y-57731900D02*
X113544700Y-54722000D01*
X109887100Y-54772800D02*
X109810900Y-54772800D01*
X109734700Y-54709300D02*
X110979300Y-54709300D01*
X110979300Y-54709300D02*
X111563500Y-55191900D01*
X109734700Y-57706500D02*
X109734700Y-54722000D01*
X108998100Y-57300100D02*
X109087000Y-57300100D01*
X108655200Y-57300100D02*
X108591700Y-57300100D01*
X108515500Y-57363600D02*
X109125100Y-57363600D01*
X109125100Y-57363600D02*
X109150500Y-57363600D01*
X109150500Y-57363600D02*
X109150500Y-55344300D01*
X108515500Y-55344300D02*
X108515500Y-57363600D01*
X107016900Y-54734700D02*
X107131200Y-54734700D01*
X106889900Y-54658500D02*
X107194700Y-54658500D01*
X107194700Y-54658500D02*
X107194700Y-57693800D01*
X106712100Y-54747400D02*
X106648600Y-54734700D01*
X106597800Y-54658500D02*
X106585100Y-54658500D01*
X106585100Y-54658500D02*
X106572400Y-54658500D01*
X106572400Y-54658500D02*
X106572400Y-57808100D01*
X106877200Y-54658500D02*
X106597800Y-54658500D01*
D18*
X106877200Y-57731900D02*
X106877200Y-55001400D01*
X113214500Y-55014100D02*
X113214500Y-57617600D01*
X105099200Y-55001400D02*
X104095900Y-55001400D01*
X105721500Y-55611000D02*
X105721500Y-57541400D01*
X103499000Y-55649100D02*
X103499000Y-55890400D01*
X103499000Y-57617600D02*
X104083200Y-58189100D01*
X103511700Y-57630300D02*
X103511700Y-56868300D01*
X104070500Y-58189100D02*
X105111900Y-58189100D01*
D19*
X116558659Y-56576200D02*
G75*
G03X116558659Y-56576200I-359659J0D01*
G01*
D18*
X115691000Y-56576200D02*
X114471800Y-56576200D01*
D19*
X119492135Y-54836300D02*
G75*
G03X119492135Y-54836300I-359435J0D01*
G01*
D18*
X118764400Y-55191900D02*
X117900800Y-56085600D01*
D20*
X117342000Y-56182500D02*
X117900800Y-56182500D01*
D18*
X116224400Y-55001400D02*
X117316600Y-56068200D01*
X115002500Y-55001400D02*
X116224400Y-55001400D01*
X114471800Y-55484000D02*
X114954400Y-54976000D01*
X114471800Y-55509400D02*
X114471800Y-57744600D01*
X114471800Y-57744600D02*
X114903600Y-58176400D01*
X114903600Y-58176400D02*
X116224400Y-58176400D01*
X116224400Y-58176400D02*
X117367400Y-57058800D01*
D20*
X117367400Y-56957200D02*
X117900800Y-56957200D01*
D18*
X118713600Y-57871600D02*
X117875400Y-57058800D01*
D19*
X119373266Y-58227200D02*
G75*
G03X119373266Y-58227200I-329466J0D01*
G01*
X113577729Y-58138300D02*
G75*
G03X113577729Y-58138300I-363229J0D01*
G01*
D18*
X112312800Y-55026800D02*
X113201800Y-55026800D01*
D19*
X111972518Y-56855600D02*
G75*
G03X111972518Y-56855600I-370918J0D01*
G01*
D18*
X111677800Y-55534800D02*
X112312800Y-55026800D01*
X111601600Y-56322200D02*
X111601600Y-55611000D01*
X110890400Y-55026800D02*
X111500000Y-55534800D01*
X110052200Y-55026800D02*
X110890400Y-55026800D01*
X110052200Y-57617600D02*
X110052200Y-55026800D01*
D19*
X110424559Y-58125600D02*
G75*
G03X110424559Y-58125600I-359659J0D01*
G01*
X109219218Y-54925200D02*
G75*
G03X109219218Y-54925200I-373518J0D01*
G01*
D18*
X108833000Y-55458600D02*
X108833000Y-57058800D01*
D19*
X109199324Y-58151000D02*
G75*
G03X109199324Y-58151000I-366324J0D01*
G01*
D18*
X108320200Y-58176400D02*
X107334400Y-58176400D01*
X107334400Y-58176400D02*
X106877200Y-57719200D01*
X105708800Y-57579500D02*
X105150000Y-58163700D01*
X105099200Y-55014100D02*
X105734200Y-55623700D01*
X103499000Y-55598300D02*
X104007000Y-55090300D01*
D19*
X103849147Y-56373000D02*
G75*
G03X103849147Y-56373000I-337447J0D01*
G01*
D17*
X122429000Y-77345000D02*
G75*
G03X122429000Y-77345000I-127000J0D01*
G01*
D15*
X122429000Y-74043000D02*
G75*
G03X120143000Y-74043000I-1143000J-1143000D01*
G01*
X121159000Y-73281000D02*
X121159000Y-73408000D01*
X121159000Y-73408000D02*
X121540000Y-73408000D01*
X121540000Y-73408000D02*
X121540000Y-73281000D01*
X121540000Y-73281000D02*
X121159000Y-73281000D01*
X121286000Y-74805000D02*
X121921000Y-74805000D01*
X121159000Y-74678000D02*
X122048000Y-74678000D01*
X122048000Y-74678000D02*
X122048000Y-75059000D01*
X122048000Y-75059000D02*
X121159000Y-75059000D01*
X121159000Y-75059000D02*
X121159000Y-74678000D01*
X122556000Y-74678000D02*
X122556000Y-74297000D01*
X122556000Y-74297000D02*
X122683000Y-74297000D01*
X122683000Y-74297000D02*
X122683000Y-74678000D01*
X122556000Y-74297000D02*
X122556000Y-74424000D01*
X122556000Y-74170000D02*
X122683000Y-74551000D01*
X122556000Y-74297000D02*
X122556000Y-74424000D01*
X122429000Y-74170000D02*
X122429000Y-74678000D01*
X122429000Y-74678000D02*
X122810000Y-74678000D01*
X122810000Y-74678000D02*
X122810000Y-74170000D01*
X120397000Y-74043000D02*
X120397000Y-73535000D01*
X120397000Y-73535000D02*
X120524000Y-73535000D01*
X120524000Y-73535000D02*
X120524000Y-74043000D01*
X122703609Y-77345000D02*
G75*
G03X122703609Y-77345000I-401609J0D01*
G01*
X122302000Y-76837000D02*
X122429000Y-74805000D01*
X120397000Y-77345000D02*
X120397000Y-77726000D01*
X120397000Y-77726000D02*
X120905000Y-77726000D01*
X120905000Y-77726000D02*
X120905000Y-77472000D01*
X119889000Y-74170000D02*
X122810000Y-74170000D01*
X120397000Y-77345000D02*
X120143000Y-74297000D01*
X120397000Y-77345000D02*
X121794000Y-77345000D01*
X119381000Y-77726000D02*
X123445000Y-73789000D01*
X119254000Y-73662000D02*
X123445000Y-77853000D01*
D21*
X119098800Y-79098400D02*
X123518400Y-79098400D01*
X123518400Y-78996800D02*
X119149600Y-78996800D01*
X119098800Y-78793600D02*
X123569200Y-78793600D01*
X119098800Y-78641200D02*
X123518400Y-78641200D01*
X123569200Y-78895200D02*
X119149600Y-78895200D01*
X123569200Y-78742800D02*
X119149600Y-78742800D01*
X119098800Y-78590400D02*
X123569200Y-78590400D01*
X123569200Y-78488800D02*
X119149600Y-78488800D01*
X123620000Y-79200000D02*
X119048000Y-79200000D01*
X119048000Y-79200000D02*
X119048000Y-78438000D01*
X119048000Y-78438000D02*
X123620000Y-78438000D01*
X123620000Y-78438000D02*
X123620000Y-79200000D01*
D15*
X64306000Y-68638000D02*
X60750000Y-75750000D01*
X60750000Y-75750000D02*
X67862000Y-75750000D01*
X67862000Y-75750000D02*
X66528500Y-73083000D01*
X66528500Y-73083000D02*
X66084000Y-72194000D01*
X66084000Y-72194000D02*
X64306000Y-68638000D01*
X62528000Y-72257500D02*
X67862000Y-75750000D01*
X64902900Y-72194000D02*
X66084000Y-72194000D01*
X66528500Y-73083000D02*
X66211000Y-73083000D01*
X63544000Y-74670500D02*
X63696400Y-74670500D01*
X62591500Y-73273500D02*
X62591500Y-74353000D01*
X63036000Y-74670500D02*
X63036000Y-74543500D01*
X62972500Y-74480000D02*
X62972500Y-73464000D01*
X62972500Y-74480000D02*
X62909000Y-74480000D01*
X64686279Y-72130678D02*
G75*
G03X63099500Y-72638500I-466639J-1274902D01*
G01*
X64687085Y-72132114D02*
G75*
G03X64902900Y-72194000I182795J230214D01*
G01*
X66211699Y-73083474D02*
G75*
G03X65703000Y-73273500I-64199J-604046D01*
G01*
X64880539Y-73719576D02*
G75*
G03X65703000Y-73273500I-147819J1253796D01*
G01*
X64368292Y-73465166D02*
G75*
G03X63417000Y-74226000I285688J-1332334D01*
G01*
X64306085Y-73909965D02*
G75*
G03X63734500Y-74670500I284395J-808795D01*
G01*
X64745725Y-73782493D02*
G75*
G03X64306000Y-73908500I825195J-3709947D01*
G01*
X63417033Y-74543600D02*
G75*
G03X63544000Y-74670500I190467J63600D01*
G01*
X63417932Y-74226674D02*
G75*
G03X63417000Y-74543500I316568J-159346D01*
G01*
X62974065Y-73465845D02*
G75*
G03X63671000Y-73019500I-153965J1007685D01*
G01*
X62783451Y-72956142D02*
G75*
G03X63099500Y-72638500I-478971J792622D01*
G01*
X62780952Y-72957575D02*
G75*
G03X62591500Y-73273500I168688J-315925D01*
G01*
X62591500Y-74353000D02*
G75*
G03X62972500Y-74734000I381000J0D01*
G01*
X62974929Y-74736545D02*
G75*
G03X63036000Y-74670500I-2429J63505D01*
G01*
X63036000Y-74543500D02*
G75*
G03X62972500Y-74480000I-63500J0D01*
G01*
X62909000Y-74480000D02*
G75*
G03X62782000Y-74607000I0J-127000D01*
G01*
D22*
X126636020Y-55521720D02*
X129069340Y-57942340D01*
D15*
X129599037Y-56685040D02*
G75*
G03X129599037Y-56685040I-1802237J0D01*
G01*
X135319000Y-61837000D02*
X123508000Y-61837000D01*
X123508000Y-64885000D02*
X135319000Y-64885000D01*
X136174980Y-60854020D02*
X136228320Y-60800680D01*
X136947140Y-60800680D02*
X137224000Y-61075000D01*
X130366000Y-55868000D02*
X131232140Y-57983820D01*
X133215880Y-60371420D02*
X133251440Y-60406980D01*
X135120880Y-61075000D02*
X135636500Y-61075000D01*
X130366000Y-55868000D02*
X131227060Y-56487760D01*
X132944100Y-56825580D02*
X135092940Y-56630000D01*
X137142720Y-58146380D02*
X137290040Y-58745820D01*
X137348460Y-59424000D02*
X137348460Y-59805000D01*
X137246860Y-61029280D02*
X137224000Y-61075000D01*
X136589000Y-62345000D02*
X136774420Y-62159580D01*
X131760460Y-57519000D02*
X132042400Y-57866980D01*
X134069320Y-58618820D02*
X134379200Y-58679780D01*
X136934440Y-59949780D02*
X137104620Y-60137740D01*
X137348460Y-59805000D02*
X137345920Y-59802460D01*
X136289280Y-58730580D02*
X136281660Y-58725500D01*
X135014200Y-58222580D02*
X134496040Y-58148920D01*
X133147300Y-57933020D02*
X131760460Y-57519000D01*
X136589000Y-62472000D02*
X137097000Y-61710000D01*
X137224000Y-61247720D02*
X137224000Y-61202000D01*
X136462000Y-62345000D02*
X136952220Y-61854780D01*
X137224000Y-61583000D02*
X137328140Y-61689680D01*
X137978380Y-61717620D02*
X138113000Y-61583000D01*
X138113000Y-61583000D02*
X137815820Y-61163900D01*
X137932660Y-59962480D02*
X137986000Y-59868500D01*
X138707360Y-59223340D02*
X139129000Y-59043000D01*
X139129000Y-59043000D02*
X140145000Y-58662000D01*
X140145000Y-58662000D02*
X140010380Y-59200480D01*
X139830040Y-61262960D02*
X139807180Y-61285820D01*
X139027400Y-61583000D02*
X138671800Y-61583000D01*
X138125700Y-61583000D02*
X138113000Y-61583000D01*
X139205200Y-60391740D02*
X139179800Y-60782900D01*
X130747000Y-56376000D02*
X131760460Y-57013540D01*
D23*
X131760460Y-57013540D02*
X132906000Y-57013540D01*
X132906000Y-57013540D02*
X133922000Y-56884000D01*
X133922000Y-56884000D02*
X135573000Y-56884000D01*
X135573000Y-56884000D02*
X136208000Y-57265000D01*
X136208000Y-57265000D02*
X136716000Y-57773000D01*
X136716000Y-57773000D02*
X136970000Y-58281000D01*
X136970000Y-58281000D02*
X137097000Y-59297000D01*
X137097000Y-59297000D02*
X136589000Y-58662000D01*
X136589000Y-58662000D02*
X135954000Y-58281000D01*
X135954000Y-58281000D02*
X136208000Y-57773000D01*
X136208000Y-57773000D02*
X136589000Y-58281000D01*
X135827000Y-58281000D02*
X135192000Y-57900000D01*
X135192000Y-57900000D02*
X134684000Y-57900000D01*
X134684000Y-57900000D02*
X134557000Y-57900000D01*
X134557000Y-57900000D02*
X133414000Y-57773000D01*
X133414000Y-57773000D02*
X132144000Y-57392000D01*
X132144000Y-57392000D02*
X131636000Y-57265000D01*
X131636000Y-57265000D02*
X136208000Y-57265000D01*
X136208000Y-57265000D02*
X136208000Y-57519000D01*
X136208000Y-57773000D02*
X136208000Y-57519000D01*
X136208000Y-57519000D02*
X131255000Y-57442800D01*
X136335000Y-57900000D02*
X134684000Y-57900000D01*
X130747000Y-56376000D02*
X131255000Y-57265000D01*
X131255000Y-57265000D02*
X131382000Y-57773000D01*
X131382000Y-57773000D02*
X131760460Y-58281000D01*
X131760460Y-58281000D02*
X131760460Y-57900000D01*
X131760460Y-57900000D02*
X131382000Y-57013540D01*
X131890000Y-58408000D02*
X132271000Y-58916000D01*
X132271000Y-58916000D02*
X132525000Y-59297000D01*
X132525000Y-59297000D02*
X133414000Y-60186000D01*
X133414000Y-60186000D02*
X133922000Y-60567000D01*
X133922000Y-60567000D02*
X134811000Y-60821000D01*
X134811000Y-60821000D02*
X135700000Y-60821000D01*
X135700000Y-60821000D02*
X136462000Y-60313000D01*
X136462000Y-60313000D02*
X136843000Y-60440000D01*
X136843000Y-60440000D02*
X137097000Y-60694000D01*
X137097000Y-60694000D02*
X136843000Y-60186000D01*
X136843000Y-60186000D02*
X136335000Y-59678000D01*
X136335000Y-59678000D02*
X135649200Y-59271600D01*
X135649200Y-59271600D02*
X134252200Y-58789000D01*
X134252200Y-58789000D02*
X133642600Y-58789000D01*
X133642600Y-58789000D02*
X132906000Y-58535000D01*
X132906000Y-58535000D02*
X132144000Y-58154000D01*
X132271000Y-58535000D02*
X133033000Y-59170000D01*
X133033000Y-59170000D02*
X133160000Y-59043000D01*
X133160000Y-59043000D02*
X133287000Y-59043000D01*
X133287000Y-59043000D02*
X134430000Y-59170000D01*
X134430000Y-59170000D02*
X135446000Y-59424000D01*
X135446000Y-59424000D02*
X136081000Y-59932000D01*
X136081000Y-59932000D02*
X136208000Y-60059000D01*
X136208000Y-60059000D02*
X136081000Y-60313000D01*
X136081000Y-60313000D02*
X135827000Y-60313000D01*
X135827000Y-60313000D02*
X135446000Y-60440000D01*
X135446000Y-60440000D02*
X134811000Y-60440000D01*
X134811000Y-60440000D02*
X134430000Y-60313000D01*
X134430000Y-60313000D02*
X133922000Y-60186000D01*
X133922000Y-60186000D02*
X133287000Y-59678000D01*
X133287000Y-59678000D02*
X133160000Y-59551000D01*
X133160000Y-59551000D02*
X133287000Y-59424000D01*
X133287000Y-59424000D02*
X133795000Y-59424000D01*
X133795000Y-59424000D02*
X134811000Y-59678000D01*
X134811000Y-59678000D02*
X135065000Y-59678000D01*
X135065000Y-59678000D02*
X135573000Y-59932000D01*
X135573000Y-59932000D02*
X135573000Y-60059000D01*
X135573000Y-60059000D02*
X135446000Y-60186000D01*
X135446000Y-60186000D02*
X135065000Y-60059000D01*
X135065000Y-60059000D02*
X133795000Y-59805000D01*
D15*
X138415260Y-61458540D02*
X138387320Y-61486480D01*
X138798800Y-60389200D02*
X138798800Y-60381580D01*
X137859000Y-60843860D02*
X137859000Y-60821000D01*
X137859000Y-60821000D02*
X137859000Y-60567000D01*
X137859000Y-60567000D02*
X137986000Y-60567000D01*
X137986000Y-60567000D02*
X138113000Y-60567000D01*
X138113000Y-60567000D02*
X138113000Y-61202000D01*
X137986000Y-60567000D02*
X137986000Y-60694000D01*
X137986000Y-60694000D02*
X137986000Y-61075000D01*
X137986000Y-61075000D02*
X137986000Y-61202000D01*
X137986000Y-61202000D02*
X137986000Y-61329000D01*
X138113000Y-60567000D02*
X138494000Y-60567000D01*
X138494000Y-60567000D02*
X138748000Y-60567000D01*
X138748000Y-60567000D02*
X138240000Y-61456000D01*
X138494000Y-60567000D02*
X138494000Y-61075000D01*
X137986000Y-60694000D02*
X138621000Y-60694000D01*
X137859000Y-60821000D02*
X138621000Y-60821000D01*
X137859000Y-60948000D02*
X138621000Y-60948000D01*
X137986000Y-61075000D02*
X138621000Y-61075000D01*
X137986000Y-61202000D02*
X138494000Y-61202000D01*
X138748000Y-60440000D02*
X137859000Y-60440000D01*
X138748000Y-60313000D02*
X137859000Y-60313000D01*
X138748000Y-60186000D02*
X137986000Y-60186000D01*
X138748000Y-60059000D02*
X137986000Y-60059000D01*
X138875000Y-59932000D02*
X137986000Y-59932000D01*
X138875000Y-59805000D02*
X138113000Y-59805000D01*
X139002000Y-59678000D02*
X138240000Y-59678000D01*
X139002000Y-59551000D02*
X138367000Y-59551000D01*
X139129000Y-59424000D02*
X138621000Y-59424000D01*
X139891000Y-59297000D02*
X139764000Y-59297000D01*
X139764000Y-59297000D02*
X139637000Y-59297000D01*
X139637000Y-59297000D02*
X138748000Y-59297000D01*
X139129000Y-59170000D02*
X139891000Y-59170000D01*
X139383000Y-59043000D02*
X140018000Y-59043000D01*
X139510000Y-58916000D02*
X140018000Y-58916000D01*
X139637000Y-59297000D02*
X139637000Y-59805000D01*
X139764000Y-59297000D02*
X139764000Y-59805000D01*
X139383000Y-59805000D02*
X139891000Y-59805000D01*
X139383000Y-59932000D02*
X139891000Y-59932000D01*
X139256000Y-60059000D02*
X139891000Y-60059000D01*
X139256000Y-60186000D02*
X140018000Y-60186000D01*
X139256000Y-60313000D02*
X140018000Y-60313000D01*
X139256000Y-60440000D02*
X140018000Y-60440000D01*
X139256000Y-60567000D02*
X140018000Y-60567000D01*
X139256000Y-60694000D02*
X140018000Y-60694000D01*
X139256000Y-60821000D02*
X140018000Y-60821000D01*
X139179800Y-60948000D02*
X140018000Y-60948000D01*
X139129000Y-61075000D02*
X139891000Y-61075000D01*
X139129000Y-61202000D02*
X139764000Y-61202000D01*
X139002000Y-61329000D02*
X139637000Y-61329000D01*
X138875000Y-61456000D02*
X139383000Y-61456000D01*
X136843000Y-63361000D02*
G75*
G03X135319000Y-61837000I-1524000J0D01*
G01*
X123508000Y-61837000D02*
G75*
G03X121984000Y-63361000I0J-1524000D01*
G01*
X121984000Y-63361000D02*
G75*
G03X123508000Y-64885000I1524000J0D01*
G01*
X135319000Y-64885000D02*
G75*
G03X136843000Y-63361000I0J1524000D01*
G01*
X135636500Y-61077066D02*
G75*
G03X136174980Y-60854020I0J761526D01*
G01*
X136947140Y-60798140D02*
G75*
G03X136228320Y-60800680I-358140J-360680D01*
G01*
X131234536Y-57989447D02*
G75*
G03X133215880Y-60371420I8344044J4925607D01*
G01*
X133255067Y-60409013D02*
G75*
G03X135120880Y-61075000I1738813J1924813D01*
G01*
X131229048Y-56485522D02*
G75*
G03X132944100Y-56825580I1268012J1900222D01*
G01*
X137143264Y-58142585D02*
G75*
G03X135092940Y-56630000I-2144304J-760715D01*
G01*
X137350240Y-59423243D02*
G75*
G03X137290040Y-58745820I-3049780J70363D01*
G01*
X136776451Y-62160559D02*
G75*
G03X137224000Y-61075000I-1086611J1083019D01*
G01*
X132042459Y-57868778D02*
G75*
G03X134069320Y-58618820I2631381J3997218D01*
G01*
X136933527Y-59949156D02*
G75*
G03X134379200Y-58679780I-3654147J-4148444D01*
G01*
X137224845Y-61075069D02*
G75*
G03X137104620Y-60137740I-762845J378529D01*
G01*
X137344359Y-59800765D02*
G75*
G03X136289280Y-58730580I-3831299J-2722035D01*
G01*
X136277870Y-58722934D02*
G75*
G03X135014200Y-58222580I-2134890J-3545866D01*
G01*
X133153621Y-57933186D02*
G75*
G03X134496040Y-58148920I1812319J6992786D01*
G01*
X136718022Y-62472280D02*
G75*
G03X137224000Y-61247720I-1228842J1224560D01*
G01*
X136955742Y-61854710D02*
G75*
G03X137224000Y-61202000I-653762J650170D01*
G01*
X137328866Y-61688954D02*
G75*
G03X137686280Y-61837000I357414J357414D01*
G01*
X137686280Y-61838612D02*
G75*
G03X137978380Y-61717620I0J413092D01*
G01*
X137730126Y-60719901D02*
G75*
G03X137815820Y-61163900I1195674J501D01*
G01*
X137932206Y-59964321D02*
G75*
G03X137732000Y-60719400I1323794J-755079D01*
G01*
X138708000Y-59224511D02*
G75*
G03X137986000Y-59868500I601340J-1400909D01*
G01*
X140009852Y-59203136D02*
G75*
G03X140073880Y-60137740I1478808J-368184D01*
G01*
X140144717Y-60506487D02*
G75*
G03X140073880Y-60137740I-992857J447D01*
G01*
X139831054Y-61263974D02*
G75*
G03X140145000Y-60506040I-757934J757934D01*
G01*
X139227503Y-61559453D02*
G75*
G03X139807180Y-61285820I-205183J1185493D01*
G01*
X139026073Y-61584303D02*
G75*
G03X139225520Y-61560140I1327J824263D01*
G01*
X139559205Y-59444066D02*
G75*
G03X139205200Y-60434920I1408755J-1061974D01*
G01*
X138677660Y-61578613D02*
G75*
G03X139179800Y-60782900I-709440J1003993D01*
G01*
X138111212Y-61584791D02*
G75*
G03X138415260Y-61458540I-752J431051D01*
G01*
X138388660Y-61486046D02*
G75*
G03X138798800Y-60389200I-1118940J1043506D01*
G01*
X139305980Y-59350180D02*
G75*
G03X138798800Y-60381580I991420J-1127920D01*
G01*
X137859444Y-60845371D02*
G75*
G03X138113000Y-61456000I865696J1511D01*
G01*
X88295000Y-61782000D02*
X88295000Y-60258000D01*
X88295000Y-63306000D02*
X88295000Y-61782000D01*
X87025000Y-61782000D02*
X87025000Y-60258000D01*
X85755000Y-61782000D02*
X85755000Y-60258000D01*
X84485000Y-61782000D02*
X84485000Y-60258000D01*
X83215000Y-61782000D02*
X83215000Y-60258000D01*
X81945000Y-61782000D02*
X81945000Y-60258000D01*
X80675000Y-61782000D02*
X80675000Y-60258000D01*
X79405000Y-61782000D02*
X79405000Y-60258000D01*
X78135000Y-61782000D02*
X78135000Y-60258000D01*
X87025000Y-63306000D02*
X87025000Y-61782000D01*
X85755000Y-63306000D02*
X85755000Y-61782000D01*
X84485000Y-63306000D02*
X84485000Y-61782000D01*
X83215000Y-63306000D02*
X83215000Y-61782000D01*
X81945000Y-63306000D02*
X81945000Y-61782000D01*
X80675000Y-63306000D02*
X80675000Y-61782000D01*
X79405000Y-63306000D02*
X79405000Y-61782000D01*
X78135000Y-63306000D02*
X78135000Y-61782000D01*
X78135000Y-60258000D02*
X78262000Y-60258000D01*
X78008000Y-60258000D02*
X78135000Y-60258000D01*
X79405000Y-60258000D02*
X79532000Y-60258000D01*
X79278000Y-60258000D02*
X79405000Y-60258000D01*
X80675000Y-60258000D02*
X80802000Y-60258000D01*
X80548000Y-60258000D02*
X80675000Y-60258000D01*
X81945000Y-60258000D02*
X82072000Y-60258000D01*
X81818000Y-60258000D02*
X81945000Y-60258000D01*
X83215000Y-60258000D02*
X83342000Y-60258000D01*
X83088000Y-60258000D02*
X83215000Y-60258000D01*
X84485000Y-60258000D02*
X84612000Y-60258000D01*
X84358000Y-60258000D02*
X84485000Y-60258000D01*
X85755000Y-60258000D02*
X85882000Y-60258000D01*
X85628000Y-60258000D02*
X85755000Y-60258000D01*
X87025000Y-60258000D02*
X87152000Y-60258000D01*
X86898000Y-60258000D02*
X87025000Y-60258000D01*
X88168000Y-60258000D02*
X88422000Y-60258000D01*
X88295000Y-63306000D02*
X88422000Y-63306000D01*
X88168000Y-63306000D02*
X88295000Y-63306000D01*
X87025000Y-63306000D02*
X87152000Y-63306000D01*
X86898000Y-63306000D02*
X87025000Y-63306000D01*
X85755000Y-63306000D02*
X85882000Y-63306000D01*
X85628000Y-63306000D02*
X85755000Y-63306000D01*
X84485000Y-63306000D02*
X84612000Y-63306000D01*
X84358000Y-63306000D02*
X84485000Y-63306000D01*
X83215000Y-63306000D02*
X83342000Y-63306000D01*
X83088000Y-63306000D02*
X83215000Y-63306000D01*
X81945000Y-63306000D02*
X82072000Y-63306000D01*
X81818000Y-63306000D02*
X81945000Y-63306000D01*
X80675000Y-63306000D02*
X80802000Y-63306000D01*
X80548000Y-63306000D02*
X80675000Y-63306000D01*
X79405000Y-63306000D02*
X79532000Y-63306000D01*
X79278000Y-63306000D02*
X79405000Y-63306000D01*
X78135000Y-63306000D02*
X78262000Y-63306000D01*
X78008000Y-63306000D02*
X78135000Y-63306000D01*
X88295000Y-61782000D02*
X89565000Y-61782000D01*
X87025000Y-61782000D02*
X88295000Y-61782000D01*
X85755000Y-61782000D02*
X87025000Y-61782000D01*
X84485000Y-61782000D02*
X85755000Y-61782000D01*
X83215000Y-61782000D02*
X84485000Y-61782000D01*
X81945000Y-61782000D02*
X83215000Y-61782000D01*
X80675000Y-61782000D02*
X81945000Y-61782000D01*
X79405000Y-61782000D02*
X80675000Y-61782000D01*
X78135000Y-61782000D02*
X79405000Y-61782000D01*
X76865000Y-61782000D02*
X78135000Y-61782000D01*
X89565000Y-63306000D02*
X89438000Y-63306000D01*
X89565000Y-61782000D02*
X89565000Y-63306000D01*
X89565000Y-60258000D02*
X89565000Y-61782000D01*
X89438000Y-60258000D02*
X89565000Y-60258000D01*
X76865000Y-63306000D02*
X76992000Y-63306000D01*
X76992000Y-60258000D02*
X76865000Y-60258000D01*
D17*
X88676000Y-62671000D02*
X88676000Y-62163000D01*
X88676000Y-62163000D02*
X89184000Y-62163000D01*
X89184000Y-62671000D02*
X89184000Y-62163000D01*
X88676000Y-62671000D02*
X89184000Y-62671000D01*
X87406000Y-62671000D02*
X87406000Y-62163000D01*
X87406000Y-62163000D02*
X87914000Y-62163000D01*
X87914000Y-62671000D02*
X87914000Y-62163000D01*
X87406000Y-62671000D02*
X87914000Y-62671000D01*
X86136000Y-62671000D02*
X86136000Y-62163000D01*
X86136000Y-62163000D02*
X86644000Y-62163000D01*
X86644000Y-62671000D02*
X86644000Y-62163000D01*
X86136000Y-62671000D02*
X86644000Y-62671000D01*
X84866000Y-62671000D02*
X84866000Y-62163000D01*
X84866000Y-62163000D02*
X85374000Y-62163000D01*
X85374000Y-62671000D02*
X85374000Y-62163000D01*
X84866000Y-62671000D02*
X85374000Y-62671000D01*
X83596000Y-62671000D02*
X83596000Y-62163000D01*
X83596000Y-62163000D02*
X84104000Y-62163000D01*
X84104000Y-62671000D02*
X84104000Y-62163000D01*
X83596000Y-62671000D02*
X84104000Y-62671000D01*
X82326000Y-62671000D02*
X82326000Y-62163000D01*
X82326000Y-62163000D02*
X82834000Y-62163000D01*
X82834000Y-62671000D02*
X82834000Y-62163000D01*
X82326000Y-62671000D02*
X82834000Y-62671000D01*
X81056000Y-62671000D02*
X81056000Y-62163000D01*
X81056000Y-62163000D02*
X81564000Y-62163000D01*
X81564000Y-62671000D02*
X81564000Y-62163000D01*
X81056000Y-62671000D02*
X81564000Y-62671000D01*
X79786000Y-62671000D02*
X79786000Y-62163000D01*
X79786000Y-62163000D02*
X80294000Y-62163000D01*
X80294000Y-62671000D02*
X80294000Y-62163000D01*
X79786000Y-62671000D02*
X80294000Y-62671000D01*
X78516000Y-62671000D02*
X78516000Y-62163000D01*
X78516000Y-62163000D02*
X79024000Y-62163000D01*
X79024000Y-62671000D02*
X79024000Y-62163000D01*
X78516000Y-62671000D02*
X79024000Y-62671000D01*
X77246000Y-62671000D02*
X77246000Y-62163000D01*
X77246000Y-62163000D02*
X77754000Y-62163000D01*
X77754000Y-62671000D02*
X77754000Y-62163000D01*
X77246000Y-62671000D02*
X77754000Y-62671000D01*
X88676000Y-61401000D02*
X88676000Y-60893000D01*
X88676000Y-60893000D02*
X89184000Y-60893000D01*
X89184000Y-61401000D02*
X89184000Y-60893000D01*
X88676000Y-61401000D02*
X89184000Y-61401000D01*
X87406000Y-61401000D02*
X87406000Y-60893000D01*
X87406000Y-60893000D02*
X87914000Y-60893000D01*
X87914000Y-61401000D02*
X87914000Y-60893000D01*
X87406000Y-61401000D02*
X87914000Y-61401000D01*
X86136000Y-61401000D02*
X86136000Y-60893000D01*
X86136000Y-60893000D02*
X86644000Y-60893000D01*
X86644000Y-61401000D02*
X86644000Y-60893000D01*
X86136000Y-61401000D02*
X86644000Y-61401000D01*
X84866000Y-61401000D02*
X84866000Y-60893000D01*
X84866000Y-60893000D02*
X85374000Y-60893000D01*
X85374000Y-61401000D02*
X85374000Y-60893000D01*
X84866000Y-61401000D02*
X85374000Y-61401000D01*
X83596000Y-61401000D02*
X83596000Y-60893000D01*
X83596000Y-60893000D02*
X84104000Y-60893000D01*
X84104000Y-61401000D02*
X84104000Y-60893000D01*
X83596000Y-61401000D02*
X84104000Y-61401000D01*
X82326000Y-61401000D02*
X82326000Y-60893000D01*
X82326000Y-60893000D02*
X82834000Y-60893000D01*
X82834000Y-61401000D02*
X82834000Y-60893000D01*
X82326000Y-61401000D02*
X82834000Y-61401000D01*
X81056000Y-61401000D02*
X81056000Y-60893000D01*
X81056000Y-60893000D02*
X81564000Y-60893000D01*
X81564000Y-61401000D02*
X81564000Y-60893000D01*
X81056000Y-61401000D02*
X81564000Y-61401000D01*
X79786000Y-61401000D02*
X79786000Y-60893000D01*
X79786000Y-60893000D02*
X80294000Y-60893000D01*
X80294000Y-61401000D02*
X80294000Y-60893000D01*
X79786000Y-61401000D02*
X80294000Y-61401000D01*
X78516000Y-61401000D02*
X78516000Y-60893000D01*
X78516000Y-60893000D02*
X79024000Y-60893000D01*
X79024000Y-61401000D02*
X79024000Y-60893000D01*
X78516000Y-61401000D02*
X79024000Y-61401000D01*
X77246000Y-61401000D02*
X77246000Y-60893000D01*
X77246000Y-60893000D02*
X77754000Y-60893000D01*
X77754000Y-61401000D02*
X77754000Y-60893000D01*
X77246000Y-61401000D02*
X77754000Y-61401000D01*
X64546000Y-61401000D02*
X65054000Y-61401000D01*
X65054000Y-61401000D02*
X65054000Y-60893000D01*
X64546000Y-60893000D02*
X65054000Y-60893000D01*
X64546000Y-61401000D02*
X64546000Y-60893000D01*
X65816000Y-61401000D02*
X66324000Y-61401000D01*
X66324000Y-61401000D02*
X66324000Y-60893000D01*
X65816000Y-60893000D02*
X66324000Y-60893000D01*
X65816000Y-61401000D02*
X65816000Y-60893000D01*
X67086000Y-61401000D02*
X67594000Y-61401000D01*
X67594000Y-61401000D02*
X67594000Y-60893000D01*
X67086000Y-60893000D02*
X67594000Y-60893000D01*
X67086000Y-61401000D02*
X67086000Y-60893000D01*
X68356000Y-61401000D02*
X68864000Y-61401000D01*
X68864000Y-61401000D02*
X68864000Y-60893000D01*
X68356000Y-60893000D02*
X68864000Y-60893000D01*
X68356000Y-61401000D02*
X68356000Y-60893000D01*
X69626000Y-61401000D02*
X70134000Y-61401000D01*
X70134000Y-61401000D02*
X70134000Y-60893000D01*
X69626000Y-60893000D02*
X70134000Y-60893000D01*
X69626000Y-61401000D02*
X69626000Y-60893000D01*
X70896000Y-61401000D02*
X71404000Y-61401000D01*
X71404000Y-61401000D02*
X71404000Y-60893000D01*
X70896000Y-60893000D02*
X71404000Y-60893000D01*
X70896000Y-61401000D02*
X70896000Y-60893000D01*
X72166000Y-61401000D02*
X72674000Y-61401000D01*
X72674000Y-61401000D02*
X72674000Y-60893000D01*
X72166000Y-60893000D02*
X72674000Y-60893000D01*
X72166000Y-61401000D02*
X72166000Y-60893000D01*
X73436000Y-61401000D02*
X73944000Y-61401000D01*
X73944000Y-61401000D02*
X73944000Y-60893000D01*
X73436000Y-60893000D02*
X73944000Y-60893000D01*
X73436000Y-61401000D02*
X73436000Y-60893000D01*
X74706000Y-61401000D02*
X75214000Y-61401000D01*
X75214000Y-61401000D02*
X75214000Y-60893000D01*
X74706000Y-60893000D02*
X75214000Y-60893000D01*
X74706000Y-61401000D02*
X74706000Y-60893000D01*
X75976000Y-61401000D02*
X76484000Y-61401000D01*
X76484000Y-61401000D02*
X76484000Y-60893000D01*
X75976000Y-60893000D02*
X76484000Y-60893000D01*
X75976000Y-61401000D02*
X75976000Y-60893000D01*
X64546000Y-62671000D02*
X65054000Y-62671000D01*
X65054000Y-62671000D02*
X65054000Y-62163000D01*
X64546000Y-62163000D02*
X65054000Y-62163000D01*
X64546000Y-62671000D02*
X64546000Y-62163000D01*
X65816000Y-62671000D02*
X66324000Y-62671000D01*
X66324000Y-62671000D02*
X66324000Y-62163000D01*
X65816000Y-62163000D02*
X66324000Y-62163000D01*
X65816000Y-62671000D02*
X65816000Y-62163000D01*
X67086000Y-62671000D02*
X67594000Y-62671000D01*
X67594000Y-62671000D02*
X67594000Y-62163000D01*
X67086000Y-62163000D02*
X67594000Y-62163000D01*
X67086000Y-62671000D02*
X67086000Y-62163000D01*
X68356000Y-62671000D02*
X68864000Y-62671000D01*
X68864000Y-62671000D02*
X68864000Y-62163000D01*
X68356000Y-62163000D02*
X68864000Y-62163000D01*
X68356000Y-62671000D02*
X68356000Y-62163000D01*
X69626000Y-62671000D02*
X70134000Y-62671000D01*
X70134000Y-62671000D02*
X70134000Y-62163000D01*
X69626000Y-62163000D02*
X70134000Y-62163000D01*
X69626000Y-62671000D02*
X69626000Y-62163000D01*
X70896000Y-62671000D02*
X71404000Y-62671000D01*
X71404000Y-62671000D02*
X71404000Y-62163000D01*
X70896000Y-62163000D02*
X71404000Y-62163000D01*
X70896000Y-62671000D02*
X70896000Y-62163000D01*
X72166000Y-62671000D02*
X72674000Y-62671000D01*
X72674000Y-62671000D02*
X72674000Y-62163000D01*
X72166000Y-62163000D02*
X72674000Y-62163000D01*
X72166000Y-62671000D02*
X72166000Y-62163000D01*
X73436000Y-62671000D02*
X73944000Y-62671000D01*
X73944000Y-62671000D02*
X73944000Y-62163000D01*
X73436000Y-62163000D02*
X73944000Y-62163000D01*
X73436000Y-62671000D02*
X73436000Y-62163000D01*
X74706000Y-62671000D02*
X75214000Y-62671000D01*
X75214000Y-62671000D02*
X75214000Y-62163000D01*
X74706000Y-62163000D02*
X75214000Y-62163000D01*
X74706000Y-62671000D02*
X74706000Y-62163000D01*
X75976000Y-62671000D02*
X76484000Y-62671000D01*
X76484000Y-62671000D02*
X76484000Y-62163000D01*
X75976000Y-62163000D02*
X76484000Y-62163000D01*
X75976000Y-62671000D02*
X75976000Y-62163000D01*
D15*
X64292000Y-60258000D02*
X64165000Y-60258000D01*
X64165000Y-60258000D02*
X64165000Y-61782000D01*
X64165000Y-61782000D02*
X64165000Y-63306000D01*
X64165000Y-63306000D02*
X64292000Y-63306000D01*
X76738000Y-60258000D02*
X76865000Y-60258000D01*
X76865000Y-60258000D02*
X76865000Y-61782000D01*
X76865000Y-61782000D02*
X76865000Y-63306000D01*
X76865000Y-63306000D02*
X76738000Y-63306000D01*
X64165000Y-61782000D02*
X65435000Y-61782000D01*
X65435000Y-61782000D02*
X66705000Y-61782000D01*
X66705000Y-61782000D02*
X67975000Y-61782000D01*
X67975000Y-61782000D02*
X69245000Y-61782000D01*
X69245000Y-61782000D02*
X70515000Y-61782000D01*
X70515000Y-61782000D02*
X71785000Y-61782000D01*
X71785000Y-61782000D02*
X73055000Y-61782000D01*
X73055000Y-61782000D02*
X74325000Y-61782000D01*
X74325000Y-61782000D02*
X75595000Y-61782000D01*
X75595000Y-61782000D02*
X76865000Y-61782000D01*
X65308000Y-63306000D02*
X65435000Y-63306000D01*
X65435000Y-63306000D02*
X65562000Y-63306000D01*
X66578000Y-63306000D02*
X66705000Y-63306000D01*
X66705000Y-63306000D02*
X66832000Y-63306000D01*
X67848000Y-63306000D02*
X67975000Y-63306000D01*
X67975000Y-63306000D02*
X68102000Y-63306000D01*
X69118000Y-63306000D02*
X69245000Y-63306000D01*
X69245000Y-63306000D02*
X69372000Y-63306000D01*
X70388000Y-63306000D02*
X70515000Y-63306000D01*
X70515000Y-63306000D02*
X70642000Y-63306000D01*
X71658000Y-63306000D02*
X71785000Y-63306000D01*
X71785000Y-63306000D02*
X71912000Y-63306000D01*
X72928000Y-63306000D02*
X73055000Y-63306000D01*
X73055000Y-63306000D02*
X73182000Y-63306000D01*
X74198000Y-63306000D02*
X74325000Y-63306000D01*
X74325000Y-63306000D02*
X74452000Y-63306000D01*
X75468000Y-63306000D02*
X75595000Y-63306000D01*
X75595000Y-63306000D02*
X75722000Y-63306000D01*
X75468000Y-60258000D02*
X75722000Y-60258000D01*
X74198000Y-60258000D02*
X74325000Y-60258000D01*
X74325000Y-60258000D02*
X74452000Y-60258000D01*
X72928000Y-60258000D02*
X73055000Y-60258000D01*
X73055000Y-60258000D02*
X73182000Y-60258000D01*
X71658000Y-60258000D02*
X71785000Y-60258000D01*
X71785000Y-60258000D02*
X71912000Y-60258000D01*
X70388000Y-60258000D02*
X70515000Y-60258000D01*
X70515000Y-60258000D02*
X70642000Y-60258000D01*
X69118000Y-60258000D02*
X69245000Y-60258000D01*
X69245000Y-60258000D02*
X69372000Y-60258000D01*
X67848000Y-60258000D02*
X67975000Y-60258000D01*
X67975000Y-60258000D02*
X68102000Y-60258000D01*
X66578000Y-60258000D02*
X66705000Y-60258000D01*
X66705000Y-60258000D02*
X66832000Y-60258000D01*
X65308000Y-60258000D02*
X65435000Y-60258000D01*
X65435000Y-60258000D02*
X65562000Y-60258000D01*
X65435000Y-63306000D02*
X65435000Y-61782000D01*
X66705000Y-63306000D02*
X66705000Y-61782000D01*
X67975000Y-63306000D02*
X67975000Y-61782000D01*
X69245000Y-63306000D02*
X69245000Y-61782000D01*
X70515000Y-63306000D02*
X70515000Y-61782000D01*
X71785000Y-63306000D02*
X71785000Y-61782000D01*
X73055000Y-63306000D02*
X73055000Y-61782000D01*
X74325000Y-63306000D02*
X74325000Y-61782000D01*
X65435000Y-61782000D02*
X65435000Y-60258000D01*
X66705000Y-61782000D02*
X66705000Y-60258000D01*
X67975000Y-61782000D02*
X67975000Y-60258000D01*
X69245000Y-61782000D02*
X69245000Y-60258000D01*
X70515000Y-61782000D02*
X70515000Y-60258000D01*
X71785000Y-61782000D02*
X71785000Y-60258000D01*
X73055000Y-61782000D02*
X73055000Y-60258000D01*
X74325000Y-61782000D02*
X74325000Y-60258000D01*
X75595000Y-63306000D02*
X75595000Y-61782000D01*
X75595000Y-61782000D02*
X75595000Y-60258000D01*
D17*
X81258000Y-69865000D02*
X82274000Y-69865000D01*
X82274000Y-69865000D02*
X82274000Y-71135000D01*
X82274000Y-71135000D02*
X81258000Y-71135000D01*
X79226000Y-69865000D02*
X79226000Y-71135000D01*
X79226000Y-71135000D02*
X80242000Y-71135000D01*
X79226000Y-69865000D02*
X80242000Y-69865000D01*
X81258000Y-67365000D02*
X82274000Y-67365000D01*
X82274000Y-67365000D02*
X82274000Y-68635000D01*
X82274000Y-68635000D02*
X81258000Y-68635000D01*
X79226000Y-67365000D02*
X79226000Y-68635000D01*
X79226000Y-68635000D02*
X80242000Y-68635000D01*
X79226000Y-67365000D02*
X80242000Y-67365000D01*
X81258000Y-68615000D02*
X82274000Y-68615000D01*
X82274000Y-68615000D02*
X82274000Y-69885000D01*
X82274000Y-69885000D02*
X81258000Y-69885000D01*
X79226000Y-68615000D02*
X79226000Y-69885000D01*
X79226000Y-69885000D02*
X80242000Y-69885000D01*
X79226000Y-68615000D02*
X80242000Y-68615000D01*
X81258000Y-65976000D02*
X82274000Y-65976000D01*
X82274000Y-65976000D02*
X82274000Y-67246000D01*
X82274000Y-67246000D02*
X81258000Y-67246000D01*
X79226000Y-65976000D02*
X79226000Y-67246000D01*
X79226000Y-67246000D02*
X80242000Y-67246000D01*
X79226000Y-65976000D02*
X80242000Y-65976000D01*
D24*
X84413320Y-75566800D02*
X84746060Y-76298320D01*
X84413320Y-75658240D02*
X85594420Y-76671700D01*
X84527620Y-75521080D02*
X85144840Y-75848740D01*
X84847660Y-75101980D02*
X85457260Y-75208660D01*
X85683320Y-73943740D02*
X84961960Y-74091060D01*
X85442020Y-73250320D02*
X84786700Y-73616080D01*
X84573340Y-72381640D02*
X84154240Y-72968380D01*
X83986600Y-72130180D02*
X83765620Y-72815980D01*
X82721680Y-72114940D02*
X82889320Y-72724540D01*
X82287340Y-72374020D02*
X82462600Y-72732160D01*
X81289120Y-73151260D02*
X81746320Y-73440820D01*
X81113860Y-73631320D02*
X81555820Y-73791340D01*
X80788740Y-74875920D02*
X81494860Y-74748920D01*
X81037660Y-75521080D02*
X81601540Y-75041020D01*
X81703140Y-76420240D02*
X82068900Y-75658240D01*
X86493580Y-74367920D02*
X85025460Y-74454280D01*
X85502980Y-72183520D02*
X84390460Y-73250320D01*
X83237300Y-71126880D02*
X83242380Y-72640720D01*
X80976700Y-72102240D02*
X82038420Y-73209680D01*
X79991180Y-74388240D02*
X81408500Y-74327280D01*
X81027500Y-76592960D02*
X81880940Y-75571880D01*
D21*
X82043500Y-75162940D02*
X82350840Y-75429640D01*
X81713300Y-72249560D02*
X82696280Y-71756800D01*
X83892620Y-75754760D02*
X83770700Y-75470280D01*
X84029780Y-75300100D02*
X83775780Y-75465200D01*
X82528640Y-75297560D02*
X82754700Y-75472820D01*
X82160340Y-75183260D02*
X82419420Y-75521080D01*
X81936820Y-74962280D02*
X82030800Y-75132460D01*
X81936820Y-74962280D02*
X82030800Y-75132460D01*
X81799660Y-74108840D02*
X81931740Y-74931800D01*
X82223840Y-73372240D02*
X81804740Y-74103760D01*
X83095060Y-72942980D02*
X82223840Y-73372240D01*
X83910400Y-73110620D02*
X83095060Y-72950600D01*
X84420940Y-73539880D02*
X83910400Y-73110620D01*
X84654620Y-74212980D02*
X84420940Y-73539880D01*
X84649540Y-74718440D02*
X84649540Y-74200280D01*
X84273620Y-75429640D02*
X84649540Y-74718440D01*
X84095820Y-75551560D02*
X84273620Y-75429640D01*
X80824300Y-71530740D02*
X81708220Y-72252100D01*
X81068140Y-72884560D02*
X80466160Y-71975240D01*
X81063060Y-72879480D02*
X80676980Y-73877700D01*
X79533980Y-74146940D02*
X80649040Y-73900560D01*
X79676220Y-74091060D02*
X79676220Y-74741300D01*
X84052640Y-75493140D02*
X84580960Y-76874900D01*
X84443800Y-77172080D02*
X84057720Y-76191640D01*
X84972120Y-76844420D02*
X84443800Y-77172080D01*
X85655380Y-77177160D02*
X84834960Y-76648840D01*
X84791780Y-76872360D02*
X85668080Y-77492120D01*
X85678240Y-77487040D02*
X86361500Y-76796160D01*
X86074480Y-76712340D02*
X85589340Y-77243200D01*
X86107500Y-75076580D02*
X85726500Y-76057020D01*
X86003360Y-75109600D02*
X87126040Y-74898780D01*
X87141280Y-73920880D02*
X87138740Y-74878460D01*
X87057460Y-74662560D02*
X85950020Y-74886080D01*
X85754440Y-72892180D02*
X86120200Y-73760860D01*
X86369120Y-72010800D02*
X85665540Y-73001400D01*
X85670620Y-71312300D02*
X86364040Y-72003180D01*
X84654620Y-71987940D02*
X85665540Y-71314840D01*
X83968820Y-71601860D02*
X84774000Y-71939680D01*
X83752920Y-70512200D02*
X83978980Y-71683140D01*
X82787720Y-70512200D02*
X83752920Y-70512200D01*
X82777560Y-70519820D02*
X82576900Y-71545980D01*
X81789500Y-71914280D02*
X82693740Y-71535820D01*
X80854780Y-71266580D02*
X81825060Y-71982860D01*
X80168980Y-71982860D02*
X80842080Y-71269120D01*
X80189300Y-72018420D02*
X80783660Y-72871860D01*
X80450920Y-73702440D02*
X80786200Y-72869320D01*
X79381580Y-73900560D02*
X80552520Y-73697360D01*
X79384120Y-73903100D02*
X79384120Y-74888620D01*
X79384120Y-74896240D02*
X80456000Y-75091820D01*
X80146120Y-76803780D02*
X80743020Y-75940180D01*
X80875100Y-77499740D02*
X80153740Y-76806320D01*
X81708220Y-76928240D02*
X80882720Y-77492120D01*
X81720920Y-76938400D02*
X82066360Y-77159380D01*
X82104460Y-77141600D02*
X82754700Y-75472820D01*
D25*
X85670620Y-77332100D02*
X86224340Y-76786000D01*
X85604580Y-75891920D02*
X86224340Y-76778380D01*
X82348300Y-73494160D02*
G75*
G03X82424500Y-75348360I965200J-889000D01*
G01*
X84299020Y-73666880D02*
G75*
G03X82373700Y-73468760I-1061720J-863600D01*
G01*
X83918020Y-75516000D02*
G75*
G03X84288860Y-73651640I-746760J1117600D01*
G01*
X84481900Y-76958720D02*
X83907860Y-75518540D01*
X84819720Y-76773300D02*
X84481900Y-76958720D01*
X85655380Y-77339720D02*
X84819720Y-76773300D01*
X86010980Y-74980060D02*
X85604580Y-75891920D01*
X87024440Y-74809880D02*
X86010980Y-74980060D01*
X87024440Y-73974220D02*
X87024440Y-74809880D01*
X85942400Y-73745620D02*
X87024440Y-73974220D01*
X85602040Y-72808360D02*
X85942400Y-73745620D01*
X86219260Y-72018420D02*
X85602040Y-72808360D01*
X85665540Y-71469780D02*
X86219260Y-72015880D01*
X84761300Y-72102240D02*
X85665540Y-71467800D01*
X83846900Y-71657740D02*
X84748600Y-72107320D01*
X83633540Y-70639200D02*
X83846900Y-71657740D01*
X82866460Y-70618880D02*
X83651320Y-70618880D01*
X82874080Y-70631580D02*
X82668340Y-71645040D01*
X81769180Y-72071760D02*
X82615000Y-71665360D01*
X80880180Y-71429140D02*
X81708220Y-72081920D01*
D26*
X80331540Y-71987940D02*
X80831920Y-71454540D01*
D25*
X80341700Y-72010800D02*
X80897960Y-72861700D01*
X80570300Y-73778640D02*
X80918280Y-72912500D01*
X79521280Y-73994540D02*
X80539820Y-73814200D01*
D26*
X79533980Y-74007240D02*
X79528900Y-74794640D01*
D25*
X79523820Y-74784480D02*
X80473780Y-75002920D01*
X80501720Y-75025780D02*
X80859860Y-75909700D01*
X80326460Y-76786000D02*
X80859860Y-75952880D01*
D26*
X80311220Y-76786000D02*
X80875100Y-77324480D01*
D19*
X80887800Y-77324480D02*
X81667580Y-76793620D01*
D25*
X81677740Y-76775840D02*
X81995240Y-76981580D01*
D27*
X82023180Y-76961260D02*
X82574360Y-75538860D01*
D16*
X76500000Y-78954000D02*
X76500000Y-78704000D01*
X69500000Y-78954000D02*
X76500000Y-78954000D01*
X69500000Y-78704000D02*
X69500000Y-78954000D01*
X71500000Y-74954000D02*
X69500000Y-74954000D01*
X76500000Y-74954000D02*
X74500000Y-74954000D01*
D15*
X116161333Y-74113571D02*
X116100857Y-74174047D01*
X115919428Y-74234523D01*
X115798476Y-74234523D01*
X115617047Y-74174047D01*
X115496095Y-74053095D01*
X115435619Y-73932142D01*
X115375142Y-73690238D01*
X115375142Y-73508809D01*
X115435619Y-73266904D01*
X115496095Y-73145952D01*
X115617047Y-73025000D01*
X115798476Y-72964523D01*
X115919428Y-72964523D01*
X116100857Y-73025000D01*
X116161333Y-73085476D01*
X117370857Y-74234523D02*
X116645142Y-74234523D01*
X117008000Y-74234523D02*
X117008000Y-72964523D01*
X116887047Y-73145952D01*
X116766095Y-73266904D01*
X116645142Y-73327380D01*
D21*
X113369047Y-75791428D02*
X114130952Y-75791428D01*
X113750000Y-76172380D02*
X113750000Y-75410476D01*
X105833333Y-77452380D02*
X105357142Y-77452380D01*
X105357142Y-76452380D01*
X106690476Y-77452380D02*
X106119047Y-77452380D01*
X106404761Y-77452380D02*
X106404761Y-76452380D01*
X106309523Y-76595238D01*
X106214285Y-76690476D01*
X106119047Y-76738095D01*
D15*
X92244333Y-66493571D02*
X92183857Y-66554047D01*
X92002428Y-66614523D01*
X91881476Y-66614523D01*
X91700047Y-66554047D01*
X91579095Y-66433095D01*
X91518619Y-66312142D01*
X91458142Y-66070238D01*
X91458142Y-65888809D01*
X91518619Y-65646904D01*
X91579095Y-65525952D01*
X91700047Y-65405000D01*
X91881476Y-65344523D01*
X92002428Y-65344523D01*
X92183857Y-65405000D01*
X92244333Y-65465476D01*
X92728142Y-65465476D02*
X92788619Y-65405000D01*
X92909571Y-65344523D01*
X93211952Y-65344523D01*
X93332904Y-65405000D01*
X93393380Y-65465476D01*
X93453857Y-65586428D01*
X93453857Y-65707380D01*
X93393380Y-65888809D01*
X92667666Y-66614523D01*
X93453857Y-66614523D01*
X86788333Y-67453571D02*
X86727857Y-67514047D01*
X86546428Y-67574523D01*
X86425476Y-67574523D01*
X86244047Y-67514047D01*
X86123095Y-67393095D01*
X86062619Y-67272142D01*
X86002142Y-67030238D01*
X86002142Y-66848809D01*
X86062619Y-66606904D01*
X86123095Y-66485952D01*
X86244047Y-66365000D01*
X86425476Y-66304523D01*
X86546428Y-66304523D01*
X86727857Y-66365000D01*
X86788333Y-66425476D01*
X87211666Y-66304523D02*
X87997857Y-66304523D01*
X87574523Y-66788333D01*
X87755952Y-66788333D01*
X87876904Y-66848809D01*
X87937380Y-66909285D01*
X87997857Y-67030238D01*
X87997857Y-67332619D01*
X87937380Y-67453571D01*
X87876904Y-67514047D01*
X87755952Y-67574523D01*
X87393095Y-67574523D01*
X87272142Y-67514047D01*
X87211666Y-67453571D01*
X112074523Y-67107380D02*
X110804523Y-67107380D01*
X110804523Y-66805000D01*
X110865000Y-66623571D01*
X110985952Y-66502619D01*
X111106904Y-66442142D01*
X111348809Y-66381666D01*
X111530238Y-66381666D01*
X111772142Y-66442142D01*
X111893095Y-66502619D01*
X112014047Y-66623571D01*
X112074523Y-66805000D01*
X112074523Y-67107380D01*
X112074523Y-65172142D02*
X112074523Y-65897857D01*
X112074523Y-65535000D02*
X110804523Y-65535000D01*
X110985952Y-65655952D01*
X111106904Y-65776904D01*
X111167380Y-65897857D01*
X108688095Y-64247619D02*
X108688095Y-63147619D01*
X108950000Y-63147619D01*
X109107142Y-63200000D01*
X109211904Y-63304761D01*
X109264285Y-63409523D01*
X109316666Y-63619047D01*
X109316666Y-63776190D01*
X109264285Y-63985714D01*
X109211904Y-64090476D01*
X109107142Y-64195238D01*
X108950000Y-64247619D01*
X108688095Y-64247619D01*
X109735714Y-63252380D02*
X109788095Y-63200000D01*
X109892857Y-63147619D01*
X110154761Y-63147619D01*
X110259523Y-63200000D01*
X110311904Y-63252380D01*
X110364285Y-63357142D01*
X110364285Y-63461904D01*
X110311904Y-63619047D01*
X109683333Y-64247619D01*
X110364285Y-64247619D01*
X87421428Y-72533333D02*
X87421428Y-72900000D01*
X87997619Y-72900000D02*
X86897619Y-72900000D01*
X86897619Y-72376190D01*
X87421428Y-71957142D02*
X87421428Y-71590476D01*
X87997619Y-71433333D02*
X87997619Y-71957142D01*
X86897619Y-71957142D01*
X86897619Y-71433333D01*
X86897619Y-71119047D02*
X86897619Y-70490476D01*
X87997619Y-70804761D02*
X86897619Y-70804761D01*
X87997619Y-69547619D02*
X87997619Y-70176190D01*
X87997619Y-69861904D02*
X86897619Y-69861904D01*
X87054761Y-69966666D01*
X87159523Y-70071428D01*
X87211904Y-70176190D01*
X141171428Y-59783333D02*
X141171428Y-60150000D01*
X141747619Y-60150000D02*
X140647619Y-60150000D01*
X140647619Y-59626190D01*
X141171428Y-59207142D02*
X141171428Y-58840476D01*
X141747619Y-58683333D02*
X141747619Y-59207142D01*
X140647619Y-59207142D01*
X140647619Y-58683333D01*
X140647619Y-58369047D02*
X140647619Y-57740476D01*
X141747619Y-58054761D02*
X140647619Y-58054761D01*
X140752380Y-57426190D02*
X140700000Y-57373809D01*
X140647619Y-57269047D01*
X140647619Y-57007142D01*
X140700000Y-56902380D01*
X140752380Y-56850000D01*
X140857142Y-56797619D01*
X140961904Y-56797619D01*
X141119047Y-56850000D01*
X141747619Y-57478571D01*
X141747619Y-56797619D01*
X145395238Y-66102380D02*
X145290476Y-66050000D01*
X145185714Y-65945238D01*
X145028571Y-65788095D01*
X144923809Y-65735714D01*
X144819047Y-65735714D01*
X144871428Y-65997619D02*
X144766666Y-65945238D01*
X144661904Y-65840476D01*
X144609523Y-65630952D01*
X144609523Y-65264285D01*
X144661904Y-65054761D01*
X144766666Y-64950000D01*
X144871428Y-64897619D01*
X145080952Y-64897619D01*
X145185714Y-64950000D01*
X145290476Y-65054761D01*
X145342857Y-65264285D01*
X145342857Y-65630952D01*
X145290476Y-65840476D01*
X145185714Y-65945238D01*
X145080952Y-65997619D01*
X144871428Y-65997619D01*
X146390476Y-65997619D02*
X145761904Y-65997619D01*
X146076190Y-65997619D02*
X146076190Y-64897619D01*
X145971428Y-65054761D01*
X145866666Y-65159523D01*
X145761904Y-65211904D01*
X142145238Y-62352380D02*
X142040476Y-62300000D01*
X141935714Y-62195238D01*
X141778571Y-62038095D01*
X141673809Y-61985714D01*
X141569047Y-61985714D01*
X141621428Y-62247619D02*
X141516666Y-62195238D01*
X141411904Y-62090476D01*
X141359523Y-61880952D01*
X141359523Y-61514285D01*
X141411904Y-61304761D01*
X141516666Y-61200000D01*
X141621428Y-61147619D01*
X141830952Y-61147619D01*
X141935714Y-61200000D01*
X142040476Y-61304761D01*
X142092857Y-61514285D01*
X142092857Y-61880952D01*
X142040476Y-62090476D01*
X141935714Y-62195238D01*
X141830952Y-62247619D01*
X141621428Y-62247619D01*
X142511904Y-61252380D02*
X142564285Y-61200000D01*
X142669047Y-61147619D01*
X142930952Y-61147619D01*
X143035714Y-61200000D01*
X143088095Y-61252380D01*
X143140476Y-61357142D01*
X143140476Y-61461904D01*
X143088095Y-61619047D01*
X142459523Y-62247619D01*
X143140476Y-62247619D01*
X97395238Y-62352380D02*
X97290476Y-62300000D01*
X97185714Y-62195238D01*
X97028571Y-62038095D01*
X96923809Y-61985714D01*
X96819047Y-61985714D01*
X96871428Y-62247619D02*
X96766666Y-62195238D01*
X96661904Y-62090476D01*
X96609523Y-61880952D01*
X96609523Y-61514285D01*
X96661904Y-61304761D01*
X96766666Y-61200000D01*
X96871428Y-61147619D01*
X97080952Y-61147619D01*
X97185714Y-61200000D01*
X97290476Y-61304761D01*
X97342857Y-61514285D01*
X97342857Y-61880952D01*
X97290476Y-62090476D01*
X97185714Y-62195238D01*
X97080952Y-62247619D01*
X96871428Y-62247619D01*
X97709523Y-61147619D02*
X98390476Y-61147619D01*
X98023809Y-61566666D01*
X98180952Y-61566666D01*
X98285714Y-61619047D01*
X98338095Y-61671428D01*
X98390476Y-61776190D01*
X98390476Y-62038095D01*
X98338095Y-62142857D01*
X98285714Y-62195238D01*
X98180952Y-62247619D01*
X97866666Y-62247619D01*
X97761904Y-62195238D01*
X97709523Y-62142857D01*
X110567333Y-76574523D02*
X110144000Y-75969761D01*
X109841619Y-76574523D02*
X109841619Y-75304523D01*
X110325428Y-75304523D01*
X110446380Y-75365000D01*
X110506857Y-75425476D01*
X110567333Y-75546428D01*
X110567333Y-75727857D01*
X110506857Y-75848809D01*
X110446380Y-75909285D01*
X110325428Y-75969761D01*
X109841619Y-75969761D01*
X111776857Y-76574523D02*
X111051142Y-76574523D01*
X111414000Y-76574523D02*
X111414000Y-75304523D01*
X111293047Y-75485952D01*
X111172095Y-75606904D01*
X111051142Y-75667380D01*
X95673333Y-79314523D02*
X95250000Y-78709761D01*
X94947619Y-79314523D02*
X94947619Y-78044523D01*
X95431428Y-78044523D01*
X95552380Y-78105000D01*
X95612857Y-78165476D01*
X95673333Y-78286428D01*
X95673333Y-78467857D01*
X95612857Y-78588809D01*
X95552380Y-78649285D01*
X95431428Y-78709761D01*
X94947619Y-78709761D01*
X96157142Y-78165476D02*
X96217619Y-78105000D01*
X96338571Y-78044523D01*
X96640952Y-78044523D01*
X96761904Y-78105000D01*
X96822380Y-78165476D01*
X96882857Y-78286428D01*
X96882857Y-78407380D01*
X96822380Y-78588809D01*
X96096666Y-79314523D01*
X96882857Y-79314523D01*
X99483333Y-79314523D02*
X99060000Y-78709761D01*
X98757619Y-79314523D02*
X98757619Y-78044523D01*
X99241428Y-78044523D01*
X99362380Y-78105000D01*
X99422857Y-78165476D01*
X99483333Y-78286428D01*
X99483333Y-78467857D01*
X99422857Y-78588809D01*
X99362380Y-78649285D01*
X99241428Y-78709761D01*
X98757619Y-78709761D01*
X99906666Y-78044523D02*
X100692857Y-78044523D01*
X100269523Y-78528333D01*
X100450952Y-78528333D01*
X100571904Y-78588809D01*
X100632380Y-78649285D01*
X100692857Y-78770238D01*
X100692857Y-79072619D01*
X100632380Y-79193571D01*
X100571904Y-79254047D01*
X100450952Y-79314523D01*
X100088095Y-79314523D01*
X99967142Y-79254047D01*
X99906666Y-79193571D01*
X94574523Y-69711666D02*
X93969761Y-70135000D01*
X94574523Y-70437380D02*
X93304523Y-70437380D01*
X93304523Y-69953571D01*
X93365000Y-69832619D01*
X93425476Y-69772142D01*
X93546428Y-69711666D01*
X93727857Y-69711666D01*
X93848809Y-69772142D01*
X93909285Y-69832619D01*
X93969761Y-69953571D01*
X93969761Y-70437380D01*
X93727857Y-68623095D02*
X94574523Y-68623095D01*
X93244047Y-68925476D02*
X94151190Y-69227857D01*
X94151190Y-68441666D01*
X86788333Y-69324523D02*
X86365000Y-68719761D01*
X86062619Y-69324523D02*
X86062619Y-68054523D01*
X86546428Y-68054523D01*
X86667380Y-68115000D01*
X86727857Y-68175476D01*
X86788333Y-68296428D01*
X86788333Y-68477857D01*
X86727857Y-68598809D01*
X86667380Y-68659285D01*
X86546428Y-68719761D01*
X86062619Y-68719761D01*
X87937380Y-68054523D02*
X87332619Y-68054523D01*
X87272142Y-68659285D01*
X87332619Y-68598809D01*
X87453571Y-68538333D01*
X87755952Y-68538333D01*
X87876904Y-68598809D01*
X87937380Y-68659285D01*
X87997857Y-68780238D01*
X87997857Y-69082619D01*
X87937380Y-69203571D01*
X87876904Y-69264047D01*
X87755952Y-69324523D01*
X87453571Y-69324523D01*
X87332619Y-69264047D01*
X87272142Y-69203571D01*
X146574523Y-56711666D02*
X145969761Y-57135000D01*
X146574523Y-57437380D02*
X145304523Y-57437380D01*
X145304523Y-56953571D01*
X145365000Y-56832619D01*
X145425476Y-56772142D01*
X145546428Y-56711666D01*
X145727857Y-56711666D01*
X145848809Y-56772142D01*
X145909285Y-56832619D01*
X145969761Y-56953571D01*
X145969761Y-57437380D01*
X145304523Y-55623095D02*
X145304523Y-55865000D01*
X145365000Y-55985952D01*
X145425476Y-56046428D01*
X145606904Y-56167380D01*
X145848809Y-56227857D01*
X146332619Y-56227857D01*
X146453571Y-56167380D01*
X146514047Y-56106904D01*
X146574523Y-55985952D01*
X146574523Y-55744047D01*
X146514047Y-55623095D01*
X146453571Y-55562619D01*
X146332619Y-55502142D01*
X146030238Y-55502142D01*
X145909285Y-55562619D01*
X145848809Y-55623095D01*
X145788333Y-55744047D01*
X145788333Y-55985952D01*
X145848809Y-56106904D01*
X145909285Y-56167380D01*
X146030238Y-56227857D01*
X149574523Y-71211666D02*
X148969761Y-71635000D01*
X149574523Y-71937380D02*
X148304523Y-71937380D01*
X148304523Y-71453571D01*
X148365000Y-71332619D01*
X148425476Y-71272142D01*
X148546428Y-71211666D01*
X148727857Y-71211666D01*
X148848809Y-71272142D01*
X148909285Y-71332619D01*
X148969761Y-71453571D01*
X148969761Y-71937380D01*
X148304523Y-70788333D02*
X148304523Y-69941666D01*
X149574523Y-70485952D01*
X101288333Y-67324523D02*
X100865000Y-66719761D01*
X100562619Y-67324523D02*
X100562619Y-66054523D01*
X101046428Y-66054523D01*
X101167380Y-66115000D01*
X101227857Y-66175476D01*
X101288333Y-66296428D01*
X101288333Y-66477857D01*
X101227857Y-66598809D01*
X101167380Y-66659285D01*
X101046428Y-66719761D01*
X100562619Y-66719761D01*
X102014047Y-66598809D02*
X101893095Y-66538333D01*
X101832619Y-66477857D01*
X101772142Y-66356904D01*
X101772142Y-66296428D01*
X101832619Y-66175476D01*
X101893095Y-66115000D01*
X102014047Y-66054523D01*
X102255952Y-66054523D01*
X102376904Y-66115000D01*
X102437380Y-66175476D01*
X102497857Y-66296428D01*
X102497857Y-66356904D01*
X102437380Y-66477857D01*
X102376904Y-66538333D01*
X102255952Y-66598809D01*
X102014047Y-66598809D01*
X101893095Y-66659285D01*
X101832619Y-66719761D01*
X101772142Y-66840714D01*
X101772142Y-67082619D01*
X101832619Y-67203571D01*
X101893095Y-67264047D01*
X102014047Y-67324523D01*
X102255952Y-67324523D01*
X102376904Y-67264047D01*
X102437380Y-67203571D01*
X102497857Y-67082619D01*
X102497857Y-66840714D01*
X102437380Y-66719761D01*
X102376904Y-66659285D01*
X102255952Y-66598809D01*
X100677579Y-71905715D02*
X101568055Y-71905715D01*
X101672817Y-71853334D01*
X101725198Y-71800953D01*
X101777579Y-71696191D01*
X101777579Y-71486667D01*
X101725198Y-71381905D01*
X101672817Y-71329524D01*
X101568055Y-71277143D01*
X100677579Y-71277143D01*
X101777579Y-70177143D02*
X101777579Y-70805715D01*
X101777579Y-70491429D02*
X100677579Y-70491429D01*
X100834721Y-70596191D01*
X100939483Y-70700953D01*
X100991864Y-70805715D01*
D28*
X95854761Y-71411238D02*
X95999904Y-71459619D01*
X96241809Y-71459619D01*
X96338571Y-71411238D01*
X96386952Y-71362857D01*
X96435333Y-71266095D01*
X96435333Y-71169333D01*
X96386952Y-71072571D01*
X96338571Y-71024190D01*
X96241809Y-70975809D01*
X96048285Y-70927428D01*
X95951523Y-70879047D01*
X95903142Y-70830666D01*
X95854761Y-70733904D01*
X95854761Y-70637142D01*
X95903142Y-70540380D01*
X95951523Y-70492000D01*
X96048285Y-70443619D01*
X96290190Y-70443619D01*
X96435333Y-70492000D01*
X97064285Y-70443619D02*
X97257809Y-70443619D01*
X97354571Y-70492000D01*
X97451333Y-70588761D01*
X97499714Y-70782285D01*
X97499714Y-71120952D01*
X97451333Y-71314476D01*
X97354571Y-71411238D01*
X97257809Y-71459619D01*
X97064285Y-71459619D01*
X96967523Y-71411238D01*
X96870761Y-71314476D01*
X96822380Y-71120952D01*
X96822380Y-70782285D01*
X96870761Y-70588761D01*
X96967523Y-70492000D01*
X97064285Y-70443619D01*
X97935142Y-71072571D02*
X98709238Y-71072571D01*
X99338190Y-70879047D02*
X99241428Y-70830666D01*
X99193047Y-70782285D01*
X99144666Y-70685523D01*
X99144666Y-70637142D01*
X99193047Y-70540380D01*
X99241428Y-70492000D01*
X99338190Y-70443619D01*
X99531714Y-70443619D01*
X99628476Y-70492000D01*
X99676857Y-70540380D01*
X99725238Y-70637142D01*
X99725238Y-70685523D01*
X99676857Y-70782285D01*
X99628476Y-70830666D01*
X99531714Y-70879047D01*
X99338190Y-70879047D01*
X99241428Y-70927428D01*
X99193047Y-70975809D01*
X99144666Y-71072571D01*
X99144666Y-71266095D01*
X99193047Y-71362857D01*
X99241428Y-71411238D01*
X99338190Y-71459619D01*
X99531714Y-71459619D01*
X99628476Y-71411238D01*
X99676857Y-71362857D01*
X99725238Y-71266095D01*
X99725238Y-71072571D01*
X99676857Y-70975809D01*
X99628476Y-70927428D01*
X99531714Y-70879047D01*
D15*
X146412857Y-47304523D02*
X145687142Y-47304523D01*
X146050000Y-47304523D02*
X146050000Y-46034523D01*
X145929047Y-46215952D01*
X145808095Y-46336904D01*
X145687142Y-46397380D01*
X145687142Y-48695476D02*
X145747619Y-48635000D01*
X145868571Y-48574523D01*
X146170952Y-48574523D01*
X146291904Y-48635000D01*
X146352380Y-48695476D01*
X146412857Y-48816428D01*
X146412857Y-48937380D01*
X146352380Y-49118809D01*
X145626666Y-49844523D01*
X146412857Y-49844523D01*
X148288333Y-57453571D02*
X148227857Y-57514047D01*
X148046428Y-57574523D01*
X147925476Y-57574523D01*
X147744047Y-57514047D01*
X147623095Y-57393095D01*
X147562619Y-57272142D01*
X147502142Y-57030238D01*
X147502142Y-56848809D01*
X147562619Y-56606904D01*
X147623095Y-56485952D01*
X147744047Y-56365000D01*
X147925476Y-56304523D01*
X148046428Y-56304523D01*
X148227857Y-56365000D01*
X148288333Y-56425476D01*
X149376904Y-56727857D02*
X149376904Y-57574523D01*
X149074523Y-56244047D02*
X148772142Y-57151190D01*
X149558333Y-57151190D01*
D21*
D15*
X140574523Y-55816428D02*
X139969761Y-56239761D01*
X140574523Y-56542142D02*
X139304523Y-56542142D01*
X139304523Y-56058333D01*
X139365000Y-55937380D01*
X139425476Y-55876904D01*
X139546428Y-55816428D01*
X139727857Y-55816428D01*
X139848809Y-55876904D01*
X139909285Y-55937380D01*
X139969761Y-56058333D01*
X139969761Y-56542142D01*
X140574523Y-54606904D02*
X140574523Y-55332619D01*
X140574523Y-54969761D02*
X139304523Y-54969761D01*
X139485952Y-55090714D01*
X139606904Y-55211666D01*
X139667380Y-55332619D01*
X139304523Y-54183571D02*
X139304523Y-53397380D01*
X139788333Y-53820714D01*
X139788333Y-53639285D01*
X139848809Y-53518333D01*
X139909285Y-53457857D01*
X140030238Y-53397380D01*
X140332619Y-53397380D01*
X140453571Y-53457857D01*
X140514047Y-53518333D01*
X140574523Y-53639285D01*
X140574523Y-54002142D01*
X140514047Y-54123095D01*
X140453571Y-54183571D01*
D21*
D15*
X126842211Y-57433767D02*
X126842211Y-55733767D01*
X127413640Y-55733767D01*
X127556497Y-55814720D01*
X127627925Y-55895672D01*
X127699354Y-56057577D01*
X127699354Y-56300434D01*
X127627925Y-56462339D01*
X127556497Y-56543291D01*
X127413640Y-56624243D01*
X126842211Y-56624243D01*
X128342211Y-57433767D02*
X128342211Y-55733767D01*
X128342211Y-56381386D02*
X128485068Y-56300434D01*
X128770782Y-56300434D01*
X128913640Y-56381386D01*
X128985068Y-56462339D01*
X129056497Y-56624243D01*
X129056497Y-57109958D01*
X128985068Y-57271862D01*
X128913640Y-57352815D01*
X128770782Y-57433767D01*
X128485068Y-57433767D01*
X128342211Y-57352815D01*
D20*
X124529365Y-61111081D02*
X123862699Y-60158700D01*
X123386508Y-61111081D02*
X123386508Y-59111081D01*
X124148413Y-59111081D01*
X124338889Y-59206320D01*
X124434127Y-59301558D01*
X124529365Y-59492034D01*
X124529365Y-59777748D01*
X124434127Y-59968224D01*
X124338889Y-60063462D01*
X124148413Y-60158700D01*
X123386508Y-60158700D01*
X125672222Y-61111081D02*
X125481746Y-61015843D01*
X125386508Y-60920605D01*
X125291270Y-60730129D01*
X125291270Y-60158700D01*
X125386508Y-59968224D01*
X125481746Y-59872986D01*
X125672222Y-59777748D01*
X125957937Y-59777748D01*
X126148413Y-59872986D01*
X126243651Y-59968224D01*
X126338889Y-60158700D01*
X126338889Y-60730129D01*
X126243651Y-60920605D01*
X126148413Y-61015843D01*
X125957937Y-61111081D01*
X125672222Y-61111081D01*
X127196032Y-61111081D02*
X127196032Y-59111081D01*
X127196032Y-60063462D02*
X128338889Y-60063462D01*
X128338889Y-61111081D02*
X128338889Y-59111081D01*
X129196032Y-61015843D02*
X129481746Y-61111081D01*
X129957937Y-61111081D01*
X130148413Y-61015843D01*
X130243651Y-60920605D01*
X130338889Y-60730129D01*
X130338889Y-60539653D01*
X130243651Y-60349177D01*
X130148413Y-60253939D01*
X129957937Y-60158700D01*
X129576984Y-60063462D01*
X129386508Y-59968224D01*
X129291270Y-59872986D01*
X129196032Y-59682510D01*
X129196032Y-59492034D01*
X129291270Y-59301558D01*
X129386508Y-59206320D01*
X129576984Y-59111081D01*
X130053175Y-59111081D01*
X130338889Y-59206320D01*
D29*
X123950806Y-64046800D02*
X123866140Y-64131466D01*
X123612140Y-64216133D01*
X123442806Y-64216133D01*
X123188806Y-64131466D01*
X123019473Y-63962133D01*
X122934806Y-63792800D01*
X122850140Y-63454133D01*
X122850140Y-63200133D01*
X122934806Y-62861466D01*
X123019473Y-62692133D01*
X123188806Y-62522800D01*
X123442806Y-62438133D01*
X123612140Y-62438133D01*
X123866140Y-62522800D01*
X123950806Y-62607466D01*
X124966806Y-64216133D02*
X124797473Y-64131466D01*
X124712806Y-64046800D01*
X124628140Y-63877466D01*
X124628140Y-63369466D01*
X124712806Y-63200133D01*
X124797473Y-63115466D01*
X124966806Y-63030800D01*
X125220806Y-63030800D01*
X125390140Y-63115466D01*
X125474806Y-63200133D01*
X125559473Y-63369466D01*
X125559473Y-63877466D01*
X125474806Y-64046800D01*
X125390140Y-64131466D01*
X125220806Y-64216133D01*
X124966806Y-64216133D01*
X126321473Y-64216133D02*
X126321473Y-63030800D01*
X126321473Y-63200133D02*
X126406140Y-63115466D01*
X126575473Y-63030800D01*
X126829473Y-63030800D01*
X126998806Y-63115466D01*
X127083473Y-63284800D01*
X127083473Y-64216133D01*
X127083473Y-63284800D02*
X127168140Y-63115466D01*
X127337473Y-63030800D01*
X127591473Y-63030800D01*
X127760806Y-63115466D01*
X127845473Y-63284800D01*
X127845473Y-64216133D01*
X128692140Y-63030800D02*
X128692140Y-64808800D01*
X128692140Y-63115466D02*
X128861473Y-63030800D01*
X129200140Y-63030800D01*
X129369473Y-63115466D01*
X129454140Y-63200133D01*
X129538806Y-63369466D01*
X129538806Y-63877466D01*
X129454140Y-64046800D01*
X129369473Y-64131466D01*
X129200140Y-64216133D01*
X128861473Y-64216133D01*
X128692140Y-64131466D01*
X130554806Y-64216133D02*
X130385473Y-64131466D01*
X130300806Y-63962133D01*
X130300806Y-62438133D01*
X131232140Y-64216133D02*
X131232140Y-63030800D01*
X131232140Y-62438133D02*
X131147473Y-62522800D01*
X131232140Y-62607466D01*
X131316806Y-62522800D01*
X131232140Y-62438133D01*
X131232140Y-62607466D01*
X132840806Y-64216133D02*
X132840806Y-63284800D01*
X132756140Y-63115466D01*
X132586806Y-63030800D01*
X132248140Y-63030800D01*
X132078806Y-63115466D01*
X132840806Y-64131466D02*
X132671473Y-64216133D01*
X132248140Y-64216133D01*
X132078806Y-64131466D01*
X131994140Y-63962133D01*
X131994140Y-63792800D01*
X132078806Y-63623466D01*
X132248140Y-63538800D01*
X132671473Y-63538800D01*
X132840806Y-63454133D01*
X133687473Y-63030800D02*
X133687473Y-64216133D01*
X133687473Y-63200133D02*
X133772140Y-63115466D01*
X133941473Y-63030800D01*
X134195473Y-63030800D01*
X134364806Y-63115466D01*
X134449473Y-63284800D01*
X134449473Y-64216133D01*
X135042140Y-63030800D02*
X135719473Y-63030800D01*
X135296140Y-62438133D02*
X135296140Y-63962133D01*
X135380806Y-64131466D01*
X135550140Y-64216133D01*
X135719473Y-64216133D01*
D15*
X62574523Y-62687380D02*
X61304523Y-62687380D01*
X61304523Y-62203571D01*
X61365000Y-62082619D01*
X61425476Y-62022142D01*
X61546428Y-61961666D01*
X61727857Y-61961666D01*
X61848809Y-62022142D01*
X61909285Y-62082619D01*
X61969761Y-62203571D01*
X61969761Y-62687380D01*
X61304523Y-61538333D02*
X61304523Y-60752142D01*
X61788333Y-61175476D01*
X61788333Y-60994047D01*
X61848809Y-60873095D01*
X61909285Y-60812619D01*
X62030238Y-60752142D01*
X62332619Y-60752142D01*
X62453571Y-60812619D01*
X62514047Y-60873095D01*
X62574523Y-60994047D01*
X62574523Y-61356904D01*
X62514047Y-61477857D01*
X62453571Y-61538333D01*
D22*
X63815714Y-63123380D02*
X63244285Y-63123380D01*
X63530000Y-63123380D02*
X63530000Y-62123380D01*
X63434761Y-62266238D01*
X63339523Y-62361476D01*
X63244285Y-62409095D01*
X63244285Y-60567619D02*
X63291904Y-60520000D01*
X63387142Y-60472380D01*
X63625238Y-60472380D01*
X63720476Y-60520000D01*
X63768095Y-60567619D01*
X63815714Y-60662857D01*
X63815714Y-60758095D01*
X63768095Y-60900952D01*
X63196666Y-61472380D01*
X63815714Y-61472380D01*
D30*
X82619202Y-79219580D02*
X82619202Y-78219580D01*
X83047774Y-79219580D02*
X83047774Y-78695771D01*
X83000155Y-78600533D01*
X82904917Y-78552914D01*
X82762060Y-78552914D01*
X82666821Y-78600533D01*
X82619202Y-78648152D01*
X83952536Y-79219580D02*
X83952536Y-78695771D01*
X83904917Y-78600533D01*
X83809679Y-78552914D01*
X83619202Y-78552914D01*
X83523964Y-78600533D01*
X83952536Y-79171961D02*
X83857298Y-79219580D01*
X83619202Y-79219580D01*
X83523964Y-79171961D01*
X83476345Y-79076723D01*
X83476345Y-78981485D01*
X83523964Y-78886247D01*
X83619202Y-78838628D01*
X83857298Y-78838628D01*
X83952536Y-78791009D01*
X84428726Y-79219580D02*
X84428726Y-78552914D01*
X84428726Y-78743390D02*
X84476345Y-78648152D01*
X84523964Y-78600533D01*
X84619202Y-78552914D01*
X84714440Y-78552914D01*
X85476345Y-79219580D02*
X85476345Y-78219580D01*
X85476345Y-79171961D02*
X85381107Y-79219580D01*
X85190631Y-79219580D01*
X85095393Y-79171961D01*
X85047774Y-79124342D01*
X85000155Y-79029104D01*
X85000155Y-78743390D01*
X85047774Y-78648152D01*
X85095393Y-78600533D01*
X85190631Y-78552914D01*
X85381107Y-78552914D01*
X85476345Y-78600533D01*
X85857298Y-78552914D02*
X86047774Y-79219580D01*
X86238250Y-78743390D01*
X86428726Y-79219580D01*
X86619202Y-78552914D01*
X87428726Y-79219580D02*
X87428726Y-78695771D01*
X87381107Y-78600533D01*
X87285869Y-78552914D01*
X87095393Y-78552914D01*
X87000155Y-78600533D01*
X87428726Y-79171961D02*
X87333488Y-79219580D01*
X87095393Y-79219580D01*
X87000155Y-79171961D01*
X86952536Y-79076723D01*
X86952536Y-78981485D01*
X87000155Y-78886247D01*
X87095393Y-78838628D01*
X87333488Y-78838628D01*
X87428726Y-78791009D01*
X87904917Y-79219580D02*
X87904917Y-78552914D01*
X87904917Y-78743390D02*
X87952536Y-78648152D01*
X88000155Y-78600533D01*
X88095393Y-78552914D01*
X88190631Y-78552914D01*
X88904917Y-79171961D02*
X88809679Y-79219580D01*
X88619202Y-79219580D01*
X88523964Y-79171961D01*
X88476345Y-79076723D01*
X88476345Y-78695771D01*
X88523964Y-78600533D01*
X88619202Y-78552914D01*
X88809679Y-78552914D01*
X88904917Y-78600533D01*
X88952536Y-78695771D01*
X88952536Y-78791009D01*
X88476345Y-78886247D01*
D15*
X78303701Y-79173379D02*
X78198940Y-79120998D01*
X78146559Y-79068617D01*
X78094178Y-78963855D01*
X78094178Y-78649569D01*
X78146559Y-78544807D01*
X78198940Y-78492426D01*
X78303701Y-78440045D01*
X78460844Y-78440045D01*
X78565606Y-78492426D01*
X78617987Y-78544807D01*
X78670368Y-78649569D01*
X78670368Y-78963855D01*
X78617987Y-79068617D01*
X78565606Y-79120998D01*
X78460844Y-79173379D01*
X78303701Y-79173379D01*
X79141797Y-78440045D02*
X79141797Y-79540045D01*
X79141797Y-78492426D02*
X79246559Y-78440045D01*
X79456082Y-78440045D01*
X79560844Y-78492426D01*
X79613225Y-78544807D01*
X79665606Y-78649569D01*
X79665606Y-78963855D01*
X79613225Y-79068617D01*
X79560844Y-79120998D01*
X79456082Y-79173379D01*
X79246559Y-79173379D01*
X79141797Y-79120998D01*
X80556082Y-79120998D02*
X80451320Y-79173379D01*
X80241797Y-79173379D01*
X80137035Y-79120998D01*
X80084654Y-79016236D01*
X80084654Y-78597188D01*
X80137035Y-78492426D01*
X80241797Y-78440045D01*
X80451320Y-78440045D01*
X80556082Y-78492426D01*
X80608463Y-78597188D01*
X80608463Y-78701950D01*
X80084654Y-78806712D01*
X81079892Y-78440045D02*
X81079892Y-79173379D01*
X81079892Y-78544807D02*
X81132273Y-78492426D01*
X81237035Y-78440045D01*
X81394178Y-78440045D01*
X81498940Y-78492426D01*
X81551320Y-78597188D01*
X81551320Y-79173379D01*
X72062619Y-78528523D02*
X72062619Y-77258523D01*
X72546428Y-77258523D01*
X72667380Y-77319000D01*
X72727857Y-77379476D01*
X72788333Y-77500428D01*
X72788333Y-77681857D01*
X72727857Y-77802809D01*
X72667380Y-77863285D01*
X72546428Y-77923761D01*
X72062619Y-77923761D01*
X73997857Y-78528523D02*
X73272142Y-78528523D01*
X73635000Y-78528523D02*
X73635000Y-77258523D01*
X73514047Y-77439952D01*
X73393095Y-77560904D01*
X73272142Y-77621380D01*
M02*
