M48
;DRILL file {KiCad 4.1.0-alpha+201606220817+6945~45~ubuntu16.04.1-product} date Fri Jun 24 15:39:42 2016
;FORMAT={-:-/ absolute / metric / decimal}
FMAT,2
METRIC,TZ
T1C0.400
T2C0.700
%
G90
G05
M71
T1
X65.25Y-53.966
X65.5Y-44.75
X66.5Y-44.75
X66.5Y-56.448
X67.5Y-45.
X68.343Y-45.047
X68.499Y-45.923
X69.533Y-45.955
X69.714Y-46.928
X70.628Y-47.104
X71.328Y-47.492
X71.975Y-47.963
X72.5Y-76.5
X72.753Y-48.15
X73.517Y-48.506
X73.65Y-57.767
X73.75Y-77.75
X74.276Y-48.96
X74.486Y-56.789
X74.556Y-57.965
X75.06Y-49.473
X75.398Y-56.992
X75.631Y-56.012
X76.562Y-55.895
X76.79Y-55.128
X77.773Y-55.227
X78.607Y-55.217
X78.906Y-53.188
X78.922Y-54.335
X79.449Y-52.339
X80.627Y-53.
X81.57Y-52.784
X82.327Y-52.181
X82.75Y-70.5
X83.378Y-69.25
X86.25Y-65.
X87.5Y-65.5
X87.696Y-61.002
X88.01Y-71.292
X88.25Y-72.25
X89.025Y-58.112
X89.09Y-61.455
X93.75Y-75.
X98.929Y-62.821
X104.941Y-58.016
X106.344Y-58.126
X106.925Y-52.784
X106.987Y-57.528
X107.301Y-52.078
X108.Y-57.445
X108.75Y-77.75
X109.75Y-52.114
X111.125Y-53.692
X112.43Y-53.831
X113.665Y-53.652
X113.75Y-72.25
X114.907Y-53.503
X115.25Y-75.5
X116.205Y-53.5
X117.5Y-53.5
X118.75Y-53.75
X120.116Y-51.774
X121.285Y-53.5
X122.5Y-50.831
X123.825Y-53.75
X125.Y-49.877
X126.615Y-53.75
X127.75Y-49.219
X128.25Y-64.75
X128.5Y-48.506
X129.432Y-48.143
X131.445Y-47.51
X131.5Y-48.5
X133.Y-47.5
X133.014Y-46.546
X135.247Y-46.26
X135.5Y-45.501
X137.75Y-45.25
X140.25Y-44.75
X141.5Y-47.25
X142.67Y-61.955
X145.75Y-44.25
X146.5Y-62.25
X147.5Y-66.5
X148.906Y-61.569
X149.Y-57.
T2
X87.25Y-78.5
X88.75Y-78.5
X91.5Y-63.75
X91.5Y-64.75
X94.75Y-59.75
X98.5Y-66.
X101.75Y-65.75
X120.Y-78.5
X121.25Y-78.5
X132.394Y-70.052
X133.537Y-70.052
X134.68Y-70.052
X141.5Y-54.25
X143.002Y-53.75
X144.25Y-54.25
T0
M30
