M48
;DRILL file {KiCad 4.0.2+dfsg1-stable} date  3.05.2016 (вт) 14:48:17 EEST
;FORMAT={-:-/ absolute / metric / decimal}
FMAT,2
METRIC,TZ
T1C0.400
T2C0.700
%
G90
G05
M71
T1
X60.96Y-59.309
X61.536Y-58.42
X62.315Y-53.34
X62.992Y-42.672
X63.045Y-54.652
X63.515Y-59.631
X64.712Y-45.394
X64.77Y-68.58
X65.154Y-58.035
X65.405Y-59.161
X66.548Y-67.691
X67.446Y-57.531
X68.453Y-63.246
X68.707Y-46.031
X69.914Y-57.504
X70.677Y-45.754
X71.122Y-58.039
X71.247Y-69.215
X72.191Y-45.73
X72.38Y-57.8
X73.497Y-45.72
X73.634Y-57.785
X74.888Y-57.746
X75.021Y-45.974
X76.095Y-58.284
X76.318Y-46.22
X76.327Y-68.58
X76.7Y-59.52
X77.588Y-46.674
X77.724Y-62.738
X78.74Y-62.738
X78.859Y-46.756
X79.756Y-62.738
X80.129Y-49.704
X80.772Y-63.881
X81.399Y-50.292
X81.788Y-64.516
X82.381Y-62.784
X82.673Y-53.313
X83.925Y-53.33
X84.069Y-62.795
X85.209Y-53.554
X85.852Y-57.609
X86.469Y-52.199
X87.563Y-42.732
X87.98Y-44.323
X88.269Y-57.609
X89.786Y-52.06
X93.32Y-44.113
X94.223Y-45.792
X95.885Y-53.422
X97.536Y-44.113
X98.425Y-53.876
X99.187Y-63.257
X99.797Y-44.897
X100.076Y-66.294
X100.965Y-53.982
X105.029Y-44.831
X106.045Y-54.102
X111.125Y-47.254
X111.125Y-54.102
X113.665Y-54.102
X114.427Y-47.262
X116.205Y-47.254
X116.205Y-54.102
X118.745Y-53.975
X118.872Y-47.381
X121.285Y-47.254
X121.285Y-53.63
X123.048Y-69.977
X123.825Y-47.365
X123.825Y-53.867
X125.349Y-70.739
X126.365Y-47.254
X126.365Y-53.848
X128.048Y-71.628
X128.905Y-47.254
X128.905Y-53.848
X131.445Y-47.254
X131.445Y-53.848
X133.985Y-47.254
X133.985Y-53.848
X136.525Y-53.848
X136.652Y-47.381
X139.065Y-47.24
X139.065Y-53.848
X141.605Y-42.545
X142.118Y-71.531
X143.256Y-75.125
X144.145Y-42.545
X144.653Y-63.754
X145.669Y-62.103
X146.858Y-66.802
X147.193Y-69.85
X148.463Y-75.184
X148.844Y-73.152
T2
X72.644Y-66.802
X73.787Y-66.802
X74.93Y-66.802
X92.583Y-62.738
X93.726Y-62.738
X94.869Y-62.738
X141.859Y-55.626
X143.002Y-55.626
X144.145Y-55.626
T0
M30
