G04 #@! TF.FileFunction,Copper,L1,Top,Signal*
%FSLAX46Y46*%
G04 Gerber Fmt 4.6, Leading zero omitted, Abs format (unit mm)*
G04 Created by KiCad (PCBNEW 4.0.2+dfsg1-stable) date  3.05.2016 (вт) 14:48:06 EEST*
%MOMM*%
G01*
G04 APERTURE LIST*
%ADD10C,0.600000*%
%ADD11R,3.048000X3.556000*%
%ADD12C,0.900000*%
%ADD13R,1.016000X1.016000*%
%ADD14R,1.270000X1.524000*%
%ADD15R,2.000000X1.700000*%
%ADD16R,1.000000X1.400000*%
%ADD17R,1.400000X1.000000*%
%ADD18R,0.700000X1.800000*%
%ADD19R,0.250000X1.300000*%
%ADD20R,2.400000X2.600000*%
%ADD21R,0.600000X2.200000*%
%ADD22R,1.000000X4.250000*%
%ADD23C,1.000000*%
%ADD24R,0.300000X1.300000*%
%ADD25R,2.500000X3.200000*%
%ADD26R,0.550000X0.700000*%
%ADD27O,0.762000X2.540000*%
%ADD28R,1.500000X2.500000*%
%ADD29O,1.500000X2.500000*%
%ADD30C,0.600000*%
%ADD31C,0.762000*%
%ADD32C,0.254000*%
%ADD33C,0.508000*%
%ADD34C,1.016000*%
%ADD35C,1.000000*%
%ADD36C,1.524000*%
%ADD37C,0.152400*%
%ADD38C,0.250000*%
%ADD39C,0.177800*%
G04 APERTURE END LIST*
D10*
D11*
X106045000Y-73660000D03*
X106045000Y-68580000D03*
D12*
X74930000Y-66802000D03*
X73787000Y-66802000D03*
X72644000Y-66802000D03*
X92583000Y-62738000D03*
X94869000Y-62738000D03*
X93726000Y-62738000D03*
X144145000Y-55626000D03*
X143002000Y-55626000D03*
D13*
X96774000Y-66040000D03*
X94996000Y-66040000D03*
D14*
X90424000Y-69850000D03*
X92456000Y-69850000D03*
D15*
X110450000Y-77470000D03*
X105450000Y-77470000D03*
D16*
X106680000Y-64770000D03*
X105724960Y-62560200D03*
X107627420Y-62560200D03*
X91440000Y-76835000D03*
X90484960Y-74625200D03*
X92387420Y-74625200D03*
D17*
X142824200Y-58994040D03*
X145034000Y-58039000D03*
X145034000Y-59941460D03*
D18*
X62992000Y-48387000D03*
X62992000Y-44323000D03*
X64262000Y-48387000D03*
X64262000Y-44323000D03*
X65532000Y-48387000D03*
X65532000Y-44323000D03*
X66802000Y-48387000D03*
X66802000Y-44323000D03*
X68072000Y-48387000D03*
X68072000Y-44323000D03*
X69342000Y-48387000D03*
X69342000Y-44323000D03*
X70612000Y-48387000D03*
X70612000Y-44323000D03*
X71882000Y-48387000D03*
X71882000Y-44323000D03*
X73152000Y-48387000D03*
X73152000Y-44323000D03*
X74422000Y-48387000D03*
X74422000Y-44323000D03*
X87122000Y-44323000D03*
X87122000Y-48387000D03*
X85852000Y-44323000D03*
X85852000Y-48387000D03*
X84582000Y-44323000D03*
X84582000Y-48387000D03*
X83312000Y-44323000D03*
X83312000Y-48387000D03*
X82042000Y-44323000D03*
X82042000Y-48387000D03*
X80772000Y-44323000D03*
X80772000Y-48387000D03*
X79502000Y-44323000D03*
X79502000Y-48387000D03*
X78232000Y-44323000D03*
X78232000Y-48387000D03*
X76962000Y-44323000D03*
X76962000Y-48387000D03*
X75692000Y-44323000D03*
X75692000Y-48387000D03*
X62992000Y-56064000D03*
X62992000Y-52000000D03*
X64262000Y-56064000D03*
X64262000Y-52000000D03*
X65532000Y-56064000D03*
X65532000Y-52000000D03*
X66802000Y-56064000D03*
X66802000Y-52000000D03*
X68072000Y-56064000D03*
X68072000Y-52000000D03*
X69342000Y-56064000D03*
X69342000Y-52000000D03*
X70612000Y-56064000D03*
X70612000Y-52000000D03*
X71882000Y-56064000D03*
X71882000Y-52000000D03*
X73152000Y-56064000D03*
X73152000Y-52000000D03*
X74422000Y-56064000D03*
X74422000Y-52000000D03*
X87122000Y-52000000D03*
X87122000Y-56064000D03*
X85852000Y-52000000D03*
X85852000Y-56064000D03*
X84582000Y-52000000D03*
X84582000Y-56064000D03*
X83312000Y-52000000D03*
X83312000Y-56064000D03*
X82042000Y-52000000D03*
X82042000Y-56064000D03*
X80772000Y-52000000D03*
X80772000Y-56064000D03*
X79502000Y-52000000D03*
X79502000Y-56064000D03*
X78232000Y-52000000D03*
X78232000Y-56064000D03*
X76962000Y-52000000D03*
X76962000Y-56064000D03*
X75692000Y-52000000D03*
X75692000Y-56064000D03*
D19*
X84210000Y-61400000D03*
X83710000Y-61400000D03*
X83210000Y-61400000D03*
X82710000Y-61400000D03*
X82210000Y-61400000D03*
X81710000Y-61400000D03*
X81210000Y-61400000D03*
X80710000Y-61400000D03*
X80210000Y-61400000D03*
X79710000Y-61400000D03*
X79210000Y-61400000D03*
X78710000Y-61400000D03*
X78210000Y-61400000D03*
X77710000Y-61400000D03*
X77210000Y-61400000D03*
X76710000Y-61400000D03*
X76210000Y-61400000D03*
X75710000Y-61400000D03*
X75210000Y-61400000D03*
X74710000Y-61400000D03*
X74210000Y-61400000D03*
X73710000Y-61400000D03*
X73210000Y-61400000D03*
X72710000Y-61400000D03*
X72210000Y-61400000D03*
X71710000Y-61400000D03*
X71210000Y-61400000D03*
X70710000Y-61400000D03*
X70210000Y-61400000D03*
X69710000Y-61400000D03*
X69210000Y-61400000D03*
X68710000Y-61400000D03*
X68210000Y-61400000D03*
X67710000Y-61400000D03*
X67210000Y-61400000D03*
X66710000Y-61400000D03*
X66210000Y-61400000D03*
X65710000Y-61400000D03*
X65210000Y-61400000D03*
X64710000Y-61400000D03*
D20*
X86360000Y-63500000D03*
X62560000Y-63500000D03*
D19*
X143175000Y-73025000D03*
X142675000Y-73025000D03*
X142175000Y-73025000D03*
X141675000Y-73025000D03*
X141175000Y-73025000D03*
X140675000Y-73025000D03*
X140175000Y-73025000D03*
X139675000Y-73025000D03*
X139175000Y-73025000D03*
X138675000Y-73025000D03*
X138175000Y-73025000D03*
X137675000Y-73025000D03*
X137175000Y-73025000D03*
X136675000Y-73025000D03*
X136175000Y-73025000D03*
X135675000Y-73025000D03*
X135175000Y-73025000D03*
X134675000Y-73025000D03*
X134175000Y-73025000D03*
X133675000Y-73025000D03*
X133175000Y-73025000D03*
X132675000Y-73025000D03*
X132175000Y-73025000D03*
X131675000Y-73025000D03*
X131175000Y-73025000D03*
X130675000Y-73025000D03*
X130175000Y-73025000D03*
X129675000Y-73025000D03*
X129175000Y-73025000D03*
X128675000Y-73025000D03*
X128175000Y-73025000D03*
X127675000Y-73025000D03*
X127175000Y-73025000D03*
X126675000Y-73025000D03*
X126175000Y-73025000D03*
X125675000Y-73025000D03*
X125175000Y-73025000D03*
X124675000Y-73025000D03*
X124175000Y-73025000D03*
X123675000Y-73025000D03*
D20*
X145325000Y-75125000D03*
X121525000Y-75125000D03*
D16*
X148079460Y-66461640D03*
X149034500Y-68671440D03*
X147132040Y-68671440D03*
X148206460Y-62524640D03*
X149161500Y-64734440D03*
X147259040Y-64734440D03*
X100330000Y-62230000D03*
X101285040Y-64439800D03*
X99382580Y-64439800D03*
D13*
X111760000Y-74295000D03*
X111760000Y-72517000D03*
X94996000Y-76835000D03*
X96774000Y-76835000D03*
X98425000Y-76835000D03*
X100203000Y-76835000D03*
X111760000Y-70739000D03*
X111760000Y-68961000D03*
X90551000Y-72390000D03*
X92329000Y-72390000D03*
X146812000Y-58039000D03*
X146812000Y-59817000D03*
X148971000Y-70993000D03*
X147193000Y-70993000D03*
X103505000Y-64770000D03*
X103505000Y-62992000D03*
D21*
X99695000Y-68460000D03*
X98425000Y-68460000D03*
X97155000Y-68460000D03*
X95885000Y-68460000D03*
X95885000Y-73660000D03*
X97155000Y-73660000D03*
X98425000Y-73660000D03*
X99695000Y-73660000D03*
D22*
X144145000Y-44875000D03*
X144145000Y-51125000D03*
X141605000Y-44875000D03*
X141605000Y-51125000D03*
X139065000Y-44875000D03*
X139065000Y-51125000D03*
X136525000Y-44875000D03*
X136525000Y-51125000D03*
X133985000Y-44875000D03*
X133985000Y-51125000D03*
X131445000Y-44875000D03*
X131445000Y-51125000D03*
X128905000Y-44875000D03*
X128905000Y-51125000D03*
X126365000Y-44875000D03*
X126365000Y-51125000D03*
X123825000Y-44875000D03*
X123825000Y-51125000D03*
X121285000Y-44875000D03*
X121285000Y-51125000D03*
X118745000Y-44875000D03*
X118745000Y-51125000D03*
X116205000Y-44875000D03*
X116205000Y-51125000D03*
X113665000Y-44875000D03*
X113665000Y-51125000D03*
X111125000Y-44875000D03*
X111125000Y-51125000D03*
X108585000Y-44875000D03*
X108585000Y-51125000D03*
X106045000Y-44875000D03*
X106045000Y-51125000D03*
X103505000Y-44875000D03*
X103505000Y-51125000D03*
X100965000Y-44875000D03*
X100965000Y-51125000D03*
X98425000Y-44875000D03*
X98425000Y-51125000D03*
X95885000Y-44875000D03*
X95885000Y-51125000D03*
D13*
X148590000Y-58039000D03*
X148590000Y-59817000D03*
D23*
X62738000Y-77978000D03*
X147955000Y-54991000D03*
X148336000Y-78359000D03*
D13*
X142748000Y-62103000D03*
X144526000Y-62103000D03*
D12*
X141859000Y-55626000D03*
D24*
X74250000Y-74704000D03*
X73750000Y-74704000D03*
X73250000Y-74704000D03*
X72750000Y-74704000D03*
X72250000Y-74704000D03*
X71750000Y-74704000D03*
D25*
X76400000Y-76804000D03*
X69600000Y-76804000D03*
D26*
X62992000Y-49784000D03*
X62992000Y-50800000D03*
X64262000Y-49784000D03*
X64262000Y-50800000D03*
X62992000Y-57531000D03*
X62992000Y-58547000D03*
X64262000Y-57531000D03*
X64262000Y-58547000D03*
D27*
X76327000Y-71882000D03*
X75057000Y-71882000D03*
X73787000Y-71882000D03*
X72517000Y-71882000D03*
X71247000Y-71882000D03*
X69977000Y-71882000D03*
D28*
X114935000Y-77470000D03*
D29*
X117475000Y-77470000D03*
D30*
X89786498Y-52060008D03*
X86469402Y-52199127D03*
X84069085Y-62795304D03*
X82381252Y-62784127D03*
X100076000Y-66294000D03*
X143256000Y-75125000D03*
X148463000Y-75184000D03*
X148844000Y-73152000D03*
X145669000Y-62103000D03*
X87980000Y-44322980D03*
X144145000Y-42545000D03*
X88268828Y-57608637D03*
X85852000Y-57608637D03*
X141605000Y-42545000D03*
X87562926Y-42731926D03*
X123047990Y-69977000D03*
X144653000Y-63754000D03*
X142118047Y-71531204D03*
X147193000Y-69850000D03*
X128047990Y-71628000D03*
X64712299Y-45394414D03*
X97536000Y-44112797D03*
X65405000Y-59161000D03*
X61536210Y-58420000D03*
X71247000Y-69215000D03*
X64770000Y-68580000D03*
X95885000Y-53422019D03*
X62314999Y-53340000D03*
X63515273Y-59631490D03*
X93320424Y-44112789D03*
X62992000Y-42672000D03*
X60960000Y-59309000D03*
X76327000Y-68580000D03*
X66548000Y-67691000D03*
X98425000Y-53876029D03*
X63045386Y-54651862D03*
X65153534Y-58035424D03*
X100965000Y-53982009D03*
X146858009Y-66802000D03*
X125349000Y-70739000D03*
X68453000Y-63246000D03*
X99187000Y-63257030D03*
X94222646Y-45791739D03*
X99797354Y-44896599D03*
X67445799Y-57531000D03*
X106045000Y-54102000D03*
X68707000Y-46031021D03*
X105029000Y-44831000D03*
X72380070Y-57799737D03*
X116205000Y-54102000D03*
X73496600Y-45720000D03*
X116205000Y-47254000D03*
X73634091Y-57785000D03*
X118745000Y-53975000D03*
X75020600Y-45974000D03*
X118872000Y-47381000D03*
X72190685Y-45730055D03*
X114427000Y-47262000D03*
X71122095Y-58039274D03*
X113665000Y-54102000D03*
X69913543Y-57503894D03*
X111125000Y-54102000D03*
X70676653Y-45754161D03*
X111125000Y-47254000D03*
X79756000Y-62738000D03*
X133985000Y-53848000D03*
X82673232Y-53313425D03*
X133985000Y-47254000D03*
X83924585Y-53330109D03*
X136652000Y-47381000D03*
X80772000Y-63881000D03*
X136525000Y-53848000D03*
X81788000Y-64516000D03*
X139065000Y-53848000D03*
X85209396Y-53553834D03*
X139065000Y-47239580D03*
X81399010Y-50292000D03*
X131445000Y-47254000D03*
X78740000Y-62738000D03*
X131445000Y-53848000D03*
X80129010Y-49703993D03*
X128905000Y-47254000D03*
X77724000Y-62738000D03*
X128905000Y-53848000D03*
X78858862Y-46755708D03*
X126365000Y-47254000D03*
X76700048Y-59520399D03*
X126365000Y-53848000D03*
X77588201Y-46674020D03*
X123825000Y-47364525D03*
X76095386Y-58284148D03*
X123825000Y-53866863D03*
X76318201Y-46220010D03*
X121285000Y-47254000D03*
X74888112Y-57745621D03*
X121285000Y-53630135D03*
D31*
X114935000Y-77470000D02*
X111760000Y-77470000D01*
X111760000Y-77470000D02*
X110450000Y-77470000D01*
X111760000Y-74295000D02*
X111760000Y-75565000D01*
X111760000Y-75565000D02*
X111760000Y-77470000D01*
X147259040Y-64734440D02*
X147259040Y-64934440D01*
X147259040Y-64934440D02*
X145976999Y-66216481D01*
X145976999Y-66216481D02*
X145976999Y-72981801D01*
X145976999Y-72981801D02*
X146727603Y-72981801D01*
X146727603Y-72981801D02*
X147106001Y-73360199D01*
X144599990Y-79301010D02*
X115565549Y-79301010D01*
X147106001Y-73360199D02*
X147106001Y-76794999D01*
X147106001Y-76794999D02*
X144599990Y-79301010D01*
X115565549Y-79301010D02*
X114935000Y-78670461D01*
X114935000Y-78670461D02*
X114935000Y-77470000D01*
D32*
X73787000Y-73025000D02*
X73250000Y-73562000D01*
X73250000Y-73562000D02*
X73250000Y-74704000D01*
X73787000Y-71882000D02*
X73787000Y-73025000D01*
D33*
X73787000Y-66802000D02*
X73787000Y-71882000D01*
D32*
X69600000Y-76804000D02*
X76400000Y-76804000D01*
X73250000Y-74704000D02*
X73250000Y-75608000D01*
X73250000Y-75608000D02*
X74446000Y-76804000D01*
X74446000Y-76804000D02*
X76400000Y-76804000D01*
D33*
X86469402Y-52199127D02*
X86469402Y-52017598D01*
X86469402Y-52017598D02*
X86487000Y-52000000D01*
X87122000Y-52000000D02*
X85852000Y-52000000D01*
X87122000Y-48387000D02*
X87122000Y-52000000D01*
X85852000Y-48387000D02*
X87122000Y-48387000D01*
X85852000Y-48387000D02*
X85852000Y-52000000D01*
D31*
X144526000Y-62103000D02*
X145669000Y-62103000D01*
D33*
X86487000Y-52000000D02*
X87122000Y-52000000D01*
X85852000Y-52000000D02*
X86487000Y-52000000D01*
D32*
X83769086Y-62495305D02*
X84069085Y-62795304D01*
X83710000Y-62436219D02*
X83769086Y-62495305D01*
X83710000Y-61400000D02*
X83710000Y-62436219D01*
X82681251Y-62484128D02*
X82381252Y-62784127D01*
X82710000Y-62455379D02*
X82681251Y-62484128D01*
X82710000Y-61400000D02*
X82710000Y-62455379D01*
D33*
X100076000Y-66294000D02*
X100711000Y-66294000D01*
X99643798Y-66294000D02*
X100076000Y-66294000D01*
X100711000Y-66294000D02*
X101285040Y-65719960D01*
X101285040Y-65719960D02*
X101285040Y-64439800D01*
X98425000Y-68460000D02*
X98425000Y-67512798D01*
X98425000Y-67512798D02*
X99643798Y-66294000D01*
X147193000Y-70993000D02*
X147193000Y-71501000D01*
X147193000Y-71501000D02*
X148844000Y-73152000D01*
D31*
X148844000Y-73152000D02*
X148844000Y-74803000D01*
X148844000Y-74803000D02*
X148463000Y-75184000D01*
X117475000Y-77470000D02*
X117475000Y-75819000D01*
X117475000Y-75819000D02*
X118169000Y-75125000D01*
X118169000Y-75125000D02*
X121525000Y-75125000D01*
X144145000Y-54102000D02*
X144145000Y-51125000D01*
X143637000Y-54610000D02*
X144145000Y-54102000D01*
X142203000Y-54610000D02*
X143637000Y-54610000D01*
X141605000Y-51125000D02*
X141605000Y-54012000D01*
X141605000Y-54012000D02*
X142203000Y-54610000D01*
D34*
X145325000Y-75125000D02*
X143256000Y-75125000D01*
X143256000Y-75125000D02*
X142113000Y-75125000D01*
D32*
X143175000Y-73025000D02*
X143175000Y-75044000D01*
X143175000Y-75044000D02*
X143256000Y-75125000D01*
D34*
X142113000Y-75125000D02*
X129159000Y-75125000D01*
D32*
X142175000Y-73025000D02*
X142175000Y-75063000D01*
X142175000Y-75063000D02*
X142113000Y-75125000D01*
D34*
X129159000Y-75125000D02*
X125730000Y-75125000D01*
D32*
X129175000Y-73025000D02*
X129175000Y-75109000D01*
X129175000Y-75109000D02*
X129159000Y-75125000D01*
D34*
X125730000Y-75125000D02*
X121525000Y-75125000D01*
D32*
X125675000Y-73025000D02*
X125675000Y-75070000D01*
X125675000Y-75070000D02*
X125730000Y-75125000D01*
D33*
X97155000Y-68460000D02*
X97155000Y-66421000D01*
X97155000Y-66421000D02*
X96774000Y-66040000D01*
X95885000Y-68460000D02*
X95885000Y-66929000D01*
X95885000Y-66929000D02*
X94996000Y-66040000D01*
D35*
X90424000Y-61265000D02*
X90424000Y-69850000D01*
X87122000Y-57963000D02*
X90424000Y-61265000D01*
D33*
X87122000Y-44323000D02*
X87122020Y-44322980D01*
X87122000Y-54656000D02*
X88138000Y-53640000D01*
X87980000Y-44747244D02*
X87980000Y-44322980D01*
X88138000Y-44905244D02*
X87980000Y-44747244D01*
X87555736Y-44322980D02*
X87980000Y-44322980D01*
X87122000Y-56064000D02*
X87122000Y-54656000D01*
X87122020Y-44322980D02*
X87555736Y-44322980D01*
X88138000Y-53640000D02*
X88138000Y-44905244D01*
X144145000Y-44875000D02*
X144145000Y-42545000D01*
D32*
X84210000Y-60875000D02*
X84760000Y-60325000D01*
D33*
X87122000Y-57963000D02*
X84760000Y-60325000D01*
X87122000Y-56064000D02*
X87122000Y-57963000D01*
D32*
X84210000Y-61400000D02*
X84210000Y-60875000D01*
D33*
X90424000Y-69850000D02*
X90424000Y-72263000D01*
X90424000Y-72263000D02*
X90551000Y-72390000D01*
X90551000Y-72390000D02*
X90551000Y-74559160D01*
X90551000Y-74559160D02*
X90484960Y-74625200D01*
D32*
X107627420Y-62560200D02*
X107627420Y-63514200D01*
X107627420Y-63514200D02*
X109093000Y-64979780D01*
X109093000Y-64979780D02*
X109093000Y-70104000D01*
X109093000Y-70104000D02*
X108314483Y-70882517D01*
X108314483Y-70882517D02*
X92599517Y-70882517D01*
X92599517Y-70882517D02*
X92456000Y-70739000D01*
D33*
X92456000Y-69850000D02*
X92456000Y-70739000D01*
X92456000Y-70739000D02*
X92456000Y-72263000D01*
X92456000Y-72263000D02*
X92329000Y-72390000D01*
X92329000Y-72390000D02*
X92329000Y-74566780D01*
X92329000Y-74566780D02*
X92387420Y-74625200D01*
D32*
X75057000Y-71882000D02*
X75057000Y-72771000D01*
X75057000Y-72771000D02*
X74348990Y-73479010D01*
X73975056Y-73479010D02*
X73750000Y-73704066D01*
X74348990Y-73479010D02*
X73975056Y-73479010D01*
X73750000Y-73704066D02*
X73750000Y-74704000D01*
D33*
X83210000Y-63475000D02*
X83210000Y-65888000D01*
X83210000Y-65888000D02*
X82550000Y-66548000D01*
X82550000Y-66548000D02*
X76835000Y-66548000D01*
X76835000Y-66548000D02*
X75057000Y-68326000D01*
X75057000Y-68326000D02*
X75057000Y-71882000D01*
X88846010Y-57031455D02*
X88568827Y-57308638D01*
D32*
X85552001Y-57908636D02*
X85852000Y-57608637D01*
X83210000Y-61400000D02*
X83210000Y-60250637D01*
D33*
X88846010Y-44015010D02*
X88846010Y-57031455D01*
D32*
X83210000Y-60250637D02*
X85552001Y-57908636D01*
D33*
X88568827Y-57308638D02*
X88268828Y-57608637D01*
X87562926Y-42731926D02*
X88846010Y-44015010D01*
X85852000Y-56064000D02*
X85852000Y-57608637D01*
D32*
X83210000Y-61400000D02*
X83210000Y-63475000D01*
D33*
X141605000Y-42545000D02*
X141605000Y-44875000D01*
X85852000Y-44323000D02*
X85852000Y-43525798D01*
X85852000Y-43525798D02*
X86645872Y-42731926D01*
X86645872Y-42731926D02*
X87562926Y-42731926D01*
D31*
X141605000Y-44875000D02*
X141605000Y-47342036D01*
X141605000Y-47342036D02*
X142238025Y-47975061D01*
X142238025Y-47975061D02*
X145094202Y-47975061D01*
X145094202Y-47975061D02*
X145796000Y-48676859D01*
X145796000Y-48676859D02*
X145796000Y-58039000D01*
D33*
X146812000Y-58039000D02*
X145796000Y-58039000D01*
X145796000Y-58039000D02*
X145034000Y-58039000D01*
X148590000Y-58039000D02*
X146812000Y-58039000D01*
D32*
X113722545Y-60651555D02*
X107433605Y-60651555D01*
X105724960Y-62360200D02*
X105724960Y-62560200D01*
X123047990Y-69977000D02*
X113722545Y-60651555D01*
X107433605Y-60651555D02*
X105724960Y-62360200D01*
X146812000Y-59817000D02*
X146812000Y-61961277D01*
X146812000Y-61961277D02*
X145019277Y-63754000D01*
X145019277Y-63754000D02*
X144653000Y-63754000D01*
D33*
X146812000Y-59817000D02*
X145158460Y-59817000D01*
X145158460Y-59817000D02*
X145034000Y-59941460D01*
X148590000Y-59817000D02*
X146812000Y-59817000D01*
X98806000Y-78486000D02*
X98425000Y-78105000D01*
X98425000Y-78105000D02*
X98425000Y-76835000D01*
X102926000Y-78486000D02*
X98806000Y-78486000D01*
X105450000Y-77470000D02*
X103942000Y-77470000D01*
X103942000Y-77470000D02*
X102926000Y-78486000D01*
X98425000Y-73660000D02*
X98425000Y-76835000D01*
X96774000Y-76835000D02*
X98425000Y-76835000D01*
D36*
X106045000Y-73660000D02*
X106045000Y-76875000D01*
X106045000Y-76875000D02*
X105450000Y-77470000D01*
D33*
X103505000Y-64770000D02*
X106680000Y-64770000D01*
X91440000Y-76835000D02*
X94996000Y-76835000D01*
X97155000Y-73660000D02*
X97155000Y-75268000D01*
X97155000Y-75268000D02*
X96858000Y-75565000D01*
X96858000Y-75565000D02*
X95250000Y-75565000D01*
X95250000Y-75565000D02*
X94996000Y-75819000D01*
X94996000Y-75819000D02*
X94996000Y-76835000D01*
D32*
X141675000Y-73025000D02*
X141675000Y-71974251D01*
X141818048Y-71831203D02*
X142118047Y-71531204D01*
X141675000Y-71974251D02*
X141818048Y-71831203D01*
D31*
X142118047Y-64002953D02*
X142118047Y-71531204D01*
X142748000Y-62103000D02*
X142748000Y-63373000D01*
X142748000Y-63373000D02*
X142118047Y-64002953D01*
X142824200Y-58994040D02*
X142824200Y-62026800D01*
X142824200Y-62026800D02*
X142748000Y-62103000D01*
D32*
X147193000Y-69850000D02*
X147193000Y-68732400D01*
X147193000Y-68732400D02*
X147132040Y-68671440D01*
X128175000Y-73025000D02*
X128175000Y-71755010D01*
X128175000Y-71755010D02*
X128047990Y-71628000D01*
D33*
X99695000Y-68460000D02*
X100503000Y-68460000D01*
X100503000Y-68460000D02*
X100584000Y-68541000D01*
X100584000Y-68541000D02*
X100584000Y-68580000D01*
D36*
X106045000Y-68580000D02*
X100584000Y-68580000D01*
D32*
X72517000Y-73406000D02*
X72750000Y-73639000D01*
X72750000Y-73639000D02*
X72750000Y-74704000D01*
X72517000Y-71882000D02*
X72517000Y-73406000D01*
X66210000Y-61400000D02*
X66210000Y-66210000D01*
X66210000Y-66210000D02*
X67691000Y-67691000D01*
X67691000Y-67691000D02*
X71501000Y-67691000D01*
X71501000Y-67691000D02*
X72517000Y-68707000D01*
X72517000Y-68707000D02*
X72517000Y-71882000D01*
X125175000Y-73025000D02*
X125220990Y-72979010D01*
X125980249Y-71070827D02*
X125980249Y-65836278D01*
X104648000Y-49054398D02*
X103599602Y-48006000D01*
X98425000Y-46500000D02*
X98425000Y-44875000D01*
X125980249Y-65836278D02*
X118525472Y-58381501D01*
X99931000Y-48006000D02*
X98425000Y-46500000D01*
X103599602Y-48006000D02*
X99931000Y-48006000D01*
X125987793Y-71078371D02*
X125980249Y-71070827D01*
X125987793Y-71348605D02*
X125987793Y-71078371D01*
X125222999Y-72113399D02*
X125987793Y-71348605D01*
X125220990Y-72836943D02*
X125222999Y-72834934D01*
X125222999Y-72834934D02*
X125222999Y-72113399D01*
X118525472Y-58381501D02*
X105694675Y-58381501D01*
X125220990Y-72979010D02*
X125220990Y-72836943D01*
X105694675Y-58381501D02*
X104648000Y-57334826D01*
X104648000Y-57334826D02*
X104648000Y-49054398D01*
X98425000Y-44875000D02*
X98425000Y-44190138D01*
X98425000Y-44190138D02*
X98347659Y-44112797D01*
X98347659Y-44112797D02*
X97536000Y-44112797D01*
D37*
X64262000Y-44873000D02*
X64712299Y-45394414D01*
X64712299Y-45394414D02*
X64764400Y-45375400D01*
D32*
X64791000Y-58547000D02*
X65405000Y-59161000D01*
X65405000Y-59161000D02*
X66210000Y-59966000D01*
D37*
X64262000Y-44323000D02*
X64262000Y-44873000D01*
X64764400Y-45375400D02*
X64764400Y-46708399D01*
X64764400Y-46708399D02*
X64262000Y-47210799D01*
X64262000Y-47210799D02*
X62421039Y-47210799D01*
X61536210Y-48095628D02*
X61536210Y-58420000D01*
X62421039Y-47210799D02*
X61536210Y-48095628D01*
D32*
X64262000Y-58547000D02*
X64791000Y-58547000D01*
X66210000Y-59966000D02*
X66210000Y-60496000D01*
X66210000Y-60496000D02*
X66210000Y-61400000D01*
X72062990Y-73594057D02*
X72250000Y-73781067D01*
X72250000Y-73781067D02*
X72250000Y-74704000D01*
X71247000Y-71882000D02*
X71247000Y-72771000D01*
X71247000Y-72771000D02*
X72062990Y-73586990D01*
X72062990Y-73586990D02*
X72062990Y-73594057D01*
X71247000Y-69215000D02*
X71247000Y-71882000D01*
X64710000Y-67008773D02*
X64710000Y-68520000D01*
X64710000Y-68520000D02*
X64770000Y-68580000D01*
X64710000Y-61400000D02*
X64710000Y-67008773D01*
X123675000Y-72121000D02*
X123675000Y-73025000D01*
X117773253Y-60197554D02*
X123675000Y-66099301D01*
X106198634Y-60418298D02*
X106419378Y-60197554D01*
X100345343Y-60418298D02*
X106198634Y-60418298D01*
X95885000Y-53848000D02*
X95885000Y-55957955D01*
X95885000Y-55957955D02*
X100345343Y-60418298D01*
X123675000Y-66099301D02*
X123675000Y-72121000D01*
X106419378Y-60197554D02*
X117773253Y-60197554D01*
X95885000Y-53848000D02*
X95885000Y-53422019D01*
X62314999Y-49614001D02*
X62314999Y-53340000D01*
X62314999Y-53340000D02*
X62314999Y-58983601D01*
X95885000Y-51125000D02*
X95885000Y-53848000D01*
X62992000Y-48387000D02*
X62992000Y-48937000D01*
X64441499Y-60444259D02*
X64710000Y-60712762D01*
X62992000Y-48937000D02*
X62314999Y-49614001D01*
X64710000Y-60712762D02*
X64710000Y-61400000D01*
X62314999Y-58983601D02*
X62455399Y-59124001D01*
X62455399Y-59124001D02*
X62455399Y-59680688D01*
X63218970Y-60444259D02*
X64441499Y-60444259D01*
X62455399Y-59680688D02*
X63218970Y-60444259D01*
D38*
X62992000Y-48387000D02*
X62992000Y-49784000D01*
D39*
X64236512Y-59631490D02*
X63939537Y-59631490D01*
X65210000Y-61400000D02*
X65210000Y-60604978D01*
X63939537Y-59631490D02*
X63515273Y-59631490D01*
X62992000Y-58547000D02*
X62992000Y-59108217D01*
X63215274Y-59331491D02*
X63515273Y-59631490D01*
X65210000Y-60604978D02*
X64236512Y-59631490D01*
X62992000Y-59108217D02*
X63215274Y-59331491D01*
D32*
X69977000Y-71882000D02*
X69977000Y-73335000D01*
X69977000Y-73335000D02*
X71346000Y-74704000D01*
X71346000Y-74704000D02*
X71750000Y-74704000D01*
X65210000Y-61400000D02*
X65210000Y-67280962D01*
X65210000Y-67280962D02*
X67017038Y-69088000D01*
X67017038Y-69088000D02*
X69342000Y-69088000D01*
X69342000Y-69088000D02*
X69977000Y-69723000D01*
X69977000Y-69723000D02*
X69977000Y-71882000D01*
X95885000Y-47254000D02*
X95885000Y-44875000D01*
X95885000Y-47371000D02*
X95885000Y-47254000D01*
X97028000Y-48514000D02*
X95885000Y-47371000D01*
X97028000Y-56195376D02*
X97028000Y-48514000D01*
X124175000Y-73025000D02*
X124175000Y-65957233D01*
X100576157Y-59743533D02*
X97028000Y-56195376D01*
X124175000Y-65957233D02*
X117961300Y-59743533D01*
X117961300Y-59743533D02*
X100576157Y-59743533D01*
X94082635Y-44875000D02*
X93620423Y-44412788D01*
X95885000Y-44875000D02*
X94082635Y-44875000D01*
X93620423Y-44412788D02*
X93320424Y-44112789D01*
X62992000Y-42672000D02*
X62992000Y-44323000D01*
D37*
X62992000Y-44323000D02*
X62992000Y-45375400D01*
X62992000Y-45375400D02*
X60960000Y-47407400D01*
X60960000Y-47407400D02*
X60960000Y-59309000D01*
X63635799Y-58942961D02*
X63635799Y-55090206D01*
X63871093Y-59178255D02*
X63635799Y-58942961D01*
X65710000Y-60588636D02*
X64299619Y-59178255D01*
X63635799Y-55090206D02*
X63618201Y-55072608D01*
X63433392Y-54887799D02*
X63119000Y-54573407D01*
X65710000Y-61400000D02*
X65710000Y-60588636D01*
X64299619Y-59178255D02*
X63871093Y-59178255D01*
X63618201Y-55072608D02*
X63618201Y-54943039D01*
X63618201Y-54943039D02*
X63562961Y-54887799D01*
X63562961Y-54887799D02*
X63433392Y-54887799D01*
D32*
X74250000Y-74704000D02*
X74654000Y-74704000D01*
X74654000Y-74704000D02*
X76327000Y-73031000D01*
X76327000Y-73031000D02*
X76327000Y-71882000D01*
X76327000Y-68580000D02*
X76327000Y-71882000D01*
X65710000Y-66479966D02*
X65710000Y-66853000D01*
X65710000Y-66853000D02*
X66548000Y-67691000D01*
X65710000Y-61400000D02*
X65710000Y-66479966D01*
X74268414Y-74422000D02*
X74250000Y-74440414D01*
X74250000Y-74440414D02*
X74250000Y-74704000D01*
X98425000Y-53975000D02*
X98425000Y-56630198D01*
X101084324Y-59289522D02*
X118149357Y-59289522D01*
X118149357Y-59289522D02*
X124675000Y-65815165D01*
X124675000Y-72121000D02*
X124675000Y-73025000D01*
X98425000Y-56630198D02*
X101084324Y-59289522D01*
X124675000Y-65815165D02*
X124675000Y-72121000D01*
X98425000Y-53975000D02*
X98425000Y-53876029D01*
D37*
X63119000Y-54573407D02*
X62992000Y-54446407D01*
D32*
X63119000Y-54573407D02*
X63119000Y-54578248D01*
X63119000Y-54578248D02*
X63045386Y-54651862D01*
D37*
X62992000Y-54446407D02*
X62992000Y-53721000D01*
X62992000Y-53721000D02*
X63635799Y-53077201D01*
X63635799Y-53077201D02*
X63635799Y-50385201D01*
X63635799Y-50385201D02*
X64237000Y-49784000D01*
X64237000Y-49784000D02*
X64262000Y-49784000D01*
D32*
X98425000Y-51125000D02*
X98425000Y-53975000D01*
D38*
X64262000Y-48387000D02*
X64262000Y-49784000D01*
D32*
X65532000Y-48387000D02*
X65532000Y-52000000D01*
X100965000Y-53975000D02*
X100965000Y-57500536D01*
X125349000Y-65847097D02*
X125349000Y-70314736D01*
X100965000Y-57500536D02*
X102299975Y-58835511D01*
X102299975Y-58835511D02*
X118337414Y-58835511D01*
X118337414Y-58835511D02*
X125349000Y-65847097D01*
X125349000Y-70314736D02*
X125349000Y-70739000D01*
D37*
X64897000Y-57785000D02*
X65153534Y-58035424D01*
X65153534Y-58035424D02*
X66710000Y-59598000D01*
D32*
X100965000Y-51125000D02*
X100965000Y-53975000D01*
X100965000Y-53975000D02*
X100965000Y-53982009D01*
D37*
X66710000Y-59598000D02*
X66710000Y-61400000D01*
X64897000Y-53687400D02*
X64897000Y-57785000D01*
X65532000Y-52000000D02*
X65532000Y-53052400D01*
X65532000Y-53052400D02*
X64897000Y-53687400D01*
D32*
X146858009Y-66802000D02*
X146858009Y-67226264D01*
X146858009Y-67226264D02*
X147276184Y-67644439D01*
X147276184Y-67644439D02*
X148207499Y-67644439D01*
X148207499Y-67644439D02*
X149034500Y-68471440D01*
X149034500Y-68471440D02*
X149034500Y-68671440D01*
D33*
X149034500Y-68671440D02*
X149034500Y-70929500D01*
X149034500Y-70929500D02*
X148971000Y-70993000D01*
D32*
X67518001Y-62946001D02*
X67210000Y-62638000D01*
X67210000Y-62638000D02*
X67210000Y-61400000D01*
X68453000Y-63246000D02*
X68153001Y-62946001D01*
X68153001Y-62946001D02*
X67518001Y-62946001D01*
X99142780Y-63246000D02*
X94222646Y-58325866D01*
X99142780Y-63246000D02*
X99175970Y-63246000D01*
X99382580Y-63485800D02*
X99142780Y-63246000D01*
X99175970Y-63246000D02*
X99187000Y-63257030D01*
X94222646Y-46216003D02*
X94222646Y-45791739D01*
X94222646Y-58325866D02*
X94222646Y-46216003D01*
X99382580Y-64439800D02*
X99382580Y-63485800D01*
D37*
X65532000Y-44323000D02*
X65532000Y-45375400D01*
X65532000Y-45375400D02*
X66158201Y-46001601D01*
X66158201Y-46001601D02*
X66158201Y-54385399D01*
X66158201Y-54385399D02*
X65532000Y-55011600D01*
X65532000Y-55011600D02*
X65532000Y-56064000D01*
D32*
X99818953Y-44875000D02*
X99797354Y-44896599D01*
X100965000Y-44875000D02*
X99818953Y-44875000D01*
X65532000Y-56064000D02*
X65532000Y-56614000D01*
X67210000Y-60496000D02*
X67210000Y-61400000D01*
X65532000Y-56614000D02*
X67210000Y-58292000D01*
X67210000Y-58292000D02*
X67210000Y-60496000D01*
X68072000Y-48387000D02*
X68072000Y-52000000D01*
X118713538Y-57927499D02*
X126675000Y-65888961D01*
X126675000Y-72121000D02*
X126675000Y-73025000D01*
X126675000Y-65888961D02*
X126675000Y-72121000D01*
X106045000Y-54102000D02*
X109870499Y-57927499D01*
X109870499Y-57927499D02*
X118713538Y-57927499D01*
D37*
X67445799Y-53678601D02*
X67445799Y-57531000D01*
X67445799Y-57531000D02*
X67445799Y-57957574D01*
D32*
X106045000Y-51125000D02*
X106045000Y-54102000D01*
D37*
X68072000Y-52000000D02*
X68072000Y-53052400D01*
X68072000Y-53052400D02*
X67445799Y-53678601D01*
X67445799Y-57957574D02*
X68710000Y-59221775D01*
X68710000Y-59221775D02*
X68710000Y-61400000D01*
D32*
X106045000Y-44875000D02*
X106045000Y-46500000D01*
X110474831Y-57473488D02*
X118901595Y-57473488D01*
X128675000Y-72121000D02*
X128675000Y-73025000D01*
X128675000Y-67246893D02*
X128675000Y-72121000D01*
X118901595Y-57473488D02*
X128675000Y-67246893D01*
X109982000Y-56980657D02*
X110474831Y-57473488D01*
X109982000Y-49022000D02*
X109982000Y-56980657D01*
X106045000Y-46500000D02*
X107678000Y-48133000D01*
X107678000Y-48133000D02*
X109093000Y-48133000D01*
X109093000Y-48133000D02*
X109982000Y-49022000D01*
X106045000Y-44875000D02*
X105073000Y-44875000D01*
X105073000Y-44875000D02*
X105029000Y-44831000D01*
D37*
X68072000Y-44323000D02*
X68072000Y-45375400D01*
X68072000Y-45375400D02*
X68698201Y-46001601D01*
X68698201Y-46001601D02*
X68698201Y-54385399D01*
X68698201Y-54385399D02*
X68072000Y-55011600D01*
X68072000Y-55011600D02*
X68072000Y-56064000D01*
D32*
X68072000Y-56064000D02*
X68072000Y-57218000D01*
X68072000Y-57218000D02*
X69210000Y-58356000D01*
X69210000Y-60496000D02*
X69210000Y-61400000D01*
X69210000Y-58356000D02*
X69210000Y-60496000D01*
X73152000Y-48387000D02*
X73152000Y-52000000D01*
D37*
X72710000Y-58363051D02*
X72380070Y-58033121D01*
X72710000Y-61400000D02*
X72710000Y-58363051D01*
X73152000Y-53052400D02*
X72516971Y-53687429D01*
X72516971Y-57238572D02*
X72380070Y-57375473D01*
X72516971Y-53687429D02*
X72516971Y-57238572D01*
X72380070Y-58033121D02*
X72380070Y-57799737D01*
X73152000Y-52000000D02*
X73152000Y-53052400D01*
X72380070Y-57375473D02*
X72380070Y-57799737D01*
D32*
X131675000Y-72121000D02*
X131675000Y-73025000D01*
X117306433Y-55203433D02*
X119841880Y-55203433D01*
X116205000Y-54102000D02*
X117306433Y-55203433D01*
X131675000Y-67036553D02*
X131675000Y-72121000D01*
X119841880Y-55203433D02*
X131675000Y-67036553D01*
X116205000Y-51125000D02*
X116205000Y-54102000D01*
X73152000Y-57218000D02*
X73007090Y-57362910D01*
X73210000Y-58288871D02*
X73210000Y-60496000D01*
X73007090Y-58085961D02*
X73210000Y-58288871D01*
X73007090Y-57362910D02*
X73007090Y-58085961D01*
X73210000Y-60496000D02*
X73210000Y-61400000D01*
X73152000Y-56064000D02*
X73152000Y-57218000D01*
X132175000Y-66894485D02*
X132175000Y-72121000D01*
X132175000Y-72121000D02*
X132175000Y-73025000D01*
X120029937Y-54749422D02*
X132175000Y-66894485D01*
X117338000Y-54213080D02*
X117874342Y-54749422D01*
X117338000Y-48387000D02*
X117338000Y-54213080D01*
X116205000Y-47254000D02*
X117338000Y-48387000D01*
X117874342Y-54749422D02*
X120029937Y-54749422D01*
D37*
X73152000Y-45375400D02*
X73496600Y-45720000D01*
X73496600Y-45720000D02*
X73778201Y-46001601D01*
X73152000Y-44323000D02*
X73152000Y-45375400D01*
X73152000Y-55011600D02*
X73152000Y-56064000D01*
X73778201Y-46001601D02*
X73778201Y-53197817D01*
X73778201Y-53197817D02*
X73152000Y-53824018D01*
X73152000Y-53824018D02*
X73152000Y-55011600D01*
D32*
X116205000Y-44875000D02*
X116205000Y-47254000D01*
X74422000Y-48387000D02*
X74422000Y-52000000D01*
X73795799Y-57404000D02*
X73795799Y-57623292D01*
X73795799Y-57623292D02*
X73634091Y-57785000D01*
X73795799Y-57785000D02*
X73634091Y-57785000D01*
X132675000Y-73025000D02*
X132675000Y-66752417D01*
X119897583Y-53975000D02*
X119169264Y-53975000D01*
X132675000Y-66752417D02*
X119897583Y-53975000D01*
X119169264Y-53975000D02*
X118745000Y-53975000D01*
D37*
X73795799Y-60511801D02*
X73795799Y-57785000D01*
X73795799Y-57404000D02*
X73795799Y-53678601D01*
D32*
X118745000Y-53975000D02*
X118745000Y-51125000D01*
D37*
X73710000Y-61400000D02*
X73710000Y-60597600D01*
X73710000Y-60597600D02*
X73795799Y-60511801D01*
X73795799Y-53678601D02*
X74422000Y-53052400D01*
X74422000Y-53052400D02*
X74422000Y-52000000D01*
D32*
X74422000Y-57218000D02*
X74261111Y-57378889D01*
X74261111Y-60444889D02*
X74210000Y-60496000D01*
X74422000Y-56064000D02*
X74422000Y-57218000D01*
X74261111Y-57378889D02*
X74261111Y-60444889D01*
X74210000Y-60496000D02*
X74210000Y-61400000D01*
X133175000Y-72121000D02*
X133175000Y-73025000D01*
X120035707Y-53471056D02*
X133175000Y-66610349D01*
X133175000Y-66610349D02*
X133175000Y-72121000D01*
X120035707Y-48544707D02*
X120035707Y-53471056D01*
X118872000Y-47381000D02*
X120035707Y-48544707D01*
D37*
X74422000Y-45375400D02*
X75020600Y-45974000D01*
X75020600Y-45974000D02*
X75048201Y-46001601D01*
D32*
X118745000Y-47254000D02*
X118872000Y-47381000D01*
D37*
X74422000Y-44323000D02*
X74422000Y-45375400D01*
X75048201Y-46001601D02*
X75048201Y-53197816D01*
X75048201Y-53197816D02*
X74422000Y-53824017D01*
X74422000Y-53824017D02*
X74422000Y-55011600D01*
X74422000Y-55011600D02*
X74422000Y-56064000D01*
D32*
X118745000Y-44875000D02*
X118745000Y-47254000D01*
X72210000Y-60496000D02*
X72210000Y-61400000D01*
X71882000Y-57218000D02*
X71749115Y-57350885D01*
X71749115Y-57350885D02*
X71749115Y-58095821D01*
X72210000Y-58556706D02*
X72210000Y-60496000D01*
X71749115Y-58095821D02*
X72210000Y-58556706D01*
X71882000Y-56064000D02*
X71882000Y-57218000D01*
X114427000Y-47262000D02*
X114726999Y-47561999D01*
X119653823Y-55657444D02*
X131175000Y-67178621D01*
X116352969Y-55657444D02*
X119653823Y-55657444D01*
X114726999Y-47561999D02*
X114726999Y-54031474D01*
X114726999Y-54031474D02*
X116352969Y-55657444D01*
X131175000Y-67178621D02*
X131175000Y-72121000D01*
X131175000Y-72121000D02*
X131175000Y-73025000D01*
D37*
X72512664Y-46052034D02*
X72490684Y-46030054D01*
X71882000Y-53824017D02*
X72512664Y-53193353D01*
X71882000Y-44323000D02*
X71882000Y-45421370D01*
X72490684Y-46030054D02*
X72190685Y-45730055D01*
X72512664Y-53193353D02*
X72512664Y-46052034D01*
X71882000Y-45421370D02*
X71890686Y-45430056D01*
X71882000Y-56064000D02*
X71882000Y-53824017D01*
X71890686Y-45430056D02*
X72190685Y-45730055D01*
D32*
X113665000Y-46500000D02*
X114427000Y-47262000D01*
X113665000Y-44875000D02*
X113665000Y-46500000D01*
X71882000Y-48387000D02*
X71882000Y-52000000D01*
D37*
X71245514Y-58039274D02*
X71122095Y-58039274D01*
X71882000Y-52000000D02*
X71882000Y-53325634D01*
X71245514Y-58162446D02*
X71245514Y-58039274D01*
X71710000Y-61400000D02*
X71710000Y-58626932D01*
X71242882Y-53964752D02*
X71242882Y-57494223D01*
X71242882Y-57494223D02*
X71122095Y-57615010D01*
X71710000Y-58626932D02*
X71245514Y-58162446D01*
X71122095Y-57615010D02*
X71122095Y-58039274D01*
X71882000Y-53325634D02*
X71242882Y-53964752D01*
D32*
X115674455Y-56111455D02*
X119465766Y-56111455D01*
X130675000Y-72121000D02*
X130675000Y-73025000D01*
X119465766Y-56111455D02*
X130675000Y-67320689D01*
X113665000Y-54102000D02*
X115674455Y-56111455D01*
X130675000Y-67320689D02*
X130675000Y-72121000D01*
X113665000Y-51125000D02*
X113665000Y-54102000D01*
X70612000Y-48387000D02*
X70612000Y-52000000D01*
D37*
X69913543Y-59646874D02*
X69913543Y-57928158D01*
X70710000Y-60443331D02*
X69913543Y-59646874D01*
X70612000Y-52000000D02*
X70612000Y-53052400D01*
X70710000Y-61400000D02*
X70710000Y-60443331D01*
X69968201Y-53696199D02*
X69968201Y-57449236D01*
X69968201Y-57449236D02*
X69913543Y-57503894D01*
X70612000Y-53052400D02*
X69968201Y-53696199D01*
X69913543Y-57928158D02*
X69913543Y-57503894D01*
D32*
X111125000Y-54229000D02*
X111125000Y-56538893D01*
X119089652Y-57019477D02*
X129675000Y-67604825D01*
X111125000Y-56538893D02*
X111605584Y-57019477D01*
X129675000Y-67604825D02*
X129675000Y-72121000D01*
X111605584Y-57019477D02*
X119089652Y-57019477D01*
X129675000Y-72121000D02*
X129675000Y-73025000D01*
X111125000Y-51125000D02*
X111125000Y-54229000D01*
X111125000Y-54229000D02*
X111125000Y-54102000D01*
X71210000Y-59055141D02*
X71210000Y-60496000D01*
X70495094Y-57738313D02*
X70495094Y-58340235D01*
X71210000Y-60496000D02*
X71210000Y-61400000D01*
X70612000Y-56064000D02*
X70612000Y-57621407D01*
X70612000Y-57621407D02*
X70495094Y-57738313D01*
X70495094Y-58340235D02*
X71210000Y-59055141D01*
X119277704Y-56565461D02*
X112764631Y-56565461D01*
X112764631Y-56565461D02*
X112395000Y-56195830D01*
X130175000Y-67462757D02*
X119277704Y-56565461D01*
X112395000Y-48524000D02*
X111424999Y-47553999D01*
X111424999Y-47553999D02*
X111125000Y-47254000D01*
X130175000Y-73025000D02*
X130175000Y-67462757D01*
X112395000Y-56195830D02*
X112395000Y-48524000D01*
D37*
X70612000Y-56064000D02*
X70612000Y-53999408D01*
X70612000Y-53999408D02*
X71245391Y-53366017D01*
X71245391Y-53366017D02*
X71245391Y-46322899D01*
X71245391Y-46322899D02*
X70976652Y-46054160D01*
X70976652Y-46054160D02*
X70676653Y-45754161D01*
X70612000Y-44323000D02*
X70612000Y-45689508D01*
X70612000Y-45689508D02*
X70676653Y-45754161D01*
D32*
X111125000Y-47254000D02*
X111125000Y-44875000D01*
D37*
X80711633Y-59269934D02*
X80711633Y-59183635D01*
X82042000Y-53340000D02*
X82042000Y-53052400D01*
X79793571Y-60187996D02*
X80711633Y-59269934D01*
X81407000Y-53975000D02*
X82042000Y-53340000D01*
X81407000Y-58488268D02*
X81407000Y-53975000D01*
X80711633Y-59183635D02*
X81407000Y-58488268D01*
X79710000Y-61400000D02*
X79793571Y-61316429D01*
X79793571Y-61316429D02*
X79793571Y-60187996D01*
X82042000Y-53052400D02*
X82042000Y-52000000D01*
D32*
X79756000Y-62738000D02*
X79756000Y-61446000D01*
X79756000Y-61446000D02*
X79710000Y-61400000D01*
X133985000Y-53848000D02*
X133985000Y-57940549D01*
X133985000Y-51125000D02*
X133985000Y-53848000D01*
X133985000Y-57940549D02*
X138675000Y-62630549D01*
X138675000Y-62630549D02*
X138675000Y-72121000D01*
X138675000Y-72121000D02*
X138675000Y-73025000D01*
X82042000Y-48387000D02*
X82042000Y-52000000D01*
X81114844Y-59350650D02*
X82042000Y-58423494D01*
X80210000Y-60341793D02*
X81114844Y-59436949D01*
X82042000Y-57218000D02*
X82042000Y-56064000D01*
X81114844Y-59436949D02*
X81114844Y-59350650D01*
X82042000Y-58423494D02*
X82042000Y-57218000D01*
X80210000Y-61400000D02*
X80210000Y-60341793D01*
X139175000Y-73025000D02*
X139175000Y-62443235D01*
X139175000Y-62443235D02*
X135235612Y-58503847D01*
X135235612Y-58503847D02*
X135235612Y-48504612D01*
X135235612Y-48504612D02*
X134284999Y-47553999D01*
X134284999Y-47553999D02*
X133985000Y-47254000D01*
D37*
X82373233Y-53613424D02*
X82673232Y-53313425D01*
X82042000Y-53944657D02*
X82373233Y-53613424D01*
X82042000Y-56064000D02*
X82042000Y-53944657D01*
X82673232Y-52889161D02*
X82673232Y-53313425D01*
X82042000Y-44323000D02*
X82042000Y-45375400D01*
X82683228Y-52879165D02*
X82673232Y-52889161D01*
X82042000Y-45375400D02*
X82683228Y-46016628D01*
X82683228Y-46016628D02*
X82683228Y-52879165D01*
D32*
X133985000Y-47254000D02*
X133985000Y-44875000D01*
X81210000Y-60496000D02*
X81210000Y-61400000D01*
X81210000Y-60482245D02*
X81210000Y-60496000D01*
X83312000Y-56064000D02*
X83312000Y-58293946D01*
X81921266Y-59770979D02*
X81210000Y-60482245D01*
X81921266Y-59684680D02*
X81921266Y-59770979D01*
X83312000Y-58293946D02*
X81921266Y-59684680D01*
X140175000Y-62051996D02*
X140175000Y-72121000D01*
X137781784Y-48510784D02*
X137781784Y-59658780D01*
X140175000Y-72121000D02*
X140175000Y-73025000D01*
X136652000Y-47381000D02*
X137781784Y-48510784D01*
X137781784Y-59658780D02*
X140175000Y-62051996D01*
D37*
X83312000Y-56064000D02*
X83312000Y-54524009D01*
X83312000Y-45375400D02*
X83938201Y-46001601D01*
X83312000Y-44323000D02*
X83312000Y-45375400D01*
X83938201Y-46001601D02*
X83938201Y-53316493D01*
X83938201Y-53316493D02*
X83924585Y-53330109D01*
X83312000Y-54524009D02*
X83924585Y-53911424D01*
X83924585Y-53911424D02*
X83924585Y-53754373D01*
X83924585Y-53754373D02*
X83924585Y-53330109D01*
D32*
X136525000Y-47254000D02*
X136652000Y-47381000D01*
X136525000Y-44875000D02*
X136525000Y-47254000D01*
X83312000Y-48387000D02*
X83312000Y-52000000D01*
X80772000Y-63881000D02*
X80710000Y-63819000D01*
X80710000Y-63819000D02*
X80710000Y-61400000D01*
D37*
X80710000Y-61400000D02*
X80710000Y-60412019D01*
X82685799Y-54651826D02*
X83312000Y-54025625D01*
X81518055Y-59603964D02*
X81518055Y-59517665D01*
X82685799Y-58349921D02*
X82685799Y-54651826D01*
X81518055Y-59517665D02*
X82685799Y-58349921D01*
X83312000Y-53052400D02*
X83312000Y-52000000D01*
X80710000Y-60412019D02*
X81518055Y-59603964D01*
X83312000Y-54025625D02*
X83312000Y-53052400D01*
D32*
X136525000Y-53848000D02*
X136525000Y-59044064D01*
X136525000Y-51125000D02*
X136525000Y-53848000D01*
X139675000Y-72121000D02*
X139675000Y-73025000D01*
X139675000Y-62194064D02*
X139675000Y-72121000D01*
X136525000Y-59044064D02*
X139675000Y-62194064D01*
X84582000Y-48387000D02*
X84582000Y-52000000D01*
X81788000Y-64516000D02*
X81788000Y-64091736D01*
X81788000Y-64091736D02*
X81710000Y-64013736D01*
X81710000Y-64013736D02*
X81710000Y-62304000D01*
X81710000Y-62304000D02*
X81710000Y-61400000D01*
D37*
X82324477Y-59851695D02*
X83955799Y-58220373D01*
X81710000Y-60552471D02*
X82324477Y-59937994D01*
X84582000Y-53052400D02*
X84582000Y-52000000D01*
X84582000Y-53752393D02*
X84582000Y-53052400D01*
X82324477Y-59937994D02*
X82324477Y-59851695D01*
X83955799Y-54378594D02*
X84582000Y-53752393D01*
X81710000Y-61400000D02*
X81710000Y-60552471D01*
X83955799Y-58220373D02*
X83955799Y-54378594D01*
D32*
X139065000Y-53848000D02*
X139065000Y-60299928D01*
X139065000Y-51125000D02*
X139065000Y-53848000D01*
X140675000Y-72121000D02*
X140675000Y-73025000D01*
X140675000Y-61909928D02*
X140675000Y-72121000D01*
X139065000Y-60299928D02*
X140675000Y-61909928D01*
D37*
X84582000Y-44323000D02*
X84582000Y-45375400D01*
X85214775Y-53124191D02*
X85209396Y-53129570D01*
X84582000Y-45375400D02*
X85214775Y-46008175D01*
X85214775Y-46008175D02*
X85214775Y-53124191D01*
X85209396Y-53129570D02*
X85209396Y-53553834D01*
D32*
X82210000Y-60622697D02*
X82210000Y-61400000D01*
X84582000Y-56064000D02*
X84582000Y-58164398D01*
X84582000Y-58164398D02*
X82727688Y-60018710D01*
X82727688Y-60105009D02*
X82210000Y-60622697D01*
X82727688Y-60018710D02*
X82727688Y-60105009D01*
D37*
X85209396Y-53978098D02*
X85209396Y-53553834D01*
X84582000Y-56064000D02*
X84582000Y-55011600D01*
X85209396Y-54384204D02*
X85209396Y-53978098D01*
X84582000Y-55011600D02*
X85209396Y-54384204D01*
D32*
X141175000Y-73025000D02*
X141175000Y-58805434D01*
X141175000Y-58805434D02*
X140335000Y-57965434D01*
X140335000Y-57965434D02*
X140335000Y-48611570D01*
X140335000Y-48611570D02*
X140374523Y-48572047D01*
X140374523Y-48572047D02*
X140374523Y-48549103D01*
X140374523Y-48549103D02*
X139065000Y-47239580D01*
X139065000Y-47239580D02*
X139065000Y-44875000D01*
X80772000Y-58553042D02*
X80308422Y-59016620D01*
X79210000Y-60632241D02*
X79210000Y-61400000D01*
X80772000Y-56064000D02*
X80772000Y-58553042D01*
X79390360Y-60020981D02*
X79390360Y-60451881D01*
X80308422Y-59102919D02*
X79390360Y-60020981D01*
X79390360Y-60451881D02*
X79210000Y-60632241D01*
X80308422Y-59016620D02*
X80308422Y-59102919D01*
X131445000Y-47254000D02*
X132715000Y-48524000D01*
X132715000Y-48524000D02*
X132715000Y-57314907D01*
X132715000Y-57314907D02*
X138175000Y-62774907D01*
X138175000Y-62774907D02*
X138175000Y-72121000D01*
X138175000Y-72121000D02*
X138175000Y-73025000D01*
D37*
X81398201Y-45499201D02*
X81399010Y-50292000D01*
X81399010Y-50292000D02*
X81398201Y-53485417D01*
X80772000Y-44323000D02*
X80772000Y-44873000D01*
X80772000Y-44873000D02*
X81398201Y-45499201D01*
X80772000Y-54111618D02*
X80772000Y-55011600D01*
X81398201Y-53485417D02*
X80772000Y-54111618D01*
X80772000Y-55011600D02*
X80772000Y-56064000D01*
D32*
X131445000Y-44875000D02*
X131445000Y-47254000D01*
D37*
X78710000Y-61400000D02*
X78710000Y-60562015D01*
X78987149Y-59853966D02*
X79905211Y-58935904D01*
X78710000Y-60562015D02*
X78987149Y-60284866D01*
X80772000Y-53052400D02*
X80772000Y-52000000D01*
X78987149Y-60284866D02*
X78987149Y-59853966D01*
X79905211Y-58935904D02*
X79905211Y-58849605D01*
X80772000Y-53213000D02*
X80772000Y-53052400D01*
X79905211Y-58849605D02*
X80145799Y-58609017D01*
X80145799Y-53839201D02*
X80772000Y-53213000D01*
X80145799Y-58609017D02*
X80145799Y-53839201D01*
D32*
X78740000Y-62738000D02*
X78740000Y-61430000D01*
X78740000Y-61430000D02*
X78710000Y-61400000D01*
X131445000Y-53848000D02*
X131445000Y-53504000D01*
X131445000Y-56686975D02*
X131445000Y-53848000D01*
X131445000Y-53504000D02*
X131445000Y-51125000D01*
X137675000Y-62916975D02*
X131445000Y-56686975D01*
X137675000Y-73025000D02*
X137675000Y-62916975D01*
X80772000Y-48387000D02*
X80772000Y-52000000D01*
X78210000Y-60496000D02*
X78210000Y-61400000D01*
X78583938Y-59686951D02*
X78583938Y-60117851D01*
X78210000Y-60491789D02*
X78210000Y-60496000D01*
X78583938Y-60117851D02*
X78210000Y-60491789D01*
X79502000Y-56064000D02*
X79502000Y-58768889D01*
X79502000Y-58768889D02*
X78583938Y-59686951D01*
X137175000Y-72121000D02*
X137175000Y-73025000D01*
X137175000Y-63059043D02*
X137175000Y-72121000D01*
X130175000Y-48524000D02*
X130175000Y-56059043D01*
X128905000Y-47254000D02*
X130175000Y-48524000D01*
X130175000Y-56059043D02*
X137175000Y-63059043D01*
D37*
X80129010Y-49703993D02*
X80128201Y-53358417D01*
D32*
X80128201Y-49657000D02*
X80128201Y-49703184D01*
X80128201Y-49703184D02*
X80129010Y-49703993D01*
D37*
X80128201Y-46001601D02*
X80128201Y-49657000D01*
X79502000Y-44323000D02*
X79502000Y-45375400D01*
X79502000Y-45375400D02*
X80128201Y-46001601D01*
X80128201Y-53358417D02*
X79502000Y-53984618D01*
X79502000Y-53984618D02*
X79502000Y-55011600D01*
X79502000Y-55011600D02*
X79502000Y-56064000D01*
D32*
X128905000Y-44875000D02*
X128905000Y-47254000D01*
X79502000Y-48387000D02*
X79502000Y-52000000D01*
D37*
X77710000Y-60421563D02*
X78180727Y-59950836D01*
X78180727Y-59950836D02*
X78180727Y-59176992D01*
X79502000Y-53467000D02*
X79502000Y-53052400D01*
X78867000Y-58490719D02*
X78867000Y-54102000D01*
X78867000Y-54102000D02*
X79502000Y-53467000D01*
X79502000Y-53052400D02*
X79502000Y-52000000D01*
X77710000Y-61400000D02*
X77710000Y-60421563D01*
X78180727Y-59176992D02*
X78867000Y-58490719D01*
D39*
X77724000Y-62241800D02*
X77724000Y-62738000D01*
X77710000Y-61400000D02*
X77710000Y-62227800D01*
X77710000Y-62227800D02*
X77724000Y-62241800D01*
D32*
X128905000Y-53848000D02*
X128905000Y-52750000D01*
X128905000Y-55437981D02*
X128905000Y-53848000D01*
X136675000Y-73025000D02*
X136675000Y-63207981D01*
X136675000Y-63207981D02*
X128905000Y-55437981D01*
X128905000Y-52750000D02*
X128905000Y-51125000D01*
X77777516Y-59783821D02*
X77210000Y-60351337D01*
X78232000Y-56064000D02*
X78232000Y-58555493D01*
X77210000Y-60496000D02*
X77210000Y-61400000D01*
X77777516Y-59009977D02*
X77777516Y-59783821D01*
X77210000Y-60351337D02*
X77210000Y-60496000D01*
X78232000Y-58555493D02*
X77777516Y-59009977D01*
D37*
X78558863Y-46455709D02*
X78858862Y-46755708D01*
X78858862Y-47179972D02*
X78858862Y-46755708D01*
X78232000Y-54238618D02*
X78858862Y-53611756D01*
X78232000Y-56064000D02*
X78232000Y-54238618D01*
X78232000Y-46128846D02*
X78558863Y-46455709D01*
X78858862Y-53611756D02*
X78858862Y-47179972D01*
X78232000Y-44323000D02*
X78232000Y-46128846D01*
D32*
X126365000Y-47254000D02*
X127635000Y-48524000D01*
X127635000Y-48524000D02*
X127635000Y-53721000D01*
X128085037Y-57667978D02*
X136175000Y-65757941D01*
X136175000Y-72121000D02*
X136175000Y-73025000D01*
X128085037Y-54171037D02*
X128085037Y-57667978D01*
X127635000Y-53721000D02*
X128085037Y-54171037D01*
X136175000Y-65757941D02*
X136175000Y-72121000D01*
X126365000Y-44875000D02*
X126365000Y-47254000D01*
X78232000Y-48387000D02*
X78232000Y-52000000D01*
D37*
X76710000Y-61400000D02*
X76710000Y-59944000D01*
X76710000Y-59944000D02*
X76710000Y-59507267D01*
D32*
X76700048Y-59934048D02*
X76710000Y-59944000D01*
X76700048Y-59520399D02*
X76700048Y-59934048D01*
D37*
X77605799Y-58611468D02*
X77605799Y-54358230D01*
X76710000Y-59507267D02*
X77605799Y-58611468D01*
X78232000Y-53052400D02*
X78232000Y-52000000D01*
X77605799Y-54358230D02*
X78232000Y-53732029D01*
X78232000Y-53732029D02*
X78232000Y-53052400D01*
D32*
X135675000Y-73025000D02*
X135675000Y-65900009D01*
X135675000Y-65900009D02*
X126365000Y-56590009D01*
X126365000Y-54272264D02*
X126365000Y-53848000D01*
X126365000Y-56590009D02*
X126365000Y-54272264D01*
X126365000Y-51125000D02*
X126365000Y-53848000D01*
X76073047Y-60359047D02*
X76210000Y-60496000D01*
X76210000Y-60496000D02*
X76210000Y-61400000D01*
X76962000Y-58330485D02*
X76073047Y-59219438D01*
X76962000Y-56064000D02*
X76962000Y-58330485D01*
X76073047Y-59219438D02*
X76073047Y-60359047D01*
X135175000Y-72121000D02*
X135175000Y-73025000D01*
X123825000Y-47364525D02*
X125095000Y-48634525D01*
X125095000Y-48634525D02*
X125095000Y-55962077D01*
X135175000Y-66042077D02*
X135175000Y-72121000D01*
X125095000Y-55962077D02*
X135175000Y-66042077D01*
D37*
X77588201Y-46001601D02*
X77588201Y-46674020D01*
X77588201Y-46674020D02*
X77588201Y-53612417D01*
D32*
X123825000Y-44875000D02*
X123825000Y-47364525D01*
D37*
X77588201Y-53612417D02*
X76962000Y-54238618D01*
X76962000Y-54238618D02*
X76962000Y-56064000D01*
X76962000Y-44323000D02*
X76962000Y-45375400D01*
X76962000Y-45375400D02*
X77588201Y-46001601D01*
D32*
X76962000Y-48387000D02*
X76962000Y-52000000D01*
D37*
X75669836Y-60557436D02*
X75669836Y-58709698D01*
X76095386Y-57859884D02*
X76095386Y-58284148D01*
X76962000Y-53463020D02*
X76335799Y-54089221D01*
X76335799Y-57619471D02*
X76095386Y-57859884D01*
X76962000Y-52000000D02*
X76962000Y-53463020D01*
X76335799Y-54089221D02*
X76335799Y-57619471D01*
X75669836Y-58709698D02*
X75795387Y-58584147D01*
X75710000Y-61400000D02*
X75710000Y-60597600D01*
X75795387Y-58584147D02*
X76095386Y-58284148D01*
X75710000Y-60597600D02*
X75669836Y-60557436D01*
D32*
X134675000Y-66184145D02*
X123825000Y-55334145D01*
X134675000Y-73025000D02*
X134675000Y-66184145D01*
X123825000Y-54291127D02*
X123825000Y-53866863D01*
X123825000Y-55334145D02*
X123825000Y-54291127D01*
X123825000Y-53866863D02*
X123825000Y-53504000D01*
X123825000Y-53504000D02*
X123825000Y-51125000D01*
X75210000Y-60496000D02*
X75210000Y-61400000D01*
X75515113Y-58046582D02*
X75210000Y-58351695D01*
X75692000Y-57218000D02*
X75515113Y-57394887D01*
X75210000Y-58351695D02*
X75210000Y-60496000D01*
X75515113Y-57394887D02*
X75515113Y-58046582D01*
X75692000Y-56064000D02*
X75692000Y-57218000D01*
X122555000Y-54706213D02*
X134175000Y-66326213D01*
X134175000Y-72121000D02*
X134175000Y-73025000D01*
X134175000Y-66326213D02*
X134175000Y-72121000D01*
X122555000Y-48524000D02*
X122555000Y-54706213D01*
X121285000Y-47254000D02*
X122555000Y-48524000D01*
D37*
X75692000Y-45375400D02*
X76318201Y-46220010D01*
X76318201Y-46220010D02*
X76318201Y-46001601D01*
X75692000Y-44323000D02*
X75692000Y-45375400D01*
X75692000Y-55011600D02*
X75692000Y-56064000D01*
X76318201Y-46001601D02*
X76318201Y-53608437D01*
X76318201Y-53608437D02*
X75692000Y-54234638D01*
X75692000Y-54234638D02*
X75692000Y-55011600D01*
D32*
X121285000Y-44875000D02*
X121285000Y-47254000D01*
X75692000Y-48387000D02*
X75692000Y-52000000D01*
D37*
X74710000Y-61400000D02*
X74710000Y-57923733D01*
X74710000Y-57923733D02*
X74888112Y-57745621D01*
X75692000Y-53052400D02*
X75065799Y-53678601D01*
X75065799Y-57143670D02*
X74888112Y-57321357D01*
X74888112Y-57321357D02*
X74888112Y-57745621D01*
X75692000Y-52000000D02*
X75692000Y-53052400D01*
X75065799Y-53678601D02*
X75065799Y-57143670D01*
D32*
X121285000Y-53630135D02*
X121285000Y-54078281D01*
X133675000Y-66468281D02*
X133675000Y-72121000D01*
X121285000Y-54078281D02*
X133675000Y-66468281D01*
X133675000Y-72121000D02*
X133675000Y-73025000D01*
X121285000Y-51125000D02*
X121285000Y-53630135D01*
X62992000Y-57531000D02*
X62992000Y-56064000D01*
D38*
X62992000Y-50800000D02*
X62992000Y-52000000D01*
D32*
X64262000Y-57531000D02*
X64262000Y-56064000D01*
D38*
X64262000Y-50800000D02*
X64262000Y-52000000D01*
D31*
X148206460Y-62524640D02*
X147398349Y-62524640D01*
X147398349Y-62524640D02*
X143256000Y-66666989D01*
X143256000Y-66666989D02*
X143256000Y-70739000D01*
D32*
X142675000Y-73025000D02*
X142675000Y-72121000D01*
X143256000Y-71540000D02*
X143256000Y-70739000D01*
X142675000Y-72121000D02*
X143256000Y-71540000D01*
D31*
X149161500Y-64734440D02*
X149161500Y-65379600D01*
X149161500Y-65379600D02*
X148079460Y-66461640D01*
D33*
X100330000Y-62230000D02*
X102743000Y-62230000D01*
X102743000Y-62230000D02*
X103505000Y-62992000D01*
D32*
X111760000Y-70739000D02*
X111122137Y-71376863D01*
X111122137Y-71376863D02*
X96796684Y-71376863D01*
X96796684Y-71376863D02*
X95885000Y-72288547D01*
X95885000Y-72288547D02*
X95885000Y-73660000D01*
X111760000Y-70739000D02*
X111760000Y-72517000D01*
D33*
X99695000Y-73660000D02*
X99695000Y-75232816D01*
X99695000Y-75232816D02*
X100203000Y-75740816D01*
X100203000Y-75740816D02*
X100203000Y-76835000D01*
D32*
G36*
X89289000Y-61735132D02*
X89289000Y-68694978D01*
X89192569Y-68836110D01*
X89141560Y-69088000D01*
X89141560Y-70612000D01*
X89185838Y-70847317D01*
X89324910Y-71063441D01*
X89535000Y-71206989D01*
X89535000Y-71500687D01*
X89446569Y-71630110D01*
X89395560Y-71882000D01*
X89395560Y-72898000D01*
X89439838Y-73133317D01*
X89578910Y-73349441D01*
X89641062Y-73391908D01*
X89533519Y-73461110D01*
X89388529Y-73673310D01*
X89337520Y-73925200D01*
X89337520Y-75325200D01*
X89381798Y-75560517D01*
X89520870Y-75776641D01*
X89733070Y-75921631D01*
X89984960Y-75972640D01*
X90325439Y-75972640D01*
X90292560Y-76135000D01*
X90292560Y-77535000D01*
X90336838Y-77770317D01*
X90475910Y-77986441D01*
X90688110Y-78131431D01*
X90940000Y-78182440D01*
X91940000Y-78182440D01*
X92175317Y-78138162D01*
X92391441Y-77999090D01*
X92536431Y-77786890D01*
X92549167Y-77724000D01*
X93978582Y-77724000D01*
X94023910Y-77794441D01*
X94236110Y-77939431D01*
X94488000Y-77990440D01*
X95504000Y-77990440D01*
X95739317Y-77946162D01*
X95885907Y-77851834D01*
X96014110Y-77939431D01*
X96266000Y-77990440D01*
X97282000Y-77990440D01*
X97517317Y-77946162D01*
X97536000Y-77934140D01*
X97536000Y-78105000D01*
X97603671Y-78445206D01*
X97754182Y-78670461D01*
X97796382Y-78733618D01*
X98177382Y-79114618D01*
X98362036Y-79238000D01*
X63801382Y-79238000D01*
X64130055Y-78909900D01*
X64380714Y-78306247D01*
X64381284Y-77652621D01*
X64148712Y-77089750D01*
X67715000Y-77089750D01*
X67715000Y-78530310D01*
X67811673Y-78763699D01*
X67990302Y-78942327D01*
X68223691Y-79039000D01*
X69314250Y-79039000D01*
X69473000Y-78880250D01*
X69473000Y-76931000D01*
X69727000Y-76931000D01*
X69727000Y-78880250D01*
X69885750Y-79039000D01*
X70976309Y-79039000D01*
X71209698Y-78942327D01*
X71388327Y-78763699D01*
X71485000Y-78530310D01*
X71485000Y-77089750D01*
X74515000Y-77089750D01*
X74515000Y-78530310D01*
X74611673Y-78763699D01*
X74790302Y-78942327D01*
X75023691Y-79039000D01*
X76114250Y-79039000D01*
X76273000Y-78880250D01*
X76273000Y-76931000D01*
X76527000Y-76931000D01*
X76527000Y-78880250D01*
X76685750Y-79039000D01*
X77776309Y-79039000D01*
X78009698Y-78942327D01*
X78188327Y-78763699D01*
X78285000Y-78530310D01*
X78285000Y-77089750D01*
X78126250Y-76931000D01*
X76527000Y-76931000D01*
X76273000Y-76931000D01*
X74673750Y-76931000D01*
X74515000Y-77089750D01*
X71485000Y-77089750D01*
X71326250Y-76931000D01*
X69727000Y-76931000D01*
X69473000Y-76931000D01*
X67873750Y-76931000D01*
X67715000Y-77089750D01*
X64148712Y-77089750D01*
X64131680Y-77048531D01*
X63669900Y-76585945D01*
X63066247Y-76335286D01*
X62412621Y-76334716D01*
X61808531Y-76584320D01*
X61345945Y-77046100D01*
X61095286Y-77649753D01*
X61094716Y-78303379D01*
X61344320Y-78907469D01*
X61674275Y-79238000D01*
X60762000Y-79238000D01*
X60762000Y-75077690D01*
X67715000Y-75077690D01*
X67715000Y-76518250D01*
X67873750Y-76677000D01*
X69473000Y-76677000D01*
X69473000Y-74727750D01*
X69314250Y-74569000D01*
X68223691Y-74569000D01*
X67990302Y-74665673D01*
X67811673Y-74844301D01*
X67715000Y-75077690D01*
X60762000Y-75077690D01*
X60762000Y-65043339D01*
X60895910Y-65251441D01*
X61108110Y-65396431D01*
X61360000Y-65447440D01*
X63760000Y-65447440D01*
X63948000Y-65412065D01*
X63948000Y-68121458D01*
X63835162Y-68393201D01*
X63834838Y-68765167D01*
X63976883Y-69108943D01*
X64239673Y-69372192D01*
X64583201Y-69514838D01*
X64955167Y-69515162D01*
X65298943Y-69373117D01*
X65562192Y-69110327D01*
X65679420Y-68828012D01*
X66478223Y-69626816D01*
X66626415Y-69725834D01*
X66725433Y-69791996D01*
X67017038Y-69850000D01*
X69026370Y-69850000D01*
X69215000Y-70038631D01*
X69215000Y-70302481D01*
X69038338Y-70566873D01*
X68961000Y-70955679D01*
X68961000Y-72808321D01*
X69038338Y-73197127D01*
X69250834Y-73515148D01*
X69273004Y-73626605D01*
X69354790Y-73749006D01*
X69438185Y-73873815D01*
X70133369Y-74569000D01*
X69885750Y-74569000D01*
X69727000Y-74727750D01*
X69727000Y-76677000D01*
X71326250Y-76677000D01*
X71485000Y-76518250D01*
X71485000Y-75978152D01*
X71600000Y-76001440D01*
X71900000Y-76001440D01*
X72003671Y-75981933D01*
X72100000Y-76001440D01*
X72400000Y-76001440D01*
X72503671Y-75981933D01*
X72600000Y-76001440D01*
X72900000Y-76001440D01*
X72971324Y-75988019D01*
X72973691Y-75989000D01*
X73016250Y-75989000D01*
X73027871Y-75977379D01*
X73135317Y-75957162D01*
X73249978Y-75883380D01*
X73348110Y-75950431D01*
X73469830Y-75975080D01*
X73483750Y-75989000D01*
X73526309Y-75989000D01*
X73530335Y-75987332D01*
X73600000Y-76001440D01*
X73900000Y-76001440D01*
X74003671Y-75981933D01*
X74100000Y-76001440D01*
X74400000Y-76001440D01*
X74515000Y-75979801D01*
X74515000Y-76518250D01*
X74673750Y-76677000D01*
X76273000Y-76677000D01*
X76273000Y-74727750D01*
X76527000Y-74727750D01*
X76527000Y-76677000D01*
X78126250Y-76677000D01*
X78285000Y-76518250D01*
X78285000Y-75077690D01*
X78188327Y-74844301D01*
X78009698Y-74665673D01*
X77776309Y-74569000D01*
X76685750Y-74569000D01*
X76527000Y-74727750D01*
X76273000Y-74727750D01*
X76114250Y-74569000D01*
X75866630Y-74569000D01*
X76681904Y-73753726D01*
X76715806Y-73746983D01*
X77045420Y-73526741D01*
X77265662Y-73197127D01*
X77343000Y-72808321D01*
X77343000Y-70955679D01*
X77265662Y-70566873D01*
X77089000Y-70302481D01*
X77089000Y-69140466D01*
X77119192Y-69110327D01*
X77261838Y-68766799D01*
X77262162Y-68394833D01*
X77120117Y-68051057D01*
X76857327Y-67787808D01*
X76853865Y-67786371D01*
X77203236Y-67437000D01*
X82550000Y-67437000D01*
X82890206Y-67369329D01*
X83178618Y-67176618D01*
X83838618Y-66516618D01*
X83905434Y-66416621D01*
X84031329Y-66228206D01*
X84099000Y-65888000D01*
X84099000Y-63475000D01*
X84031329Y-63134794D01*
X83972000Y-63046002D01*
X83972000Y-62680572D01*
X83981753Y-62676532D01*
X84085000Y-62697440D01*
X84335000Y-62697440D01*
X84512560Y-62664030D01*
X84512560Y-64800000D01*
X84556838Y-65035317D01*
X84695910Y-65251441D01*
X84908110Y-65396431D01*
X85160000Y-65447440D01*
X87560000Y-65447440D01*
X87795317Y-65403162D01*
X88011441Y-65264090D01*
X88156431Y-65051890D01*
X88207440Y-64800000D01*
X88207440Y-62200000D01*
X88163162Y-61964683D01*
X88024090Y-61748559D01*
X87811890Y-61603569D01*
X87560000Y-61552560D01*
X85160000Y-61552560D01*
X84982440Y-61585970D01*
X84982440Y-61180190D01*
X84995468Y-61167163D01*
X85100205Y-61146329D01*
X85388618Y-60953618D01*
X86948052Y-59394184D01*
X89289000Y-61735132D01*
X89289000Y-61735132D01*
G37*
X89289000Y-61735132D02*
X89289000Y-68694978D01*
X89192569Y-68836110D01*
X89141560Y-69088000D01*
X89141560Y-70612000D01*
X89185838Y-70847317D01*
X89324910Y-71063441D01*
X89535000Y-71206989D01*
X89535000Y-71500687D01*
X89446569Y-71630110D01*
X89395560Y-71882000D01*
X89395560Y-72898000D01*
X89439838Y-73133317D01*
X89578910Y-73349441D01*
X89641062Y-73391908D01*
X89533519Y-73461110D01*
X89388529Y-73673310D01*
X89337520Y-73925200D01*
X89337520Y-75325200D01*
X89381798Y-75560517D01*
X89520870Y-75776641D01*
X89733070Y-75921631D01*
X89984960Y-75972640D01*
X90325439Y-75972640D01*
X90292560Y-76135000D01*
X90292560Y-77535000D01*
X90336838Y-77770317D01*
X90475910Y-77986441D01*
X90688110Y-78131431D01*
X90940000Y-78182440D01*
X91940000Y-78182440D01*
X92175317Y-78138162D01*
X92391441Y-77999090D01*
X92536431Y-77786890D01*
X92549167Y-77724000D01*
X93978582Y-77724000D01*
X94023910Y-77794441D01*
X94236110Y-77939431D01*
X94488000Y-77990440D01*
X95504000Y-77990440D01*
X95739317Y-77946162D01*
X95885907Y-77851834D01*
X96014110Y-77939431D01*
X96266000Y-77990440D01*
X97282000Y-77990440D01*
X97517317Y-77946162D01*
X97536000Y-77934140D01*
X97536000Y-78105000D01*
X97603671Y-78445206D01*
X97754182Y-78670461D01*
X97796382Y-78733618D01*
X98177382Y-79114618D01*
X98362036Y-79238000D01*
X63801382Y-79238000D01*
X64130055Y-78909900D01*
X64380714Y-78306247D01*
X64381284Y-77652621D01*
X64148712Y-77089750D01*
X67715000Y-77089750D01*
X67715000Y-78530310D01*
X67811673Y-78763699D01*
X67990302Y-78942327D01*
X68223691Y-79039000D01*
X69314250Y-79039000D01*
X69473000Y-78880250D01*
X69473000Y-76931000D01*
X69727000Y-76931000D01*
X69727000Y-78880250D01*
X69885750Y-79039000D01*
X70976309Y-79039000D01*
X71209698Y-78942327D01*
X71388327Y-78763699D01*
X71485000Y-78530310D01*
X71485000Y-77089750D01*
X74515000Y-77089750D01*
X74515000Y-78530310D01*
X74611673Y-78763699D01*
X74790302Y-78942327D01*
X75023691Y-79039000D01*
X76114250Y-79039000D01*
X76273000Y-78880250D01*
X76273000Y-76931000D01*
X76527000Y-76931000D01*
X76527000Y-78880250D01*
X76685750Y-79039000D01*
X77776309Y-79039000D01*
X78009698Y-78942327D01*
X78188327Y-78763699D01*
X78285000Y-78530310D01*
X78285000Y-77089750D01*
X78126250Y-76931000D01*
X76527000Y-76931000D01*
X76273000Y-76931000D01*
X74673750Y-76931000D01*
X74515000Y-77089750D01*
X71485000Y-77089750D01*
X71326250Y-76931000D01*
X69727000Y-76931000D01*
X69473000Y-76931000D01*
X67873750Y-76931000D01*
X67715000Y-77089750D01*
X64148712Y-77089750D01*
X64131680Y-77048531D01*
X63669900Y-76585945D01*
X63066247Y-76335286D01*
X62412621Y-76334716D01*
X61808531Y-76584320D01*
X61345945Y-77046100D01*
X61095286Y-77649753D01*
X61094716Y-78303379D01*
X61344320Y-78907469D01*
X61674275Y-79238000D01*
X60762000Y-79238000D01*
X60762000Y-75077690D01*
X67715000Y-75077690D01*
X67715000Y-76518250D01*
X67873750Y-76677000D01*
X69473000Y-76677000D01*
X69473000Y-74727750D01*
X69314250Y-74569000D01*
X68223691Y-74569000D01*
X67990302Y-74665673D01*
X67811673Y-74844301D01*
X67715000Y-75077690D01*
X60762000Y-75077690D01*
X60762000Y-65043339D01*
X60895910Y-65251441D01*
X61108110Y-65396431D01*
X61360000Y-65447440D01*
X63760000Y-65447440D01*
X63948000Y-65412065D01*
X63948000Y-68121458D01*
X63835162Y-68393201D01*
X63834838Y-68765167D01*
X63976883Y-69108943D01*
X64239673Y-69372192D01*
X64583201Y-69514838D01*
X64955167Y-69515162D01*
X65298943Y-69373117D01*
X65562192Y-69110327D01*
X65679420Y-68828012D01*
X66478223Y-69626816D01*
X66626415Y-69725834D01*
X66725433Y-69791996D01*
X67017038Y-69850000D01*
X69026370Y-69850000D01*
X69215000Y-70038631D01*
X69215000Y-70302481D01*
X69038338Y-70566873D01*
X68961000Y-70955679D01*
X68961000Y-72808321D01*
X69038338Y-73197127D01*
X69250834Y-73515148D01*
X69273004Y-73626605D01*
X69354790Y-73749006D01*
X69438185Y-73873815D01*
X70133369Y-74569000D01*
X69885750Y-74569000D01*
X69727000Y-74727750D01*
X69727000Y-76677000D01*
X71326250Y-76677000D01*
X71485000Y-76518250D01*
X71485000Y-75978152D01*
X71600000Y-76001440D01*
X71900000Y-76001440D01*
X72003671Y-75981933D01*
X72100000Y-76001440D01*
X72400000Y-76001440D01*
X72503671Y-75981933D01*
X72600000Y-76001440D01*
X72900000Y-76001440D01*
X72971324Y-75988019D01*
X72973691Y-75989000D01*
X73016250Y-75989000D01*
X73027871Y-75977379D01*
X73135317Y-75957162D01*
X73249978Y-75883380D01*
X73348110Y-75950431D01*
X73469830Y-75975080D01*
X73483750Y-75989000D01*
X73526309Y-75989000D01*
X73530335Y-75987332D01*
X73600000Y-76001440D01*
X73900000Y-76001440D01*
X74003671Y-75981933D01*
X74100000Y-76001440D01*
X74400000Y-76001440D01*
X74515000Y-75979801D01*
X74515000Y-76518250D01*
X74673750Y-76677000D01*
X76273000Y-76677000D01*
X76273000Y-74727750D01*
X76527000Y-74727750D01*
X76527000Y-76677000D01*
X78126250Y-76677000D01*
X78285000Y-76518250D01*
X78285000Y-75077690D01*
X78188327Y-74844301D01*
X78009698Y-74665673D01*
X77776309Y-74569000D01*
X76685750Y-74569000D01*
X76527000Y-74727750D01*
X76273000Y-74727750D01*
X76114250Y-74569000D01*
X75866630Y-74569000D01*
X76681904Y-73753726D01*
X76715806Y-73746983D01*
X77045420Y-73526741D01*
X77265662Y-73197127D01*
X77343000Y-72808321D01*
X77343000Y-70955679D01*
X77265662Y-70566873D01*
X77089000Y-70302481D01*
X77089000Y-69140466D01*
X77119192Y-69110327D01*
X77261838Y-68766799D01*
X77262162Y-68394833D01*
X77120117Y-68051057D01*
X76857327Y-67787808D01*
X76853865Y-67786371D01*
X77203236Y-67437000D01*
X82550000Y-67437000D01*
X82890206Y-67369329D01*
X83178618Y-67176618D01*
X83838618Y-66516618D01*
X83905434Y-66416621D01*
X84031329Y-66228206D01*
X84099000Y-65888000D01*
X84099000Y-63475000D01*
X84031329Y-63134794D01*
X83972000Y-63046002D01*
X83972000Y-62680572D01*
X83981753Y-62676532D01*
X84085000Y-62697440D01*
X84335000Y-62697440D01*
X84512560Y-62664030D01*
X84512560Y-64800000D01*
X84556838Y-65035317D01*
X84695910Y-65251441D01*
X84908110Y-65396431D01*
X85160000Y-65447440D01*
X87560000Y-65447440D01*
X87795317Y-65403162D01*
X88011441Y-65264090D01*
X88156431Y-65051890D01*
X88207440Y-64800000D01*
X88207440Y-62200000D01*
X88163162Y-61964683D01*
X88024090Y-61748559D01*
X87811890Y-61603569D01*
X87560000Y-61552560D01*
X85160000Y-61552560D01*
X84982440Y-61585970D01*
X84982440Y-61180190D01*
X84995468Y-61167163D01*
X85100205Y-61146329D01*
X85388618Y-60953618D01*
X86948052Y-59394184D01*
X89289000Y-61735132D01*
G36*
X122112865Y-70119506D02*
X122112828Y-70162167D01*
X122254873Y-70505943D01*
X122517663Y-70769192D01*
X122861191Y-70911838D01*
X122913000Y-70911883D01*
X122913000Y-72323446D01*
X122902560Y-72375000D01*
X122902560Y-73211229D01*
X122851309Y-73190000D01*
X121810750Y-73190000D01*
X121652000Y-73348750D01*
X121652000Y-74998000D01*
X123201250Y-74998000D01*
X123360000Y-74839250D01*
X123360000Y-74283964D01*
X123550000Y-74322440D01*
X123800000Y-74322440D01*
X123929589Y-74298056D01*
X124050000Y-74322440D01*
X124300000Y-74322440D01*
X124429589Y-74298056D01*
X124550000Y-74322440D01*
X124800000Y-74322440D01*
X124929589Y-74298056D01*
X125050000Y-74322440D01*
X125300000Y-74322440D01*
X125405705Y-74302550D01*
X125423691Y-74310000D01*
X125453750Y-74310000D01*
X125474062Y-74289688D01*
X125535317Y-74278162D01*
X125675727Y-74187810D01*
X125798110Y-74271431D01*
X125872808Y-74286558D01*
X125896250Y-74310000D01*
X125926309Y-74310000D01*
X125946753Y-74301532D01*
X126050000Y-74322440D01*
X126300000Y-74322440D01*
X126429589Y-74298056D01*
X126550000Y-74322440D01*
X126800000Y-74322440D01*
X126929589Y-74298056D01*
X127050000Y-74322440D01*
X127300000Y-74322440D01*
X127429589Y-74298056D01*
X127550000Y-74322440D01*
X127800000Y-74322440D01*
X127929589Y-74298056D01*
X128050000Y-74322440D01*
X128300000Y-74322440D01*
X128429589Y-74298056D01*
X128550000Y-74322440D01*
X128800000Y-74322440D01*
X128905705Y-74302550D01*
X128923691Y-74310000D01*
X128953750Y-74310000D01*
X128974062Y-74289688D01*
X129035317Y-74278162D01*
X129175727Y-74187810D01*
X129298110Y-74271431D01*
X129372808Y-74286558D01*
X129396250Y-74310000D01*
X129426309Y-74310000D01*
X129446753Y-74301532D01*
X129550000Y-74322440D01*
X129800000Y-74322440D01*
X129929589Y-74298056D01*
X130050000Y-74322440D01*
X130300000Y-74322440D01*
X130429589Y-74298056D01*
X130550000Y-74322440D01*
X130800000Y-74322440D01*
X130929589Y-74298056D01*
X131050000Y-74322440D01*
X131300000Y-74322440D01*
X131429589Y-74298056D01*
X131550000Y-74322440D01*
X131800000Y-74322440D01*
X131929589Y-74298056D01*
X132050000Y-74322440D01*
X132300000Y-74322440D01*
X132429589Y-74298056D01*
X132550000Y-74322440D01*
X132800000Y-74322440D01*
X132929589Y-74298056D01*
X133050000Y-74322440D01*
X133300000Y-74322440D01*
X133429589Y-74298056D01*
X133550000Y-74322440D01*
X133800000Y-74322440D01*
X133929589Y-74298056D01*
X134050000Y-74322440D01*
X134300000Y-74322440D01*
X134429589Y-74298056D01*
X134550000Y-74322440D01*
X134800000Y-74322440D01*
X134929589Y-74298056D01*
X135050000Y-74322440D01*
X135300000Y-74322440D01*
X135429589Y-74298056D01*
X135550000Y-74322440D01*
X135800000Y-74322440D01*
X135929589Y-74298056D01*
X136050000Y-74322440D01*
X136300000Y-74322440D01*
X136429589Y-74298056D01*
X136550000Y-74322440D01*
X136800000Y-74322440D01*
X136929589Y-74298056D01*
X137050000Y-74322440D01*
X137300000Y-74322440D01*
X137429589Y-74298056D01*
X137550000Y-74322440D01*
X137800000Y-74322440D01*
X137929589Y-74298056D01*
X138050000Y-74322440D01*
X138300000Y-74322440D01*
X138429589Y-74298056D01*
X138550000Y-74322440D01*
X138800000Y-74322440D01*
X138929589Y-74298056D01*
X139050000Y-74322440D01*
X139300000Y-74322440D01*
X139429589Y-74298056D01*
X139550000Y-74322440D01*
X139800000Y-74322440D01*
X139929589Y-74298056D01*
X140050000Y-74322440D01*
X140300000Y-74322440D01*
X140429589Y-74298056D01*
X140550000Y-74322440D01*
X140800000Y-74322440D01*
X140929589Y-74298056D01*
X141050000Y-74322440D01*
X141300000Y-74322440D01*
X141429589Y-74298056D01*
X141550000Y-74322440D01*
X141800000Y-74322440D01*
X141905705Y-74302550D01*
X141923691Y-74310000D01*
X141953750Y-74310000D01*
X141974062Y-74289688D01*
X142035317Y-74278162D01*
X142175727Y-74187810D01*
X142298110Y-74271431D01*
X142372808Y-74286558D01*
X142396250Y-74310000D01*
X142426309Y-74310000D01*
X142446753Y-74301532D01*
X142550000Y-74322440D01*
X142800000Y-74322440D01*
X142905705Y-74302550D01*
X142923691Y-74310000D01*
X142953750Y-74310000D01*
X142974062Y-74289688D01*
X143035317Y-74278162D01*
X143237500Y-74148061D01*
X143237500Y-74151250D01*
X143396250Y-74310000D01*
X143426309Y-74310000D01*
X143490000Y-74283618D01*
X143490000Y-74839250D01*
X143648750Y-74998000D01*
X145198000Y-74998000D01*
X145198000Y-74978000D01*
X145452000Y-74978000D01*
X145452000Y-74998000D01*
X145472000Y-74998000D01*
X145472000Y-75252000D01*
X145452000Y-75252000D01*
X145452000Y-76901250D01*
X145507455Y-76956705D01*
X144179150Y-78285010D01*
X118804347Y-78285010D01*
X118860000Y-78097000D01*
X118860000Y-77597000D01*
X117602000Y-77597000D01*
X117602000Y-77617000D01*
X117348000Y-77617000D01*
X117348000Y-77597000D01*
X117328000Y-77597000D01*
X117328000Y-77343000D01*
X117348000Y-77343000D01*
X117348000Y-75750344D01*
X117602000Y-75750344D01*
X117602000Y-77343000D01*
X118860000Y-77343000D01*
X118860000Y-76843000D01*
X118705972Y-76322651D01*
X118364540Y-75900855D01*
X117887684Y-75641827D01*
X117816185Y-75627682D01*
X117602000Y-75750344D01*
X117348000Y-75750344D01*
X117133815Y-75627682D01*
X117062316Y-75641827D01*
X116585460Y-75900855D01*
X116331437Y-76214668D01*
X116288162Y-75984683D01*
X116149090Y-75768559D01*
X115936890Y-75623569D01*
X115685000Y-75572560D01*
X114185000Y-75572560D01*
X113949683Y-75616838D01*
X113733559Y-75755910D01*
X113588569Y-75968110D01*
X113537560Y-76220000D01*
X113537560Y-76454000D01*
X112776000Y-76454000D01*
X112776000Y-75410750D01*
X119690000Y-75410750D01*
X119690000Y-76551310D01*
X119786673Y-76784699D01*
X119965302Y-76963327D01*
X120198691Y-77060000D01*
X121239250Y-77060000D01*
X121398000Y-76901250D01*
X121398000Y-75252000D01*
X121652000Y-75252000D01*
X121652000Y-76901250D01*
X121810750Y-77060000D01*
X122851309Y-77060000D01*
X123084698Y-76963327D01*
X123263327Y-76784699D01*
X123360000Y-76551310D01*
X123360000Y-75410750D01*
X143490000Y-75410750D01*
X143490000Y-76551310D01*
X143586673Y-76784699D01*
X143765302Y-76963327D01*
X143998691Y-77060000D01*
X145039250Y-77060000D01*
X145198000Y-76901250D01*
X145198000Y-75252000D01*
X143648750Y-75252000D01*
X143490000Y-75410750D01*
X123360000Y-75410750D01*
X123201250Y-75252000D01*
X121652000Y-75252000D01*
X121398000Y-75252000D01*
X119848750Y-75252000D01*
X119690000Y-75410750D01*
X112776000Y-75410750D01*
X112776000Y-75184313D01*
X112864431Y-75054890D01*
X112915440Y-74803000D01*
X112915440Y-73787000D01*
X112898824Y-73698690D01*
X119690000Y-73698690D01*
X119690000Y-74839250D01*
X119848750Y-74998000D01*
X121398000Y-74998000D01*
X121398000Y-73348750D01*
X121239250Y-73190000D01*
X120198691Y-73190000D01*
X119965302Y-73286673D01*
X119786673Y-73465301D01*
X119690000Y-73698690D01*
X112898824Y-73698690D01*
X112871162Y-73551683D01*
X112776834Y-73405093D01*
X112864431Y-73276890D01*
X112915440Y-73025000D01*
X112915440Y-72009000D01*
X112871162Y-71773683D01*
X112776834Y-71627093D01*
X112864431Y-71498890D01*
X112915440Y-71247000D01*
X112915440Y-70231000D01*
X112871162Y-69995683D01*
X112780396Y-69854629D01*
X112806327Y-69828698D01*
X112903000Y-69595309D01*
X112903000Y-69246750D01*
X112744250Y-69088000D01*
X111887000Y-69088000D01*
X111887000Y-69108000D01*
X111633000Y-69108000D01*
X111633000Y-69088000D01*
X110775750Y-69088000D01*
X110617000Y-69246750D01*
X110617000Y-69595309D01*
X110713673Y-69828698D01*
X110740209Y-69855235D01*
X110655569Y-69979110D01*
X110604560Y-70231000D01*
X110604560Y-70614863D01*
X109650493Y-70614863D01*
X109796996Y-70395605D01*
X109801219Y-70374375D01*
X109855000Y-70104000D01*
X109855000Y-68326691D01*
X110617000Y-68326691D01*
X110617000Y-68675250D01*
X110775750Y-68834000D01*
X111633000Y-68834000D01*
X111633000Y-67976750D01*
X111887000Y-67976750D01*
X111887000Y-68834000D01*
X112744250Y-68834000D01*
X112903000Y-68675250D01*
X112903000Y-68326691D01*
X112806327Y-68093302D01*
X112627699Y-67914673D01*
X112394310Y-67818000D01*
X112045750Y-67818000D01*
X111887000Y-67976750D01*
X111633000Y-67976750D01*
X111474250Y-67818000D01*
X111125690Y-67818000D01*
X110892301Y-67914673D01*
X110713673Y-68093302D01*
X110617000Y-68326691D01*
X109855000Y-68326691D01*
X109855000Y-64979780D01*
X109796996Y-64688175D01*
X109631815Y-64440965D01*
X108715363Y-63524513D01*
X108723851Y-63512090D01*
X108774860Y-63260200D01*
X108774860Y-61860200D01*
X108730582Y-61624883D01*
X108594596Y-61413555D01*
X113406915Y-61413555D01*
X122112865Y-70119506D01*
X122112865Y-70119506D01*
G37*
X122112865Y-70119506D02*
X122112828Y-70162167D01*
X122254873Y-70505943D01*
X122517663Y-70769192D01*
X122861191Y-70911838D01*
X122913000Y-70911883D01*
X122913000Y-72323446D01*
X122902560Y-72375000D01*
X122902560Y-73211229D01*
X122851309Y-73190000D01*
X121810750Y-73190000D01*
X121652000Y-73348750D01*
X121652000Y-74998000D01*
X123201250Y-74998000D01*
X123360000Y-74839250D01*
X123360000Y-74283964D01*
X123550000Y-74322440D01*
X123800000Y-74322440D01*
X123929589Y-74298056D01*
X124050000Y-74322440D01*
X124300000Y-74322440D01*
X124429589Y-74298056D01*
X124550000Y-74322440D01*
X124800000Y-74322440D01*
X124929589Y-74298056D01*
X125050000Y-74322440D01*
X125300000Y-74322440D01*
X125405705Y-74302550D01*
X125423691Y-74310000D01*
X125453750Y-74310000D01*
X125474062Y-74289688D01*
X125535317Y-74278162D01*
X125675727Y-74187810D01*
X125798110Y-74271431D01*
X125872808Y-74286558D01*
X125896250Y-74310000D01*
X125926309Y-74310000D01*
X125946753Y-74301532D01*
X126050000Y-74322440D01*
X126300000Y-74322440D01*
X126429589Y-74298056D01*
X126550000Y-74322440D01*
X126800000Y-74322440D01*
X126929589Y-74298056D01*
X127050000Y-74322440D01*
X127300000Y-74322440D01*
X127429589Y-74298056D01*
X127550000Y-74322440D01*
X127800000Y-74322440D01*
X127929589Y-74298056D01*
X128050000Y-74322440D01*
X128300000Y-74322440D01*
X128429589Y-74298056D01*
X128550000Y-74322440D01*
X128800000Y-74322440D01*
X128905705Y-74302550D01*
X128923691Y-74310000D01*
X128953750Y-74310000D01*
X128974062Y-74289688D01*
X129035317Y-74278162D01*
X129175727Y-74187810D01*
X129298110Y-74271431D01*
X129372808Y-74286558D01*
X129396250Y-74310000D01*
X129426309Y-74310000D01*
X129446753Y-74301532D01*
X129550000Y-74322440D01*
X129800000Y-74322440D01*
X129929589Y-74298056D01*
X130050000Y-74322440D01*
X130300000Y-74322440D01*
X130429589Y-74298056D01*
X130550000Y-74322440D01*
X130800000Y-74322440D01*
X130929589Y-74298056D01*
X131050000Y-74322440D01*
X131300000Y-74322440D01*
X131429589Y-74298056D01*
X131550000Y-74322440D01*
X131800000Y-74322440D01*
X131929589Y-74298056D01*
X132050000Y-74322440D01*
X132300000Y-74322440D01*
X132429589Y-74298056D01*
X132550000Y-74322440D01*
X132800000Y-74322440D01*
X132929589Y-74298056D01*
X133050000Y-74322440D01*
X133300000Y-74322440D01*
X133429589Y-74298056D01*
X133550000Y-74322440D01*
X133800000Y-74322440D01*
X133929589Y-74298056D01*
X134050000Y-74322440D01*
X134300000Y-74322440D01*
X134429589Y-74298056D01*
X134550000Y-74322440D01*
X134800000Y-74322440D01*
X134929589Y-74298056D01*
X135050000Y-74322440D01*
X135300000Y-74322440D01*
X135429589Y-74298056D01*
X135550000Y-74322440D01*
X135800000Y-74322440D01*
X135929589Y-74298056D01*
X136050000Y-74322440D01*
X136300000Y-74322440D01*
X136429589Y-74298056D01*
X136550000Y-74322440D01*
X136800000Y-74322440D01*
X136929589Y-74298056D01*
X137050000Y-74322440D01*
X137300000Y-74322440D01*
X137429589Y-74298056D01*
X137550000Y-74322440D01*
X137800000Y-74322440D01*
X137929589Y-74298056D01*
X138050000Y-74322440D01*
X138300000Y-74322440D01*
X138429589Y-74298056D01*
X138550000Y-74322440D01*
X138800000Y-74322440D01*
X138929589Y-74298056D01*
X139050000Y-74322440D01*
X139300000Y-74322440D01*
X139429589Y-74298056D01*
X139550000Y-74322440D01*
X139800000Y-74322440D01*
X139929589Y-74298056D01*
X140050000Y-74322440D01*
X140300000Y-74322440D01*
X140429589Y-74298056D01*
X140550000Y-74322440D01*
X140800000Y-74322440D01*
X140929589Y-74298056D01*
X141050000Y-74322440D01*
X141300000Y-74322440D01*
X141429589Y-74298056D01*
X141550000Y-74322440D01*
X141800000Y-74322440D01*
X141905705Y-74302550D01*
X141923691Y-74310000D01*
X141953750Y-74310000D01*
X141974062Y-74289688D01*
X142035317Y-74278162D01*
X142175727Y-74187810D01*
X142298110Y-74271431D01*
X142372808Y-74286558D01*
X142396250Y-74310000D01*
X142426309Y-74310000D01*
X142446753Y-74301532D01*
X142550000Y-74322440D01*
X142800000Y-74322440D01*
X142905705Y-74302550D01*
X142923691Y-74310000D01*
X142953750Y-74310000D01*
X142974062Y-74289688D01*
X143035317Y-74278162D01*
X143237500Y-74148061D01*
X143237500Y-74151250D01*
X143396250Y-74310000D01*
X143426309Y-74310000D01*
X143490000Y-74283618D01*
X143490000Y-74839250D01*
X143648750Y-74998000D01*
X145198000Y-74998000D01*
X145198000Y-74978000D01*
X145452000Y-74978000D01*
X145452000Y-74998000D01*
X145472000Y-74998000D01*
X145472000Y-75252000D01*
X145452000Y-75252000D01*
X145452000Y-76901250D01*
X145507455Y-76956705D01*
X144179150Y-78285010D01*
X118804347Y-78285010D01*
X118860000Y-78097000D01*
X118860000Y-77597000D01*
X117602000Y-77597000D01*
X117602000Y-77617000D01*
X117348000Y-77617000D01*
X117348000Y-77597000D01*
X117328000Y-77597000D01*
X117328000Y-77343000D01*
X117348000Y-77343000D01*
X117348000Y-75750344D01*
X117602000Y-75750344D01*
X117602000Y-77343000D01*
X118860000Y-77343000D01*
X118860000Y-76843000D01*
X118705972Y-76322651D01*
X118364540Y-75900855D01*
X117887684Y-75641827D01*
X117816185Y-75627682D01*
X117602000Y-75750344D01*
X117348000Y-75750344D01*
X117133815Y-75627682D01*
X117062316Y-75641827D01*
X116585460Y-75900855D01*
X116331437Y-76214668D01*
X116288162Y-75984683D01*
X116149090Y-75768559D01*
X115936890Y-75623569D01*
X115685000Y-75572560D01*
X114185000Y-75572560D01*
X113949683Y-75616838D01*
X113733559Y-75755910D01*
X113588569Y-75968110D01*
X113537560Y-76220000D01*
X113537560Y-76454000D01*
X112776000Y-76454000D01*
X112776000Y-75410750D01*
X119690000Y-75410750D01*
X119690000Y-76551310D01*
X119786673Y-76784699D01*
X119965302Y-76963327D01*
X120198691Y-77060000D01*
X121239250Y-77060000D01*
X121398000Y-76901250D01*
X121398000Y-75252000D01*
X121652000Y-75252000D01*
X121652000Y-76901250D01*
X121810750Y-77060000D01*
X122851309Y-77060000D01*
X123084698Y-76963327D01*
X123263327Y-76784699D01*
X123360000Y-76551310D01*
X123360000Y-75410750D01*
X143490000Y-75410750D01*
X143490000Y-76551310D01*
X143586673Y-76784699D01*
X143765302Y-76963327D01*
X143998691Y-77060000D01*
X145039250Y-77060000D01*
X145198000Y-76901250D01*
X145198000Y-75252000D01*
X143648750Y-75252000D01*
X143490000Y-75410750D01*
X123360000Y-75410750D01*
X123201250Y-75252000D01*
X121652000Y-75252000D01*
X121398000Y-75252000D01*
X119848750Y-75252000D01*
X119690000Y-75410750D01*
X112776000Y-75410750D01*
X112776000Y-75184313D01*
X112864431Y-75054890D01*
X112915440Y-74803000D01*
X112915440Y-73787000D01*
X112898824Y-73698690D01*
X119690000Y-73698690D01*
X119690000Y-74839250D01*
X119848750Y-74998000D01*
X121398000Y-74998000D01*
X121398000Y-73348750D01*
X121239250Y-73190000D01*
X120198691Y-73190000D01*
X119965302Y-73286673D01*
X119786673Y-73465301D01*
X119690000Y-73698690D01*
X112898824Y-73698690D01*
X112871162Y-73551683D01*
X112776834Y-73405093D01*
X112864431Y-73276890D01*
X112915440Y-73025000D01*
X112915440Y-72009000D01*
X112871162Y-71773683D01*
X112776834Y-71627093D01*
X112864431Y-71498890D01*
X112915440Y-71247000D01*
X112915440Y-70231000D01*
X112871162Y-69995683D01*
X112780396Y-69854629D01*
X112806327Y-69828698D01*
X112903000Y-69595309D01*
X112903000Y-69246750D01*
X112744250Y-69088000D01*
X111887000Y-69088000D01*
X111887000Y-69108000D01*
X111633000Y-69108000D01*
X111633000Y-69088000D01*
X110775750Y-69088000D01*
X110617000Y-69246750D01*
X110617000Y-69595309D01*
X110713673Y-69828698D01*
X110740209Y-69855235D01*
X110655569Y-69979110D01*
X110604560Y-70231000D01*
X110604560Y-70614863D01*
X109650493Y-70614863D01*
X109796996Y-70395605D01*
X109801219Y-70374375D01*
X109855000Y-70104000D01*
X109855000Y-68326691D01*
X110617000Y-68326691D01*
X110617000Y-68675250D01*
X110775750Y-68834000D01*
X111633000Y-68834000D01*
X111633000Y-67976750D01*
X111887000Y-67976750D01*
X111887000Y-68834000D01*
X112744250Y-68834000D01*
X112903000Y-68675250D01*
X112903000Y-68326691D01*
X112806327Y-68093302D01*
X112627699Y-67914673D01*
X112394310Y-67818000D01*
X112045750Y-67818000D01*
X111887000Y-67976750D01*
X111633000Y-67976750D01*
X111474250Y-67818000D01*
X111125690Y-67818000D01*
X110892301Y-67914673D01*
X110713673Y-68093302D01*
X110617000Y-68326691D01*
X109855000Y-68326691D01*
X109855000Y-64979780D01*
X109796996Y-64688175D01*
X109631815Y-64440965D01*
X108715363Y-63524513D01*
X108723851Y-63512090D01*
X108774860Y-63260200D01*
X108774860Y-61860200D01*
X108730582Y-61624883D01*
X108594596Y-61413555D01*
X113406915Y-61413555D01*
X122112865Y-70119506D01*
G36*
X147478750Y-72136000D02*
X147827309Y-72136000D01*
X148060698Y-72039327D01*
X148087235Y-72012791D01*
X148211110Y-72097431D01*
X148463000Y-72148440D01*
X149238000Y-72148440D01*
X149238000Y-76954529D01*
X148664247Y-76716286D01*
X148122001Y-76715813D01*
X148122001Y-73360199D01*
X148088260Y-73190569D01*
X148044663Y-72971392D01*
X147824422Y-72641779D01*
X147446023Y-72263381D01*
X147255385Y-72136000D01*
X147320002Y-72136000D01*
X147320002Y-71977252D01*
X147478750Y-72136000D01*
X147478750Y-72136000D01*
G37*
X147478750Y-72136000D02*
X147827309Y-72136000D01*
X148060698Y-72039327D01*
X148087235Y-72012791D01*
X148211110Y-72097431D01*
X148463000Y-72148440D01*
X149238000Y-72148440D01*
X149238000Y-76954529D01*
X148664247Y-76716286D01*
X148122001Y-76715813D01*
X148122001Y-73360199D01*
X148088260Y-73190569D01*
X148044663Y-72971392D01*
X147824422Y-72641779D01*
X147446023Y-72263381D01*
X147255385Y-72136000D01*
X147320002Y-72136000D01*
X147320002Y-71977252D01*
X147478750Y-72136000D01*
G36*
X76585000Y-62697440D02*
X76789035Y-62697440D01*
X76788838Y-62923167D01*
X76930883Y-63266943D01*
X77193673Y-63530192D01*
X77537201Y-63672838D01*
X77909167Y-63673162D01*
X78232371Y-63539617D01*
X78553201Y-63672838D01*
X78925167Y-63673162D01*
X79248371Y-63539617D01*
X79569201Y-63672838D01*
X79845933Y-63673079D01*
X79837162Y-63694201D01*
X79836838Y-64066167D01*
X79978883Y-64409943D01*
X80241673Y-64673192D01*
X80585201Y-64815838D01*
X80900332Y-64816112D01*
X80994883Y-65044943D01*
X81257673Y-65308192D01*
X81601201Y-65450838D01*
X81973167Y-65451162D01*
X82316943Y-65309117D01*
X82321000Y-65305067D01*
X82321000Y-65519764D01*
X82181764Y-65659000D01*
X76835000Y-65659000D01*
X76494794Y-65726671D01*
X76251910Y-65888961D01*
X76206382Y-65919382D01*
X74428382Y-67697382D01*
X74235671Y-67985794D01*
X74168000Y-68326000D01*
X74168000Y-70064706D01*
X74070127Y-70017247D01*
X73914000Y-70145210D01*
X73914000Y-71755000D01*
X73934000Y-71755000D01*
X73934000Y-72009000D01*
X73914000Y-72009000D01*
X73914000Y-72029000D01*
X73660000Y-72029000D01*
X73660000Y-72009000D01*
X73640000Y-72009000D01*
X73640000Y-71755000D01*
X73660000Y-71755000D01*
X73660000Y-70145210D01*
X73503873Y-70017247D01*
X73279000Y-70126289D01*
X73279000Y-68707000D01*
X73220996Y-68415395D01*
X73055815Y-68168185D01*
X72039815Y-67152185D01*
X71973852Y-67108110D01*
X71792605Y-66987004D01*
X71501000Y-66929000D01*
X68006631Y-66929000D01*
X66972000Y-65894370D01*
X66972000Y-63477631D01*
X66979185Y-63484816D01*
X67226396Y-63649997D01*
X67518001Y-63708001D01*
X67632223Y-63708001D01*
X67659883Y-63774943D01*
X67922673Y-64038192D01*
X68266201Y-64180838D01*
X68638167Y-64181162D01*
X68981943Y-64039117D01*
X69245192Y-63776327D01*
X69387838Y-63432799D01*
X69388162Y-63060833D01*
X69246117Y-62717057D01*
X69226534Y-62697440D01*
X69335000Y-62697440D01*
X69464589Y-62673056D01*
X69585000Y-62697440D01*
X69835000Y-62697440D01*
X69964589Y-62673056D01*
X70085000Y-62697440D01*
X70335000Y-62697440D01*
X70464589Y-62673056D01*
X70585000Y-62697440D01*
X70835000Y-62697440D01*
X70964589Y-62673056D01*
X71085000Y-62697440D01*
X71335000Y-62697440D01*
X71464589Y-62673056D01*
X71585000Y-62697440D01*
X71835000Y-62697440D01*
X71964589Y-62673056D01*
X72085000Y-62697440D01*
X72335000Y-62697440D01*
X72464589Y-62673056D01*
X72585000Y-62697440D01*
X72835000Y-62697440D01*
X72964589Y-62673056D01*
X73085000Y-62697440D01*
X73335000Y-62697440D01*
X73464589Y-62673056D01*
X73585000Y-62697440D01*
X73835000Y-62697440D01*
X73964589Y-62673056D01*
X74085000Y-62697440D01*
X74335000Y-62697440D01*
X74464589Y-62673056D01*
X74585000Y-62697440D01*
X74835000Y-62697440D01*
X74964589Y-62673056D01*
X75085000Y-62697440D01*
X75335000Y-62697440D01*
X75464589Y-62673056D01*
X75585000Y-62697440D01*
X75835000Y-62697440D01*
X75964589Y-62673056D01*
X76085000Y-62697440D01*
X76335000Y-62697440D01*
X76464589Y-62673056D01*
X76585000Y-62697440D01*
X76585000Y-62697440D01*
G37*
X76585000Y-62697440D02*
X76789035Y-62697440D01*
X76788838Y-62923167D01*
X76930883Y-63266943D01*
X77193673Y-63530192D01*
X77537201Y-63672838D01*
X77909167Y-63673162D01*
X78232371Y-63539617D01*
X78553201Y-63672838D01*
X78925167Y-63673162D01*
X79248371Y-63539617D01*
X79569201Y-63672838D01*
X79845933Y-63673079D01*
X79837162Y-63694201D01*
X79836838Y-64066167D01*
X79978883Y-64409943D01*
X80241673Y-64673192D01*
X80585201Y-64815838D01*
X80900332Y-64816112D01*
X80994883Y-65044943D01*
X81257673Y-65308192D01*
X81601201Y-65450838D01*
X81973167Y-65451162D01*
X82316943Y-65309117D01*
X82321000Y-65305067D01*
X82321000Y-65519764D01*
X82181764Y-65659000D01*
X76835000Y-65659000D01*
X76494794Y-65726671D01*
X76251910Y-65888961D01*
X76206382Y-65919382D01*
X74428382Y-67697382D01*
X74235671Y-67985794D01*
X74168000Y-68326000D01*
X74168000Y-70064706D01*
X74070127Y-70017247D01*
X73914000Y-70145210D01*
X73914000Y-71755000D01*
X73934000Y-71755000D01*
X73934000Y-72009000D01*
X73914000Y-72009000D01*
X73914000Y-72029000D01*
X73660000Y-72029000D01*
X73660000Y-72009000D01*
X73640000Y-72009000D01*
X73640000Y-71755000D01*
X73660000Y-71755000D01*
X73660000Y-70145210D01*
X73503873Y-70017247D01*
X73279000Y-70126289D01*
X73279000Y-68707000D01*
X73220996Y-68415395D01*
X73055815Y-68168185D01*
X72039815Y-67152185D01*
X71973852Y-67108110D01*
X71792605Y-66987004D01*
X71501000Y-66929000D01*
X68006631Y-66929000D01*
X66972000Y-65894370D01*
X66972000Y-63477631D01*
X66979185Y-63484816D01*
X67226396Y-63649997D01*
X67518001Y-63708001D01*
X67632223Y-63708001D01*
X67659883Y-63774943D01*
X67922673Y-64038192D01*
X68266201Y-64180838D01*
X68638167Y-64181162D01*
X68981943Y-64039117D01*
X69245192Y-63776327D01*
X69387838Y-63432799D01*
X69388162Y-63060833D01*
X69246117Y-62717057D01*
X69226534Y-62697440D01*
X69335000Y-62697440D01*
X69464589Y-62673056D01*
X69585000Y-62697440D01*
X69835000Y-62697440D01*
X69964589Y-62673056D01*
X70085000Y-62697440D01*
X70335000Y-62697440D01*
X70464589Y-62673056D01*
X70585000Y-62697440D01*
X70835000Y-62697440D01*
X70964589Y-62673056D01*
X71085000Y-62697440D01*
X71335000Y-62697440D01*
X71464589Y-62673056D01*
X71585000Y-62697440D01*
X71835000Y-62697440D01*
X71964589Y-62673056D01*
X72085000Y-62697440D01*
X72335000Y-62697440D01*
X72464589Y-62673056D01*
X72585000Y-62697440D01*
X72835000Y-62697440D01*
X72964589Y-62673056D01*
X73085000Y-62697440D01*
X73335000Y-62697440D01*
X73464589Y-62673056D01*
X73585000Y-62697440D01*
X73835000Y-62697440D01*
X73964589Y-62673056D01*
X74085000Y-62697440D01*
X74335000Y-62697440D01*
X74464589Y-62673056D01*
X74585000Y-62697440D01*
X74835000Y-62697440D01*
X74964589Y-62673056D01*
X75085000Y-62697440D01*
X75335000Y-62697440D01*
X75464589Y-62673056D01*
X75585000Y-62697440D01*
X75835000Y-62697440D01*
X75964589Y-62673056D01*
X76085000Y-62697440D01*
X76335000Y-62697440D01*
X76464589Y-62673056D01*
X76585000Y-62697440D01*
G36*
X147320000Y-70866000D02*
X147340000Y-70866000D01*
X147340000Y-71120000D01*
X147320000Y-71120000D01*
X147320000Y-71140000D01*
X147066000Y-71140000D01*
X147066000Y-71120000D01*
X147046000Y-71120000D01*
X147046000Y-70866000D01*
X147066000Y-70866000D01*
X147066000Y-70846000D01*
X147320000Y-70846000D01*
X147320000Y-70866000D01*
X147320000Y-70866000D01*
G37*
X147320000Y-70866000D02*
X147340000Y-70866000D01*
X147340000Y-71120000D01*
X147320000Y-71120000D01*
X147320000Y-71140000D01*
X147066000Y-71140000D01*
X147066000Y-71120000D01*
X147046000Y-71120000D01*
X147046000Y-70866000D01*
X147066000Y-70866000D01*
X147066000Y-70846000D01*
X147320000Y-70846000D01*
X147320000Y-70866000D01*
G36*
X94737560Y-44113000D02*
X94398266Y-44113000D01*
X94255549Y-43970284D01*
X94255586Y-43927622D01*
X94113541Y-43583846D01*
X93850751Y-43320597D01*
X93507223Y-43177951D01*
X93135257Y-43177627D01*
X92791481Y-43319672D01*
X92528232Y-43582462D01*
X92385586Y-43925990D01*
X92385262Y-44297956D01*
X92527307Y-44641732D01*
X92790097Y-44904981D01*
X93133625Y-45047627D01*
X93177670Y-45047665D01*
X93419000Y-45288996D01*
X93287808Y-45604940D01*
X93287484Y-45976906D01*
X93429529Y-46320682D01*
X93460646Y-46351853D01*
X93460646Y-58325866D01*
X93518650Y-58617471D01*
X93683831Y-58864681D01*
X98251846Y-63432697D01*
X98251838Y-63442197D01*
X98281076Y-63512959D01*
X98235140Y-63739800D01*
X98235140Y-65139800D01*
X98279418Y-65375117D01*
X98418490Y-65591241D01*
X98630690Y-65736231D01*
X98882580Y-65787240D01*
X99882580Y-65787240D01*
X100117897Y-65742962D01*
X100334021Y-65603890D01*
X100340955Y-65593741D01*
X100425341Y-65678127D01*
X100658730Y-65774800D01*
X100999290Y-65774800D01*
X101158040Y-65616050D01*
X101158040Y-64566800D01*
X101138040Y-64566800D01*
X101138040Y-64312800D01*
X101158040Y-64312800D01*
X101158040Y-64292800D01*
X101412040Y-64292800D01*
X101412040Y-64312800D01*
X101432040Y-64312800D01*
X101432040Y-64566800D01*
X101412040Y-64566800D01*
X101412040Y-65616050D01*
X101570790Y-65774800D01*
X101911350Y-65774800D01*
X102144739Y-65678127D01*
X102323367Y-65499498D01*
X102370037Y-65386826D01*
X102393838Y-65513317D01*
X102532910Y-65729441D01*
X102745110Y-65874431D01*
X102997000Y-65925440D01*
X104013000Y-65925440D01*
X104248317Y-65881162D01*
X104464441Y-65742090D01*
X104521214Y-65659000D01*
X105568123Y-65659000D01*
X105576838Y-65705317D01*
X105715910Y-65921441D01*
X105928110Y-66066431D01*
X106180000Y-66117440D01*
X107180000Y-66117440D01*
X107415317Y-66073162D01*
X107631441Y-65934090D01*
X107776431Y-65721890D01*
X107827440Y-65470000D01*
X107827440Y-64791850D01*
X108331000Y-65295410D01*
X108331000Y-69788369D01*
X108216440Y-69902929D01*
X108216440Y-66802000D01*
X108172162Y-66566683D01*
X108033090Y-66350559D01*
X107820890Y-66205569D01*
X107569000Y-66154560D01*
X104521000Y-66154560D01*
X104285683Y-66198838D01*
X104069559Y-66337910D01*
X103924569Y-66550110D01*
X103873560Y-66802000D01*
X103873560Y-67183000D01*
X100609135Y-67183000D01*
X100598162Y-67124683D01*
X100459090Y-66908559D01*
X100246890Y-66763569D01*
X99995000Y-66712560D01*
X99395000Y-66712560D01*
X99159683Y-66756838D01*
X99069019Y-66815179D01*
X98851309Y-66725000D01*
X98710750Y-66725000D01*
X98552000Y-66883750D01*
X98552000Y-68333000D01*
X98572000Y-68333000D01*
X98572000Y-68587000D01*
X98552000Y-68587000D01*
X98552000Y-68607000D01*
X98298000Y-68607000D01*
X98298000Y-68587000D01*
X98278000Y-68587000D01*
X98278000Y-68333000D01*
X98298000Y-68333000D01*
X98298000Y-66883750D01*
X98139250Y-66725000D01*
X98044000Y-66725000D01*
X98044000Y-66421000D01*
X97976329Y-66080794D01*
X97929440Y-66010620D01*
X97929440Y-65532000D01*
X97885162Y-65296683D01*
X97746090Y-65080559D01*
X97533890Y-64935569D01*
X97282000Y-64884560D01*
X96266000Y-64884560D01*
X96030683Y-64928838D01*
X95884093Y-65023166D01*
X95755890Y-64935569D01*
X95504000Y-64884560D01*
X94488000Y-64884560D01*
X94252683Y-64928838D01*
X94036559Y-65067910D01*
X93891569Y-65280110D01*
X93840560Y-65532000D01*
X93840560Y-66548000D01*
X93884838Y-66783317D01*
X94023910Y-66999441D01*
X94236110Y-67144431D01*
X94488000Y-67195440D01*
X94894204Y-67195440D01*
X94957971Y-67259207D01*
X94937560Y-67360000D01*
X94937560Y-69560000D01*
X94981838Y-69795317D01*
X95120910Y-70011441D01*
X95280548Y-70120517D01*
X93738440Y-70120517D01*
X93738440Y-69088000D01*
X93694162Y-68852683D01*
X93555090Y-68636559D01*
X93342890Y-68491569D01*
X93091000Y-68440560D01*
X91821000Y-68440560D01*
X91585683Y-68484838D01*
X91559000Y-68502008D01*
X91559000Y-61265000D01*
X91472603Y-60830654D01*
X91226566Y-60462434D01*
X88981989Y-58217857D01*
X89061020Y-58138964D01*
X89107377Y-58027324D01*
X89474628Y-57660073D01*
X89474976Y-57659552D01*
X89667339Y-57371661D01*
X89735010Y-57031455D01*
X89735010Y-44015010D01*
X89667339Y-43674804D01*
X89474628Y-43386392D01*
X88850236Y-42762000D01*
X94737560Y-42762000D01*
X94737560Y-44113000D01*
X94737560Y-44113000D01*
G37*
X94737560Y-44113000D02*
X94398266Y-44113000D01*
X94255549Y-43970284D01*
X94255586Y-43927622D01*
X94113541Y-43583846D01*
X93850751Y-43320597D01*
X93507223Y-43177951D01*
X93135257Y-43177627D01*
X92791481Y-43319672D01*
X92528232Y-43582462D01*
X92385586Y-43925990D01*
X92385262Y-44297956D01*
X92527307Y-44641732D01*
X92790097Y-44904981D01*
X93133625Y-45047627D01*
X93177670Y-45047665D01*
X93419000Y-45288996D01*
X93287808Y-45604940D01*
X93287484Y-45976906D01*
X93429529Y-46320682D01*
X93460646Y-46351853D01*
X93460646Y-58325866D01*
X93518650Y-58617471D01*
X93683831Y-58864681D01*
X98251846Y-63432697D01*
X98251838Y-63442197D01*
X98281076Y-63512959D01*
X98235140Y-63739800D01*
X98235140Y-65139800D01*
X98279418Y-65375117D01*
X98418490Y-65591241D01*
X98630690Y-65736231D01*
X98882580Y-65787240D01*
X99882580Y-65787240D01*
X100117897Y-65742962D01*
X100334021Y-65603890D01*
X100340955Y-65593741D01*
X100425341Y-65678127D01*
X100658730Y-65774800D01*
X100999290Y-65774800D01*
X101158040Y-65616050D01*
X101158040Y-64566800D01*
X101138040Y-64566800D01*
X101138040Y-64312800D01*
X101158040Y-64312800D01*
X101158040Y-64292800D01*
X101412040Y-64292800D01*
X101412040Y-64312800D01*
X101432040Y-64312800D01*
X101432040Y-64566800D01*
X101412040Y-64566800D01*
X101412040Y-65616050D01*
X101570790Y-65774800D01*
X101911350Y-65774800D01*
X102144739Y-65678127D01*
X102323367Y-65499498D01*
X102370037Y-65386826D01*
X102393838Y-65513317D01*
X102532910Y-65729441D01*
X102745110Y-65874431D01*
X102997000Y-65925440D01*
X104013000Y-65925440D01*
X104248317Y-65881162D01*
X104464441Y-65742090D01*
X104521214Y-65659000D01*
X105568123Y-65659000D01*
X105576838Y-65705317D01*
X105715910Y-65921441D01*
X105928110Y-66066431D01*
X106180000Y-66117440D01*
X107180000Y-66117440D01*
X107415317Y-66073162D01*
X107631441Y-65934090D01*
X107776431Y-65721890D01*
X107827440Y-65470000D01*
X107827440Y-64791850D01*
X108331000Y-65295410D01*
X108331000Y-69788369D01*
X108216440Y-69902929D01*
X108216440Y-66802000D01*
X108172162Y-66566683D01*
X108033090Y-66350559D01*
X107820890Y-66205569D01*
X107569000Y-66154560D01*
X104521000Y-66154560D01*
X104285683Y-66198838D01*
X104069559Y-66337910D01*
X103924569Y-66550110D01*
X103873560Y-66802000D01*
X103873560Y-67183000D01*
X100609135Y-67183000D01*
X100598162Y-67124683D01*
X100459090Y-66908559D01*
X100246890Y-66763569D01*
X99995000Y-66712560D01*
X99395000Y-66712560D01*
X99159683Y-66756838D01*
X99069019Y-66815179D01*
X98851309Y-66725000D01*
X98710750Y-66725000D01*
X98552000Y-66883750D01*
X98552000Y-68333000D01*
X98572000Y-68333000D01*
X98572000Y-68587000D01*
X98552000Y-68587000D01*
X98552000Y-68607000D01*
X98298000Y-68607000D01*
X98298000Y-68587000D01*
X98278000Y-68587000D01*
X98278000Y-68333000D01*
X98298000Y-68333000D01*
X98298000Y-66883750D01*
X98139250Y-66725000D01*
X98044000Y-66725000D01*
X98044000Y-66421000D01*
X97976329Y-66080794D01*
X97929440Y-66010620D01*
X97929440Y-65532000D01*
X97885162Y-65296683D01*
X97746090Y-65080559D01*
X97533890Y-64935569D01*
X97282000Y-64884560D01*
X96266000Y-64884560D01*
X96030683Y-64928838D01*
X95884093Y-65023166D01*
X95755890Y-64935569D01*
X95504000Y-64884560D01*
X94488000Y-64884560D01*
X94252683Y-64928838D01*
X94036559Y-65067910D01*
X93891569Y-65280110D01*
X93840560Y-65532000D01*
X93840560Y-66548000D01*
X93884838Y-66783317D01*
X94023910Y-66999441D01*
X94236110Y-67144431D01*
X94488000Y-67195440D01*
X94894204Y-67195440D01*
X94957971Y-67259207D01*
X94937560Y-67360000D01*
X94937560Y-69560000D01*
X94981838Y-69795317D01*
X95120910Y-70011441D01*
X95280548Y-70120517D01*
X93738440Y-70120517D01*
X93738440Y-69088000D01*
X93694162Y-68852683D01*
X93555090Y-68636559D01*
X93342890Y-68491569D01*
X93091000Y-68440560D01*
X91821000Y-68440560D01*
X91585683Y-68484838D01*
X91559000Y-68502008D01*
X91559000Y-61265000D01*
X91472603Y-60830654D01*
X91226566Y-60462434D01*
X88981989Y-58217857D01*
X89061020Y-58138964D01*
X89107377Y-58027324D01*
X89474628Y-57660073D01*
X89474976Y-57659552D01*
X89667339Y-57371661D01*
X89735010Y-57031455D01*
X89735010Y-44015010D01*
X89667339Y-43674804D01*
X89474628Y-43386392D01*
X88850236Y-42762000D01*
X94737560Y-42762000D01*
X94737560Y-44113000D01*
G36*
X144653000Y-61976000D02*
X144673000Y-61976000D01*
X144673000Y-62230000D01*
X144653000Y-62230000D01*
X144653000Y-62250000D01*
X144399000Y-62250000D01*
X144399000Y-62230000D01*
X144379000Y-62230000D01*
X144379000Y-61976000D01*
X144399000Y-61976000D01*
X144399000Y-61956000D01*
X144653000Y-61956000D01*
X144653000Y-61976000D01*
X144653000Y-61976000D01*
G37*
X144653000Y-61976000D02*
X144673000Y-61976000D01*
X144673000Y-62230000D01*
X144653000Y-62230000D01*
X144653000Y-62250000D01*
X144399000Y-62250000D01*
X144399000Y-62230000D01*
X144379000Y-62230000D01*
X144379000Y-61976000D01*
X144399000Y-61976000D01*
X144399000Y-61956000D01*
X144653000Y-61956000D01*
X144653000Y-61976000D01*
G36*
X143010000Y-50839250D02*
X143168750Y-50998000D01*
X144018000Y-50998000D01*
X144018000Y-50978000D01*
X144272000Y-50978000D01*
X144272000Y-50998000D01*
X144292000Y-50998000D01*
X144292000Y-51252000D01*
X144272000Y-51252000D01*
X144272000Y-53726250D01*
X144430750Y-53885000D01*
X144771310Y-53885000D01*
X144780000Y-53881400D01*
X144780000Y-56891560D01*
X144334000Y-56891560D01*
X144098683Y-56935838D01*
X143882559Y-57074910D01*
X143737569Y-57287110D01*
X143686560Y-57539000D01*
X143686560Y-57879479D01*
X143524200Y-57846600D01*
X142124200Y-57846600D01*
X141888883Y-57890878D01*
X141672759Y-58029950D01*
X141593356Y-58146160D01*
X141097000Y-57649804D01*
X141097000Y-53885000D01*
X141319250Y-53885000D01*
X141478000Y-53726250D01*
X141478000Y-51252000D01*
X141732000Y-51252000D01*
X141732000Y-53726250D01*
X141890750Y-53885000D01*
X142231310Y-53885000D01*
X142464699Y-53788327D01*
X142643327Y-53609698D01*
X142740000Y-53376309D01*
X142740000Y-51410750D01*
X143010000Y-51410750D01*
X143010000Y-53376309D01*
X143106673Y-53609698D01*
X143285301Y-53788327D01*
X143518690Y-53885000D01*
X143859250Y-53885000D01*
X144018000Y-53726250D01*
X144018000Y-51252000D01*
X143168750Y-51252000D01*
X143010000Y-51410750D01*
X142740000Y-51410750D01*
X142581250Y-51252000D01*
X141732000Y-51252000D01*
X141478000Y-51252000D01*
X141458000Y-51252000D01*
X141458000Y-50998000D01*
X141478000Y-50998000D01*
X141478000Y-50978000D01*
X141732000Y-50978000D01*
X141732000Y-50998000D01*
X142581250Y-50998000D01*
X142740000Y-50839250D01*
X142740000Y-48991061D01*
X143010000Y-48991061D01*
X143010000Y-50839250D01*
X143010000Y-50839250D01*
G37*
X143010000Y-50839250D02*
X143168750Y-50998000D01*
X144018000Y-50998000D01*
X144018000Y-50978000D01*
X144272000Y-50978000D01*
X144272000Y-50998000D01*
X144292000Y-50998000D01*
X144292000Y-51252000D01*
X144272000Y-51252000D01*
X144272000Y-53726250D01*
X144430750Y-53885000D01*
X144771310Y-53885000D01*
X144780000Y-53881400D01*
X144780000Y-56891560D01*
X144334000Y-56891560D01*
X144098683Y-56935838D01*
X143882559Y-57074910D01*
X143737569Y-57287110D01*
X143686560Y-57539000D01*
X143686560Y-57879479D01*
X143524200Y-57846600D01*
X142124200Y-57846600D01*
X141888883Y-57890878D01*
X141672759Y-58029950D01*
X141593356Y-58146160D01*
X141097000Y-57649804D01*
X141097000Y-53885000D01*
X141319250Y-53885000D01*
X141478000Y-53726250D01*
X141478000Y-51252000D01*
X141732000Y-51252000D01*
X141732000Y-53726250D01*
X141890750Y-53885000D01*
X142231310Y-53885000D01*
X142464699Y-53788327D01*
X142643327Y-53609698D01*
X142740000Y-53376309D01*
X142740000Y-51410750D01*
X143010000Y-51410750D01*
X143010000Y-53376309D01*
X143106673Y-53609698D01*
X143285301Y-53788327D01*
X143518690Y-53885000D01*
X143859250Y-53885000D01*
X144018000Y-53726250D01*
X144018000Y-51252000D01*
X143168750Y-51252000D01*
X143010000Y-51410750D01*
X142740000Y-51410750D01*
X142581250Y-51252000D01*
X141732000Y-51252000D01*
X141478000Y-51252000D01*
X141458000Y-51252000D01*
X141458000Y-50998000D01*
X141478000Y-50998000D01*
X141478000Y-50978000D01*
X141732000Y-50978000D01*
X141732000Y-50998000D01*
X142581250Y-50998000D01*
X142740000Y-50839250D01*
X142740000Y-48991061D01*
X143010000Y-48991061D01*
X143010000Y-50839250D01*
G36*
X85979000Y-48260000D02*
X86995000Y-48260000D01*
X86995000Y-48240000D01*
X87249000Y-48240000D01*
X87249000Y-52147000D01*
X86995000Y-52147000D01*
X86995000Y-52127000D01*
X85979000Y-52127000D01*
X85979000Y-52147000D01*
X85925975Y-52147000D01*
X85925975Y-51853000D01*
X85979000Y-51853000D01*
X85979000Y-51873000D01*
X86995000Y-51873000D01*
X86995000Y-50623750D01*
X86836250Y-50465000D01*
X86645690Y-50465000D01*
X86487000Y-50530732D01*
X86328310Y-50465000D01*
X86137750Y-50465000D01*
X85979002Y-50623748D01*
X85979002Y-50465000D01*
X85925975Y-50465000D01*
X85925975Y-49922000D01*
X85979002Y-49922000D01*
X85979002Y-49763252D01*
X86137750Y-49922000D01*
X86328310Y-49922000D01*
X86487000Y-49856268D01*
X86645690Y-49922000D01*
X86836250Y-49922000D01*
X86995000Y-49763250D01*
X86995000Y-48514000D01*
X85979000Y-48514000D01*
X85979000Y-48534000D01*
X85925975Y-48534000D01*
X85925975Y-48240000D01*
X85979000Y-48240000D01*
X85979000Y-48260000D01*
X85979000Y-48260000D01*
G37*
X85979000Y-48260000D02*
X86995000Y-48260000D01*
X86995000Y-48240000D01*
X87249000Y-48240000D01*
X87249000Y-52147000D01*
X86995000Y-52147000D01*
X86995000Y-52127000D01*
X85979000Y-52127000D01*
X85979000Y-52147000D01*
X85925975Y-52147000D01*
X85925975Y-51853000D01*
X85979000Y-51853000D01*
X85979000Y-51873000D01*
X86995000Y-51873000D01*
X86995000Y-50623750D01*
X86836250Y-50465000D01*
X86645690Y-50465000D01*
X86487000Y-50530732D01*
X86328310Y-50465000D01*
X86137750Y-50465000D01*
X85979002Y-50623748D01*
X85979002Y-50465000D01*
X85925975Y-50465000D01*
X85925975Y-49922000D01*
X85979002Y-49922000D01*
X85979002Y-49763252D01*
X86137750Y-49922000D01*
X86328310Y-49922000D01*
X86487000Y-49856268D01*
X86645690Y-49922000D01*
X86836250Y-49922000D01*
X86995000Y-49763250D01*
X86995000Y-48514000D01*
X85979000Y-48514000D01*
X85979000Y-48534000D01*
X85925975Y-48534000D01*
X85925975Y-48240000D01*
X85979000Y-48240000D01*
X85979000Y-48260000D01*
M02*
