G04 #@! TF.FileFunction,Copper,L2,Bot,Signal*
%FSLAX46Y46*%
G04 Gerber Fmt 4.6, Leading zero omitted, Abs format (unit mm)*
G04 Created by KiCad (PCBNEW 4.0.2+dfsg1-stable) date  3.05.2016 (вт) 14:48:06 EEST*
%MOMM*%
G01*
G04 APERTURE LIST*
%ADD10C,0.600000*%
%ADD11C,0.900000*%
%ADD12C,0.600000*%
%ADD13C,0.508000*%
%ADD14C,0.254000*%
%ADD15C,0.762000*%
%ADD16C,1.000000*%
%ADD17C,0.152400*%
G04 APERTURE END LIST*
D10*
D11*
X74930000Y-66802000D03*
X73787000Y-66802000D03*
X72644000Y-66802000D03*
X92583000Y-62738000D03*
X94869000Y-62738000D03*
X93726000Y-62738000D03*
X144145000Y-55626000D03*
X143002000Y-55626000D03*
X141859000Y-55626000D03*
D12*
X89786498Y-52060008D03*
X86469402Y-52199127D03*
X84069085Y-62795304D03*
X82381252Y-62784127D03*
X100076000Y-66294000D03*
X143256000Y-75125000D03*
X148463000Y-75184000D03*
X148844000Y-73152000D03*
X145669000Y-62103000D03*
X87980000Y-44322980D03*
X144145000Y-42545000D03*
X88268828Y-57608637D03*
X85852000Y-57608637D03*
X141605000Y-42545000D03*
X87562926Y-42731926D03*
X123047990Y-69977000D03*
X144653000Y-63754000D03*
X142118047Y-71531204D03*
X147193000Y-69850000D03*
X128047990Y-71628000D03*
X64712299Y-45394414D03*
X97536000Y-44112797D03*
X65405000Y-59161000D03*
X61536210Y-58420000D03*
X71247000Y-69215000D03*
X64770000Y-68580000D03*
X95885000Y-53422019D03*
X62314999Y-53340000D03*
X63515273Y-59631490D03*
X93320424Y-44112789D03*
X62992000Y-42672000D03*
X60960000Y-59309000D03*
X76327000Y-68580000D03*
X66548000Y-67691000D03*
X98425000Y-53876029D03*
X63045386Y-54651862D03*
X65153534Y-58035424D03*
X100965000Y-53982009D03*
X146858009Y-66802000D03*
X125349000Y-70739000D03*
X68453000Y-63246000D03*
X99187000Y-63257030D03*
X94222646Y-45791739D03*
X99797354Y-44896599D03*
X67445799Y-57531000D03*
X106045000Y-54102000D03*
X68707000Y-46031021D03*
X105029000Y-44831000D03*
X72380070Y-57799737D03*
X116205000Y-54102000D03*
X73496600Y-45720000D03*
X116205000Y-47254000D03*
X73634091Y-57785000D03*
X118745000Y-53975000D03*
X75020600Y-45974000D03*
X118872000Y-47381000D03*
X72190685Y-45730055D03*
X114427000Y-47262000D03*
X71122095Y-58039274D03*
X113665000Y-54102000D03*
X69913543Y-57503894D03*
X111125000Y-54102000D03*
X70676653Y-45754161D03*
X111125000Y-47254000D03*
X79756000Y-62738000D03*
X133985000Y-53848000D03*
X82673232Y-53313425D03*
X133985000Y-47254000D03*
X83924585Y-53330109D03*
X136652000Y-47381000D03*
X80772000Y-63881000D03*
X136525000Y-53848000D03*
X81788000Y-64516000D03*
X139065000Y-53848000D03*
X85209396Y-53553834D03*
X139065000Y-47239580D03*
X81399010Y-50292000D03*
X131445000Y-47254000D03*
X78740000Y-62738000D03*
X131445000Y-53848000D03*
X80129010Y-49703993D03*
X128905000Y-47254000D03*
X77724000Y-62738000D03*
X128905000Y-53848000D03*
X78858862Y-46755708D03*
X126365000Y-47254000D03*
X76700048Y-59520399D03*
X126365000Y-53848000D03*
X77588201Y-46674020D03*
X123825000Y-47364525D03*
X76095386Y-58284148D03*
X123825000Y-53866863D03*
X76318201Y-46220010D03*
X121285000Y-47254000D03*
X74888112Y-57745621D03*
X121285000Y-53630135D03*
D13*
X89786498Y-52060008D02*
X89647379Y-52199127D01*
X89647379Y-52199127D02*
X86469402Y-52199127D01*
D14*
X84057908Y-62784127D02*
X84069085Y-62795304D01*
X82381252Y-62784127D02*
X84057908Y-62784127D01*
D15*
X148463000Y-75184000D02*
X143315000Y-75184000D01*
X143315000Y-75184000D02*
X143256000Y-75125000D01*
X148844000Y-69502882D02*
X148844000Y-73152000D01*
X148844000Y-64135000D02*
X148844000Y-69502882D01*
X146812000Y-62103000D02*
X148844000Y-64135000D01*
X145669000Y-62103000D02*
X146812000Y-62103000D01*
D13*
X99568000Y-43499010D02*
X99410314Y-43341324D01*
X99410314Y-43341324D02*
X88961656Y-43341324D01*
X88961656Y-43341324D02*
X88279999Y-44022981D01*
X88279999Y-44022981D02*
X87980000Y-44322980D01*
D16*
X144145000Y-42545000D02*
X143144999Y-43545001D01*
X143144999Y-43545001D02*
X100135214Y-43545001D01*
X100135214Y-43545001D02*
X100089223Y-43499010D01*
X100089223Y-43499010D02*
X99568000Y-43499010D01*
D13*
X87844564Y-57608637D02*
X85852000Y-57608637D01*
X88268828Y-57608637D02*
X87844564Y-57608637D01*
X141180736Y-42545000D02*
X141605000Y-42545000D01*
X87987190Y-42731926D02*
X88174116Y-42545000D01*
X88174116Y-42545000D02*
X141180736Y-42545000D01*
X87562926Y-42731926D02*
X87987190Y-42731926D01*
D14*
X144653000Y-68199000D02*
X142875000Y-69977000D01*
X142875000Y-69977000D02*
X123047990Y-69977000D01*
X144653000Y-63754000D02*
X144653000Y-68199000D01*
X145511796Y-71531204D02*
X142542311Y-71531204D01*
X142542311Y-71531204D02*
X142118047Y-71531204D01*
X142021251Y-71628000D02*
X142118047Y-71531204D01*
X128047990Y-71628000D02*
X142021251Y-71628000D01*
X147193000Y-69850000D02*
X145511796Y-71531204D01*
X65012298Y-45094415D02*
X64712299Y-45394414D01*
X82296372Y-42884321D02*
X77241494Y-42884322D01*
X77241494Y-42884322D02*
X76973353Y-43152463D01*
X97536000Y-44112797D02*
X94973626Y-44112797D01*
X93682412Y-45404011D02*
X84816062Y-45404011D01*
X94973626Y-44112797D02*
X93682412Y-45404011D01*
X84816062Y-45404011D02*
X82296372Y-42884321D01*
X66954249Y-43152464D02*
X65012298Y-45094415D01*
X76973353Y-43152463D02*
X66954249Y-43152464D01*
D17*
X64664000Y-58420000D02*
X65405000Y-59161000D01*
X61536210Y-58420000D02*
X64664000Y-58420000D01*
D14*
X64770000Y-68580000D02*
X65405000Y-69215000D01*
X65405000Y-69215000D02*
X71247000Y-69215000D01*
X84687506Y-53957128D02*
X85439379Y-54709001D01*
X87125310Y-54395652D02*
X94911367Y-54395652D01*
X76049278Y-53340000D02*
X76666406Y-53957128D01*
X95585001Y-53722018D02*
X95885000Y-53422019D01*
X85439379Y-54709001D02*
X86811961Y-54709001D01*
X62314999Y-53340000D02*
X76049278Y-53340000D01*
X94911367Y-54395652D02*
X95585001Y-53722018D01*
X86811961Y-54709001D02*
X87125310Y-54395652D01*
X76666406Y-53957128D02*
X84687506Y-53957128D01*
D17*
X63192783Y-59309000D02*
X63215274Y-59331491D01*
X60960000Y-59309000D02*
X63192783Y-59309000D01*
X63215274Y-59331491D02*
X63515273Y-59631490D01*
D14*
X93020425Y-44412788D02*
X93320424Y-44112789D01*
X85004119Y-44950000D02*
X92483213Y-44950000D01*
X63291999Y-42372001D02*
X82426120Y-42372001D01*
X62992000Y-42672000D02*
X63291999Y-42372001D01*
X92483213Y-44950000D02*
X93020425Y-44412788D01*
X82426120Y-42372001D02*
X85004119Y-44950000D01*
X66548000Y-67691000D02*
X75438000Y-67691000D01*
X75438000Y-67691000D02*
X76327000Y-68580000D01*
X63146130Y-54752606D02*
X71973112Y-54752606D01*
X84499448Y-54411138D02*
X85251321Y-55163011D01*
X97451366Y-54849663D02*
X98125001Y-54176028D01*
X85251321Y-55163011D02*
X87000019Y-55163011D01*
X87313367Y-54849663D02*
X97451366Y-54849663D01*
X76461758Y-54394540D02*
X76478356Y-54411138D01*
X76478356Y-54411138D02*
X84499448Y-54411138D01*
X98125001Y-54176028D02*
X98425000Y-53876029D01*
X72331178Y-54394540D02*
X76461758Y-54394540D01*
X87000019Y-55163011D02*
X87313367Y-54849663D01*
X71973112Y-54752606D02*
X72331178Y-54394540D01*
X63045386Y-54651862D02*
X63146130Y-54752606D01*
X67982341Y-55206617D02*
X65453533Y-57735425D01*
X76290295Y-54865145D02*
X76273701Y-54848551D01*
X76273701Y-54848551D02*
X72519235Y-54848551D01*
X72161169Y-55206617D02*
X67982341Y-55206617D01*
X85031562Y-55617022D02*
X84279685Y-54865145D01*
X99329987Y-55617022D02*
X85031562Y-55617022D01*
X72519235Y-54848551D02*
X72161169Y-55206617D01*
X65453533Y-57735425D02*
X65153534Y-58035424D01*
X84279685Y-54865145D02*
X76290295Y-54865145D01*
X100965000Y-53982009D02*
X99329987Y-55617022D01*
X125349000Y-70739000D02*
X125514184Y-70904184D01*
X125514184Y-70904184D02*
X142755825Y-70904184D01*
X142755825Y-70904184D02*
X146858009Y-66802000D01*
X96649766Y-65024000D02*
X96530765Y-65143001D01*
X96530765Y-65143001D02*
X70350001Y-65143001D01*
X70350001Y-65143001D02*
X68453000Y-63246000D01*
X98589736Y-63084030D02*
X96649766Y-65024000D01*
X99187000Y-63257030D02*
X98762736Y-63257030D01*
X98762736Y-63257030D02*
X98589736Y-63084030D01*
X94522645Y-45491740D02*
X94222646Y-45791739D01*
X99797354Y-44896599D02*
X95117786Y-44896599D01*
X95117786Y-44896599D02*
X94522645Y-45491740D01*
X72349226Y-55660628D02*
X69316171Y-55660628D01*
X72707293Y-55302561D02*
X72349226Y-55660628D01*
X84843505Y-56071033D02*
X84091628Y-55319156D01*
X106045000Y-54102000D02*
X104075967Y-56071033D01*
X69316171Y-55660628D02*
X67745798Y-57231001D01*
X104075967Y-56071033D02*
X84843505Y-56071033D01*
X76085643Y-55302561D02*
X72707293Y-55302561D01*
X84091628Y-55319156D02*
X76102238Y-55319156D01*
X67745798Y-57231001D02*
X67445799Y-57531000D01*
X76102238Y-55319156D02*
X76085643Y-55302561D01*
X105029000Y-44831000D02*
X103120919Y-46739081D01*
X85801984Y-47032001D02*
X82108315Y-43338332D01*
X71131547Y-43606474D02*
X69006999Y-45731022D01*
X82108315Y-43338332D02*
X77429552Y-43338332D01*
X103120919Y-46739081D02*
X87478574Y-46739081D01*
X87478574Y-46739081D02*
X87185654Y-47032001D01*
X87185654Y-47032001D02*
X85801984Y-47032001D01*
X77429552Y-43338332D02*
X77161410Y-43606474D01*
X77161410Y-43606474D02*
X71131547Y-43606474D01*
X69006999Y-45731022D02*
X68707000Y-46031021D01*
X75538067Y-56681189D02*
X75521469Y-56664591D01*
X73515216Y-56664591D02*
X72680069Y-57499738D01*
X75521469Y-56664591D02*
X73515216Y-56664591D01*
X83527457Y-56681189D02*
X75538067Y-56681189D01*
X116205000Y-54102000D02*
X111821991Y-58485009D01*
X72680069Y-57499738D02*
X72380070Y-57799737D01*
X111821991Y-58485009D02*
X85331277Y-58485009D01*
X85331277Y-58485009D02*
X83527457Y-56681189D01*
X74168515Y-45048085D02*
X73796599Y-45420001D01*
X77993723Y-44700365D02*
X77646003Y-45048085D01*
X81393085Y-44700365D02*
X77993723Y-44700365D01*
X88007086Y-48394031D02*
X85086751Y-48394031D01*
X116205000Y-47254000D02*
X115064982Y-48394018D01*
X77646003Y-45048085D02*
X74168515Y-45048085D01*
X115064982Y-48394018D02*
X91606434Y-48394018D01*
X91606434Y-48394018D02*
X91425637Y-48213221D01*
X73796599Y-45420001D02*
X73496600Y-45720000D01*
X91425637Y-48213221D02*
X88187896Y-48213221D01*
X85086751Y-48394031D02*
X81393085Y-44700365D01*
X88187896Y-48213221D02*
X88007086Y-48394031D01*
X73934090Y-57485001D02*
X73634091Y-57785000D01*
X75252976Y-57135200D02*
X75236377Y-57118601D01*
X74300490Y-57118601D02*
X73934090Y-57485001D01*
X85143220Y-58939020D02*
X83339400Y-57135200D01*
X113780980Y-58939020D02*
X85143220Y-58939020D01*
X75236377Y-57118601D02*
X74300490Y-57118601D01*
X83339400Y-57135200D02*
X75252976Y-57135200D01*
X118745000Y-53975000D02*
X113780980Y-58939020D01*
X88334263Y-48708922D02*
X88195144Y-48848041D01*
X81205028Y-45154376D02*
X78181780Y-45154376D01*
X75492504Y-45502096D02*
X75320599Y-45674001D01*
X91354908Y-48848029D02*
X91215801Y-48708922D01*
X84898693Y-48848041D02*
X81205028Y-45154376D01*
X118872000Y-47381000D02*
X117404971Y-48848029D01*
X75320599Y-45674001D02*
X75020600Y-45974000D01*
X88195144Y-48848041D02*
X84898693Y-48848041D01*
X117404971Y-48848029D02*
X91354908Y-48848029D01*
X77834060Y-45502096D02*
X75492504Y-45502096D01*
X91215801Y-48708922D02*
X88334263Y-48708922D01*
X78181780Y-45154376D02*
X77834060Y-45502096D01*
X85274809Y-47940021D02*
X81581142Y-44246354D01*
X77457946Y-44594074D02*
X73326666Y-44594074D01*
X113748993Y-47940007D02*
X91874478Y-47940007D01*
X81581142Y-44246354D02*
X77805666Y-44246354D01*
X87819028Y-47940021D02*
X85274809Y-47940021D01*
X88037207Y-47721842D02*
X87819028Y-47940021D01*
X114427000Y-47262000D02*
X113748993Y-47940007D01*
X73326666Y-44594074D02*
X72490684Y-45430056D01*
X91656313Y-47721842D02*
X88037207Y-47721842D01*
X72490684Y-45430056D02*
X72190685Y-45730055D01*
X91874478Y-47940007D02*
X91656313Y-47721842D01*
X77805666Y-44246354D02*
X77457946Y-44594074D01*
X71422094Y-57739275D02*
X71122095Y-58039274D01*
X75726124Y-56227178D02*
X75709527Y-56210581D01*
X71988633Y-57172736D02*
X71422094Y-57739275D01*
X75709527Y-56210581D02*
X73083409Y-56210581D01*
X110785383Y-56981617D02*
X84469953Y-56981617D01*
X72121254Y-57172736D02*
X71988633Y-57172736D01*
X113665000Y-54102000D02*
X110785383Y-56981617D01*
X83715514Y-56227178D02*
X75726124Y-56227178D01*
X73083409Y-56210581D02*
X72121254Y-57172736D01*
X84469953Y-56981617D02*
X83715514Y-56227178D01*
X72537283Y-56114639D02*
X71302798Y-56114639D01*
X70213542Y-57203895D02*
X69913543Y-57503894D01*
X108701956Y-56525044D02*
X84655448Y-56525044D01*
X83903571Y-55773167D02*
X75914181Y-55773167D01*
X84655448Y-56525044D02*
X83903571Y-55773167D01*
X71302798Y-56114639D02*
X70213542Y-57203895D01*
X111125000Y-54102000D02*
X108701956Y-56525044D01*
X75897585Y-55756571D02*
X72895351Y-55756571D01*
X72895351Y-55756571D02*
X72537283Y-56114639D01*
X75914181Y-55773167D02*
X75897585Y-55756571D01*
X111125000Y-47254000D02*
X87605723Y-47254000D01*
X77617609Y-43792343D02*
X77269889Y-44140063D01*
X87605723Y-47254000D02*
X87373711Y-47486012D01*
X87373711Y-47486012D02*
X85542857Y-47486012D01*
X85542857Y-47486012D02*
X81849188Y-43792343D01*
X81849188Y-43792343D02*
X77617609Y-43792343D01*
X77269889Y-44140063D02*
X72290751Y-44140063D01*
X72290751Y-44140063D02*
X70976652Y-45454162D01*
X70976652Y-45454162D02*
X70676653Y-45754161D01*
X133985000Y-53848000D02*
X126111000Y-61722000D01*
X126111000Y-61722000D02*
X80316847Y-61722000D01*
X80316847Y-61722000D02*
X79756000Y-62282847D01*
X79756000Y-62282847D02*
X79756000Y-62738000D01*
X89462603Y-51432988D02*
X89323488Y-51572103D01*
X84414556Y-51572103D02*
X82973231Y-53013426D01*
X89323488Y-51572103D02*
X84414556Y-51572103D01*
X90087463Y-51432988D02*
X89462603Y-51432988D01*
X133985000Y-47254000D02*
X129442462Y-51796538D01*
X90451013Y-51796538D02*
X90087463Y-51432988D01*
X129442462Y-51796538D02*
X90451013Y-51796538D01*
X82973231Y-53013426D02*
X82673232Y-53313425D01*
X84390125Y-52864569D02*
X84224584Y-53030110D01*
X94872418Y-52864569D02*
X84390125Y-52864569D01*
X84224584Y-53030110D02*
X83924585Y-53330109D01*
X95395980Y-52341007D02*
X94872418Y-52864569D01*
X136652000Y-47381000D02*
X131691994Y-52341006D01*
X131691994Y-52341006D02*
X95395980Y-52341007D01*
X136525000Y-53848000D02*
X136100736Y-53848000D01*
X136100736Y-53848000D02*
X127772726Y-62176010D01*
X127772726Y-62176010D02*
X98189135Y-62176010D01*
X98189135Y-62176010D02*
X96484145Y-63881000D01*
X96484145Y-63881000D02*
X80772000Y-63881000D01*
X82212264Y-64516000D02*
X81788000Y-64516000D01*
X96491213Y-64516000D02*
X82212264Y-64516000D01*
X98377192Y-62630021D02*
X96491213Y-64516000D01*
X130282979Y-62630021D02*
X98377192Y-62630021D01*
X139065000Y-53848000D02*
X130282979Y-62630021D01*
X139065000Y-47239580D02*
X133509563Y-52795017D01*
X85633660Y-53553834D02*
X85209396Y-53553834D01*
X85832495Y-53354999D02*
X85633660Y-53553834D01*
X95044016Y-53354999D02*
X85832495Y-53354999D01*
X133509563Y-52795017D02*
X95603998Y-52795017D01*
X95603998Y-52795017D02*
X95044016Y-53354999D01*
X127412526Y-51286474D02*
X90583017Y-51286474D01*
X81699009Y-50591999D02*
X81399010Y-50292000D01*
X89135437Y-51118086D02*
X82225096Y-51118086D01*
X82225096Y-51118086D02*
X81699009Y-50591999D01*
X90275519Y-50978977D02*
X89274546Y-50978977D01*
X89274546Y-50978977D02*
X89135437Y-51118086D01*
X90583017Y-51286474D02*
X90275519Y-50978977D01*
X131445000Y-47254000D02*
X127412526Y-51286474D01*
X79404080Y-59914920D02*
X78740000Y-60579000D01*
X78740000Y-60579000D02*
X78740000Y-62738000D01*
X82887786Y-59914920D02*
X79404080Y-59914920D01*
X120245095Y-61252039D02*
X84224905Y-61252039D01*
X84224905Y-61252039D02*
X82887786Y-59914920D01*
X131445000Y-53848000D02*
X124040963Y-61252037D01*
X124040963Y-61252037D02*
X120245097Y-61252037D01*
X120245097Y-61252037D02*
X120245095Y-61252039D01*
X89086489Y-50524966D02*
X88947375Y-50664080D01*
X83119488Y-49657000D02*
X80128201Y-49657000D01*
X88947375Y-50664080D02*
X84126568Y-50664080D01*
X128905000Y-47254000D02*
X125354602Y-50804398D01*
X90463575Y-50524966D02*
X89086489Y-50524966D01*
X90743009Y-50804398D02*
X90463575Y-50524966D01*
X125354602Y-50804398D02*
X90743009Y-50804398D01*
X84126568Y-50664080D02*
X83119488Y-49657000D01*
X83439000Y-59824066D02*
X83075844Y-59460910D01*
X83075844Y-59460910D02*
X78716054Y-59460910D01*
X78716054Y-59460910D02*
X77724000Y-60452964D01*
X77724000Y-60452964D02*
X77724000Y-62738000D01*
X83439000Y-59824066D02*
X83371967Y-59757033D01*
X120057038Y-60798029D02*
X84412962Y-60798029D01*
X84412962Y-60798029D02*
X83439000Y-59824066D01*
X128905000Y-53848000D02*
X121954972Y-60798028D01*
X121954972Y-60798028D02*
X120057038Y-60798029D01*
X80860264Y-46755708D02*
X79283126Y-46755708D01*
X117040010Y-50238010D02*
X90818687Y-50238010D01*
X79283126Y-46755708D02*
X78858862Y-46755708D01*
X90651630Y-50070955D02*
X88898432Y-50070955D01*
X90818687Y-50238010D02*
X90651630Y-50070955D01*
X88898432Y-50070955D02*
X88759317Y-50210070D01*
X84314626Y-50210070D02*
X80860264Y-46755708D01*
X88759317Y-50210070D02*
X84314626Y-50210070D01*
X119187057Y-50238010D02*
X117040010Y-50238010D01*
X117040010Y-50238010D02*
X117012071Y-50210071D01*
X126365000Y-47254000D02*
X123408931Y-50210069D01*
X123408931Y-50210069D02*
X119214998Y-50210069D01*
X119214998Y-50210069D02*
X119187057Y-50238010D01*
X77000047Y-59220400D02*
X76700048Y-59520399D01*
X84601019Y-60344019D02*
X83263900Y-59006900D01*
X126365000Y-53848000D02*
X119868981Y-60344019D01*
X119868981Y-60344019D02*
X84601019Y-60344019D01*
X77213547Y-59006900D02*
X77000047Y-59220400D01*
X83263900Y-59006900D02*
X77213547Y-59006900D01*
X78012465Y-46674020D02*
X77588201Y-46674020D01*
X121433466Y-49756059D02*
X90978802Y-49756059D01*
X78624087Y-46062398D02*
X78012465Y-46674020D01*
X88710377Y-49616944D02*
X88571260Y-49756061D01*
X123825000Y-47364525D02*
X121433466Y-49756059D01*
X84522577Y-49756061D02*
X80828914Y-46062398D01*
X88571260Y-49756061D02*
X84522577Y-49756061D01*
X80828914Y-46062398D02*
X78624087Y-46062398D01*
X90839687Y-49616944D02*
X88710377Y-49616944D01*
X90978802Y-49756059D02*
X90839687Y-49616944D01*
X123825000Y-53866863D02*
X117801853Y-59890010D01*
X117801853Y-59890010D02*
X84810075Y-59890010D01*
X76519650Y-58284148D02*
X76095386Y-58284148D01*
X84810075Y-59890010D02*
X83204213Y-58284148D01*
X83204213Y-58284148D02*
X76519650Y-58284148D01*
X81016971Y-45608387D02*
X78369837Y-45608387D01*
X119236960Y-49302040D02*
X91166850Y-49302039D01*
X88383202Y-49302051D02*
X84710635Y-49302051D01*
X88522320Y-49162933D02*
X88383202Y-49302051D01*
X121285000Y-47254000D02*
X119236960Y-49302040D01*
X78369837Y-45608387D02*
X78022117Y-45956107D01*
X78022117Y-45956107D02*
X77006368Y-45956107D01*
X91166850Y-49302039D02*
X91027744Y-49162933D01*
X91027744Y-49162933D02*
X88522320Y-49162933D01*
X77006368Y-45956107D02*
X76742465Y-46220010D01*
X76742465Y-46220010D02*
X76318201Y-46220010D01*
X84710635Y-49302051D02*
X81016971Y-45608387D01*
X75400956Y-57657041D02*
X75312376Y-57745621D01*
X115479135Y-59436000D02*
X84998132Y-59436000D01*
X75312376Y-57745621D02*
X74888112Y-57745621D01*
X121285000Y-53630135D02*
X115479135Y-59436000D01*
X83219173Y-57657041D02*
X75400956Y-57657041D01*
X84998132Y-59436000D02*
X83219173Y-57657041D01*
G36*
X149238000Y-79238000D02*
X60762000Y-79238000D01*
X60762000Y-70162167D01*
X122112828Y-70162167D01*
X122254873Y-70505943D01*
X122517663Y-70769192D01*
X122861191Y-70911838D01*
X123233157Y-70912162D01*
X123576933Y-70770117D01*
X123608104Y-70739000D01*
X124413999Y-70739000D01*
X124413838Y-70924167D01*
X124555883Y-71267943D01*
X124818673Y-71531192D01*
X125162201Y-71673838D01*
X125534167Y-71674162D01*
X125553475Y-71666184D01*
X127112956Y-71666184D01*
X127112828Y-71813167D01*
X127254873Y-72156943D01*
X127517663Y-72420192D01*
X127861191Y-72562838D01*
X128233157Y-72563162D01*
X128576933Y-72421117D01*
X128608104Y-72390000D01*
X141748119Y-72390000D01*
X141931248Y-72466042D01*
X142303214Y-72466366D01*
X142646990Y-72324321D01*
X142678161Y-72293204D01*
X145511796Y-72293204D01*
X145803401Y-72235200D01*
X146050611Y-72070019D01*
X147335506Y-70785125D01*
X147378167Y-70785162D01*
X147721943Y-70643117D01*
X147985192Y-70380327D01*
X148127838Y-70036799D01*
X148128162Y-69664833D01*
X147986117Y-69321057D01*
X147723327Y-69057808D01*
X147379799Y-68915162D01*
X147007833Y-68914838D01*
X146664057Y-69056883D01*
X146400808Y-69319673D01*
X146258162Y-69663201D01*
X146258124Y-69707246D01*
X145196166Y-70769204D01*
X143968435Y-70769204D01*
X147000515Y-67737125D01*
X147043176Y-67737162D01*
X147386952Y-67595117D01*
X147650201Y-67332327D01*
X147792847Y-66988799D01*
X147793171Y-66616833D01*
X147651126Y-66273057D01*
X147388336Y-66009808D01*
X147044808Y-65867162D01*
X146672842Y-65866838D01*
X146329066Y-66008883D01*
X146065817Y-66271673D01*
X145923171Y-66615201D01*
X145923133Y-66659245D01*
X145415000Y-67167378D01*
X145415000Y-64314466D01*
X145445192Y-64284327D01*
X145587838Y-63940799D01*
X145588162Y-63568833D01*
X145446117Y-63225057D01*
X145183327Y-62961808D01*
X144839799Y-62819162D01*
X144467833Y-62818838D01*
X144124057Y-62960883D01*
X143860808Y-63223673D01*
X143718162Y-63567201D01*
X143717838Y-63939167D01*
X143859883Y-64282943D01*
X143891000Y-64314114D01*
X143891000Y-67883369D01*
X142559370Y-69215000D01*
X123608456Y-69215000D01*
X123578317Y-69184808D01*
X123234789Y-69042162D01*
X122862823Y-69041838D01*
X122519047Y-69183883D01*
X122255798Y-69446673D01*
X122113152Y-69790201D01*
X122112828Y-70162167D01*
X60762000Y-70162167D01*
X60762000Y-68765167D01*
X63834838Y-68765167D01*
X63976883Y-69108943D01*
X64239673Y-69372192D01*
X64583201Y-69514838D01*
X64627246Y-69514876D01*
X64866185Y-69753816D01*
X65014377Y-69852834D01*
X65113395Y-69918996D01*
X65405000Y-69977000D01*
X70686534Y-69977000D01*
X70716673Y-70007192D01*
X71060201Y-70149838D01*
X71432167Y-70150162D01*
X71775943Y-70008117D01*
X72039192Y-69745327D01*
X72181838Y-69401799D01*
X72182162Y-69029833D01*
X72040117Y-68686057D01*
X71807466Y-68453000D01*
X75122370Y-68453000D01*
X75391875Y-68722505D01*
X75391838Y-68765167D01*
X75533883Y-69108943D01*
X75796673Y-69372192D01*
X76140201Y-69514838D01*
X76512167Y-69515162D01*
X76855943Y-69373117D01*
X77119192Y-69110327D01*
X77261838Y-68766799D01*
X77262162Y-68394833D01*
X77120117Y-68051057D01*
X76857327Y-67787808D01*
X76513799Y-67645162D01*
X76469754Y-67645124D01*
X75976815Y-67152185D01*
X75889144Y-67093605D01*
X75729605Y-66987004D01*
X75438000Y-66929000D01*
X67108466Y-66929000D01*
X67078327Y-66898808D01*
X66734799Y-66756162D01*
X66362833Y-66755838D01*
X66019057Y-66897883D01*
X65755808Y-67160673D01*
X65613162Y-67504201D01*
X65612838Y-67876167D01*
X65754883Y-68219943D01*
X65987534Y-68453000D01*
X65720631Y-68453000D01*
X65705125Y-68437494D01*
X65705162Y-68394833D01*
X65563117Y-68051057D01*
X65300327Y-67787808D01*
X64956799Y-67645162D01*
X64584833Y-67644838D01*
X64241057Y-67786883D01*
X63977808Y-68049673D01*
X63835162Y-68393201D01*
X63834838Y-68765167D01*
X60762000Y-68765167D01*
X60762000Y-60239187D01*
X60773201Y-60243838D01*
X61145167Y-60244162D01*
X61488943Y-60102117D01*
X61571003Y-60020200D01*
X62664213Y-60020200D01*
X62722156Y-60160433D01*
X62984946Y-60423682D01*
X63328474Y-60566328D01*
X63700440Y-60566652D01*
X64044216Y-60424607D01*
X64307465Y-60161817D01*
X64450111Y-59818289D01*
X64450435Y-59446323D01*
X64320229Y-59131200D01*
X64369412Y-59131200D01*
X64469938Y-59231726D01*
X64469838Y-59346167D01*
X64611883Y-59689943D01*
X64874673Y-59953192D01*
X65218201Y-60095838D01*
X65590167Y-60096162D01*
X65933943Y-59954117D01*
X66197192Y-59691327D01*
X66339838Y-59347799D01*
X66340162Y-58975833D01*
X66198117Y-58632057D01*
X66000426Y-58434020D01*
X66088372Y-58222223D01*
X66088410Y-58178178D01*
X66522269Y-57744319D01*
X66652682Y-58059943D01*
X66915472Y-58323192D01*
X67259000Y-58465838D01*
X67630966Y-58466162D01*
X67974742Y-58324117D01*
X68237991Y-58061327D01*
X68380637Y-57717799D01*
X68380675Y-57673754D01*
X69631802Y-56422628D01*
X69917179Y-56422628D01*
X69771038Y-56568769D01*
X69728376Y-56568732D01*
X69384600Y-56710777D01*
X69121351Y-56973567D01*
X68978705Y-57317095D01*
X68978381Y-57689061D01*
X69120426Y-58032837D01*
X69383216Y-58296086D01*
X69726744Y-58438732D01*
X70098710Y-58439056D01*
X70249813Y-58376622D01*
X70328978Y-58568217D01*
X70591768Y-58831466D01*
X70935296Y-58974112D01*
X71307262Y-58974436D01*
X71651038Y-58832391D01*
X71879530Y-58604298D01*
X72193271Y-58734575D01*
X72565237Y-58734899D01*
X72909013Y-58592854D01*
X73014389Y-58487661D01*
X73103764Y-58577192D01*
X73447292Y-58719838D01*
X73819258Y-58720162D01*
X74163034Y-58578117D01*
X74280731Y-58460625D01*
X74357785Y-58537813D01*
X74701313Y-58680459D01*
X75073279Y-58680783D01*
X75222179Y-58619259D01*
X75302269Y-58813091D01*
X75565059Y-59076340D01*
X75826889Y-59185062D01*
X75765210Y-59333600D01*
X75764886Y-59705566D01*
X75906931Y-60049342D01*
X76169721Y-60312591D01*
X76513249Y-60455237D01*
X76885215Y-60455561D01*
X76968313Y-60421226D01*
X76962000Y-60452964D01*
X76962000Y-62177534D01*
X76931808Y-62207673D01*
X76789162Y-62551201D01*
X76788838Y-62923167D01*
X76930883Y-63266943D01*
X77193673Y-63530192D01*
X77537201Y-63672838D01*
X77909167Y-63673162D01*
X78232371Y-63539617D01*
X78553201Y-63672838D01*
X78925167Y-63673162D01*
X79248371Y-63539617D01*
X79569201Y-63672838D01*
X79845933Y-63673079D01*
X79837162Y-63694201D01*
X79836838Y-64066167D01*
X79966924Y-64381001D01*
X70665632Y-64381001D01*
X69388125Y-63103495D01*
X69388162Y-63060833D01*
X69246117Y-62717057D01*
X68983327Y-62453808D01*
X68639799Y-62311162D01*
X68267833Y-62310838D01*
X67924057Y-62452883D01*
X67660808Y-62715673D01*
X67518162Y-63059201D01*
X67517838Y-63431167D01*
X67659883Y-63774943D01*
X67922673Y-64038192D01*
X68266201Y-64180838D01*
X68310246Y-64180876D01*
X69811186Y-65681817D01*
X70058397Y-65846998D01*
X70350001Y-65905001D01*
X96530765Y-65905001D01*
X96822370Y-65846997D01*
X97069580Y-65681816D01*
X98688824Y-64062572D01*
X99000201Y-64191868D01*
X99372167Y-64192192D01*
X99715943Y-64050147D01*
X99979192Y-63787357D01*
X100121838Y-63443829D01*
X100121883Y-63392021D01*
X130282979Y-63392021D01*
X130574584Y-63334017D01*
X130821794Y-63168836D01*
X139207506Y-54783125D01*
X139250167Y-54783162D01*
X139593943Y-54641117D01*
X139857192Y-54378327D01*
X139999838Y-54034799D01*
X140000162Y-53662833D01*
X139858117Y-53319057D01*
X139595327Y-53055808D01*
X139251799Y-52913162D01*
X138879833Y-52912838D01*
X138536057Y-53054883D01*
X138272808Y-53317673D01*
X138130162Y-53661201D01*
X138130124Y-53705245D01*
X129967349Y-61868021D01*
X129158345Y-61868021D01*
X136271306Y-54755061D01*
X136338201Y-54782838D01*
X136710167Y-54783162D01*
X137053943Y-54641117D01*
X137317192Y-54378327D01*
X137459838Y-54034799D01*
X137460162Y-53662833D01*
X137318117Y-53319057D01*
X137055327Y-53055808D01*
X136711799Y-52913162D01*
X136339833Y-52912838D01*
X135996057Y-53054883D01*
X135931080Y-53119747D01*
X135809131Y-53144004D01*
X135730609Y-53196471D01*
X135561921Y-53309184D01*
X134919911Y-53951194D01*
X134920162Y-53662833D01*
X134778117Y-53319057D01*
X134515327Y-53055808D01*
X134381834Y-53000376D01*
X139207506Y-48174705D01*
X139250167Y-48174742D01*
X139593943Y-48032697D01*
X139857192Y-47769907D01*
X139999838Y-47426379D01*
X140000162Y-47054413D01*
X139858117Y-46710637D01*
X139595327Y-46447388D01*
X139251799Y-46304742D01*
X138879833Y-46304418D01*
X138536057Y-46446463D01*
X138272808Y-46709253D01*
X138130162Y-47052781D01*
X138130124Y-47096825D01*
X137535489Y-47691460D01*
X137586838Y-47567799D01*
X137587162Y-47195833D01*
X137445117Y-46852057D01*
X137182327Y-46588808D01*
X136838799Y-46446162D01*
X136466833Y-46445838D01*
X136123057Y-46587883D01*
X135859808Y-46850673D01*
X135717162Y-47194201D01*
X135717124Y-47238245D01*
X131376364Y-51579006D01*
X130737624Y-51579006D01*
X134127505Y-48189125D01*
X134170167Y-48189162D01*
X134513943Y-48047117D01*
X134777192Y-47784327D01*
X134919838Y-47440799D01*
X134920162Y-47068833D01*
X134778117Y-46725057D01*
X134515327Y-46461808D01*
X134171799Y-46319162D01*
X133799833Y-46318838D01*
X133456057Y-46460883D01*
X133192808Y-46723673D01*
X133050162Y-47067201D01*
X133050124Y-47111246D01*
X129126832Y-51034538D01*
X128742092Y-51034538D01*
X131587506Y-48189125D01*
X131630167Y-48189162D01*
X131973943Y-48047117D01*
X132237192Y-47784327D01*
X132379838Y-47440799D01*
X132380162Y-47068833D01*
X132238117Y-46725057D01*
X131975327Y-46461808D01*
X131631799Y-46319162D01*
X131259833Y-46318838D01*
X130916057Y-46460883D01*
X130652808Y-46723673D01*
X130510162Y-47067201D01*
X130510124Y-47111245D01*
X127096896Y-50524474D01*
X126712156Y-50524474D01*
X129047505Y-48189125D01*
X129090167Y-48189162D01*
X129433943Y-48047117D01*
X129697192Y-47784327D01*
X129839838Y-47440799D01*
X129840162Y-47068833D01*
X129698117Y-46725057D01*
X129435327Y-46461808D01*
X129091799Y-46319162D01*
X128719833Y-46318838D01*
X128376057Y-46460883D01*
X128112808Y-46723673D01*
X127970162Y-47067201D01*
X127970124Y-47111246D01*
X125038972Y-50042398D01*
X124654232Y-50042398D01*
X126507505Y-48189125D01*
X126550167Y-48189162D01*
X126893943Y-48047117D01*
X127157192Y-47784327D01*
X127299838Y-47440799D01*
X127300162Y-47068833D01*
X127158117Y-46725057D01*
X126895327Y-46461808D01*
X126551799Y-46319162D01*
X126179833Y-46318838D01*
X125836057Y-46460883D01*
X125572808Y-46723673D01*
X125430162Y-47067201D01*
X125430124Y-47111246D01*
X123093301Y-49448069D01*
X122819086Y-49448069D01*
X123967505Y-48299650D01*
X124010167Y-48299687D01*
X124353943Y-48157642D01*
X124617192Y-47894852D01*
X124759838Y-47551324D01*
X124760162Y-47179358D01*
X124618117Y-46835582D01*
X124355327Y-46572333D01*
X124011799Y-46429687D01*
X123639833Y-46429363D01*
X123296057Y-46571408D01*
X123032808Y-46834198D01*
X122890162Y-47177726D01*
X122890124Y-47221771D01*
X121117836Y-48994059D01*
X120622571Y-48994059D01*
X121427505Y-48189125D01*
X121470167Y-48189162D01*
X121813943Y-48047117D01*
X122077192Y-47784327D01*
X122219838Y-47440799D01*
X122220162Y-47068833D01*
X122078117Y-46725057D01*
X121815327Y-46461808D01*
X121471799Y-46319162D01*
X121099833Y-46318838D01*
X120756057Y-46460883D01*
X120492808Y-46723673D01*
X120350162Y-47067201D01*
X120350124Y-47111246D01*
X119745249Y-47716121D01*
X119806838Y-47567799D01*
X119807162Y-47195833D01*
X119665117Y-46852057D01*
X119402327Y-46588808D01*
X119058799Y-46446162D01*
X118686833Y-46445838D01*
X118343057Y-46587883D01*
X118079808Y-46850673D01*
X117937162Y-47194201D01*
X117937124Y-47238246D01*
X117089341Y-48086029D01*
X116639769Y-48086029D01*
X116733943Y-48047117D01*
X116997192Y-47784327D01*
X117139838Y-47440799D01*
X117140162Y-47068833D01*
X116998117Y-46725057D01*
X116735327Y-46461808D01*
X116391799Y-46319162D01*
X116019833Y-46318838D01*
X115676057Y-46460883D01*
X115412808Y-46723673D01*
X115314281Y-46960952D01*
X115220117Y-46733057D01*
X114957327Y-46469808D01*
X114613799Y-46327162D01*
X114241833Y-46326838D01*
X113898057Y-46468883D01*
X113634808Y-46731673D01*
X113492162Y-47075201D01*
X113492124Y-47119246D01*
X113433363Y-47178007D01*
X112060067Y-47178007D01*
X112060162Y-47068833D01*
X111918117Y-46725057D01*
X111655327Y-46461808D01*
X111311799Y-46319162D01*
X110939833Y-46318838D01*
X110596057Y-46460883D01*
X110564886Y-46492000D01*
X104445630Y-46492000D01*
X105171505Y-45766125D01*
X105214167Y-45766162D01*
X105557943Y-45624117D01*
X105821192Y-45361327D01*
X105963838Y-45017799D01*
X105964132Y-44680001D01*
X143144999Y-44680001D01*
X143579345Y-44593604D01*
X143947565Y-44347567D01*
X144947566Y-43347566D01*
X145193603Y-42979345D01*
X145236836Y-42762000D01*
X149238000Y-42762000D01*
X149238000Y-79238000D01*
X149238000Y-79238000D01*
G37*
X149238000Y-79238000D02*
X60762000Y-79238000D01*
X60762000Y-70162167D01*
X122112828Y-70162167D01*
X122254873Y-70505943D01*
X122517663Y-70769192D01*
X122861191Y-70911838D01*
X123233157Y-70912162D01*
X123576933Y-70770117D01*
X123608104Y-70739000D01*
X124413999Y-70739000D01*
X124413838Y-70924167D01*
X124555883Y-71267943D01*
X124818673Y-71531192D01*
X125162201Y-71673838D01*
X125534167Y-71674162D01*
X125553475Y-71666184D01*
X127112956Y-71666184D01*
X127112828Y-71813167D01*
X127254873Y-72156943D01*
X127517663Y-72420192D01*
X127861191Y-72562838D01*
X128233157Y-72563162D01*
X128576933Y-72421117D01*
X128608104Y-72390000D01*
X141748119Y-72390000D01*
X141931248Y-72466042D01*
X142303214Y-72466366D01*
X142646990Y-72324321D01*
X142678161Y-72293204D01*
X145511796Y-72293204D01*
X145803401Y-72235200D01*
X146050611Y-72070019D01*
X147335506Y-70785125D01*
X147378167Y-70785162D01*
X147721943Y-70643117D01*
X147985192Y-70380327D01*
X148127838Y-70036799D01*
X148128162Y-69664833D01*
X147986117Y-69321057D01*
X147723327Y-69057808D01*
X147379799Y-68915162D01*
X147007833Y-68914838D01*
X146664057Y-69056883D01*
X146400808Y-69319673D01*
X146258162Y-69663201D01*
X146258124Y-69707246D01*
X145196166Y-70769204D01*
X143968435Y-70769204D01*
X147000515Y-67737125D01*
X147043176Y-67737162D01*
X147386952Y-67595117D01*
X147650201Y-67332327D01*
X147792847Y-66988799D01*
X147793171Y-66616833D01*
X147651126Y-66273057D01*
X147388336Y-66009808D01*
X147044808Y-65867162D01*
X146672842Y-65866838D01*
X146329066Y-66008883D01*
X146065817Y-66271673D01*
X145923171Y-66615201D01*
X145923133Y-66659245D01*
X145415000Y-67167378D01*
X145415000Y-64314466D01*
X145445192Y-64284327D01*
X145587838Y-63940799D01*
X145588162Y-63568833D01*
X145446117Y-63225057D01*
X145183327Y-62961808D01*
X144839799Y-62819162D01*
X144467833Y-62818838D01*
X144124057Y-62960883D01*
X143860808Y-63223673D01*
X143718162Y-63567201D01*
X143717838Y-63939167D01*
X143859883Y-64282943D01*
X143891000Y-64314114D01*
X143891000Y-67883369D01*
X142559370Y-69215000D01*
X123608456Y-69215000D01*
X123578317Y-69184808D01*
X123234789Y-69042162D01*
X122862823Y-69041838D01*
X122519047Y-69183883D01*
X122255798Y-69446673D01*
X122113152Y-69790201D01*
X122112828Y-70162167D01*
X60762000Y-70162167D01*
X60762000Y-68765167D01*
X63834838Y-68765167D01*
X63976883Y-69108943D01*
X64239673Y-69372192D01*
X64583201Y-69514838D01*
X64627246Y-69514876D01*
X64866185Y-69753816D01*
X65014377Y-69852834D01*
X65113395Y-69918996D01*
X65405000Y-69977000D01*
X70686534Y-69977000D01*
X70716673Y-70007192D01*
X71060201Y-70149838D01*
X71432167Y-70150162D01*
X71775943Y-70008117D01*
X72039192Y-69745327D01*
X72181838Y-69401799D01*
X72182162Y-69029833D01*
X72040117Y-68686057D01*
X71807466Y-68453000D01*
X75122370Y-68453000D01*
X75391875Y-68722505D01*
X75391838Y-68765167D01*
X75533883Y-69108943D01*
X75796673Y-69372192D01*
X76140201Y-69514838D01*
X76512167Y-69515162D01*
X76855943Y-69373117D01*
X77119192Y-69110327D01*
X77261838Y-68766799D01*
X77262162Y-68394833D01*
X77120117Y-68051057D01*
X76857327Y-67787808D01*
X76513799Y-67645162D01*
X76469754Y-67645124D01*
X75976815Y-67152185D01*
X75889144Y-67093605D01*
X75729605Y-66987004D01*
X75438000Y-66929000D01*
X67108466Y-66929000D01*
X67078327Y-66898808D01*
X66734799Y-66756162D01*
X66362833Y-66755838D01*
X66019057Y-66897883D01*
X65755808Y-67160673D01*
X65613162Y-67504201D01*
X65612838Y-67876167D01*
X65754883Y-68219943D01*
X65987534Y-68453000D01*
X65720631Y-68453000D01*
X65705125Y-68437494D01*
X65705162Y-68394833D01*
X65563117Y-68051057D01*
X65300327Y-67787808D01*
X64956799Y-67645162D01*
X64584833Y-67644838D01*
X64241057Y-67786883D01*
X63977808Y-68049673D01*
X63835162Y-68393201D01*
X63834838Y-68765167D01*
X60762000Y-68765167D01*
X60762000Y-60239187D01*
X60773201Y-60243838D01*
X61145167Y-60244162D01*
X61488943Y-60102117D01*
X61571003Y-60020200D01*
X62664213Y-60020200D01*
X62722156Y-60160433D01*
X62984946Y-60423682D01*
X63328474Y-60566328D01*
X63700440Y-60566652D01*
X64044216Y-60424607D01*
X64307465Y-60161817D01*
X64450111Y-59818289D01*
X64450435Y-59446323D01*
X64320229Y-59131200D01*
X64369412Y-59131200D01*
X64469938Y-59231726D01*
X64469838Y-59346167D01*
X64611883Y-59689943D01*
X64874673Y-59953192D01*
X65218201Y-60095838D01*
X65590167Y-60096162D01*
X65933943Y-59954117D01*
X66197192Y-59691327D01*
X66339838Y-59347799D01*
X66340162Y-58975833D01*
X66198117Y-58632057D01*
X66000426Y-58434020D01*
X66088372Y-58222223D01*
X66088410Y-58178178D01*
X66522269Y-57744319D01*
X66652682Y-58059943D01*
X66915472Y-58323192D01*
X67259000Y-58465838D01*
X67630966Y-58466162D01*
X67974742Y-58324117D01*
X68237991Y-58061327D01*
X68380637Y-57717799D01*
X68380675Y-57673754D01*
X69631802Y-56422628D01*
X69917179Y-56422628D01*
X69771038Y-56568769D01*
X69728376Y-56568732D01*
X69384600Y-56710777D01*
X69121351Y-56973567D01*
X68978705Y-57317095D01*
X68978381Y-57689061D01*
X69120426Y-58032837D01*
X69383216Y-58296086D01*
X69726744Y-58438732D01*
X70098710Y-58439056D01*
X70249813Y-58376622D01*
X70328978Y-58568217D01*
X70591768Y-58831466D01*
X70935296Y-58974112D01*
X71307262Y-58974436D01*
X71651038Y-58832391D01*
X71879530Y-58604298D01*
X72193271Y-58734575D01*
X72565237Y-58734899D01*
X72909013Y-58592854D01*
X73014389Y-58487661D01*
X73103764Y-58577192D01*
X73447292Y-58719838D01*
X73819258Y-58720162D01*
X74163034Y-58578117D01*
X74280731Y-58460625D01*
X74357785Y-58537813D01*
X74701313Y-58680459D01*
X75073279Y-58680783D01*
X75222179Y-58619259D01*
X75302269Y-58813091D01*
X75565059Y-59076340D01*
X75826889Y-59185062D01*
X75765210Y-59333600D01*
X75764886Y-59705566D01*
X75906931Y-60049342D01*
X76169721Y-60312591D01*
X76513249Y-60455237D01*
X76885215Y-60455561D01*
X76968313Y-60421226D01*
X76962000Y-60452964D01*
X76962000Y-62177534D01*
X76931808Y-62207673D01*
X76789162Y-62551201D01*
X76788838Y-62923167D01*
X76930883Y-63266943D01*
X77193673Y-63530192D01*
X77537201Y-63672838D01*
X77909167Y-63673162D01*
X78232371Y-63539617D01*
X78553201Y-63672838D01*
X78925167Y-63673162D01*
X79248371Y-63539617D01*
X79569201Y-63672838D01*
X79845933Y-63673079D01*
X79837162Y-63694201D01*
X79836838Y-64066167D01*
X79966924Y-64381001D01*
X70665632Y-64381001D01*
X69388125Y-63103495D01*
X69388162Y-63060833D01*
X69246117Y-62717057D01*
X68983327Y-62453808D01*
X68639799Y-62311162D01*
X68267833Y-62310838D01*
X67924057Y-62452883D01*
X67660808Y-62715673D01*
X67518162Y-63059201D01*
X67517838Y-63431167D01*
X67659883Y-63774943D01*
X67922673Y-64038192D01*
X68266201Y-64180838D01*
X68310246Y-64180876D01*
X69811186Y-65681817D01*
X70058397Y-65846998D01*
X70350001Y-65905001D01*
X96530765Y-65905001D01*
X96822370Y-65846997D01*
X97069580Y-65681816D01*
X98688824Y-64062572D01*
X99000201Y-64191868D01*
X99372167Y-64192192D01*
X99715943Y-64050147D01*
X99979192Y-63787357D01*
X100121838Y-63443829D01*
X100121883Y-63392021D01*
X130282979Y-63392021D01*
X130574584Y-63334017D01*
X130821794Y-63168836D01*
X139207506Y-54783125D01*
X139250167Y-54783162D01*
X139593943Y-54641117D01*
X139857192Y-54378327D01*
X139999838Y-54034799D01*
X140000162Y-53662833D01*
X139858117Y-53319057D01*
X139595327Y-53055808D01*
X139251799Y-52913162D01*
X138879833Y-52912838D01*
X138536057Y-53054883D01*
X138272808Y-53317673D01*
X138130162Y-53661201D01*
X138130124Y-53705245D01*
X129967349Y-61868021D01*
X129158345Y-61868021D01*
X136271306Y-54755061D01*
X136338201Y-54782838D01*
X136710167Y-54783162D01*
X137053943Y-54641117D01*
X137317192Y-54378327D01*
X137459838Y-54034799D01*
X137460162Y-53662833D01*
X137318117Y-53319057D01*
X137055327Y-53055808D01*
X136711799Y-52913162D01*
X136339833Y-52912838D01*
X135996057Y-53054883D01*
X135931080Y-53119747D01*
X135809131Y-53144004D01*
X135730609Y-53196471D01*
X135561921Y-53309184D01*
X134919911Y-53951194D01*
X134920162Y-53662833D01*
X134778117Y-53319057D01*
X134515327Y-53055808D01*
X134381834Y-53000376D01*
X139207506Y-48174705D01*
X139250167Y-48174742D01*
X139593943Y-48032697D01*
X139857192Y-47769907D01*
X139999838Y-47426379D01*
X140000162Y-47054413D01*
X139858117Y-46710637D01*
X139595327Y-46447388D01*
X139251799Y-46304742D01*
X138879833Y-46304418D01*
X138536057Y-46446463D01*
X138272808Y-46709253D01*
X138130162Y-47052781D01*
X138130124Y-47096825D01*
X137535489Y-47691460D01*
X137586838Y-47567799D01*
X137587162Y-47195833D01*
X137445117Y-46852057D01*
X137182327Y-46588808D01*
X136838799Y-46446162D01*
X136466833Y-46445838D01*
X136123057Y-46587883D01*
X135859808Y-46850673D01*
X135717162Y-47194201D01*
X135717124Y-47238245D01*
X131376364Y-51579006D01*
X130737624Y-51579006D01*
X134127505Y-48189125D01*
X134170167Y-48189162D01*
X134513943Y-48047117D01*
X134777192Y-47784327D01*
X134919838Y-47440799D01*
X134920162Y-47068833D01*
X134778117Y-46725057D01*
X134515327Y-46461808D01*
X134171799Y-46319162D01*
X133799833Y-46318838D01*
X133456057Y-46460883D01*
X133192808Y-46723673D01*
X133050162Y-47067201D01*
X133050124Y-47111246D01*
X129126832Y-51034538D01*
X128742092Y-51034538D01*
X131587506Y-48189125D01*
X131630167Y-48189162D01*
X131973943Y-48047117D01*
X132237192Y-47784327D01*
X132379838Y-47440799D01*
X132380162Y-47068833D01*
X132238117Y-46725057D01*
X131975327Y-46461808D01*
X131631799Y-46319162D01*
X131259833Y-46318838D01*
X130916057Y-46460883D01*
X130652808Y-46723673D01*
X130510162Y-47067201D01*
X130510124Y-47111245D01*
X127096896Y-50524474D01*
X126712156Y-50524474D01*
X129047505Y-48189125D01*
X129090167Y-48189162D01*
X129433943Y-48047117D01*
X129697192Y-47784327D01*
X129839838Y-47440799D01*
X129840162Y-47068833D01*
X129698117Y-46725057D01*
X129435327Y-46461808D01*
X129091799Y-46319162D01*
X128719833Y-46318838D01*
X128376057Y-46460883D01*
X128112808Y-46723673D01*
X127970162Y-47067201D01*
X127970124Y-47111246D01*
X125038972Y-50042398D01*
X124654232Y-50042398D01*
X126507505Y-48189125D01*
X126550167Y-48189162D01*
X126893943Y-48047117D01*
X127157192Y-47784327D01*
X127299838Y-47440799D01*
X127300162Y-47068833D01*
X127158117Y-46725057D01*
X126895327Y-46461808D01*
X126551799Y-46319162D01*
X126179833Y-46318838D01*
X125836057Y-46460883D01*
X125572808Y-46723673D01*
X125430162Y-47067201D01*
X125430124Y-47111246D01*
X123093301Y-49448069D01*
X122819086Y-49448069D01*
X123967505Y-48299650D01*
X124010167Y-48299687D01*
X124353943Y-48157642D01*
X124617192Y-47894852D01*
X124759838Y-47551324D01*
X124760162Y-47179358D01*
X124618117Y-46835582D01*
X124355327Y-46572333D01*
X124011799Y-46429687D01*
X123639833Y-46429363D01*
X123296057Y-46571408D01*
X123032808Y-46834198D01*
X122890162Y-47177726D01*
X122890124Y-47221771D01*
X121117836Y-48994059D01*
X120622571Y-48994059D01*
X121427505Y-48189125D01*
X121470167Y-48189162D01*
X121813943Y-48047117D01*
X122077192Y-47784327D01*
X122219838Y-47440799D01*
X122220162Y-47068833D01*
X122078117Y-46725057D01*
X121815327Y-46461808D01*
X121471799Y-46319162D01*
X121099833Y-46318838D01*
X120756057Y-46460883D01*
X120492808Y-46723673D01*
X120350162Y-47067201D01*
X120350124Y-47111246D01*
X119745249Y-47716121D01*
X119806838Y-47567799D01*
X119807162Y-47195833D01*
X119665117Y-46852057D01*
X119402327Y-46588808D01*
X119058799Y-46446162D01*
X118686833Y-46445838D01*
X118343057Y-46587883D01*
X118079808Y-46850673D01*
X117937162Y-47194201D01*
X117937124Y-47238246D01*
X117089341Y-48086029D01*
X116639769Y-48086029D01*
X116733943Y-48047117D01*
X116997192Y-47784327D01*
X117139838Y-47440799D01*
X117140162Y-47068833D01*
X116998117Y-46725057D01*
X116735327Y-46461808D01*
X116391799Y-46319162D01*
X116019833Y-46318838D01*
X115676057Y-46460883D01*
X115412808Y-46723673D01*
X115314281Y-46960952D01*
X115220117Y-46733057D01*
X114957327Y-46469808D01*
X114613799Y-46327162D01*
X114241833Y-46326838D01*
X113898057Y-46468883D01*
X113634808Y-46731673D01*
X113492162Y-47075201D01*
X113492124Y-47119246D01*
X113433363Y-47178007D01*
X112060067Y-47178007D01*
X112060162Y-47068833D01*
X111918117Y-46725057D01*
X111655327Y-46461808D01*
X111311799Y-46319162D01*
X110939833Y-46318838D01*
X110596057Y-46460883D01*
X110564886Y-46492000D01*
X104445630Y-46492000D01*
X105171505Y-45766125D01*
X105214167Y-45766162D01*
X105557943Y-45624117D01*
X105821192Y-45361327D01*
X105963838Y-45017799D01*
X105964132Y-44680001D01*
X143144999Y-44680001D01*
X143579345Y-44593604D01*
X143947565Y-44347567D01*
X144947566Y-43347566D01*
X145193603Y-42979345D01*
X145236836Y-42762000D01*
X149238000Y-42762000D01*
X149238000Y-79238000D01*
G36*
X96168515Y-63119000D02*
X81332466Y-63119000D01*
X81302327Y-63088808D01*
X80958799Y-62946162D01*
X80682067Y-62945921D01*
X80690838Y-62924799D01*
X80691162Y-62552833D01*
X80662721Y-62484000D01*
X96803515Y-62484000D01*
X96168515Y-63119000D01*
X96168515Y-63119000D01*
G37*
X96168515Y-63119000D02*
X81332466Y-63119000D01*
X81302327Y-63088808D01*
X80958799Y-62946162D01*
X80682067Y-62945921D01*
X80690838Y-62924799D01*
X80691162Y-62552833D01*
X80662721Y-62484000D01*
X96803515Y-62484000D01*
X96168515Y-63119000D01*
M02*
